<svg width="84" height="76" viewBox="0 0 84 76" fill="none" xmlns="http://www.w3.org/2000/svg">
<g filter="url(#filter0_d_2436_9871)">
<circle cx="41.8188" cy="29.7751" r="29.7751" fill="white"/>
<circle cx="41.8188" cy="29.7751" r="29.2874" stroke="black" stroke-opacity="0.1" stroke-width="0.975392"/>
<mask id="mask0_2436_9871" style="mask-type:alpha" maskUnits="userSpaceOnUse" x="22" y="12" width="37" height="37">
<rect x="22.761" y="12.574" width="35.7301" height="35.7301" fill="#D9D9D9"/>
</mask>
<g mask="url(#mask0_2436_9871)">
<path d="M48.445 37.5105C47.9106 37.5105 47.5022 37.2848 47.2197 36.8334C46.9372 36.3821 46.9172 35.9169 47.1596 35.4378L48.9862 31.5555H44.7202C44.1114 31.5555 43.587 31.3355 43.1471 30.8956C42.7071 30.4557 42.4872 29.9313 42.4872 29.3224V24.1117C42.4872 23.5029 42.7071 22.9785 43.1471 22.5386C43.587 22.0986 44.1114 21.8787 44.7202 21.8787H49.931C50.5398 21.8787 51.0642 22.0986 51.5041 22.5386C51.9441 22.9785 52.164 23.5029 52.164 24.1117V30.9342C52.164 31.1289 52.1454 31.3274 52.1082 31.5297C52.071 31.7321 52.0046 31.9229 51.9092 32.1023L49.7305 36.7089C49.6045 36.9608 49.428 37.1574 49.2008 37.2987C48.9737 37.4399 48.7218 37.5105 48.445 37.5105ZM35.0462 37.5105C34.5118 37.5105 34.1034 37.2848 33.8209 36.8334C33.5384 36.3821 33.5184 35.9169 33.7608 35.4378L35.5874 31.5555H31.3214C30.7126 31.5555 30.1882 31.3355 29.7483 30.8956C29.3083 30.4557 29.0884 29.9313 29.0884 29.3224V24.1117C29.0884 23.5029 29.3083 22.9785 29.7483 22.5386C30.1882 22.0986 30.7126 21.8787 31.3214 21.8787H36.5322C37.141 21.8787 37.6654 22.0986 38.1053 22.5386C38.5453 22.9785 38.7652 23.5029 38.7652 24.1117V30.9342C38.7652 31.1289 38.7466 31.3274 38.7094 31.5297C38.6722 31.7321 38.6058 31.9229 38.5104 32.1023L36.3317 36.7089C36.2057 36.9608 36.0292 37.1574 35.802 37.2987C35.5749 37.4399 35.323 37.5105 35.0462 37.5105Z" fill="#3B0C2A"/>
</g>
</g>
<defs>
<filter id="filter0_d_2436_9871" x="0.339002" y="-7.80313" width="82.9597" height="82.9597" filterUnits="userSpaceOnUse" color-interpolation-filters="sRGB">
<feFlood flood-opacity="0" result="BackgroundImageFix"/>
<feColorMatrix in="SourceAlpha" type="matrix" values="0 0 0 0 0 0 0 0 0 0 0 0 0 0 0 0 0 0 127 0" result="hardAlpha"/>
<feOffset dy="3.90157"/>
<feGaussianBlur stdDeviation="5.85235"/>
<feComposite in2="hardAlpha" operator="out"/>
<feColorMatrix type="matrix" values="0 0 0 0 0 0 0 0 0 0 0 0 0 0 0 0 0 0 0.05 0"/>
<feBlend mode="normal" in2="BackgroundImageFix" result="effect1_dropShadow_2436_9871"/>
<feBlend mode="normal" in="SourceGraphic" in2="effect1_dropShadow_2436_9871" result="shape"/>
</filter>
</defs>
</svg>
