<svg width="84" height="80" viewBox="0 0 84 80" fill="none" xmlns="http://www.w3.org/2000/svg">
<g filter="url(#filter0_d_2436_9866)">
<circle cx="42.1809" cy="33.6767" r="29.7751" fill="white"/>
<circle cx="42.1809" cy="33.6767" r="29.2874" stroke="black" stroke-opacity="0.1" stroke-width="0.975392"/>
<mask id="mask0_2436_9866" style="mask-type:alpha" maskUnits="userSpaceOnUse" x="23" y="17" width="37" height="37">
<rect width="35.7286" height="35.7286" transform="matrix(-1 0 0 1 59.2241 17.4509)" fill="#D9D9D9"/>
</mask>
<g mask="url(#mask0_2436_9866)">
<path d="M33.5419 42.3863C34.0763 42.3863 34.4847 42.1606 34.7672 41.7093C35.0496 41.2579 35.0696 40.7927 34.8273 40.3137L33.0007 36.4315H37.2665C37.8753 36.4315 38.3997 36.2116 38.8396 35.7717C39.2795 35.3318 39.4995 34.8074 39.4995 34.1986V28.9881C39.4995 28.3793 39.2795 27.8549 38.8396 27.415C38.3997 26.9751 37.8753 26.7551 37.2665 26.7551H32.056C31.4472 26.7551 30.9228 26.9751 30.4829 27.415C30.043 27.8549 29.8231 28.3793 29.8231 28.9881V35.8103C29.8231 36.005 29.8417 36.2035 29.8789 36.4058C29.9161 36.6081 29.9824 36.799 30.0778 36.9783L32.2565 41.5847C32.3824 41.8367 32.559 42.0332 32.7861 42.1745C33.0132 42.3157 33.2651 42.3863 33.5419 42.3863ZM46.9401 42.3863C47.4745 42.3863 47.8829 42.1606 48.1654 41.7093C48.4478 41.2579 48.4679 40.7927 48.2255 40.3137L46.399 36.4315H50.6647C51.2736 36.4315 51.7979 36.2116 52.2378 35.7717C52.6778 35.3318 52.8977 34.8074 52.8977 34.1986V28.9881C52.8977 28.3793 52.6778 27.8549 52.2378 27.415C51.7979 26.9751 51.2736 26.7551 50.6647 26.7551H45.4542C44.8454 26.7551 44.3211 26.9751 43.8811 27.415C43.4412 27.8549 43.2213 28.3793 43.2213 28.9881V35.8103C43.2213 36.005 43.2399 36.2035 43.2771 36.4058C43.3143 36.6081 43.3806 36.799 43.4761 36.9783L45.6547 41.5847C45.7807 41.8367 45.9572 42.0332 46.1843 42.1745C46.4114 42.3157 46.6634 42.3863 46.9401 42.3863Z" fill="#3B0C2A"/>
</g>
</g>
<defs>
<filter id="filter0_d_2436_9866" x="0.701062" y="-3.90152" width="82.9597" height="82.9597" filterUnits="userSpaceOnUse" color-interpolation-filters="sRGB">
<feFlood flood-opacity="0" result="BackgroundImageFix"/>
<feColorMatrix in="SourceAlpha" type="matrix" values="0 0 0 0 0 0 0 0 0 0 0 0 0 0 0 0 0 0 127 0" result="hardAlpha"/>
<feOffset dy="3.90157"/>
<feGaussianBlur stdDeviation="5.85235"/>
<feComposite in2="hardAlpha" operator="out"/>
<feColorMatrix type="matrix" values="0 0 0 0 0 0 0 0 0 0 0 0 0 0 0 0 0 0 0.05 0"/>
<feBlend mode="normal" in2="BackgroundImageFix" result="effect1_dropShadow_2436_9866"/>
<feBlend mode="normal" in="SourceGraphic" in2="effect1_dropShadow_2436_9866" result="shape"/>
</filter>
</defs>
</svg>
