<svg width="673" height="111" viewBox="0 0 673 111" fill="none" xmlns="http://www.w3.org/2000/svg">
<g opacity="0.05">
<mask id="path-1-outside-1_491_8819" maskUnits="userSpaceOnUse" x="-140" y="-1" width="814" height="113" fill="black">
<rect fill="white" x="-140" y="-1" width="814" height="113"/>
<path d="M-80.9638 26.2765C-82.9467 23.5382 -85.6377 21.3193 -89.037 19.6196C-92.4362 17.8256 -96.2604 16.9286 -100.509 16.9286C-102.776 16.9286 -105.089 17.2591 -107.45 17.92C-109.716 18.4866 -111.793 19.478 -113.682 20.8944C-115.57 22.2163 -117.128 23.9159 -118.355 25.9932C-119.489 27.9761 -120.055 30.3839 -120.055 33.2166C-120.055 35.9549 -119.536 38.2683 -118.497 40.1567C-117.364 41.9508 -115.9 43.5088 -114.106 44.8307C-112.218 46.0582 -110.046 47.1441 -107.591 48.0883C-105.042 48.9381 -102.351 49.8351 -99.518 50.7794C-96.1187 51.818 -92.6723 52.9983 -89.1786 54.3203C-85.685 55.6422 -82.5218 57.389 -79.6891 59.5608C-76.8564 61.7325 -74.543 64.4708 -72.7489 67.7756C-70.9549 70.986 -70.0579 75.0934 -70.0579 80.0979C-70.0579 85.2912 -71.0493 89.8235 -73.0322 93.6948C-74.9207 97.4718 -77.4701 100.635 -80.6805 103.184C-83.8909 105.639 -87.6206 107.481 -91.8697 108.708C-96.0243 109.936 -100.321 110.549 -104.758 110.549C-111.085 110.549 -117.222 109.322 -123.171 106.867C-129.025 104.412 -133.888 100.777 -137.759 95.961L-126.854 86.7547C-124.493 90.2484 -121.33 93.0811 -117.364 95.2528C-113.398 97.4246 -109.102 98.5104 -104.475 98.5104C-102.115 98.5104 -99.7541 98.18 -97.3935 97.519C-95.0329 96.858 -92.9084 95.8194 -91.0199 94.403C-89.037 92.9867 -87.4318 91.2398 -86.2043 89.1625C-84.9768 86.9908 -84.363 84.3941 -84.363 81.3726C-84.363 78.351 -85.024 75.8488 -86.3459 73.8659C-87.5734 71.7886 -89.273 70.0418 -91.4448 68.6254C-93.6165 67.2091 -96.166 66.0288 -99.0931 65.0845C-101.926 64.0459 -104.947 63.0072 -108.158 61.9686C-111.368 61.0243 -114.531 59.8912 -117.647 58.5693C-120.763 57.153 -123.549 55.4061 -126.004 53.3288C-128.459 51.1571 -130.442 48.5132 -131.952 45.3972C-133.463 42.2813 -134.219 38.4099 -134.219 33.7832C-134.219 28.7787 -133.227 24.4824 -131.244 20.8944C-129.167 17.3063 -126.523 14.3319 -123.313 11.9713C-120.008 9.61075 -116.325 7.91113 -112.265 6.87247C-108.111 5.73939 -103.956 5.17285 -99.8013 5.17285C-93.947 5.17285 -88.4704 6.2115 -83.3716 8.28882C-78.2727 10.3661 -74.1653 13.1516 -71.0493 16.6453L-80.9638 26.2765ZM-18.8601 51.7708H-36.7061V86.7547C-36.7061 90.8149 -35.9507 93.7421 -34.4399 95.5361C-32.9292 97.2357 -30.5214 98.0855 -27.2165 98.0855C-25.989 98.0855 -24.6671 97.9439 -23.2508 97.6606C-21.8344 97.3774 -20.5597 96.9525 -19.4266 96.3859L-19.0017 107.292C-20.6069 107.858 -22.4009 108.283 -24.3838 108.567C-26.2723 108.944 -28.2552 109.133 -30.3325 109.133C-36.6589 109.133 -41.5217 107.386 -44.9209 103.893C-48.2258 100.399 -49.8782 95.1584 -49.8782 88.1711V51.7708H-62.767V40.8649H-49.8782V21.6025H-36.7061V40.8649H-18.8601V51.7708ZM62.8778 74.2908C62.8778 79.4841 61.9336 84.2525 60.0451 88.596C58.2511 92.9395 55.7016 96.7164 52.3968 99.9268C49.1864 103.043 45.3623 105.498 40.9244 107.292C36.4865 108.991 31.7181 109.841 26.6192 109.841C21.5203 109.841 16.752 108.991 12.3141 107.292C7.87615 105.498 4.052 103.043 0.8416 99.9268C-2.3688 96.7164 -4.91823 92.9395 -6.8067 88.596C-8.60075 84.2525 -9.49777 79.4841 -9.49777 74.2908C-9.49777 69.0975 -8.60075 64.3764 -6.8067 60.1273C-4.91823 55.7838 -2.3688 52.0541 0.8416 48.9381C4.052 45.8221 7.87615 43.4143 12.3141 41.7147C16.752 39.9207 21.5203 39.0237 26.6192 39.0237C31.7181 39.0237 36.4865 39.9207 40.9244 41.7147C45.3623 43.4143 49.1864 45.8221 52.3968 48.9381C55.7016 52.0541 58.2511 55.7838 60.0451 60.1273C61.9336 64.3764 62.8778 69.0975 62.8778 74.2908ZM48.9976 74.2908C48.9976 71.0804 48.4782 68.0117 47.4396 65.0845C46.4953 62.1574 45.079 59.608 43.1905 57.4362C41.3021 55.1701 38.9415 53.376 36.1088 52.0541C33.3705 50.7322 30.2073 50.0712 26.6192 50.0712C23.0311 50.0712 19.8207 50.7322 16.988 52.0541C14.2497 53.376 11.9364 55.1701 10.0479 57.4362C8.15942 59.608 6.69586 62.1574 5.6572 65.0845C4.71296 68.0117 4.24084 71.0804 4.24084 74.2908C4.24084 77.5012 4.71296 80.57 5.6572 83.4971C6.69586 86.4242 8.15942 89.0209 10.0479 91.287C11.9364 93.5532 14.2497 95.3473 16.988 96.6692C19.8207 97.9911 23.0311 98.6521 26.6192 98.6521C30.2073 98.6521 33.3705 97.9911 36.1088 96.6692C38.9415 95.3473 41.3021 93.5532 43.1905 91.287C45.079 89.0209 46.4953 86.4242 47.4396 83.4971C48.4782 80.57 48.9976 77.5012 48.9976 74.2908ZM128.363 57.8611C126.947 55.6894 124.822 53.8954 121.989 52.479C119.157 50.9682 116.135 50.2128 112.925 50.2128C109.431 50.2128 106.315 50.8738 103.577 52.1957C100.933 53.5177 98.6669 55.3117 96.7784 57.5779C94.89 59.7496 93.4264 62.299 92.3877 65.2262C91.4435 68.1533 90.9714 71.2221 90.9714 74.4325C90.9714 77.6429 91.4435 80.7116 92.3877 83.6387C93.4264 86.5659 94.89 89.1625 96.7784 91.4287C98.6669 93.6004 100.98 95.3473 103.719 96.6692C106.457 97.9911 109.573 98.6521 113.066 98.6521C116.466 98.6521 119.534 97.9911 122.273 96.6692C125.105 95.3473 127.419 93.5532 129.213 91.287L138.136 99.3603C135.303 102.665 131.762 105.262 127.513 107.15C123.264 108.944 118.449 109.841 113.066 109.841C107.873 109.841 103.058 108.991 98.6197 107.292C94.2762 105.592 90.4993 103.232 87.2889 100.21C84.0785 97.0941 81.529 93.3644 79.6406 89.0209C77.8465 84.6774 76.9495 79.8146 76.9495 74.4325C76.9495 69.1447 77.8465 64.3291 79.6406 59.9857C81.4346 55.6422 83.9368 51.9125 87.1472 48.7965C90.3576 45.6805 94.1346 43.2727 98.478 41.5731C102.916 39.8735 107.684 39.0237 112.783 39.0237C117.504 39.0237 122.178 39.9679 126.805 41.8564C131.526 43.7448 135.256 46.4831 137.994 50.0712L128.363 57.8611ZM164.925 70.0418H165.35L193.535 40.8649H211.381L179.938 71.3165L214.072 108H195.66L165.35 73.1577H164.925V108H151.611V0.923788H164.925V70.0418ZM262.135 7.72228H296.694C300.471 7.72228 304.248 8.14719 308.025 8.99699C311.802 9.8468 315.154 11.2632 318.081 13.2461C321.103 15.2289 323.511 17.8256 325.305 21.036C327.193 24.2464 328.137 28.2594 328.137 33.075C328.137 38.646 326.532 43.3199 323.322 47.0969C320.111 50.8738 315.862 53.4704 310.575 54.8868V55.1701C313.785 55.5478 316.759 56.3976 319.498 57.7195C322.236 58.947 324.596 60.5994 326.579 62.6767C328.562 64.7541 330.073 67.2091 331.112 70.0418C332.245 72.8745 332.811 76.0377 332.811 79.5313C332.811 84.3469 331.82 88.5488 329.837 92.1369C327.854 95.7249 325.163 98.6993 321.764 101.06C318.364 103.326 314.351 105.073 309.725 106.3C305.192 107.433 300.33 108 295.136 108H262.135V7.72228ZM276.157 50.0712H294.428C297.072 50.0712 299.574 49.7879 301.935 49.2214C304.39 48.5604 306.514 47.6162 308.308 46.3887C310.102 45.0668 311.519 43.4616 312.557 41.5731C313.596 39.5902 314.115 37.2296 314.115 34.4913C314.115 29.1092 312.133 25.285 308.167 23.0189C304.201 20.6583 298.866 19.478 292.162 19.478H276.157V50.0712ZM276.157 96.1026H293.72C296.647 96.1026 299.574 95.8666 302.501 95.3945C305.523 94.8279 308.214 93.8837 310.575 92.5618C313.03 91.2398 314.965 89.493 316.382 87.3213C317.892 85.0551 318.648 82.2224 318.648 78.8231C318.648 72.8745 316.618 68.5782 312.557 65.9343C308.497 63.2905 302.643 61.9686 294.995 61.9686H276.157V96.1026ZM399.607 108C399.418 106.3 399.276 104.412 399.182 102.335C399.087 100.163 399.04 98.3688 399.04 96.9525H398.757C397.057 100.541 394.177 103.609 390.117 106.159C386.151 108.614 381.713 109.841 376.803 109.841C372.46 109.841 368.683 109.133 365.473 107.717C362.357 106.3 359.76 104.365 357.683 101.91C355.7 99.3603 354.189 96.4331 353.15 93.1283C352.206 89.8235 351.734 86.2826 351.734 82.5057V40.8649H365.048V77.9733C365.048 80.7116 365.236 83.3555 365.614 85.9049C366.086 88.3599 366.889 90.5317 368.022 92.4201C369.155 94.3086 370.713 95.8194 372.696 96.9525C374.679 98.0855 377.228 98.6521 380.344 98.6521C385.726 98.6521 390.07 96.6692 393.375 92.7034C396.68 88.6432 398.332 83.2611 398.332 76.557V40.8649H411.646V93.5532C411.646 95.3473 411.693 97.6606 411.787 100.493C411.882 103.326 412.023 105.828 412.212 108H399.607ZM467.596 51.7708H449.75V86.7547C449.75 90.8149 450.505 93.7421 452.016 95.5361C453.527 97.2357 455.935 98.0855 459.24 98.0855C460.467 98.0855 461.789 97.9439 463.205 97.6606C464.622 97.3774 465.896 96.9525 467.029 96.3859L467.454 107.292C465.849 107.858 464.055 108.283 462.072 108.567C460.184 108.944 458.201 109.133 456.124 109.133C449.797 109.133 444.934 107.386 441.535 103.893C438.23 100.399 436.578 95.1584 436.578 88.1711V51.7708H423.689V40.8649H436.578V21.6025H449.75V40.8649H467.596V51.7708ZM512.134 51.7708H494.288V86.7547C494.288 90.8149 495.043 93.7421 496.554 95.5361C498.064 97.2357 500.472 98.0855 503.777 98.0855C505.005 98.0855 506.327 97.9439 507.743 97.6606C509.159 97.3774 510.434 96.9525 511.567 96.3859L511.992 107.292C510.387 107.858 508.593 108.283 506.61 108.567C504.721 108.944 502.738 109.133 500.661 109.133C494.335 109.133 489.472 107.386 486.073 103.893C482.768 100.399 481.115 95.1584 481.115 88.1711V51.7708H468.227V40.8649H481.115V21.6025H494.288V40.8649H512.134V51.7708ZM593.871 74.2908C593.871 79.4841 592.927 84.2525 591.039 88.596C589.245 92.9395 586.695 96.7164 583.39 99.9268C580.18 103.043 576.356 105.498 571.918 107.292C567.48 108.991 562.712 109.841 557.613 109.841C552.514 109.841 547.746 108.991 543.308 107.292C538.87 105.498 535.046 103.043 531.835 99.9268C528.625 96.7164 526.075 92.9395 524.187 88.596C522.393 84.2525 521.496 79.4841 521.496 74.2908C521.496 69.0975 522.393 64.3764 524.187 60.1273C526.075 55.7838 528.625 52.0541 531.835 48.9381C535.046 45.8221 538.87 43.4143 543.308 41.7147C547.746 39.9207 552.514 39.0237 557.613 39.0237C562.712 39.0237 567.48 39.9207 571.918 41.7147C576.356 43.4143 580.18 45.8221 583.39 48.9381C586.695 52.0541 589.245 55.7838 591.039 60.1273C592.927 64.3764 593.871 69.0975 593.871 74.2908ZM579.991 74.2908C579.991 71.0804 579.472 68.0117 578.433 65.0845C577.489 62.1574 576.073 59.608 574.184 57.4362C572.296 55.1701 569.935 53.376 567.102 52.0541C564.364 50.7322 561.201 50.0712 557.613 50.0712C554.025 50.0712 550.814 50.7322 547.982 52.0541C545.243 53.376 542.93 55.1701 541.042 57.4362C539.153 59.608 537.69 62.1574 536.651 65.0845C535.707 68.0117 535.234 71.0804 535.234 74.2908C535.234 77.5012 535.707 80.57 536.651 83.4971C537.69 86.4242 539.153 89.0209 541.042 91.287C542.93 93.5532 545.243 95.3473 547.982 96.6692C550.814 97.9911 554.025 98.6521 557.613 98.6521C561.201 98.6521 564.364 97.9911 567.102 96.6692C569.935 95.3473 572.296 93.5532 574.184 91.287C576.073 89.0209 577.489 86.4242 578.433 83.4971C579.472 80.57 579.991 77.5012 579.991 74.2908ZM624.373 40.8649C624.562 42.5645 624.703 44.5002 624.798 46.672C624.892 48.7493 624.939 50.4961 624.939 51.9125H625.364C626.214 50.1184 627.347 48.466 628.764 46.9552C630.274 45.35 631.974 43.9809 633.862 42.8478C635.751 41.6203 637.828 40.6761 640.094 40.0151C642.361 39.3541 644.721 39.0237 647.176 39.0237C651.52 39.0237 655.249 39.779 658.365 41.2898C661.481 42.7062 664.078 44.6419 666.155 47.0969C668.233 49.5519 669.743 52.4318 670.688 55.7366C671.726 59.0414 672.246 62.5823 672.246 66.3593V108H658.932V70.7499C658.932 68.0117 658.696 65.415 658.224 62.96C657.846 60.505 657.091 58.3333 655.957 56.4448C654.824 54.5563 653.266 53.0455 651.284 51.9125C649.301 50.7794 646.751 50.2128 643.635 50.2128C638.348 50.2128 634.004 52.2429 630.605 56.3032C627.3 60.2689 625.648 65.6039 625.648 72.3079V108H612.334V55.3117C612.334 53.5177 612.287 51.2043 612.192 48.3716C612.098 45.5389 611.956 43.0367 611.767 40.8649H624.373Z"/>
</mask>
<path d="M-80.9638 26.2765L-82.0519 27.0644L-81.1413 28.3219L-80.0277 27.2401L-80.9638 26.2765ZM-89.037 19.6196L-89.664 20.8077L-89.651 20.8146L-89.6378 20.8212L-89.037 19.6196ZM-107.45 17.92L-107.124 19.2233L-107.105 19.2188L-107.087 19.2137L-107.45 17.92ZM-113.682 20.8944L-112.911 21.9949L-112.893 21.9823L-112.875 21.9691L-113.682 20.8944ZM-118.355 25.9932L-119.512 25.3098L-119.517 25.3182L-119.522 25.3267L-118.355 25.9932ZM-118.497 40.1567L-119.674 40.8042L-119.655 40.8398L-119.633 40.8741L-118.497 40.1567ZM-114.106 44.8307L-114.903 45.9122L-114.872 45.9356L-114.839 45.9571L-114.106 44.8307ZM-107.591 48.0883L-108.073 49.3422L-108.045 49.3531L-108.016 49.3628L-107.591 48.0883ZM-99.518 50.7794L-99.9428 52.0539L-99.9268 52.0592L-99.9106 52.0642L-99.518 50.7794ZM-72.7489 67.7756L-73.9296 68.4165L-73.9257 68.4238L-73.9217 68.431L-72.7489 67.7756ZM-73.0322 93.6948L-74.228 93.0824L-74.2338 93.0941L-73.0322 93.6948ZM-80.6805 103.184L-79.8644 104.252L-79.8547 104.244L-79.8451 104.236L-80.6805 103.184ZM-91.8697 108.708L-92.2425 107.418L-92.2503 107.42L-91.8697 108.708ZM-123.171 106.867L-123.691 108.106L-123.684 108.109L-123.171 106.867ZM-137.759 95.961L-138.626 94.9344L-139.628 95.7805L-138.807 96.8027L-137.759 95.961ZM-126.854 86.7547L-125.74 86.0026L-126.578 84.7636L-127.72 85.7282L-126.854 86.7547ZM-97.3935 97.519L-97.0312 98.8127L-97.3935 97.519ZM-91.0199 94.403L-91.8007 93.3098L-91.8134 93.3189L-91.8259 93.3283L-91.0199 94.403ZM-86.2043 89.1625L-85.0477 89.846L-85.0411 89.8348L-85.0348 89.8236L-86.2043 89.1625ZM-86.3459 73.8659L-87.5025 74.5494L-87.484 74.5808L-87.4637 74.6111L-86.3459 73.8659ZM-91.4448 68.6254L-90.7109 67.5002L-91.4448 68.6254ZM-99.0931 65.0845L-99.5556 66.3458L-99.5307 66.355L-99.5055 66.3631L-99.0931 65.0845ZM-108.158 61.9686L-107.744 60.6904L-107.761 60.6848L-107.779 60.6797L-108.158 61.9686ZM-117.647 58.5693L-118.203 59.7923L-118.188 59.7994L-118.172 59.806L-117.647 58.5693ZM-126.004 53.3288L-126.894 54.335L-126.883 54.3448L-126.872 54.3544L-126.004 53.3288ZM-131.952 45.3972L-130.744 44.8111L-131.952 45.3972ZM-131.244 20.8944L-132.407 20.2213L-132.414 20.2328L-132.42 20.2446L-131.244 20.8944ZM-123.313 11.9713L-124.094 10.8781L-124.101 10.8835L-124.109 10.889L-123.313 11.9713ZM-112.265 6.87247L-111.932 8.17398L-111.922 8.17135L-111.912 8.16855L-112.265 6.87247ZM-83.3716 8.28882L-82.8647 7.04469H-82.8647L-83.3716 8.28882ZM-71.0493 16.6453L-70.1132 17.6089L-69.1898 16.7119L-70.0467 15.7511L-71.0493 16.6453ZM-79.8757 25.4886C-82.0004 22.5544 -84.8679 20.2022 -88.4362 18.418L-89.6378 20.8212C-86.4076 22.4363 -83.893 24.522 -82.0519 27.0644L-79.8757 25.4886ZM-88.4099 18.4315C-92.0222 16.5251 -96.0653 15.5851 -100.509 15.5851V18.272C-96.4555 18.272 -92.8503 19.1261 -89.664 20.8077L-88.4099 18.4315ZM-100.509 15.5851C-102.908 15.5851 -105.343 15.9351 -107.812 16.6263L-107.087 19.2137C-104.835 18.5831 -102.644 18.272 -100.509 18.272V15.5851ZM-107.775 16.6167C-110.217 17.2271 -112.457 18.297 -114.488 19.8196L-112.875 21.9691C-111.129 20.659 -109.214 19.746 -107.124 19.2233L-107.775 16.6167ZM-114.452 19.7938C-116.505 21.2308 -118.192 23.0753 -119.512 25.3098L-117.199 26.6767C-116.064 24.7565 -114.635 23.2018 -112.911 21.9949L-114.452 19.7938ZM-119.522 25.3267C-120.796 27.5559 -121.399 30.2057 -121.399 33.2166H-118.712C-118.712 30.5621 -118.181 28.3963 -117.189 26.6597L-119.522 25.3267ZM-121.399 33.2166C-121.399 36.1213 -120.848 38.6707 -119.674 40.8042L-117.32 39.5093C-118.224 37.8658 -118.712 35.7885 -118.712 33.2166H-121.399ZM-119.633 40.8741C-118.406 42.8166 -116.825 44.4961 -114.903 45.9122L-113.31 43.7492C-114.976 42.5214 -116.322 41.085 -117.361 39.4394L-119.633 40.8741ZM-114.839 45.9571C-112.86 47.2434 -110.602 48.3698 -108.073 49.3422L-107.109 46.8344C-109.491 45.9184 -111.576 44.8731 -113.374 43.7043L-114.839 45.9571ZM-108.016 49.3628C-105.467 50.2126 -102.776 51.1096 -99.9428 52.0539L-99.0932 49.5049C-101.926 48.5607 -104.617 47.6636 -107.166 46.8138L-108.016 49.3628ZM-99.9106 52.0642C-96.5406 53.0939 -93.1218 54.2646 -89.654 55.5767L-88.7032 53.0638C-92.2228 51.732 -95.6969 50.5422 -99.1254 49.4946L-99.9106 52.0642ZM-89.654 55.5767C-86.2773 56.8544 -83.2303 58.5386 -80.5064 60.6269L-78.8717 58.4946C-81.8132 56.2394 -85.0926 54.4299 -88.7032 53.0638L-89.654 55.5767ZM-80.5064 60.6269C-77.8313 62.6779 -75.6386 65.2683 -73.9296 68.4165L-71.5683 67.1347C-73.4473 63.6732 -75.8814 60.7871 -78.8717 58.4946L-80.5064 60.6269ZM-73.9217 68.431C-72.2727 71.3817 -71.4013 75.2436 -71.4013 80.0979H-68.7144C-68.7144 74.9432 -69.6371 70.5903 -71.5762 67.1203L-73.9217 68.431ZM-71.4013 80.0979C-71.4013 85.1192 -72.3592 89.434 -74.2279 93.0824L-71.8365 94.3073C-69.7394 90.213 -68.7144 85.4631 -68.7144 80.0979H-71.4013ZM-74.2338 93.0941C-76.0373 96.7011 -78.4637 99.7085 -81.516 102.132L-79.8451 104.236C-76.4765 101.561 -73.804 98.2425 -71.8306 94.2956L-74.2338 93.0941ZM-81.4966 102.117C-84.5624 104.462 -88.1387 106.232 -92.2425 107.418L-91.4968 109.999C-87.1026 108.729 -83.2194 106.817 -79.8644 104.252L-81.4966 102.117ZM-92.2503 107.42C-96.2784 108.61 -100.446 109.206 -104.758 109.206V111.893C-100.195 111.893 -95.7703 111.261 -91.489 109.997L-92.2503 107.42ZM-104.758 109.206C-110.906 109.206 -116.87 108.014 -122.659 105.625L-123.684 108.109C-117.575 110.63 -111.264 111.893 -104.758 111.893V109.206ZM-122.652 105.628C-128.306 103.257 -132.985 99.7558 -136.712 95.1193L-138.807 96.8027C-134.791 101.797 -129.745 105.567 -123.691 108.106L-122.652 105.628ZM-136.893 96.9876L-125.987 87.7813L-127.72 85.7282L-138.626 94.9344L-136.893 96.9876ZM-127.967 87.5069C-125.478 91.1905 -122.149 94.1642 -118.009 96.4311L-116.719 94.0745C-120.511 91.9979 -123.508 89.3063 -125.74 86.0026L-127.967 87.5069ZM-118.009 96.4311C-113.841 98.7138 -109.322 99.8539 -104.475 99.8539V97.167C-108.882 97.167 -112.956 96.1353 -116.719 94.0745L-118.009 96.4311ZM-104.475 99.8539C-101.988 99.8539 -99.5052 99.5054 -97.0312 98.8127L-97.7557 96.2253C-100.003 96.8546 -102.242 97.167 -104.475 97.167V99.8539ZM-97.0312 98.8127C-94.5167 98.1086 -92.2405 96.9978 -90.2138 95.4778L-91.8259 93.3283C-93.5762 94.641 -95.5491 95.6075 -97.7557 96.2253L-97.0312 98.8127ZM-90.239 95.4962C-88.1053 93.9721 -86.3715 92.0862 -85.0477 89.846L-87.3609 88.4791C-88.4921 90.3935 -89.9687 92.0013 -91.8007 93.3098L-90.239 95.4962ZM-85.0348 89.8236C-83.6715 87.4116 -83.0196 84.577 -83.0196 81.3726H-85.7064C-85.7064 84.2112 -86.2821 86.57 -87.3738 88.5015L-85.0348 89.8236ZM-83.0196 81.3726C-83.0196 78.1566 -83.7242 75.3767 -85.2281 73.1207L-87.4637 74.6111C-86.3238 76.321 -85.7064 78.5454 -85.7064 81.3726H-83.0196ZM-85.1893 73.1825C-86.5296 70.9143 -88.3794 69.0207 -90.7109 67.5002L-92.1787 69.7507C-90.1667 71.0628 -88.6172 72.6629 -87.5025 74.5494L-85.1893 73.1825ZM-90.7109 67.5002C-92.999 66.0079 -95.6605 64.7802 -98.6807 63.806L-99.5055 66.3631C-96.6714 67.2773 -94.234 68.4102 -92.1787 69.7507L-90.7109 67.5002ZM-98.6306 63.8232C-101.481 62.778 -104.519 61.7337 -107.744 60.6904L-108.571 63.2467C-105.375 64.2807 -102.37 65.3138 -99.5556 66.3458L-98.6306 63.8232ZM-107.779 60.6797C-110.939 59.7502 -114.054 58.6346 -117.123 57.3326L-118.172 59.806C-115.009 61.1479 -111.797 62.2984 -108.537 63.2574L-107.779 60.6797ZM-117.091 57.3463C-120.102 55.9778 -122.781 54.2958 -125.136 52.3033L-126.872 54.3544C-124.316 56.5165 -121.425 58.3281 -118.203 59.7923L-117.091 57.3463ZM-125.114 52.3226C-127.428 50.275 -129.306 47.7766 -130.744 44.8111L-133.161 45.9833C-131.578 49.2499 -129.489 52.0391 -126.894 54.335L-125.114 52.3226ZM-130.744 44.8111C-132.141 41.9285 -132.875 38.2719 -132.875 33.7831H-135.562C-135.562 38.5479 -134.785 42.634 -133.161 45.9833L-130.744 44.8111ZM-132.875 33.7831C-132.875 28.9562 -131.92 24.8939 -130.068 21.5442L-132.42 20.2446C-134.535 24.071 -135.562 28.6012 -135.562 33.7831H-132.875ZM-130.082 21.5675C-128.093 18.133 -125.572 15.3001 -122.517 13.0537L-124.109 10.889C-127.474 13.3637 -130.241 16.4796 -132.407 20.2213L-130.082 21.5675ZM-122.532 13.0645C-119.367 10.8036 -115.837 9.17282 -111.932 8.17398L-112.598 5.57095C-116.814 6.64944 -120.649 8.41795 -124.094 10.8781L-122.532 13.0645ZM-111.912 8.16855C-107.868 7.06574 -103.832 6.51627 -99.8013 6.51627V3.82942C-104.08 3.82942 -108.353 4.41303 -112.619 5.57638L-111.912 8.16855ZM-99.8013 6.51627C-94.1097 6.51627 -88.8064 7.52528 -83.8784 9.53295L-82.8647 7.04469C-88.1345 4.89773 -93.7844 3.82942 -99.8013 3.82942V6.51627ZM-83.8784 9.53295C-78.9361 11.5465 -75.0095 14.2234 -72.0519 17.5395L-70.0467 15.7511C-73.3211 12.0798 -77.6093 9.18577 -82.8647 7.04469L-83.8784 9.53295ZM-71.9854 15.6817L-81.8999 25.3129L-80.0277 27.2401L-70.1132 17.6089L-71.9854 15.6817ZM-18.8601 51.7708V53.1143H-17.5166V51.7708H-18.8601ZM-36.7061 51.7708V50.4274H-38.0495V51.7708H-36.7061ZM-34.4399 95.5361L-35.4675 96.4014L-35.456 96.4152L-35.444 96.4286L-34.4399 95.5361ZM-23.2508 97.6606L-23.5142 96.3433L-23.2508 97.6606ZM-19.4266 96.3859L-18.0842 96.3336L-18.1653 94.2533L-20.0274 95.1843L-19.4266 96.3859ZM-19.0017 107.292L-18.5546 108.559L-17.6208 108.229L-17.6593 107.24L-19.0017 107.292ZM-24.3838 108.567L-24.5738 107.237L-24.6107 107.242L-24.6473 107.249L-24.3838 108.567ZM-44.9209 103.893L-45.8969 104.816L-45.8904 104.823L-45.8838 104.829L-44.9209 103.893ZM-49.8782 51.7708H-48.5348V50.4274H-49.8782V51.7708ZM-62.767 51.7708H-64.1104V53.1143H-62.767V51.7708ZM-62.767 40.8649V39.5215H-64.1104V40.8649H-62.767ZM-49.8782 40.8649V42.2083H-48.5348V40.8649H-49.8782ZM-49.8782 21.6025V20.2591H-51.2216V21.6025H-49.8782ZM-36.7061 21.6025H-35.3627V20.2591H-36.7061V21.6025ZM-36.7061 40.8649H-38.0495V42.2083H-36.7061V40.8649ZM-18.8601 40.8649H-17.5166V39.5215H-18.8601V40.8649ZM-18.8601 50.4274H-36.7061V53.1143H-18.8601V50.4274ZM-38.0495 51.7708V86.7547H-35.3627V51.7708H-38.0495ZM-38.0495 86.7547C-38.0495 90.9214 -37.2858 94.2423 -35.4675 96.4014L-33.4123 94.6708C-34.6157 93.2418 -35.3627 90.7085 -35.3627 86.7547H-38.0495ZM-35.444 96.4286C-33.5804 98.5252 -30.7278 99.429 -27.2165 99.429V96.7421C-30.315 96.7421 -32.2779 95.9462 -33.4359 94.6436L-35.444 96.4286ZM-27.2165 99.429C-25.8867 99.429 -24.4756 99.2756 -22.9873 98.978L-23.5142 96.3433C-24.8586 96.6122 -26.0914 96.7421 -27.2165 96.7421V99.429ZM-22.9873 98.978C-21.4699 98.6745 -20.0794 98.2143 -18.8258 97.5875L-20.0274 95.1843C-21.04 95.6906 -22.1989 96.0802 -23.5142 96.3433L-22.9873 98.978ZM-20.769 96.4382L-20.3441 107.344L-17.6593 107.24L-18.0842 96.3336L-20.769 96.4382ZM-19.4488 106.025C-20.9575 106.557 -22.6636 106.964 -24.5738 107.237L-24.1939 109.896C-22.1383 109.603 -20.2563 109.159 -18.5546 108.559L-19.4488 106.025ZM-24.6473 107.249C-26.4425 107.608 -28.3368 107.79 -30.3325 107.79V110.477C-28.1736 110.477 -26.1021 110.28 -24.1204 109.884L-24.6473 107.249ZM-30.3325 107.79C-36.4094 107.79 -40.8811 106.118 -43.9581 102.956L-45.8838 104.829C-42.1623 108.654 -36.9084 110.477 -30.3325 110.477V107.79ZM-43.945 102.969C-46.9257 99.8184 -48.5348 94.9694 -48.5348 88.1711H-51.2216C-51.2216 95.3475 -49.5259 100.979 -45.8969 104.816L-43.945 102.969ZM-48.5348 88.1711V51.7708H-51.2216V88.1711H-48.5348ZM-49.8782 50.4274H-62.767V53.1143H-49.8782V50.4274ZM-61.4236 51.7708V40.8649H-64.1104V51.7708H-61.4236ZM-62.767 42.2083H-49.8782V39.5215H-62.767V42.2083ZM-48.5348 40.8649V21.6025H-51.2216V40.8649H-48.5348ZM-49.8782 22.946H-36.7061V20.2591H-49.8782V22.946ZM-38.0495 21.6025V40.8649H-35.3627V21.6025H-38.0495ZM-36.7061 42.2083H-18.8601V39.5215H-36.7061V42.2083ZM-20.2035 40.8649V51.7708H-17.5166V40.8649H-20.2035ZM60.0451 88.596L58.8131 88.0603L58.8082 88.0717L58.8034 88.0831L60.0451 88.596ZM52.3968 99.9268L53.3325 100.891L53.3329 100.89L52.3968 99.9268ZM40.9244 107.292L41.4048 108.546L41.4164 108.542L41.4279 108.537L40.9244 107.292ZM12.3141 107.292L11.8105 108.537L11.822 108.542L11.8336 108.546L12.3141 107.292ZM0.841599 99.9268L-0.108337 100.877L-0.101257 100.884L-0.0940552 100.891L0.841599 99.9268ZM-6.8067 88.596L-8.04837 89.1088L-8.04366 89.1203L-8.03871 89.1316L-6.8067 88.596ZM-6.8067 60.1273L-8.03871 59.5916L-8.04155 59.5982L-8.04433 59.6047L-6.8067 60.1273ZM0.841599 48.9381L-0.0940552 47.9741L0.841599 48.9381ZM12.3141 41.7147L12.7945 42.9693L12.8061 42.9649L12.8176 42.9602L12.3141 41.7147ZM40.9244 41.7147L40.4209 42.9602L40.4323 42.9649L40.4439 42.9693L40.9244 41.7147ZM52.3968 48.9381L51.4612 49.9021L51.4681 49.9089L51.4752 49.9156L52.3968 48.9381ZM60.0451 60.1273L58.8034 60.6402L58.8102 60.6566L58.8175 60.6729L60.0451 60.1273ZM47.4396 65.0845L46.161 65.497L46.167 65.5155L46.1735 65.5338L47.4396 65.0845ZM43.1905 57.4362L42.1585 58.2963L42.1675 58.3071L42.1768 58.3178L43.1905 57.4362ZM36.1088 52.0541L35.5247 53.2639L35.5327 53.2678L35.5406 53.2715L36.1088 52.0541ZM16.988 52.0541L16.4199 50.8367L16.4119 50.8404L16.404 50.8443L16.988 52.0541ZM10.0479 57.4362L11.0616 58.3178L11.0709 58.3071L11.0799 58.2963L10.0479 57.4362ZM5.6572 65.0845L4.39111 64.6353L4.38461 64.6536L4.37865 64.6721L5.6572 65.0845ZM5.6572 83.4971L4.37865 83.9095L4.38461 83.928L4.39111 83.9464L5.6572 83.4971ZM10.0479 91.287L11.0799 90.427L10.0479 91.287ZM16.988 96.6692L16.404 97.879L16.4119 97.8828L16.4199 97.8866L16.988 96.6692ZM36.1088 96.6692L35.5406 95.4518L35.5327 95.4555L35.5247 95.4594L36.1088 96.6692ZM43.1905 91.287L42.1585 90.427L43.1905 91.287ZM47.4396 83.4971L46.1735 83.0479L46.167 83.0662L46.161 83.0847L47.4396 83.4971ZM61.5344 74.2908C61.5344 79.3177 60.6213 83.9016 58.8131 88.0603L61.2771 89.1316C63.2459 84.6034 64.2212 79.6505 64.2212 74.2908H61.5344ZM58.8034 88.0831C57.078 92.2605 54.6313 95.8832 51.4607 98.9632L53.3329 100.89C56.772 97.5496 59.4241 93.6184 61.2868 89.1088L58.8034 88.0831ZM51.4612 98.9628C48.3838 101.95 44.7093 104.313 40.4209 106.046L41.4279 108.537C46.0153 106.683 49.989 104.136 53.3325 100.891L51.4612 98.9628ZM40.4439 106.037C36.1702 107.674 31.5659 108.498 26.6192 108.498V111.185C31.8703 111.185 36.8027 110.309 41.4048 108.546L40.4439 106.037ZM26.6192 108.498C21.6725 108.498 17.0682 107.674 12.7945 106.037L11.8336 108.546C16.4357 110.309 21.3682 111.185 26.6192 111.185V108.498ZM12.8176 106.046C8.52916 104.313 4.85463 101.95 1.77727 98.9628L-0.0940552 100.891C3.24937 104.136 7.22314 106.683 11.8105 108.537L12.8176 106.046ZM1.79155 98.9769C-1.29456 95.8907 -3.75047 92.256 -5.57469 88.0603L-8.03871 89.1316C-6.08598 93.6229 -3.44304 97.542 -0.108337 100.877L1.79155 98.9769ZM-5.56503 88.0831C-7.28516 83.9186 -8.15434 79.3267 -8.15434 74.2908H-10.8412C-10.8412 79.6415 -9.91634 84.5864 -8.04837 89.1088L-5.56503 88.0831ZM-8.15434 74.2908C-8.15434 69.2545 -7.28502 64.7139 -5.56908 60.6499L-8.04433 59.6047C-9.91647 64.0388 -10.8412 68.9406 -10.8412 74.2908H-8.15434ZM-5.57469 60.663C-3.75195 56.4707 -1.30008 52.889 1.77727 49.9021L-0.0940552 47.9741C-3.43752 51.2192 -6.0845 55.097 -8.03871 59.5916L-5.57469 60.663ZM1.77727 49.9021C4.84917 46.9206 8.51573 44.608 12.7945 42.9693L11.8336 40.4602C7.23657 42.2207 3.25484 44.7237 -0.0940552 47.9741L1.77727 49.9021ZM12.8176 42.9602C17.0853 41.235 21.6815 40.3671 26.6192 40.3671V37.6802C21.3592 37.6802 16.4187 38.6064 11.8105 40.4692L12.8176 42.9602ZM26.6192 40.3671C31.5569 40.3671 36.1532 41.235 40.4209 42.9602L41.4279 40.4692C36.8197 38.6064 31.8793 37.6802 26.6192 37.6802V40.3671ZM40.4439 42.9693C44.7227 44.608 48.3893 46.9206 51.4612 49.9021L53.3325 47.9741C49.9836 44.7237 46.0018 42.2207 41.4048 40.4602L40.4439 42.9693ZM51.4752 49.9156C54.6368 52.8965 57.0794 56.4662 58.8034 60.6402L61.2868 59.6144C59.4227 55.1014 56.7664 51.2117 53.3184 47.9607L51.4752 49.9156ZM58.8175 60.6729C60.6211 64.7311 61.5344 69.2635 61.5344 74.2908H64.2212C64.2212 68.9316 63.246 64.0216 61.2728 59.5817L58.8175 60.6729ZM50.341 74.2908C50.341 70.9326 49.7972 67.7115 48.7057 64.6353L46.1735 65.5338C47.1593 68.3118 47.6541 71.2283 47.6541 74.2908H50.341ZM48.7181 64.6721C47.7221 61.5844 46.2198 58.8726 44.2043 56.5547L42.1768 58.3178C43.9382 60.3434 45.2686 62.7305 46.161 65.497L48.7181 64.6721ZM44.2226 56.5762C42.2001 54.1493 39.6777 52.2371 36.6769 50.8367L35.5406 53.2715C38.2052 54.515 40.404 56.1909 42.1585 58.2963L44.2226 56.5762ZM36.6928 50.8443C33.7424 49.42 30.3734 48.7278 26.6192 48.7278V51.4146C30.0412 51.4146 32.9985 52.0444 35.5247 53.2639L36.6928 50.8443ZM26.6192 48.7278C22.8638 48.7278 19.455 49.4203 16.4199 50.8367L17.5561 53.2715C20.1864 52.044 23.1984 51.4146 26.6192 51.4146V48.7278ZM16.404 50.8443C13.4986 52.2469 11.0308 54.1582 9.01584 56.5762L11.0799 58.2963C12.8419 56.1819 15.0009 54.5052 17.5721 53.2639L16.404 50.8443ZM9.03413 56.5547C7.02675 58.8632 5.48158 61.5622 4.39111 64.6353L6.92328 65.5338C7.91014 62.7526 9.2921 60.3527 11.0616 58.3178L9.03413 56.5547ZM4.37865 64.6721C3.38957 67.7382 2.89742 70.9466 2.89742 74.2908H5.58427C5.58427 71.2143 6.03635 68.2851 6.93575 65.497L4.37865 64.6721ZM2.89742 74.2908C2.89742 77.6351 3.38957 80.8434 4.37865 83.9095L6.93575 83.0847C6.03635 80.2966 5.58427 77.3674 5.58427 74.2908H2.89742ZM4.39111 83.9464C5.48006 87.0152 7.0204 89.7525 9.01584 92.1471L11.0799 90.427C9.29845 88.2892 7.91167 85.8333 6.92328 83.0479L4.39111 83.9464ZM9.01584 92.1471C11.0308 94.565 13.4986 96.4764 16.404 97.879L17.5721 95.4594C15.0009 94.2181 12.8419 92.5414 11.0799 90.427L9.01584 92.1471ZM16.4199 97.8866C19.455 99.3029 22.8638 99.9955 26.6192 99.9955V97.3087C23.1984 97.3087 20.1864 96.6793 17.5561 95.4518L16.4199 97.8866ZM26.6192 99.9955C30.3734 99.9955 33.7424 99.3033 36.6928 97.879L35.5247 95.4594C32.9985 96.6789 30.0412 97.3087 26.6192 97.3087V99.9955ZM36.6769 97.8866C39.6777 96.4862 42.2001 94.574 44.2226 92.1471L42.1585 90.427C40.404 92.5324 38.2052 94.2083 35.5406 95.4518L36.6769 97.8866ZM44.2226 92.1471C46.2258 89.7433 47.7234 86.9932 48.7181 83.9095L46.161 83.0847C45.2673 85.8553 43.9322 88.2985 42.1585 90.427L44.2226 92.1471ZM48.7057 83.9464C49.7972 80.8701 50.341 77.6491 50.341 74.2908H47.6541C47.6541 77.3534 47.1593 80.2698 46.1735 83.0479L48.7057 83.9464ZM128.363 57.8611L127.238 58.595L128.051 59.8416L129.208 58.9057L128.363 57.8611ZM121.99 52.479L121.357 53.6644L121.373 53.6727L121.389 53.6806L121.99 52.479ZM103.577 52.1957L102.993 50.9859L102.984 50.99L102.976 50.9941L103.577 52.1957ZM96.7784 57.5779L97.7922 58.4594L97.8014 58.4487L97.8105 58.4379L96.7784 57.5779ZM92.3877 65.2262L91.1217 64.7769L91.1152 64.7952L91.1092 64.8137L92.3877 65.2262ZM92.3877 83.6387L91.1092 84.0512L91.1152 84.0697L91.1217 84.088L92.3877 83.6387ZM96.7784 91.4287L95.7464 92.2887L95.7554 92.2996L95.7647 92.3102L96.7784 91.4287ZM103.719 96.6692L104.303 95.4594L103.719 96.6692ZM122.273 96.6692L121.705 95.4518L121.697 95.4555L121.689 95.4594L122.273 96.6692ZM129.213 91.287L130.114 90.2908L129.05 89.3282L128.16 90.4532L129.213 91.287ZM138.136 99.3603L139.156 100.235L140.007 99.2415L139.037 98.3641L138.136 99.3603ZM127.513 107.15L128.036 108.388L128.047 108.383L128.059 108.378L127.513 107.15ZM98.6197 107.292L98.1301 108.543L98.1392 108.546L98.6197 107.292ZM87.2889 100.21L86.3532 101.174L86.3606 101.181L86.3681 101.188L87.2889 100.21ZM79.6406 89.0209L78.3989 89.5338L78.4036 89.5452L78.4086 89.5565L79.6406 89.0209ZM79.6406 59.9857L80.8822 60.4985L79.6406 59.9857ZM87.1472 48.7965L88.0829 49.7605V49.7605L87.1472 48.7965ZM98.478 41.5731L97.9976 40.3185L97.9885 40.322L98.478 41.5731ZM126.805 41.8564L126.297 43.1002L126.306 43.1037L126.805 41.8564ZM137.994 50.0712L138.839 51.1157L139.855 50.2944L139.062 49.2562L137.994 50.0712ZM129.488 57.1273C127.916 54.716 125.589 52.7768 122.59 51.2774L121.389 53.6806C124.055 55.0139 125.978 56.6628 127.238 58.595L129.488 57.1273ZM122.622 51.2936C119.594 49.6791 116.356 48.8694 112.925 48.8694V51.5563C115.915 51.5563 118.719 52.2574 121.357 53.6644L122.622 51.2936ZM112.925 48.8694C109.259 48.8694 105.939 49.5638 102.993 50.9859L104.161 53.4056C106.692 52.1838 109.603 51.5563 112.925 51.5563V48.8694ZM102.976 50.9941C100.167 52.3988 97.7538 54.309 95.7464 56.7178L97.8105 58.4379C99.58 56.3144 101.699 54.6365 104.178 53.3973L102.976 50.9941ZM95.7647 56.6963C93.7573 59.0048 92.2121 61.7038 91.1217 64.7769L93.6538 65.6754C94.6407 62.8943 96.0226 60.4944 97.7922 58.4594L95.7647 56.6963ZM91.1092 64.8137C90.1201 67.8799 89.628 71.0882 89.628 74.4324H92.3148C92.3148 71.3559 92.7669 68.4267 93.6663 65.6386L91.1092 64.8137ZM89.628 74.4324C89.628 77.7767 90.1201 80.985 91.1092 84.0512L93.6663 83.2263C92.7669 80.4382 92.3148 77.509 92.3148 74.4324H89.628ZM91.1217 84.088C92.2106 87.1568 93.7509 89.8942 95.7464 92.2887L97.8105 90.5686C96.029 88.4308 94.6422 85.9749 93.6538 83.1895L91.1217 84.088ZM95.7647 92.3102C97.7793 94.6271 100.242 96.4825 103.134 97.879L104.303 95.4594C101.719 94.2121 99.5545 92.5738 97.7922 90.5471L95.7647 92.3102ZM103.134 97.879C106.08 99.3011 109.401 99.9955 113.066 99.9955V97.3087C109.745 97.3087 106.833 96.6811 104.303 95.4594L103.134 97.879ZM113.066 99.9955C116.644 99.9955 119.916 99.2988 122.857 97.879L121.689 95.4594C119.153 96.6835 116.288 97.3087 113.066 97.3087V99.9955ZM122.841 97.8866C125.847 96.4836 128.332 94.564 130.266 92.1209L128.16 90.4532C126.506 92.5424 124.364 94.2109 121.705 95.4518L122.841 97.8866ZM128.312 92.2832L137.235 100.356L139.037 98.3641L130.114 90.2908L128.312 92.2832ZM137.116 98.486C134.422 101.629 131.047 104.11 126.968 105.923L128.059 108.378C132.478 106.414 136.185 103.701 139.156 100.235L137.116 98.486ZM126.991 105.913C122.932 107.626 118.299 108.498 113.066 108.498V111.185C118.599 111.185 123.596 110.262 128.036 108.388L126.991 105.913ZM113.066 108.498C108.022 108.498 103.371 107.673 99.1002 106.037L98.1392 108.546C102.744 110.31 107.724 111.185 113.066 111.185V108.498ZM99.1092 106.041C94.9162 104.4 91.2879 102.129 88.2096 99.2318L86.3681 101.188C89.7106 104.334 93.6362 106.784 98.1301 108.543L99.1092 106.041ZM88.2245 99.246C85.1472 96.2592 82.6953 92.6775 80.8726 88.4852L78.4086 89.5565C80.3628 94.0512 83.0098 97.929 86.3532 101.174L88.2245 99.246ZM80.8822 88.508C79.1644 84.3491 78.2929 79.664 78.2929 74.4324H75.6061C75.6061 79.9652 76.5286 85.0057 78.3989 89.5338L80.8822 88.508ZM78.2929 74.4324C78.2929 69.2987 79.1633 64.6602 80.8822 60.4985L78.3989 59.4728C76.5298 63.9981 75.6061 68.9907 75.6061 74.4324H78.2929ZM80.8822 60.4985C82.6098 56.3161 85.0109 52.7422 88.0829 49.7605L86.2116 47.8325C82.8628 51.0827 80.2594 54.9683 78.3989 59.4728L80.8822 60.4985ZM88.0829 49.7605C91.1597 46.7742 94.7832 44.4615 98.9676 42.8241L97.9885 40.322C93.4859 42.0839 89.5556 44.5868 86.2116 47.8325L88.0829 49.7605ZM98.9585 42.8277C103.232 41.1909 107.837 40.3671 112.783 40.3671V37.6802C107.532 37.6802 102.6 38.556 97.9976 40.3185L98.9585 42.8277ZM112.783 40.3671C117.32 40.3671 121.822 41.2736 126.297 43.1002L127.313 40.6126C122.534 38.6622 117.688 37.6802 112.783 37.6802V40.3671ZM126.306 43.1037C130.831 44.9137 134.353 47.5145 136.926 50.8862L139.062 49.2562C136.159 45.4517 132.221 42.5759 127.304 40.609L126.306 43.1037ZM137.149 49.0267L127.518 56.8166L129.208 58.9057L138.839 51.1157L137.149 49.0267ZM164.925 70.0418H163.581V71.3852H164.925V70.0418ZM165.35 70.0418V71.3852H165.92L166.316 70.9752L165.35 70.0418ZM193.535 40.8649V39.5215H192.965L192.569 39.9315L193.535 40.8649ZM211.381 40.8649L212.316 41.8299L214.699 39.5215H211.381V40.8649ZM179.938 71.3165L179.004 70.3515L178.058 71.2676L178.955 72.2316L179.938 71.3165ZM214.072 108V109.343H217.157L215.056 107.085L214.072 108ZM195.66 108L194.646 108.882L195.048 109.343H195.66V108ZM165.35 73.1577L166.363 72.276L165.962 71.8143H165.35V73.1577ZM164.925 73.1577V71.8143H163.581V73.1577H164.925ZM164.925 108V109.343H166.268V108H164.925ZM151.611 108H150.268V109.343H151.611V108ZM151.611 0.92379V-0.419636H150.268V0.92379H151.611ZM164.925 0.92379H166.268V-0.419636H164.925V0.92379ZM164.925 71.3852H165.35V68.6983H164.925V71.3852ZM166.316 70.9752L194.501 41.7983L192.569 39.9315L164.384 69.1084L166.316 70.9752ZM193.535 42.2083H211.381V39.5215H193.535V42.2083ZM210.447 39.8999L179.004 70.3515L180.873 72.2815L212.316 41.8299L210.447 39.8999ZM178.955 72.2316L213.089 108.915L215.056 107.085L180.922 70.4013L178.955 72.2316ZM214.072 106.657H195.66V109.343H214.072V106.657ZM196.673 107.118L166.363 72.276L164.336 74.0395L194.646 108.882L196.673 107.118ZM165.35 71.8143H164.925V74.5012H165.35V71.8143ZM163.581 73.1577V108H166.268V73.1577H163.581ZM164.925 106.657H151.611V109.343H164.925V106.657ZM152.955 108V0.92379H150.268V108H152.955ZM151.611 2.26721H164.925V-0.419636H151.611V2.26721ZM163.581 0.92379V70.0418H166.268V0.92379H163.581ZM262.135 7.72228V6.37886H260.792V7.72228H262.135ZM308.025 8.99699L308.32 7.68633L308.025 8.99699ZM318.081 13.246L317.328 14.3583L317.336 14.3638L317.344 14.3692L318.081 13.246ZM325.305 21.036L324.132 21.6913L324.139 21.7043L324.147 21.7171L325.305 21.036ZM323.322 47.0969L322.298 46.2268L323.322 47.0969ZM310.575 54.8868L310.227 53.5891L309.231 53.8559V54.8868H310.575ZM310.575 55.1701H309.231V56.3647L310.418 56.5043L310.575 55.1701ZM319.498 57.7195L318.914 58.9293L318.931 58.9376L318.948 58.9454L319.498 57.7195ZM326.579 62.6767L325.608 63.6043V63.6043L326.579 62.6767ZM331.112 70.0418L329.85 70.5042L329.857 70.5226L329.864 70.5407L331.112 70.0418ZM329.837 92.1369L328.661 91.4871L329.837 92.1369ZM321.764 101.06L322.509 102.178L322.52 102.171L322.53 102.163L321.764 101.06ZM309.725 106.3L310.051 107.604L310.06 107.601L310.069 107.599L309.725 106.3ZM262.135 108H260.792V109.343H262.135V108ZM276.157 50.0712H274.814V51.4146H276.157V50.0712ZM301.935 49.2214L302.248 50.5277L302.266 50.5234L302.284 50.5186L301.935 49.2214ZM308.308 46.3887L309.067 47.4974L309.086 47.4842L309.105 47.4702L308.308 46.3887ZM312.557 41.5731L313.735 42.2205L313.741 42.2085L313.747 42.1964L312.557 41.5731ZM308.167 23.0189L307.48 24.1733L307.49 24.1794L307.5 24.1853L308.167 23.0189ZM276.157 19.478V18.1346H274.814V19.478H276.157ZM276.157 96.1026H274.814V97.4461H276.157V96.1026ZM302.501 95.3945L302.715 96.7207L302.732 96.718L302.749 96.7149L302.501 95.3945ZM310.575 92.5618L309.938 91.3789L309.928 91.3842L309.918 91.3896L310.575 92.5618ZM316.382 87.3213L315.264 86.576L315.256 86.5874L316.382 87.3213ZM312.557 65.9343L313.29 64.8086L312.557 65.9343ZM276.157 61.9686V60.6251H274.814V61.9686H276.157ZM262.135 9.0657H296.694V6.37886H262.135V9.0657ZM296.694 9.0657C300.37 9.0657 304.048 9.47907 307.73 10.3076L308.32 7.68633C304.449 6.8153 300.573 6.37886 296.694 6.37886V9.0657ZM307.73 10.3076C311.359 11.1241 314.552 12.4782 317.328 14.3583L318.835 12.1338C315.756 10.0481 312.245 8.56952 308.32 7.68633L307.73 10.3076ZM317.344 14.3692C320.182 16.2313 322.441 18.6662 324.132 21.6913L326.477 20.3806C324.58 16.985 322.024 14.2265 318.818 12.1229L317.344 14.3692ZM324.147 21.7171C325.883 24.669 326.794 28.4302 326.794 33.075H329.481C329.481 28.0885 328.503 23.8238 326.463 20.3548L324.147 21.7171ZM326.794 33.075C326.794 38.3693 325.276 42.723 322.298 46.2268L324.345 47.9669C327.788 43.9168 329.481 38.9227 329.481 33.075H326.794ZM322.298 46.2268C319.283 49.7743 315.28 52.2357 310.227 53.5891L310.922 56.1845C316.445 54.7052 320.94 51.9733 324.345 47.9669L322.298 46.2268ZM309.231 54.8868V55.1701H311.918V54.8868H309.231ZM310.418 56.5043C313.489 56.8656 316.318 57.6763 318.914 58.9293L320.082 56.5097C317.201 55.1189 314.081 54.2299 310.732 53.8358L310.418 56.5043ZM318.948 58.9454C321.535 60.105 323.75 61.6585 325.608 63.6043L327.551 61.7491C325.443 59.5404 322.937 57.789 320.047 56.4936L318.948 58.9454ZM325.608 63.6043C327.457 65.5414 328.872 67.8359 329.85 70.5042L332.373 69.5793C331.274 66.5822 329.668 63.9667 327.551 61.7491L325.608 63.6043ZM329.864 70.5407C330.925 73.1934 331.468 76.184 331.468 79.5313H334.155C334.155 75.8913 333.564 72.5555 332.359 69.5428L329.864 70.5407ZM331.468 79.5313C331.468 84.1595 330.516 88.1301 328.661 91.4871L331.013 92.7867C333.123 88.9674 334.155 84.5344 334.155 79.5313H331.468ZM328.661 91.4871C326.779 94.8927 324.229 97.7124 320.997 99.9564L322.53 102.163C326.097 99.6862 328.929 96.5572 331.013 92.7867L328.661 91.4871ZM321.019 99.9421C317.761 102.114 313.888 103.806 309.38 105.002L310.069 107.599C314.815 106.34 318.968 104.538 322.509 102.178L321.019 99.9421ZM309.399 104.997C304.984 106.101 300.232 106.657 295.136 106.657V109.343C300.427 109.343 305.401 108.766 310.051 107.604L309.399 104.997ZM295.136 106.657H262.135V109.343H295.136V106.657ZM263.479 108V7.72228H260.792V108H263.479ZM276.157 51.4146H294.428V48.7278H276.157V51.4146ZM294.428 51.4146C297.168 51.4146 299.776 51.121 302.248 50.5277L301.621 47.9151C299.372 48.4549 296.976 48.7278 294.428 48.7278V51.4146ZM302.284 50.5186C304.861 49.8249 307.129 48.8235 309.067 47.4974L307.55 45.28C305.9 46.4089 303.919 47.296 301.586 47.9242L302.284 50.5186ZM309.105 47.4702C311.051 46.0369 312.599 44.2854 313.735 42.2205L311.38 40.9257C310.439 42.6377 309.154 44.0966 307.511 45.3072L309.105 47.4702ZM313.747 42.1964C314.907 39.9829 315.459 37.3989 315.459 34.4913H312.772C312.772 37.0603 312.285 39.1975 311.367 40.9497L313.747 42.1964ZM315.459 34.4913C315.459 28.7294 313.299 24.4046 308.833 21.8525L307.5 24.1853C310.966 26.1655 312.772 29.489 312.772 34.4913H315.459ZM308.854 21.8645C304.607 19.3364 299.005 18.1346 292.162 18.1346V20.8214C298.727 20.8214 303.795 21.9801 307.48 24.1733L308.854 21.8645ZM292.162 18.1346H276.157V20.8214H292.162V18.1346ZM274.814 19.478V50.0712H277.501V19.478H274.814ZM276.157 97.4461H293.72V94.7592H276.157V97.4461ZM293.72 97.4461C296.72 97.4461 299.718 97.2041 302.715 96.7207L302.287 94.0682C299.43 94.529 296.575 94.7592 293.72 94.7592V97.4461ZM302.749 96.7149C305.895 96.1251 308.727 95.1361 311.231 93.7339L309.918 91.3896C307.701 92.6313 305.151 93.5308 302.254 94.0741L302.749 96.7149ZM311.211 93.7446C313.849 92.3245 315.959 90.4291 317.507 88.0551L315.256 86.5874C313.972 88.5569 312.21 90.1552 309.938 91.3789L311.211 93.7446ZM317.499 88.0665C319.19 85.5305 319.991 82.4217 319.991 78.8232H317.304C317.304 82.0231 316.595 84.5797 315.264 86.5761L317.499 88.0665ZM319.991 78.8232C319.991 72.5387 317.821 67.7587 313.29 64.8086L311.824 67.0601C315.414 69.3977 317.304 73.2103 317.304 78.8232H319.991ZM313.29 64.8086C308.92 61.9625 302.765 60.6251 294.995 60.6251V63.312C302.521 63.312 308.075 64.6185 311.824 67.0601L313.29 64.8086ZM294.995 60.6251H276.157V63.312H294.995V60.6251ZM274.814 61.9686V96.1026H277.501V61.9686H274.814ZM399.607 108L398.271 108.148L398.404 109.343H399.607V108ZM399.182 102.335L397.84 102.393L397.84 102.396L399.182 102.335ZM399.04 96.9525H400.384V95.609H399.04V96.9525ZM398.757 96.9525V95.609H397.907L397.543 96.3773L398.757 96.9525ZM390.117 106.159L390.824 107.301L390.831 107.296L390.117 106.159ZM365.473 107.717L364.917 108.94L364.923 108.943L364.93 108.946L365.473 107.717ZM357.683 101.91L356.622 102.734L356.639 102.756L356.657 102.777L357.683 101.91ZM353.15 93.1283L351.859 93.4974L351.863 93.5143L351.869 93.5311L353.15 93.1283ZM351.734 40.8649V39.5215H350.391V40.8649H351.734ZM365.048 40.8649H366.391V39.5215H365.048V40.8649ZM365.614 85.9049L364.285 86.1018L364.289 86.1303L364.295 86.1586L365.614 85.9049ZM368.022 92.4201L366.87 93.1113L368.022 92.4201ZM393.375 92.7034L394.407 93.5634L394.412 93.5575L394.417 93.5515L393.375 92.7034ZM398.332 40.8649V39.5215H396.989V40.8649H398.332ZM411.646 40.8649H412.989V39.5215H411.646V40.8649ZM411.787 100.493L413.13 100.449L411.787 100.493ZM412.212 108V109.343H413.677L413.551 107.884L412.212 108ZM400.942 107.852C400.757 106.186 400.617 104.328 400.524 102.274L397.84 102.396C397.935 104.496 398.079 106.414 398.271 108.148L400.942 107.852ZM400.524 102.276C400.43 100.115 400.384 98.342 400.384 96.9525H397.697C397.697 98.3956 397.745 100.211 397.84 102.393L400.524 102.276ZM399.04 95.609H398.757V98.2959H399.04V95.609ZM397.543 96.3773C395.974 99.6901 393.292 102.579 389.403 105.021L390.831 107.296C395.063 104.639 398.141 101.391 399.971 97.5276L397.543 96.3773ZM389.41 105.016C385.668 107.333 381.477 108.498 376.803 108.498V111.185C381.949 111.185 386.635 109.895 390.824 107.301L389.41 105.016ZM376.803 108.498C372.603 108.498 369.019 107.813 366.015 106.488L364.93 108.946C368.347 110.453 372.316 111.185 376.803 111.185V108.498ZM366.028 106.494C363.082 105.154 360.649 103.336 358.708 101.042L356.657 102.777C358.871 105.394 361.632 107.447 364.917 108.94L366.028 106.494ZM358.743 101.085C356.865 98.6707 355.426 95.8888 354.432 92.7255L351.869 93.5311C352.952 96.9775 354.534 100.05 356.622 102.734L358.743 101.085ZM354.442 92.7592C353.535 89.5856 353.077 86.17 353.077 82.5057H350.391C350.391 86.3952 350.877 90.0613 351.859 93.4974L354.442 92.7592ZM353.077 82.5057V40.8649H350.391V82.5057H353.077ZM351.734 42.2083H365.048V39.5215H351.734V42.2083ZM363.704 40.8649V77.9733H366.391V40.8649H363.704ZM363.704 77.9733C363.704 80.7734 363.897 83.4833 364.285 86.1018L366.943 85.708C366.576 83.2277 366.391 80.6498 366.391 77.9733H363.704ZM364.295 86.1586C364.793 88.7475 365.646 91.071 366.87 93.1113L369.174 91.7289C368.132 89.9923 367.38 87.9724 366.933 85.6512L364.295 86.1586ZM366.87 93.1113C368.126 95.2046 369.854 96.876 372.029 98.1189L373.362 95.786C371.572 94.7628 370.184 93.4126 369.174 91.7289L366.87 93.1113ZM372.029 98.1189C374.276 99.4026 377.076 99.9955 380.344 99.9955V97.3087C377.38 97.3087 375.082 96.7684 373.362 95.786L372.029 98.1189ZM380.344 99.9955C386.106 99.9955 390.834 97.8502 394.407 93.5634L392.343 91.8434C389.305 95.4882 385.347 97.3087 380.344 97.3087V99.9955ZM394.417 93.5515C397.966 89.1912 399.675 83.4818 399.675 76.557H396.989C396.989 83.0403 395.393 88.0952 392.333 91.8553L394.417 93.5515ZM399.675 76.557V40.8649H396.989V76.557H399.675ZM398.332 42.2083H411.646V39.5215H398.332V42.2083ZM410.302 40.8649V93.5532H412.989V40.8649H410.302ZM410.302 93.5532C410.302 95.3681 410.35 97.6979 410.445 100.538L413.13 100.449C413.036 97.6233 412.989 95.3264 412.989 93.5532H410.302ZM410.445 100.538C410.54 103.388 410.682 105.915 410.874 108.116L413.551 107.884C413.364 105.742 413.224 103.264 413.13 100.449L410.445 100.538ZM412.212 106.657H399.607V109.343H412.212V106.657ZM467.596 51.7708V53.1143H468.939V51.7708H467.596ZM449.75 51.7708V50.4274H448.406V51.7708H449.75ZM452.016 95.5361L450.989 96.4014L451 96.4152L451.012 96.4286L452.016 95.5361ZM463.205 97.6606L462.942 96.3433L463.205 97.6606ZM467.029 96.3859L468.372 96.3336L468.291 94.2533L466.429 95.1843L467.029 96.3859ZM467.454 107.292L467.901 108.559L468.835 108.229L468.797 107.24L467.454 107.292ZM462.072 108.567L461.882 107.237L461.845 107.242L461.809 107.249L462.072 108.567ZM441.535 103.893L440.559 104.816L440.566 104.823L440.572 104.829L441.535 103.893ZM436.578 51.7708H437.921V50.4274H436.578V51.7708ZM423.689 51.7708H422.346V53.1143H423.689V51.7708ZM423.689 40.8649V39.5215H422.346V40.8649H423.689ZM436.578 40.8649V42.2083H437.921V40.8649H436.578ZM436.578 21.6025V20.2591H435.234V21.6025H436.578ZM449.75 21.6025H451.093V20.2591H449.75V21.6025ZM449.75 40.8649H448.406V42.2083H449.75V40.8649ZM467.596 40.8649H468.939V39.5215H467.596V40.8649ZM467.596 50.4274H449.75V53.1143H467.596V50.4274ZM448.406 51.7708V86.7547H451.093V51.7708H448.406ZM448.406 86.7547C448.406 90.9214 449.17 94.2423 450.989 96.4014L453.044 94.6708C451.84 93.2418 451.093 90.7085 451.093 86.7547H448.406ZM451.012 96.4286C452.876 98.5252 455.728 99.429 459.24 99.429V96.7421C456.141 96.7421 454.178 95.9462 453.02 94.6436L451.012 96.4286ZM459.24 99.429C460.569 99.429 461.98 99.2756 463.469 98.978L462.942 96.3433C461.597 96.6122 460.365 96.7421 459.24 96.7421V99.429ZM463.469 98.978C464.986 98.6745 466.377 98.2143 467.63 97.5875L466.429 95.1843C465.416 95.6906 464.257 96.0802 462.942 96.3433L463.469 98.978ZM465.687 96.4382L466.112 107.344L468.797 107.24L468.372 96.3336L465.687 96.4382ZM467.007 106.025C465.499 106.557 463.792 106.964 461.882 107.237L462.262 109.896C464.318 109.603 466.2 109.159 467.901 108.559L467.007 106.025ZM461.809 107.249C460.013 107.608 458.119 107.79 456.124 107.79V110.477C458.282 110.477 460.354 110.28 462.336 109.884L461.809 107.249ZM456.124 107.79C450.047 107.79 445.575 106.118 442.498 102.956L440.572 104.829C444.294 108.654 449.548 110.477 456.124 110.477V107.79ZM442.511 102.969C439.53 99.8184 437.921 94.9694 437.921 88.1711H435.234C435.234 95.3475 436.93 100.979 440.559 104.816L442.511 102.969ZM437.921 88.1711V51.7708H435.234V88.1711H437.921ZM436.578 50.4274H423.689V53.1143H436.578V50.4274ZM425.032 51.7708V40.8649H422.346V51.7708H425.032ZM423.689 42.2083H436.578V39.5215H423.689V42.2083ZM437.921 40.8649V21.6025H435.234V40.8649H437.921ZM436.578 22.946H449.75V20.2591H436.578V22.946ZM448.406 21.6025V40.8649H451.093V21.6025H448.406ZM449.75 42.2083H467.596V39.5215H449.75V42.2083ZM466.253 40.8649V51.7708H468.939V40.8649H466.253ZM512.134 51.7708V53.1143H513.477V51.7708H512.134ZM494.288 51.7708V50.4274H492.944V51.7708H494.288ZM496.554 95.5361L495.526 96.4014L495.538 96.4152L495.55 96.4286L496.554 95.5361ZM507.743 97.6606L507.479 96.3433L507.743 97.6606ZM511.567 96.3859L512.909 96.3336L512.828 94.2533L510.966 95.1843L511.567 96.3859ZM511.992 107.292L512.439 108.559L513.373 108.229L513.334 107.24L511.992 107.292ZM506.61 108.567L506.42 107.237L506.383 107.242L506.346 107.249L506.61 108.567ZM486.073 103.893L485.097 104.816L485.103 104.823L485.11 104.829L486.073 103.893ZM481.115 51.7708H482.459V50.4274H481.115V51.7708ZM468.227 51.7708H466.883V53.1143H468.227V51.7708ZM468.227 40.8649V39.5215H466.883V40.8649H468.227ZM481.115 40.8649V42.2083H482.459V40.8649H481.115ZM481.115 21.6025V20.2591H479.772V21.6025H481.115ZM494.288 21.6025H495.631V20.2591H494.288V21.6025ZM494.288 40.8649H492.944V42.2083H494.288V40.8649ZM512.134 40.8649H513.477V39.5215H512.134V40.8649ZM512.134 50.4274H494.288V53.1143H512.134V50.4274ZM492.944 51.7708V86.7547H495.631V51.7708H492.944ZM492.944 86.7547C492.944 90.9214 493.708 94.2423 495.526 96.4014L497.581 94.6708C496.378 93.2418 495.631 90.7085 495.631 86.7547H492.944ZM495.55 96.4286C497.413 98.5252 500.266 99.429 503.777 99.429V96.7421C500.679 96.7421 498.716 95.9462 497.558 94.6436L495.55 96.4286ZM503.777 99.429C505.107 99.429 506.518 99.2756 508.006 98.978L507.479 96.3433C506.135 96.6122 504.902 96.7421 503.777 96.7421V99.429ZM508.006 98.978C509.524 98.6745 510.914 98.2143 512.168 97.5875L510.966 95.1843C509.954 95.6906 508.795 96.0802 507.479 96.3433L508.006 98.978ZM510.225 96.4382L510.65 107.344L513.334 107.24L512.909 96.3336L510.225 96.4382ZM511.545 106.025C510.036 106.557 508.33 106.964 506.42 107.237L506.8 109.896C508.855 109.603 510.737 109.159 512.439 108.559L511.545 106.025ZM506.346 107.249C504.551 107.608 502.657 107.79 500.661 107.79V110.477C502.82 110.477 504.892 110.28 506.873 109.884L506.346 107.249ZM500.661 107.79C494.584 107.79 490.113 106.118 487.036 102.956L485.11 104.829C488.831 108.654 494.085 110.477 500.661 110.477V107.79ZM487.049 102.969C484.068 99.8184 482.459 94.9694 482.459 88.1711H479.772C479.772 95.3475 481.468 100.979 485.097 104.816L487.049 102.969ZM482.459 88.1711V51.7708H479.772V88.1711H482.459ZM481.115 50.4274H468.227V53.1143H481.115V50.4274ZM469.57 51.7708V40.8649H466.883V51.7708H469.57ZM468.227 42.2083H481.115V39.5215H468.227V42.2083ZM482.459 40.8649V21.6025H479.772V40.8649H482.459ZM481.115 22.946H494.288V20.2591H481.115V22.946ZM492.944 21.6025V40.8649H495.631V21.6025H492.944ZM494.288 42.2083H512.134V39.5215H494.288V42.2083ZM510.79 40.8649V51.7708H513.477V40.8649H510.79ZM591.039 88.596L589.807 88.0603L589.802 88.0717L589.797 88.0831L591.039 88.596ZM583.39 99.9268L584.326 100.891L584.327 100.89L583.39 99.9268ZM571.918 107.292L572.398 108.546L572.41 108.542L572.422 108.537L571.918 107.292ZM543.308 107.292L542.804 108.537L542.816 108.542L542.827 108.546L543.308 107.292ZM531.835 99.9268L530.885 100.877L530.892 100.884L530.9 100.891L531.835 99.9268ZM524.187 88.596L522.945 89.1088L522.95 89.1203L522.955 89.1316L524.187 88.596ZM524.187 60.1273L522.955 59.5916L522.952 59.5982L522.949 59.6047L524.187 60.1273ZM531.835 48.9381L530.9 47.9741L531.835 48.9381ZM543.308 41.7147L543.788 42.9693L543.8 42.9649L543.811 42.9602L543.308 41.7147ZM571.918 41.7147L571.414 42.9602L571.426 42.9649L571.438 42.9693L571.918 41.7147ZM583.39 48.9381L582.455 49.9021L582.462 49.9089L582.469 49.9156L583.39 48.9381ZM591.039 60.1273L589.797 60.6402L589.804 60.6566L589.811 60.6729L591.039 60.1273ZM578.433 65.0845L577.155 65.497L577.161 65.5155L577.167 65.5338L578.433 65.0845ZM574.184 57.4362L573.152 58.2963L573.161 58.3071L573.17 58.3178L574.184 57.4362ZM567.102 52.0541L566.518 53.2639L566.526 53.2678L566.534 53.2715L567.102 52.0541ZM547.982 52.0541L547.414 50.8367L547.406 50.8404L547.398 50.8443L547.982 52.0541ZM541.042 57.4362L542.055 58.3178L542.065 58.3071L542.074 58.2963L541.042 57.4362ZM536.651 65.0845L535.385 64.6353L535.378 64.6536L535.372 64.6721L536.651 65.0845ZM536.651 83.4971L535.372 83.9095L535.378 83.928L535.385 83.9464L536.651 83.4971ZM541.042 91.287L542.074 90.427L541.042 91.287ZM547.982 96.6692L547.398 97.879L547.406 97.8828L547.414 97.8866L547.982 96.6692ZM567.102 96.6692L566.534 95.4518L566.526 95.4555L566.518 95.4594L567.102 96.6692ZM574.184 91.287L573.152 90.427L574.184 91.287ZM578.433 83.4971L577.167 83.0479L577.161 83.0662L577.155 83.0847L578.433 83.4971ZM592.528 74.2908C592.528 79.3177 591.615 83.9016 589.807 88.0603L592.271 89.1316C594.24 84.6034 595.215 79.6505 595.215 74.2908H592.528ZM589.797 88.0831C588.072 92.2605 585.625 95.8832 582.454 98.9632L584.327 100.89C587.766 97.5496 590.418 93.6184 592.28 89.1088L589.797 88.0831ZM582.455 98.9628C579.377 101.95 575.703 104.313 571.414 106.046L572.422 108.537C577.009 106.683 580.983 104.136 584.326 100.891L582.455 98.9628ZM571.438 106.037C567.164 107.674 562.56 108.498 557.613 108.498V111.185C562.864 111.185 567.796 110.309 572.398 108.546L571.438 106.037ZM557.613 108.498C552.666 108.498 548.062 107.674 543.788 106.037L542.827 108.546C547.429 110.309 552.362 111.185 557.613 111.185V108.498ZM543.811 106.046C539.523 104.313 535.848 101.95 532.771 98.9628L530.9 100.891C534.243 104.136 538.217 106.683 542.804 108.537L543.811 106.046ZM532.785 98.9769C529.699 95.8907 527.243 92.256 525.419 88.0603L522.955 89.1316C524.908 93.6229 527.551 97.542 530.885 100.877L532.785 98.9769ZM525.429 88.0831C523.708 83.9186 522.839 79.3267 522.839 74.2908H520.152C520.152 79.6415 521.077 84.5864 522.945 89.1088L525.429 88.0831ZM522.839 74.2908C522.839 69.2545 523.709 64.7139 525.425 60.6499L522.949 59.6047C521.077 64.0388 520.152 68.9406 520.152 74.2908H522.839ZM525.419 60.663C527.242 56.4707 529.694 52.889 532.771 49.9021L530.9 47.9741C527.556 51.2192 524.909 55.097 522.955 59.5916L525.419 60.663ZM532.771 49.9021C535.843 46.9206 539.509 44.608 543.788 42.9693L542.827 40.4602C538.23 42.2207 534.248 44.7237 530.9 47.9741L532.771 49.9021ZM543.811 42.9602C548.079 41.235 552.675 40.3671 557.613 40.3671V37.6802C552.353 37.6802 547.412 38.6064 542.804 40.4692L543.811 42.9602ZM557.613 40.3671C562.551 40.3671 567.147 41.235 571.414 42.9602L572.422 40.4692C567.813 38.6064 562.873 37.6802 557.613 37.6802V40.3671ZM571.438 42.9693C575.716 44.608 579.383 46.9206 582.455 49.9021L584.326 47.9741C580.977 44.7237 576.995 42.2207 572.398 40.4602L571.438 42.9693ZM582.469 49.9156C585.63 52.8965 588.073 56.4662 589.797 60.6402L592.28 59.6144C590.416 55.1014 587.76 51.2117 584.312 47.9607L582.469 49.9156ZM589.811 60.6729C591.615 64.7311 592.528 69.2635 592.528 74.2908H595.215C595.215 68.9316 594.24 64.0216 592.266 59.5817L589.811 60.6729ZM581.335 74.2908C581.335 70.9326 580.791 67.7115 579.699 64.6353L577.167 65.5338C578.153 68.3118 578.648 71.2283 578.648 74.2908H581.335ZM579.712 64.6721C578.716 61.5844 577.213 58.8726 575.198 56.5547L573.17 58.3178C574.932 60.3434 576.262 62.7305 577.155 65.497L579.712 64.6721ZM575.216 56.5762C573.194 54.1493 570.671 52.2371 567.671 50.8367L566.534 53.2715C569.199 54.515 571.398 56.1909 573.152 58.2963L575.216 56.5762ZM567.686 50.8443C564.736 49.42 561.367 48.7278 557.613 48.7278V51.4146C561.035 51.4146 563.992 52.0444 566.518 53.2639L567.686 50.8443ZM557.613 48.7278C553.857 48.7278 550.449 49.4203 547.414 50.8367L548.55 53.2715C551.18 52.044 554.192 51.4146 557.613 51.4146V48.7278ZM547.398 50.8443C544.492 52.2469 542.024 54.1582 540.01 56.5762L542.074 58.2963C543.836 56.1819 545.995 54.5052 548.566 53.2639L547.398 50.8443ZM540.028 56.5547C538.02 58.8632 536.475 61.5622 535.385 64.6353L537.917 65.5338C538.904 62.7526 540.286 60.3527 542.055 58.3178L540.028 56.5547ZM535.372 64.6721C534.383 67.7382 533.891 70.9466 533.891 74.2908H536.578C536.578 71.2143 537.03 68.2851 537.929 65.497L535.372 64.6721ZM533.891 74.2908C533.891 77.6351 534.383 80.8434 535.372 83.9095L537.929 83.0847C537.03 80.2966 536.578 77.3674 536.578 74.2908H533.891ZM535.385 83.9464C536.474 87.0152 538.014 89.7525 540.01 92.1471L542.074 90.427C540.292 88.2892 538.905 85.8333 537.917 83.0479L535.385 83.9464ZM540.01 92.1471C542.024 94.565 544.492 96.4764 547.398 97.879L548.566 95.4594C545.995 94.2181 543.836 92.5414 542.074 90.427L540.01 92.1471ZM547.414 97.8866C550.449 99.3029 553.857 99.9955 557.613 99.9955V97.3087C554.192 97.3087 551.18 96.6793 548.55 95.4518L547.414 97.8866ZM557.613 99.9955C561.367 99.9955 564.736 99.3033 567.686 97.879L566.518 95.4594C563.992 96.6789 561.035 97.3087 557.613 97.3087V99.9955ZM567.671 97.8866C570.671 96.4862 573.194 94.574 575.216 92.1471L573.152 90.427C571.398 92.5324 569.199 94.2083 566.534 95.4518L567.671 97.8866ZM575.216 92.1471C577.219 89.7433 578.717 86.9932 579.712 83.9095L577.155 83.0847C576.261 85.8553 574.926 88.2985 573.152 90.427L575.216 92.1471ZM579.699 83.9464C580.791 80.8701 581.335 77.6491 581.335 74.2908H578.648C578.648 77.3534 578.153 80.2698 577.167 83.0479L579.699 83.9464ZM624.373 40.8649L625.708 40.7166L625.575 39.5215H624.373V40.8649ZM624.798 46.672L623.456 46.7303L623.456 46.733L624.798 46.672ZM624.939 51.9125H623.596V53.2559H624.939V51.9125ZM625.364 51.9125V53.2559H626.214L626.578 52.4876L625.364 51.9125ZM628.764 46.9552L627.785 46.0345L627.783 46.0364L628.764 46.9552ZM633.862 42.8478L634.554 43.9998L634.574 43.9874L634.595 43.9742L633.862 42.8478ZM640.094 40.0151L639.718 38.7254L640.094 40.0151ZM658.365 41.2898L657.779 42.4986L657.794 42.5059L657.809 42.5128L658.365 41.2898ZM666.155 47.0969L667.181 46.2291L666.155 47.0969ZM670.688 55.7366L669.396 56.1057L669.401 56.1226L669.406 56.1394L670.688 55.7366ZM672.246 108V109.343H673.589V108H672.246ZM658.932 108H657.588V109.343H658.932V108ZM658.224 62.96L656.896 63.1643L656.9 63.1891L656.904 63.2137L658.224 62.96ZM655.957 56.4448L657.109 55.7536L655.957 56.4448ZM651.284 51.9125L651.95 50.746L651.284 51.9125ZM630.605 56.3032L629.575 55.4408L629.573 55.4431L630.605 56.3032ZM625.648 108V109.343H626.991V108H625.648ZM612.334 108H610.99V109.343H612.334V108ZM612.192 48.3716L613.535 48.3268L612.192 48.3716ZM611.767 40.8649V39.5215H610.302L610.429 40.9813L611.767 40.8649ZM623.038 41.0133C623.222 42.6763 623.362 44.581 623.456 46.7303L626.14 46.6136C626.044 44.4194 625.901 42.4528 625.708 40.7166L623.038 41.0133ZM623.456 46.733C623.55 48.7984 623.596 50.5234 623.596 51.9125H626.283C626.283 50.4688 626.235 48.7001 626.14 46.611L623.456 46.733ZM624.939 53.2559H625.364V50.569H624.939V53.2559ZM626.578 52.4876C627.366 50.8249 628.418 49.2875 629.744 47.8741L627.783 46.0364C626.276 47.6445 625.062 49.4119 624.15 51.3374L626.578 52.4876ZM629.742 47.876C631.168 46.3606 632.771 45.0693 634.554 43.9998L633.171 41.6958C631.177 42.8925 629.381 44.3395 627.785 46.0345L629.742 47.876ZM634.595 43.9742C636.368 42.8216 638.324 41.9308 640.471 41.3048L639.718 38.7254C637.332 39.4214 635.134 40.419 633.13 41.7214L634.595 43.9742ZM640.471 41.3048C642.61 40.6809 644.843 40.3671 647.176 40.3671V37.6802C644.599 37.6802 642.111 38.0274 639.718 38.7254L640.471 41.3048ZM647.176 40.3671C651.367 40.3671 654.886 41.096 657.779 42.4986L658.951 40.081C655.612 38.4621 651.672 37.6802 647.176 37.6802V40.3671ZM657.809 42.5128C660.756 43.8524 663.189 45.671 665.13 47.9646L667.181 46.2291C664.967 43.6127 662.206 41.56 658.921 40.0668L657.809 42.5128ZM665.13 47.9646C667.076 50.2643 668.5 52.9713 669.396 56.1057L671.979 55.3675C670.986 51.8923 669.39 48.8394 667.181 46.2291L665.13 47.9646ZM669.406 56.1394C670.4 59.3027 670.902 62.7067 670.902 66.3593H673.589C673.589 62.458 673.052 58.7802 671.969 55.3338L669.406 56.1394ZM670.902 66.3593V108H673.589V66.3593H670.902ZM672.246 106.657H658.932V109.343H672.246V106.657ZM660.275 108V70.7499H657.588V108H660.275ZM660.275 70.7499C660.275 67.9345 660.033 65.2524 659.543 62.7063L656.904 63.2137C657.359 65.5776 657.588 68.0888 657.588 70.7499H660.275ZM659.551 62.7557C659.151 60.1505 658.343 57.8093 657.109 55.7536L654.805 57.136C655.838 58.8572 656.541 60.8595 656.896 63.1643L659.551 62.7557ZM657.109 55.7536C655.853 53.6603 654.125 51.9889 651.95 50.746L650.617 53.0789C652.408 54.1022 653.795 55.4524 654.805 57.136L657.109 55.7536ZM651.95 50.746C649.703 49.4623 646.903 48.8694 643.635 48.8694V51.5563C646.599 51.5563 648.898 52.0965 650.617 53.0789L651.95 50.746ZM643.635 48.8694C637.949 48.8694 633.229 51.0762 629.575 55.4408L631.635 57.1655C634.779 53.4097 638.746 51.5563 643.635 51.5563V48.8694ZM629.573 55.4431C626.013 59.7146 624.304 65.3849 624.304 72.3079H626.991C626.991 65.8228 628.587 60.8232 631.637 57.1632L629.573 55.4431ZM624.304 72.3079V108H626.991V72.3079H624.304ZM625.648 106.657H612.334V109.343H625.648V106.657ZM613.677 108V55.3117H610.99V108H613.677ZM613.677 55.3117C613.677 53.4968 613.63 51.167 613.535 48.3268L610.85 48.4163C610.944 51.2416 610.99 53.5385 610.99 55.3117H613.677ZM613.535 48.3268C613.44 45.4769 613.297 42.9499 613.106 40.7485L610.429 40.9813C610.615 43.1234 610.756 45.6009 610.85 48.4163L613.535 48.3268ZM611.767 42.2083H624.373V39.5215H611.767V42.2083Z" fill="black" mask="url(#path-1-outside-1_491_8819)"/>
</g>
</svg>
