<svg width="652" height="475" viewBox="0 0 652 475" fill="none" xmlns="http://www.w3.org/2000/svg">
<g filter="url(#filter0_d_496_19093)">
<rect x="30" y="26.2549" width="592" height="414" fill="#FDFDFD" shape-rendering="crispEdges"/>
<rect x="30.5" y="26.7549" width="591" height="413" stroke="black" stroke-opacity="0.05" shape-rendering="crispEdges"/>
<rect width="484" height="318" transform="translate(84 74.2549)" fill="white"/>
<rect x="84.5" y="74.7549" width="483" height="55" rx="11.5" stroke="#190F26" stroke-opacity="0.1"/>
<path d="M113.25 93.2549C112.016 93.2549 111 94.2711 111 95.5049V109.005C111 110.239 112.016 111.255 113.25 111.255H122.75C122.949 111.255 123.14 111.176 123.28 111.035C123.283 111.033 123.286 111.03 123.288 111.027L128.78 105.535C128.921 105.395 129 105.204 129 105.005V95.5049C129 94.2711 127.984 93.2549 126.75 93.2549H113.25ZM113.25 94.7549H126.75C127.173 94.7549 127.5 95.0816 127.5 95.5049V104.255H124.25C123.016 104.255 122 105.271 122 106.505V109.755H113.25C112.827 109.755 112.5 109.428 112.5 109.005V95.5049C112.5 95.0816 112.827 94.7549 113.25 94.7549ZM115.75 97.2539C115.651 97.2525 115.552 97.2709 115.46 97.3079C115.367 97.345 115.284 97.4 115.213 97.4698C115.142 97.5396 115.086 97.6227 115.047 97.7144C115.009 97.8061 114.989 97.9045 114.989 98.0039C114.989 98.1033 115.009 98.2017 115.047 98.2934C115.086 98.3851 115.142 98.4682 115.213 98.538C115.284 98.6078 115.367 98.6628 115.46 98.6999C115.552 98.737 115.651 98.7553 115.75 98.7539H124.25C124.349 98.7553 124.448 98.737 124.54 98.6999C124.633 98.6628 124.716 98.6078 124.787 98.538C124.858 98.4682 124.914 98.3851 124.953 98.2934C124.991 98.2017 125.011 98.1033 125.011 98.0039C125.011 97.9045 124.991 97.8061 124.953 97.7144C124.914 97.6227 124.858 97.5396 124.787 97.4698C124.716 97.4 124.633 97.345 124.54 97.3079C124.448 97.2709 124.349 97.2525 124.25 97.2539H115.75ZM115.75 100.754C115.651 100.753 115.552 100.771 115.46 100.808C115.367 100.845 115.284 100.9 115.213 100.97C115.142 101.04 115.086 101.123 115.047 101.214C115.009 101.306 114.989 101.405 114.989 101.504C114.989 101.603 115.009 101.702 115.047 101.793C115.086 101.885 115.142 101.968 115.213 102.038C115.284 102.108 115.367 102.163 115.46 102.2C115.552 102.237 115.651 102.255 115.75 102.254H122.25C122.349 102.255 122.448 102.237 122.54 102.2C122.633 102.163 122.716 102.108 122.787 102.038C122.858 101.968 122.914 101.885 122.953 101.793C122.991 101.702 123.011 101.603 123.011 101.504C123.011 101.405 122.991 101.306 122.953 101.214C122.914 101.123 122.858 101.04 122.787 100.97C122.716 100.9 122.633 100.845 122.54 100.808C122.448 100.771 122.349 100.753 122.25 100.754H115.75ZM124.25 105.755H126.439L123.5 108.694V106.505C123.5 106.082 123.827 105.755 124.25 105.755Z" fill="#190F26" fill-opacity="0.3"/>
<path d="M153.575 100.884H152.024C151.964 100.553 151.853 100.261 151.691 100.009C151.529 99.7573 151.33 99.5435 151.094 99.3678C150.859 99.1921 150.596 99.0596 150.304 98.9701C150.016 98.8806 149.709 98.8358 149.384 98.8358C148.798 98.8358 148.272 98.9833 147.808 99.2783C147.348 99.5733 146.983 100.006 146.714 100.576C146.449 101.146 146.317 101.842 146.317 102.664C146.317 103.493 146.449 104.192 146.714 104.762C146.983 105.332 147.349 105.763 147.813 106.055C148.277 106.346 148.799 106.492 149.379 106.492C149.701 106.492 150.006 106.449 150.294 106.363C150.586 106.273 150.849 106.142 151.085 105.97C151.32 105.798 151.519 105.587 151.681 105.339C151.847 105.087 151.961 104.798 152.024 104.474L153.575 104.479C153.492 104.979 153.332 105.44 153.093 105.861C152.858 106.278 152.554 106.64 152.183 106.945C151.815 107.246 151.394 107.48 150.92 107.646C150.446 107.811 149.929 107.894 149.369 107.894C148.488 107.894 147.702 107.685 147.013 107.268C146.323 106.847 145.78 106.245 145.382 105.463C144.988 104.681 144.79 103.748 144.79 102.664C144.79 101.577 144.989 100.644 145.387 99.865C145.785 99.0828 146.328 98.4829 147.018 98.0653C147.707 97.6443 148.491 97.4339 149.369 97.4339C149.91 97.4339 150.413 97.5117 150.881 97.6675C151.351 97.82 151.774 98.0454 152.148 98.3437C152.523 98.6386 152.833 98.9999 153.078 99.4275C153.323 99.8517 153.489 100.337 153.575 100.884ZM158.511 107.909C157.795 107.909 157.17 107.745 156.637 107.417C156.103 107.089 155.689 106.63 155.394 106.04C155.099 105.45 154.951 104.76 154.951 103.972C154.951 103.179 155.099 102.487 155.394 101.893C155.689 101.3 156.103 100.839 156.637 100.511C157.17 100.183 157.795 100.019 158.511 100.019C159.227 100.019 159.852 100.183 160.385 100.511C160.919 100.839 161.333 101.3 161.628 101.893C161.923 102.487 162.07 103.179 162.07 103.972C162.07 104.76 161.923 105.45 161.628 106.04C161.333 106.63 160.919 107.089 160.385 107.417C159.852 107.745 159.227 107.909 158.511 107.909ZM158.516 106.661C158.98 106.661 159.364 106.539 159.669 106.293C159.974 106.048 160.2 105.722 160.345 105.314C160.494 104.906 160.569 104.457 160.569 103.967C160.569 103.479 160.494 103.032 160.345 102.624C160.2 102.213 159.974 101.883 159.669 101.635C159.364 101.386 158.98 101.262 158.516 101.262C158.048 101.262 157.661 101.386 157.352 101.635C157.048 101.883 156.82 102.213 156.671 102.624C156.526 103.032 156.453 103.479 156.453 103.967C156.453 104.457 156.526 104.906 156.671 105.314C156.82 105.722 157.048 106.048 157.352 106.293C157.661 106.539 158.048 106.661 158.516 106.661ZM165.216 97.5731V107.755H163.73V97.5731H165.216ZM170.433 107.909C169.717 107.909 169.092 107.745 168.558 107.417C168.025 107.089 167.61 106.63 167.316 106.04C167.021 105.45 166.873 104.76 166.873 103.972C166.873 103.179 167.021 102.487 167.316 101.893C167.61 101.3 168.025 100.839 168.558 100.511C169.092 100.183 169.717 100.019 170.433 100.019C171.149 100.019 171.773 100.183 172.307 100.511C172.841 100.839 173.255 101.3 173.55 101.893C173.845 102.487 173.992 103.179 173.992 103.972C173.992 104.76 173.845 105.45 173.55 106.04C173.255 106.63 172.841 107.089 172.307 107.417C171.773 107.745 171.149 107.909 170.433 107.909ZM170.438 106.661C170.902 106.661 171.286 106.539 171.591 106.293C171.896 106.048 172.121 105.722 172.267 105.314C172.416 104.906 172.491 104.457 172.491 103.967C172.491 103.479 172.416 103.032 172.267 102.624C172.121 102.213 171.896 101.883 171.591 101.635C171.286 101.386 170.902 101.262 170.438 101.262C169.97 101.262 169.583 101.386 169.274 101.635C168.969 101.883 168.742 102.213 168.593 102.624C168.447 103.032 168.374 103.479 168.374 103.967C168.374 104.457 168.447 104.906 168.593 105.314C168.742 105.722 168.969 106.048 169.274 106.293C169.583 106.539 169.97 106.661 170.438 106.661ZM175.652 107.755V100.119H177.088V101.332H177.168C177.307 100.921 177.552 100.597 177.904 100.362C178.258 100.123 178.659 100.004 179.107 100.004C179.2 100.004 179.309 100.007 179.435 100.014C179.564 100.021 179.665 100.029 179.738 100.039V101.461C179.679 101.444 179.573 101.426 179.42 101.406C179.268 101.383 179.115 101.371 178.963 101.371C178.611 101.371 178.298 101.446 178.023 101.595C177.751 101.741 177.536 101.945 177.377 102.207C177.218 102.465 177.138 102.76 177.138 103.092V107.755H175.652ZM190.402 100.248C190.349 99.7771 190.131 99.4126 189.746 99.154C189.362 98.8922 188.878 98.7613 188.294 98.7613C187.877 98.7613 187.516 98.8276 187.211 98.9601C186.906 99.0894 186.669 99.2684 186.5 99.4971C186.334 99.7224 186.251 99.9793 186.251 100.268C186.251 100.51 186.307 100.718 186.42 100.894C186.536 101.07 186.687 101.217 186.873 101.337C187.061 101.453 187.264 101.55 187.479 101.63C187.694 101.706 187.902 101.769 188.1 101.819L189.095 102.077C189.42 102.157 189.753 102.265 190.094 102.4C190.435 102.536 190.752 102.715 191.044 102.937C191.335 103.159 191.571 103.435 191.75 103.763C191.932 104.091 192.023 104.484 192.023 104.941C192.023 105.518 191.874 106.03 191.576 106.477C191.281 106.925 190.851 107.278 190.288 107.536C189.728 107.795 189.05 107.924 188.255 107.924C187.492 107.924 186.833 107.803 186.276 107.561C185.719 107.319 185.283 106.976 184.968 106.532C184.654 106.084 184.48 105.554 184.446 104.941H185.988C186.017 105.309 186.137 105.615 186.346 105.861C186.558 106.103 186.828 106.283 187.156 106.403C187.487 106.519 187.85 106.577 188.245 106.577C188.679 106.577 189.065 106.509 189.403 106.373C189.744 106.234 190.013 106.041 190.208 105.796C190.404 105.547 190.502 105.257 190.502 104.926C190.502 104.624 190.416 104.378 190.243 104.185C190.074 103.993 189.844 103.834 189.552 103.708C189.264 103.582 188.937 103.471 188.573 103.375L187.37 103.047C186.554 102.825 185.908 102.498 185.431 102.067C184.957 101.637 184.72 101.066 184.72 100.357C184.72 99.7705 184.879 99.2584 185.197 98.8209C185.515 98.3834 185.946 98.0437 186.49 97.8018C187.033 97.5565 187.646 97.4339 188.329 97.4339C189.019 97.4339 189.627 97.5548 190.154 97.7968C190.684 98.0387 191.102 98.3718 191.407 98.7961C191.712 99.217 191.871 99.7009 191.884 100.248H190.402ZM196.956 107.909C196.217 107.909 195.581 107.742 195.047 107.407C194.517 107.069 194.109 106.603 193.824 106.01C193.539 105.417 193.396 104.737 193.396 103.972C193.396 103.196 193.542 102.512 193.834 101.918C194.126 101.322 194.537 100.856 195.067 100.521C195.597 100.186 196.222 100.019 196.941 100.019C197.521 100.019 198.038 100.127 198.492 100.342C198.946 100.554 199.313 100.853 199.591 101.237C199.873 101.622 200.04 102.071 200.093 102.584H198.646C198.567 102.226 198.385 101.918 198.1 101.66C197.818 101.401 197.44 101.272 196.966 101.272C196.552 101.272 196.189 101.381 195.877 101.6C195.569 101.815 195.329 102.124 195.156 102.525C194.984 102.922 194.898 103.393 194.898 103.937C194.898 104.494 194.982 104.974 195.151 105.378C195.32 105.783 195.559 106.096 195.867 106.318C196.179 106.54 196.545 106.651 196.966 106.651C197.248 106.651 197.503 106.6 197.732 106.497C197.964 106.391 198.158 106.24 198.313 106.045C198.472 105.849 198.584 105.614 198.646 105.339H200.093C200.04 105.833 199.879 106.273 199.611 106.661C199.343 107.049 198.983 107.354 198.532 107.576C198.085 107.798 197.559 107.909 196.956 107.909ZM203.169 103.221V107.755H201.683V97.5731H203.15V101.361H203.244C203.423 100.95 203.696 100.624 204.064 100.382C204.432 100.14 204.913 100.019 205.506 100.019C206.03 100.019 206.487 100.127 206.878 100.342C207.273 100.558 207.578 100.879 207.793 101.307C208.012 101.731 208.121 102.261 208.121 102.898V107.755H206.635V103.077C206.635 102.516 206.49 102.082 206.202 101.774C205.914 101.463 205.513 101.307 204.999 101.307C204.648 101.307 204.333 101.381 204.054 101.53C203.779 101.68 203.562 101.898 203.403 102.187C203.247 102.472 203.169 102.816 203.169 103.221ZM213.396 107.909C212.644 107.909 211.996 107.748 211.452 107.427C210.912 107.102 210.494 106.646 210.199 106.06C209.908 105.47 209.762 104.779 209.762 103.986C209.762 103.204 209.908 102.515 210.199 101.918C210.494 101.322 210.905 100.856 211.432 100.521C211.962 100.186 212.582 100.019 213.292 100.019C213.722 100.019 214.14 100.09 214.544 100.233C214.949 100.375 215.312 100.599 215.633 100.904C215.955 101.209 216.208 101.605 216.394 102.092C216.579 102.576 216.672 103.164 216.672 103.857V104.384H210.602V103.271H215.216C215.216 102.879 215.136 102.533 214.977 102.231C214.818 101.927 214.594 101.686 214.306 101.511C214.021 101.335 213.686 101.247 213.301 101.247C212.884 101.247 212.519 101.35 212.208 101.555C211.9 101.757 211.661 102.023 211.492 102.351C211.326 102.676 211.243 103.029 211.243 103.41V104.28C211.243 104.79 211.333 105.224 211.512 105.582C211.694 105.94 211.948 106.214 212.272 106.403C212.597 106.588 212.977 106.681 213.411 106.681C213.693 106.681 213.949 106.641 214.181 106.562C214.413 106.479 214.614 106.356 214.783 106.194C214.952 106.031 215.081 105.831 215.171 105.592L216.578 105.846C216.465 106.26 216.263 106.623 215.971 106.935C215.683 107.243 215.32 107.483 214.882 107.655C214.448 107.824 213.953 107.909 213.396 107.909ZM218.322 107.755V100.119H219.748V101.361H219.843C220.002 100.94 220.262 100.612 220.623 100.377C220.985 100.138 221.417 100.019 221.921 100.019C222.431 100.019 222.859 100.138 223.204 100.377C223.552 100.616 223.809 100.944 223.974 101.361H224.054C224.236 100.954 224.526 100.629 224.924 100.387C225.322 100.142 225.796 100.019 226.346 100.019C227.038 100.019 227.604 100.236 228.041 100.67C228.482 101.105 228.702 101.759 228.702 102.634V107.755H227.216V102.773C227.216 102.256 227.075 101.882 226.793 101.65C226.511 101.418 226.175 101.302 225.784 101.302C225.3 101.302 224.924 101.451 224.655 101.749C224.387 102.044 224.253 102.424 224.253 102.888V107.755H222.771V102.679C222.771 102.265 222.642 101.931 222.383 101.68C222.125 101.428 221.788 101.302 221.374 101.302C221.092 101.302 220.832 101.376 220.594 101.525C220.358 101.671 220.168 101.875 220.022 102.137C219.879 102.399 219.808 102.702 219.808 103.047V107.755H218.322ZM233.986 107.909C233.233 107.909 232.585 107.748 232.042 107.427C231.502 107.102 231.084 106.646 230.789 106.06C230.497 105.47 230.352 104.779 230.352 103.986C230.352 103.204 230.497 102.515 230.789 101.918C231.084 101.322 231.495 100.856 232.022 100.521C232.552 100.186 233.172 100.019 233.881 100.019C234.312 100.019 234.73 100.09 235.134 100.233C235.539 100.375 235.902 100.599 236.223 100.904C236.545 101.209 236.798 101.605 236.984 102.092C237.169 102.576 237.262 103.164 237.262 103.857V104.384H231.192V103.271H235.805C235.805 102.879 235.726 102.533 235.567 102.231C235.408 101.927 235.184 101.686 234.896 101.511C234.611 101.335 234.276 101.247 233.891 101.247C233.474 101.247 233.109 101.35 232.798 101.555C232.489 101.757 232.251 102.023 232.082 102.351C231.916 102.676 231.833 103.029 231.833 103.41V104.28C231.833 104.79 231.923 105.224 232.102 105.582C232.284 105.94 232.537 106.214 232.862 106.403C233.187 106.588 233.567 106.681 234.001 106.681C234.282 106.681 234.539 106.641 234.771 106.562C235.003 106.479 235.204 106.356 235.373 106.194C235.542 106.031 235.671 105.831 235.761 105.592L237.168 105.846C237.055 106.26 236.853 106.623 236.561 106.935C236.273 107.243 235.91 107.483 235.472 107.655C235.038 107.824 234.543 107.909 233.986 107.909Z" fill="#190F26"/>
<g opacity="0.3">
<path d="M260.842 102.255L253.842 109.255H250L257 102.255L250 95.2549H253.842L260.842 102.255Z" fill="#1F3D83"/>
<path d="M268.526 102.255L261.526 109.255H257.684L264.684 102.255L257.684 95.2549H261.526L268.526 102.255Z" fill="#1F3D83"/>
<path d="M276.21 102.255L269.209 109.255H265.368L272.368 102.255L265.368 95.2549H269.209L276.21 102.255Z" fill="#1F3D83"/>
</g>
<rect width="109" height="115" transform="translate(84 146.255)" fill="white"/>
<rect x="88" y="150.255" width="101" height="76" fill="#209F8C"/>
<path d="M92.204 238.343H93.59V242.487H98.602V238.343H100.002V248.255H98.602V243.719H93.59V248.255H92.204V238.343ZM103.789 247.023H108.969V248.255H102.403V238.343H108.759V239.561H103.789V242.529H108.465V243.719H103.789V247.023ZM114.283 242.039L116.635 238.343H118.259L115.095 243.033L118.693 248.255H116.943L114.227 244.083L111.567 248.255H109.859L113.401 243.005L110.209 238.343H111.903L114.283 242.039ZM121.997 242.445C121.997 242.697 121.908 242.916 121.731 243.103C121.554 243.28 121.33 243.369 121.059 243.369C120.798 243.369 120.574 243.28 120.387 243.103C120.21 242.926 120.121 242.711 120.121 242.459C120.121 242.216 120.21 242.002 120.387 241.815C120.564 241.628 120.788 241.535 121.059 241.535C121.33 241.535 121.554 241.628 121.731 241.815C121.908 241.992 121.997 242.202 121.997 242.445ZM121.997 247.415C121.997 247.658 121.908 247.872 121.731 248.059C121.554 248.246 121.33 248.339 121.059 248.339C120.798 248.339 120.574 248.25 120.387 248.073C120.21 247.886 120.121 247.672 120.121 247.429C120.121 247.177 120.21 246.962 120.387 246.785C120.564 246.598 120.788 246.505 121.059 246.505C121.33 246.505 121.554 246.594 121.731 246.771C121.908 246.948 121.997 247.163 121.997 247.415ZM128.574 245.301H127.23V244.279H128.714L128.98 242.305H127.608V241.283H129.134L129.54 238.343H130.59L130.17 241.283H131.822L132.228 238.343H133.278L132.858 241.283H134.118V242.305H132.718L132.438 244.279H133.74V245.301H132.312L131.892 248.255H130.842L131.262 245.301H129.61L129.19 248.255H128.154L128.574 245.301ZM129.75 244.279H131.402L131.668 242.305H130.03L129.75 244.279ZM142.003 248.255H135.535V246.953L139.483 243.033C139.782 242.725 140.039 242.403 140.253 242.067C140.468 241.731 140.575 241.353 140.575 240.933C140.575 240.672 140.529 240.438 140.435 240.233C140.342 240.018 140.216 239.836 140.057 239.687C139.899 239.538 139.712 239.426 139.497 239.351C139.283 239.267 139.054 239.225 138.811 239.225C138.307 239.225 137.892 239.388 137.565 239.715C137.239 240.032 137.033 240.443 136.949 240.947L135.619 240.723C135.675 240.35 135.792 240.004 135.969 239.687C136.156 239.36 136.389 239.08 136.669 238.847C136.949 238.604 137.271 238.418 137.635 238.287C138.009 238.156 138.405 238.091 138.825 238.091C139.236 238.091 139.628 238.152 140.001 238.273C140.384 238.394 140.72 238.572 141.009 238.805C141.299 239.038 141.527 239.332 141.695 239.687C141.873 240.042 141.961 240.448 141.961 240.905C141.961 241.222 141.919 241.516 141.835 241.787C141.751 242.058 141.635 242.314 141.485 242.557C141.345 242.8 141.177 243.033 140.981 243.257C140.785 243.472 140.58 243.686 140.365 243.901L137.145 247.037H142.003V248.255ZM147.193 238.091C147.781 238.091 148.285 238.226 148.705 238.497C149.135 238.768 149.485 239.141 149.755 239.617C150.035 240.084 150.241 240.634 150.371 241.269C150.502 241.904 150.567 242.58 150.567 243.299C150.567 244.027 150.502 244.708 150.371 245.343C150.241 245.968 150.035 246.519 149.755 246.995C149.485 247.462 149.135 247.83 148.705 248.101C148.285 248.372 147.781 248.507 147.193 248.507C146.605 248.507 146.097 248.372 145.667 248.101C145.238 247.83 144.883 247.462 144.603 246.995C144.333 246.519 144.132 245.968 144.001 245.343C143.871 244.708 143.805 244.027 143.805 243.299C143.805 242.58 143.871 241.904 144.001 241.269C144.132 240.634 144.333 240.084 144.603 239.617C144.883 239.141 145.238 238.768 145.667 238.497C146.097 238.226 146.605 238.091 147.193 238.091ZM147.193 239.225C146.783 239.225 146.447 239.36 146.185 239.631C145.924 239.892 145.719 240.228 145.569 240.639C145.429 241.04 145.331 241.479 145.275 241.955C145.219 242.431 145.191 242.879 145.191 243.299C145.191 243.719 145.219 244.167 145.275 244.643C145.331 245.119 145.429 245.558 145.569 245.959C145.719 246.36 145.924 246.696 146.185 246.967C146.447 247.228 146.783 247.359 147.193 247.359C147.595 247.359 147.921 247.228 148.173 246.967C148.435 246.696 148.64 246.36 148.789 245.959C148.939 245.558 149.041 245.119 149.097 244.643C149.153 244.167 149.181 243.719 149.181 243.299C149.181 242.879 149.153 242.431 149.097 241.955C149.041 241.479 148.939 241.04 148.789 240.639C148.64 240.228 148.435 239.892 148.173 239.631C147.921 239.36 147.595 239.225 147.193 239.225ZM156.458 244.251L156.444 244.237C156.304 244.321 156.112 244.386 155.87 244.433C155.758 244.452 155.641 244.47 155.52 244.489C155.408 244.498 155.3 244.503 155.198 244.503C154.759 244.503 154.353 244.428 153.98 244.279C153.606 244.12 153.28 243.906 153 243.635C152.72 243.355 152.5 243.024 152.342 242.641C152.183 242.258 152.104 241.843 152.104 241.395C152.104 240.9 152.188 240.452 152.356 240.051C152.533 239.64 152.776 239.29 153.084 239.001C153.392 238.712 153.756 238.488 154.176 238.329C154.596 238.17 155.048 238.091 155.534 238.091C156.019 238.091 156.472 238.175 156.892 238.343C157.312 238.502 157.671 238.726 157.97 239.015C158.278 239.304 158.516 239.65 158.684 240.051C158.861 240.452 158.95 240.886 158.95 241.353C158.95 241.894 158.861 242.384 158.684 242.823C158.506 243.262 158.278 243.71 157.998 244.167L155.408 248.255H153.798L156.458 244.251ZM157.592 241.339C157.592 241.05 157.54 240.779 157.438 240.527C157.344 240.266 157.204 240.042 157.018 239.855C156.84 239.659 156.626 239.505 156.374 239.393C156.122 239.281 155.842 239.225 155.534 239.225C155.226 239.225 154.946 239.281 154.694 239.393C154.442 239.496 154.222 239.64 154.036 239.827C153.858 240.014 153.718 240.238 153.616 240.499C153.522 240.76 153.476 241.045 153.476 241.353C153.476 241.652 153.522 241.927 153.616 242.179C153.718 242.431 153.858 242.65 154.036 242.837C154.213 243.024 154.428 243.168 154.68 243.271C154.932 243.374 155.212 243.425 155.52 243.425C155.828 243.425 156.108 243.374 156.36 243.271C156.621 243.168 156.84 243.024 157.018 242.837C157.204 242.65 157.344 242.431 157.438 242.179C157.54 241.927 157.592 241.647 157.592 241.339ZM162.264 248.255H160.878V238.343H167.066V239.561H162.264V242.641H166.758V243.831H162.264V248.255ZM173.245 243.033C173.506 243.098 173.749 243.21 173.973 243.369C174.206 243.518 174.407 243.7 174.575 243.915C174.743 244.13 174.874 244.377 174.967 244.657C175.07 244.937 175.121 245.236 175.121 245.553C175.121 246.02 175.032 246.435 174.855 246.799C174.678 247.163 174.435 247.471 174.127 247.723C173.828 247.975 173.478 248.166 173.077 248.297C172.676 248.437 172.251 248.507 171.803 248.507C171.355 248.507 170.926 248.437 170.515 248.297C170.114 248.166 169.759 247.975 169.451 247.723C169.152 247.471 168.914 247.163 168.737 246.799C168.56 246.435 168.471 246.02 168.471 245.553C168.471 245.226 168.518 244.923 168.611 244.643C168.714 244.363 168.849 244.116 169.017 243.901C169.194 243.686 169.395 243.509 169.619 243.369C169.852 243.22 170.095 243.108 170.347 243.033V243.005C169.899 242.846 169.53 242.576 169.241 242.193C168.961 241.81 168.821 241.344 168.821 240.793C168.821 240.382 168.9 240.014 169.059 239.687C169.218 239.351 169.432 239.066 169.703 238.833C169.974 238.59 170.286 238.408 170.641 238.287C171.005 238.156 171.392 238.091 171.803 238.091C172.204 238.091 172.587 238.156 172.951 238.287C173.315 238.408 173.628 238.586 173.889 238.819C174.16 239.043 174.374 239.323 174.533 239.659C174.692 239.986 174.771 240.354 174.771 240.765C174.771 241.306 174.626 241.778 174.337 242.179C174.057 242.58 173.693 242.856 173.245 243.005V243.033ZM170.179 240.835C170.179 241.059 170.216 241.269 170.291 241.465C170.375 241.661 170.487 241.834 170.627 241.983C170.776 242.123 170.949 242.235 171.145 242.319C171.35 242.403 171.57 242.445 171.803 242.445C172.027 242.445 172.237 242.403 172.433 242.319C172.629 242.235 172.802 242.123 172.951 241.983C173.1 241.834 173.217 241.661 173.301 241.465C173.385 241.269 173.427 241.059 173.427 240.835C173.427 240.602 173.38 240.387 173.287 240.191C173.203 239.986 173.086 239.813 172.937 239.673C172.797 239.524 172.629 239.412 172.433 239.337C172.237 239.253 172.027 239.211 171.803 239.211C171.57 239.211 171.35 239.253 171.145 239.337C170.949 239.412 170.776 239.524 170.627 239.673C170.487 239.813 170.375 239.986 170.291 240.191C170.216 240.387 170.179 240.602 170.179 240.835ZM169.857 245.483C169.857 245.763 169.904 246.02 169.997 246.253C170.09 246.486 170.221 246.687 170.389 246.855C170.566 247.014 170.772 247.14 171.005 247.233C171.248 247.326 171.514 247.373 171.803 247.373C172.083 247.373 172.34 247.326 172.573 247.233C172.816 247.14 173.021 247.014 173.189 246.855C173.357 246.687 173.488 246.486 173.581 246.253C173.684 246.02 173.735 245.763 173.735 245.483C173.735 245.212 173.684 244.965 173.581 244.741C173.488 244.508 173.357 244.307 173.189 244.139C173.021 243.971 172.816 243.84 172.573 243.747C172.34 243.654 172.083 243.607 171.803 243.607C171.523 243.607 171.262 243.654 171.019 243.747C170.786 243.84 170.58 243.971 170.403 244.139C170.235 244.307 170.1 244.508 169.997 244.741C169.904 244.965 169.857 245.212 169.857 245.483ZM185.659 246.715C185.267 247.247 184.758 247.681 184.133 248.017C183.508 248.344 182.756 248.507 181.879 248.507C181.123 248.507 180.423 248.381 179.779 248.129C179.144 247.868 178.594 247.508 178.127 247.051C177.67 246.584 177.31 246.034 177.049 245.399C176.788 244.755 176.657 244.05 176.657 243.285C176.657 242.51 176.788 241.806 177.049 241.171C177.32 240.527 177.688 239.981 178.155 239.533C178.631 239.076 179.191 238.721 179.835 238.469C180.479 238.217 181.179 238.091 181.935 238.091C182.271 238.091 182.612 238.124 182.957 238.189C183.302 238.254 183.634 238.352 183.951 238.483C184.268 238.614 184.558 238.777 184.819 238.973C185.08 239.16 185.304 239.379 185.491 239.631L184.399 240.471C184.156 240.135 183.811 239.86 183.363 239.645C182.924 239.421 182.448 239.309 181.935 239.309C181.356 239.309 180.834 239.416 180.367 239.631C179.91 239.836 179.518 240.121 179.191 240.485C178.864 240.849 178.612 241.274 178.435 241.759C178.258 242.235 178.169 242.744 178.169 243.285C178.169 243.845 178.253 244.368 178.421 244.853C178.598 245.338 178.846 245.763 179.163 246.127C179.49 246.482 179.882 246.762 180.339 246.967C180.806 247.172 181.324 247.275 181.893 247.275C182.453 247.275 182.962 247.163 183.419 246.939C183.876 246.715 184.254 246.388 184.553 245.959L185.659 246.715Z" fill="black"/>
<rect width="109" height="115" transform="translate(209 146.255)" fill="white"/>
<rect x="213" y="150.255" width="101" height="76" fill="#515255"/>
<path d="M217.704 238.343H219.09V242.487H224.102V238.343H225.502V248.255H224.102V243.719H219.09V248.255H217.704V238.343ZM229.289 247.023H234.469V248.255H227.903V238.343H234.259V239.561H229.289V242.529H233.965V243.719H229.289V247.023ZM239.783 242.039L242.135 238.343H243.759L240.595 243.033L244.193 248.255H242.443L239.727 244.083L237.067 248.255H235.359L238.901 243.005L235.709 238.343H237.403L239.783 242.039ZM247.497 242.445C247.497 242.697 247.408 242.916 247.231 243.103C247.054 243.28 246.83 243.369 246.559 243.369C246.298 243.369 246.074 243.28 245.887 243.103C245.71 242.926 245.621 242.711 245.621 242.459C245.621 242.216 245.71 242.002 245.887 241.815C246.064 241.628 246.288 241.535 246.559 241.535C246.83 241.535 247.054 241.628 247.231 241.815C247.408 241.992 247.497 242.202 247.497 242.445ZM247.497 247.415C247.497 247.658 247.408 247.872 247.231 248.059C247.054 248.246 246.83 248.339 246.559 248.339C246.298 248.339 246.074 248.25 245.887 248.073C245.71 247.886 245.621 247.672 245.621 247.429C245.621 247.177 245.71 246.962 245.887 246.785C246.064 246.598 246.288 246.505 246.559 246.505C246.83 246.505 247.054 246.594 247.231 246.771C247.408 246.948 247.497 247.163 247.497 247.415ZM254.074 245.301H252.73V244.279H254.214L254.48 242.305H253.108V241.283H254.634L255.04 238.343H256.09L255.67 241.283H257.322L257.728 238.343H258.778L258.358 241.283H259.618V242.305H258.218L257.938 244.279H259.24V245.301H257.812L257.392 248.255H256.342L256.762 245.301H255.11L254.69 248.255H253.654L254.074 245.301ZM255.25 244.279H256.902L257.168 242.305H255.53L255.25 244.279ZM267.055 239.547H262.967L262.883 242.151C263.07 242.086 263.275 242.039 263.499 242.011C263.733 241.983 263.952 241.969 264.157 241.969C264.633 241.969 265.072 242.044 265.473 242.193C265.884 242.333 266.234 242.538 266.523 242.809C266.822 243.08 267.055 243.411 267.223 243.803C267.391 244.186 267.475 244.615 267.475 245.091C267.475 245.614 267.387 246.085 267.209 246.505C267.032 246.925 266.789 247.284 266.481 247.583C266.173 247.872 265.809 248.096 265.389 248.255C264.969 248.423 264.512 248.507 264.017 248.507C263.243 248.507 262.589 248.33 262.057 247.975C261.525 247.611 261.124 247.126 260.853 246.519L262.085 246.029C262.244 246.43 262.491 246.752 262.827 246.995C263.173 247.238 263.569 247.359 264.017 247.359C264.307 247.359 264.577 247.308 264.829 247.205C265.081 247.102 265.301 246.958 265.487 246.771C265.674 246.584 265.819 246.36 265.921 246.099C266.033 245.838 266.089 245.548 266.089 245.231C266.089 244.858 266.024 244.536 265.893 244.265C265.772 243.985 265.604 243.756 265.389 243.579C265.175 243.402 264.927 243.271 264.647 243.187C264.367 243.103 264.073 243.061 263.765 243.061C263.392 243.061 263.009 243.112 262.617 243.215C262.225 243.318 261.875 243.448 261.567 243.607L261.707 238.343H267.055V239.547ZM273.827 248.255H272.469V239.995L270.593 241.563L269.795 240.625L272.609 238.343H273.827V248.255ZM283.708 239.547H279.62L279.536 242.151C279.722 242.086 279.928 242.039 280.152 242.011C280.385 241.983 280.604 241.969 280.81 241.969C281.286 241.969 281.724 242.044 282.126 242.193C282.536 242.333 282.886 242.538 283.176 242.809C283.474 243.08 283.708 243.411 283.876 243.803C284.044 244.186 284.128 244.615 284.128 245.091C284.128 245.614 284.039 246.085 283.862 246.505C283.684 246.925 283.442 247.284 283.134 247.583C282.826 247.872 282.462 248.096 282.042 248.255C281.622 248.423 281.164 248.507 280.67 248.507C279.895 248.507 279.242 248.33 278.71 247.975C278.178 247.611 277.776 247.126 277.506 246.519L278.738 246.029C278.896 246.43 279.144 246.752 279.48 246.995C279.825 247.238 280.222 247.359 280.67 247.359C280.959 247.359 281.23 247.308 281.482 247.205C281.734 247.102 281.953 246.958 282.14 246.771C282.326 246.584 282.471 246.36 282.574 246.099C282.686 245.838 282.742 245.548 282.742 245.231C282.742 244.858 282.676 244.536 282.546 244.265C282.424 243.985 282.256 243.756 282.042 243.579C281.827 243.402 281.58 243.271 281.3 243.187C281.02 243.103 280.726 243.061 280.418 243.061C280.044 243.061 279.662 243.112 279.27 243.215C278.878 243.318 278.528 243.448 278.22 243.607L278.36 238.343H283.708V239.547ZM292.482 248.255H286.014V246.953L289.962 243.033C290.26 242.725 290.517 242.403 290.732 242.067C290.946 241.731 291.054 241.353 291.054 240.933C291.054 240.672 291.007 240.438 290.914 240.233C290.82 240.018 290.694 239.836 290.536 239.687C290.377 239.538 290.19 239.426 289.976 239.351C289.761 239.267 289.532 239.225 289.29 239.225C288.786 239.225 288.37 239.388 288.044 239.715C287.717 240.032 287.512 240.443 287.428 240.947L286.098 240.723C286.154 240.35 286.27 240.004 286.448 239.687C286.634 239.36 286.868 239.08 287.148 238.847C287.428 238.604 287.75 238.418 288.114 238.287C288.487 238.156 288.884 238.091 289.304 238.091C289.714 238.091 290.106 238.152 290.48 238.273C290.862 238.394 291.198 238.572 291.488 238.805C291.777 239.038 292.006 239.332 292.174 239.687C292.351 240.042 292.44 240.448 292.44 240.905C292.44 241.222 292.398 241.516 292.314 241.787C292.23 242.058 292.113 242.314 291.964 242.557C291.824 242.8 291.656 243.033 291.46 243.257C291.264 243.472 291.058 243.686 290.844 243.901L287.624 247.037H292.482V248.255ZM300.36 239.547H296.272L296.188 242.151C296.375 242.086 296.58 242.039 296.804 242.011C297.037 241.983 297.257 241.969 297.462 241.969C297.938 241.969 298.377 242.044 298.778 242.193C299.189 242.333 299.539 242.538 299.828 242.809C300.127 243.08 300.36 243.411 300.528 243.803C300.696 244.186 300.78 244.615 300.78 245.091C300.78 245.614 300.691 246.085 300.514 246.505C300.337 246.925 300.094 247.284 299.786 247.583C299.478 247.872 299.114 248.096 298.694 248.255C298.274 248.423 297.817 248.507 297.322 248.507C296.547 248.507 295.894 248.33 295.362 247.975C294.83 247.611 294.429 247.126 294.158 246.519L295.39 246.029C295.549 246.43 295.796 246.752 296.132 246.995C296.477 247.238 296.874 247.359 297.322 247.359C297.611 247.359 297.882 247.308 298.134 247.205C298.386 247.102 298.605 246.958 298.792 246.771C298.979 246.584 299.123 246.36 299.226 246.099C299.338 245.838 299.394 245.548 299.394 245.231C299.394 244.858 299.329 244.536 299.198 244.265C299.077 243.985 298.909 243.756 298.694 243.579C298.479 243.402 298.232 243.271 297.952 243.187C297.672 243.103 297.378 243.061 297.07 243.061C296.697 243.061 296.314 243.112 295.922 243.215C295.53 243.318 295.18 243.448 294.872 243.607L295.012 238.343H300.36V239.547ZM308.686 239.547H304.598L304.514 242.151C304.701 242.086 304.906 242.039 305.13 242.011C305.364 241.983 305.583 241.969 305.788 241.969C306.264 241.969 306.703 242.044 307.104 242.193C307.515 242.333 307.865 242.538 308.154 242.809C308.453 243.08 308.686 243.411 308.854 243.803C309.022 244.186 309.106 244.615 309.106 245.091C309.106 245.614 309.018 246.085 308.84 246.505C308.663 246.925 308.42 247.284 308.112 247.583C307.804 247.872 307.44 248.096 307.02 248.255C306.6 248.423 306.143 248.507 305.648 248.507C304.874 248.507 304.22 248.33 303.688 247.975C303.156 247.611 302.755 247.126 302.484 246.519L303.716 246.029C303.875 246.43 304.122 246.752 304.458 246.995C304.804 247.238 305.2 247.359 305.648 247.359C305.938 247.359 306.208 247.308 306.46 247.205C306.712 247.102 306.932 246.958 307.118 246.771C307.305 246.584 307.45 246.36 307.552 246.099C307.664 245.838 307.72 245.548 307.72 245.231C307.72 244.858 307.655 244.536 307.524 244.265C307.403 243.985 307.235 243.756 307.02 243.579C306.806 243.402 306.558 243.271 306.278 243.187C305.998 243.103 305.704 243.061 305.396 243.061C305.023 243.061 304.64 243.112 304.248 243.215C303.856 243.318 303.506 243.448 303.198 243.607L303.338 238.343H308.686V239.547Z" fill="black"/>
<rect width="109" height="115" transform="translate(334 146.255)" fill="white"/>
<rect x="338" y="150.255" width="101" height="76" fill="#F04438"/>
<path d="M342.704 238.343H344.09V242.487H349.102V238.343H350.502V248.255H349.102V243.719H344.09V248.255H342.704V238.343ZM354.289 247.023H359.469V248.255H352.903V238.343H359.259V239.561H354.289V242.529H358.965V243.719H354.289V247.023ZM364.783 242.039L367.135 238.343H368.759L365.595 243.033L369.193 248.255H367.443L364.727 244.083L362.067 248.255H360.359L363.901 243.005L360.709 238.343H362.403L364.783 242.039ZM372.497 242.445C372.497 242.697 372.408 242.916 372.231 243.103C372.054 243.28 371.83 243.369 371.559 243.369C371.298 243.369 371.074 243.28 370.887 243.103C370.71 242.926 370.621 242.711 370.621 242.459C370.621 242.216 370.71 242.002 370.887 241.815C371.064 241.628 371.288 241.535 371.559 241.535C371.83 241.535 372.054 241.628 372.231 241.815C372.408 241.992 372.497 242.202 372.497 242.445ZM372.497 247.415C372.497 247.658 372.408 247.872 372.231 248.059C372.054 248.246 371.83 248.339 371.559 248.339C371.298 248.339 371.074 248.25 370.887 248.073C370.71 247.886 370.621 247.672 370.621 247.429C370.621 247.177 370.71 246.962 370.887 246.785C371.064 246.598 371.288 246.505 371.559 246.505C371.83 246.505 372.054 246.594 372.231 246.771C372.408 246.948 372.497 247.163 372.497 247.415ZM379.074 245.301H377.73V244.279H379.214L379.48 242.305H378.108V241.283H379.634L380.04 238.343H381.09L380.67 241.283H382.322L382.728 238.343H383.778L383.358 241.283H384.618V242.305H383.218L382.938 244.279H384.24V245.301H382.812L382.392 248.255H381.342L381.762 245.301H380.11L379.69 248.255H378.654L379.074 245.301ZM380.25 244.279H381.902L382.168 242.305H380.53L380.25 244.279ZM387.785 248.255H386.399V238.343H392.587V239.561H387.785V242.641H392.279V243.831H387.785V248.255ZM397.324 238.091C397.912 238.091 398.416 238.226 398.836 238.497C399.266 238.768 399.616 239.141 399.886 239.617C400.166 240.084 400.372 240.634 400.502 241.269C400.633 241.904 400.698 242.58 400.698 243.299C400.698 244.027 400.633 244.708 400.502 245.343C400.372 245.968 400.166 246.519 399.886 246.995C399.616 247.462 399.266 247.83 398.836 248.101C398.416 248.372 397.912 248.507 397.324 248.507C396.736 248.507 396.228 248.372 395.798 248.101C395.369 247.83 395.014 247.462 394.734 246.995C394.464 246.519 394.263 245.968 394.132 245.343C394.002 244.708 393.936 244.027 393.936 243.299C393.936 242.58 394.002 241.904 394.132 241.269C394.263 240.634 394.464 240.084 394.734 239.617C395.014 239.141 395.369 238.768 395.798 238.497C396.228 238.226 396.736 238.091 397.324 238.091ZM397.324 239.225C396.914 239.225 396.578 239.36 396.316 239.631C396.055 239.892 395.85 240.228 395.7 240.639C395.56 241.04 395.462 241.479 395.406 241.955C395.35 242.431 395.322 242.879 395.322 243.299C395.322 243.719 395.35 244.167 395.406 244.643C395.462 245.119 395.56 245.558 395.7 245.959C395.85 246.36 396.055 246.696 396.316 246.967C396.578 247.228 396.914 247.359 397.324 247.359C397.726 247.359 398.052 247.228 398.304 246.967C398.566 246.696 398.771 246.36 398.92 245.959C399.07 245.558 399.172 245.119 399.228 244.643C399.284 244.167 399.312 243.719 399.312 243.299C399.312 242.879 399.284 242.431 399.228 241.955C399.172 241.479 399.07 241.04 398.92 240.639C398.771 240.228 398.566 239.892 398.304 239.631C398.052 239.36 397.726 239.225 397.324 239.225ZM407.793 244.867H409.221V246.029H407.793V248.255H406.477V246.029H401.913V244.797L406.127 238.343H407.793V244.867ZM406.477 239.897H406.449L403.313 244.867H406.477V239.897ZM416.119 244.867H417.547V246.029H416.119V248.255H414.803V246.029H410.239V244.797L414.453 238.343H416.119V244.867ZM414.803 239.897H414.775L411.639 244.867H414.803V239.897ZM421.113 242.515H421.547C421.827 242.515 422.098 242.492 422.359 242.445C422.63 242.389 422.868 242.3 423.073 242.179C423.278 242.048 423.442 241.876 423.563 241.661C423.694 241.446 423.759 241.18 423.759 240.863C423.759 240.611 423.712 240.387 423.619 240.191C423.526 239.986 423.395 239.813 423.227 239.673C423.068 239.533 422.882 239.426 422.667 239.351C422.462 239.267 422.242 239.225 422.009 239.225C421.589 239.225 421.23 239.332 420.931 239.547C420.642 239.762 420.422 240.06 420.273 240.443L419.041 240.009C419.284 239.412 419.671 238.945 420.203 238.609C420.744 238.264 421.365 238.091 422.065 238.091C422.476 238.091 422.863 238.152 423.227 238.273C423.6 238.385 423.927 238.553 424.207 238.777C424.487 239.001 424.706 239.281 424.865 239.617C425.033 239.953 425.117 240.34 425.117 240.779C425.117 241.059 425.07 241.32 424.977 241.563C424.893 241.806 424.772 242.025 424.613 242.221C424.464 242.417 424.282 242.585 424.067 242.725C423.852 242.865 423.619 242.968 423.367 243.033V243.061C423.656 243.117 423.922 243.215 424.165 243.355C424.417 243.495 424.632 243.672 424.809 243.887C424.986 244.092 425.126 244.33 425.229 244.601C425.332 244.872 425.383 245.166 425.383 245.483C425.383 245.978 425.29 246.416 425.103 246.799C424.916 247.172 424.669 247.485 424.361 247.737C424.053 247.989 423.698 248.18 423.297 248.311C422.896 248.442 422.485 248.507 422.065 248.507C421.281 248.507 420.59 248.33 419.993 247.975C419.396 247.62 418.962 247.07 418.691 246.323L419.951 245.903C420.1 246.332 420.352 246.682 420.707 246.953C421.071 247.224 421.514 247.359 422.037 247.359C422.289 247.359 422.532 247.322 422.765 247.247C423.008 247.163 423.222 247.042 423.409 246.883C423.596 246.724 423.745 246.528 423.857 246.295C423.969 246.062 424.025 245.786 424.025 245.469C424.025 245.124 423.95 244.834 423.801 244.601C423.652 244.368 423.456 244.181 423.213 244.041C422.98 243.892 422.714 243.789 422.415 243.733C422.116 243.668 421.822 243.635 421.533 243.635H421.113V242.515ZM432.071 243.033C432.332 243.098 432.575 243.21 432.799 243.369C433.032 243.518 433.233 243.7 433.401 243.915C433.569 244.13 433.7 244.377 433.793 244.657C433.896 244.937 433.947 245.236 433.947 245.553C433.947 246.02 433.858 246.435 433.681 246.799C433.504 247.163 433.261 247.471 432.953 247.723C432.654 247.975 432.304 248.166 431.903 248.297C431.502 248.437 431.077 248.507 430.629 248.507C430.181 248.507 429.752 248.437 429.341 248.297C428.94 248.166 428.585 247.975 428.277 247.723C427.978 247.471 427.74 247.163 427.563 246.799C427.386 246.435 427.297 246.02 427.297 245.553C427.297 245.226 427.344 244.923 427.437 244.643C427.54 244.363 427.675 244.116 427.843 243.901C428.02 243.686 428.221 243.509 428.445 243.369C428.678 243.22 428.921 243.108 429.173 243.033V243.005C428.725 242.846 428.356 242.576 428.067 242.193C427.787 241.81 427.647 241.344 427.647 240.793C427.647 240.382 427.726 240.014 427.885 239.687C428.044 239.351 428.258 239.066 428.529 238.833C428.8 238.59 429.112 238.408 429.467 238.287C429.831 238.156 430.218 238.091 430.629 238.091C431.03 238.091 431.413 238.156 431.777 238.287C432.141 238.408 432.454 238.586 432.715 238.819C432.986 239.043 433.2 239.323 433.359 239.659C433.518 239.986 433.597 240.354 433.597 240.765C433.597 241.306 433.452 241.778 433.163 242.179C432.883 242.58 432.519 242.856 432.071 243.005V243.033ZM429.005 240.835C429.005 241.059 429.042 241.269 429.117 241.465C429.201 241.661 429.313 241.834 429.453 241.983C429.602 242.123 429.775 242.235 429.971 242.319C430.176 242.403 430.396 242.445 430.629 242.445C430.853 242.445 431.063 242.403 431.259 242.319C431.455 242.235 431.628 242.123 431.777 241.983C431.926 241.834 432.043 241.661 432.127 241.465C432.211 241.269 432.253 241.059 432.253 240.835C432.253 240.602 432.206 240.387 432.113 240.191C432.029 239.986 431.912 239.813 431.763 239.673C431.623 239.524 431.455 239.412 431.259 239.337C431.063 239.253 430.853 239.211 430.629 239.211C430.396 239.211 430.176 239.253 429.971 239.337C429.775 239.412 429.602 239.524 429.453 239.673C429.313 239.813 429.201 239.986 429.117 240.191C429.042 240.387 429.005 240.602 429.005 240.835ZM428.683 245.483C428.683 245.763 428.73 246.02 428.823 246.253C428.916 246.486 429.047 246.687 429.215 246.855C429.392 247.014 429.598 247.14 429.831 247.233C430.074 247.326 430.34 247.373 430.629 247.373C430.909 247.373 431.166 247.326 431.399 247.233C431.642 247.14 431.847 247.014 432.015 246.855C432.183 246.687 432.314 246.486 432.407 246.253C432.51 246.02 432.561 245.763 432.561 245.483C432.561 245.212 432.51 244.965 432.407 244.741C432.314 244.508 432.183 244.307 432.015 244.139C431.847 243.971 431.642 243.84 431.399 243.747C431.166 243.654 430.909 243.607 430.629 243.607C430.349 243.607 430.088 243.654 429.845 243.747C429.612 243.84 429.406 243.971 429.229 244.139C429.061 244.307 428.926 244.508 428.823 244.741C428.73 244.965 428.683 245.212 428.683 245.483Z" fill="black"/>
<rect width="109" height="115" transform="translate(459 146.255)" fill="white"/>
<rect x="463" y="150.255" width="101" height="76" fill="#DD4990"/>
<path d="M467.704 238.343H469.09V242.487H474.102V238.343H475.502V248.255H474.102V243.719H469.09V248.255H467.704V238.343ZM479.289 247.023H484.469V248.255H477.903V238.343H484.259V239.561H479.289V242.529H483.965V243.719H479.289V247.023ZM489.783 242.039L492.135 238.343H493.759L490.595 243.033L494.193 248.255H492.443L489.727 244.083L487.067 248.255H485.359L488.901 243.005L485.709 238.343H487.403L489.783 242.039ZM497.497 242.445C497.497 242.697 497.408 242.916 497.231 243.103C497.054 243.28 496.83 243.369 496.559 243.369C496.298 243.369 496.074 243.28 495.887 243.103C495.71 242.926 495.621 242.711 495.621 242.459C495.621 242.216 495.71 242.002 495.887 241.815C496.064 241.628 496.288 241.535 496.559 241.535C496.83 241.535 497.054 241.628 497.231 241.815C497.408 241.992 497.497 242.202 497.497 242.445ZM497.497 247.415C497.497 247.658 497.408 247.872 497.231 248.059C497.054 248.246 496.83 248.339 496.559 248.339C496.298 248.339 496.074 248.25 495.887 248.073C495.71 247.886 495.621 247.672 495.621 247.429C495.621 247.177 495.71 246.962 495.887 246.785C496.064 246.598 496.288 246.505 496.559 246.505C496.83 246.505 497.054 246.594 497.231 246.771C497.408 246.948 497.497 247.163 497.497 247.415ZM504.074 245.301H502.73V244.279H504.214L504.48 242.305H503.108V241.283H504.634L505.04 238.343H506.09L505.67 241.283H507.322L507.728 238.343H508.778L508.358 241.283H509.618V242.305H508.218L507.938 244.279H509.24V245.301H507.812L507.392 248.255H506.342L506.762 245.301H505.11L504.69 248.255H503.654L504.074 245.301ZM505.25 244.279H506.902L507.168 242.305H505.53L505.25 244.279ZM517.503 248.255H511.035V246.953L514.983 243.033C515.282 242.725 515.539 242.403 515.753 242.067C515.968 241.731 516.075 241.353 516.075 240.933C516.075 240.672 516.029 240.438 515.935 240.233C515.842 240.018 515.716 239.836 515.557 239.687C515.399 239.538 515.212 239.426 514.997 239.351C514.783 239.267 514.554 239.225 514.311 239.225C513.807 239.225 513.392 239.388 513.065 239.715C512.739 240.032 512.533 240.443 512.449 240.947L511.119 240.723C511.175 240.35 511.292 240.004 511.469 239.687C511.656 239.36 511.889 239.08 512.169 238.847C512.449 238.604 512.771 238.418 513.135 238.287C513.509 238.156 513.905 238.091 514.325 238.091C514.736 238.091 515.128 238.152 515.501 238.273C515.884 238.394 516.22 238.572 516.509 238.805C516.799 239.038 517.027 239.332 517.195 239.687C517.373 240.042 517.461 240.448 517.461 240.905C517.461 241.222 517.419 241.516 517.335 241.787C517.251 242.058 517.135 242.314 516.985 242.557C516.845 242.8 516.677 243.033 516.481 243.257C516.285 243.472 516.08 243.686 515.865 243.901L512.645 247.037H517.503V248.255ZM521.503 242.515H521.937C522.217 242.515 522.488 242.492 522.749 242.445C523.02 242.389 523.258 242.3 523.463 242.179C523.669 242.048 523.832 241.876 523.953 241.661C524.084 241.446 524.149 241.18 524.149 240.863C524.149 240.611 524.103 240.387 524.009 240.191C523.916 239.986 523.785 239.813 523.617 239.673C523.459 239.533 523.272 239.426 523.057 239.351C522.852 239.267 522.633 239.225 522.399 239.225C521.979 239.225 521.62 239.332 521.321 239.547C521.032 239.762 520.813 240.06 520.663 240.443L519.431 240.009C519.674 239.412 520.061 238.945 520.593 238.609C521.135 238.264 521.755 238.091 522.455 238.091C522.866 238.091 523.253 238.152 523.617 238.273C523.991 238.385 524.317 238.553 524.597 238.777C524.877 239.001 525.097 239.281 525.255 239.617C525.423 239.953 525.507 240.34 525.507 240.779C525.507 241.059 525.461 241.32 525.367 241.563C525.283 241.806 525.162 242.025 525.003 242.221C524.854 242.417 524.672 242.585 524.457 242.725C524.243 242.865 524.009 242.968 523.757 243.033V243.061C524.047 243.117 524.313 243.215 524.555 243.355C524.807 243.495 525.022 243.672 525.199 243.887C525.377 244.092 525.517 244.33 525.619 244.601C525.722 244.872 525.773 245.166 525.773 245.483C525.773 245.978 525.68 246.416 525.493 246.799C525.307 247.172 525.059 247.485 524.751 247.737C524.443 247.989 524.089 248.18 523.687 248.311C523.286 248.442 522.875 248.507 522.455 248.507C521.671 248.507 520.981 248.33 520.383 247.975C519.786 247.62 519.352 247.07 519.081 246.323L520.341 245.903C520.491 246.332 520.743 246.682 521.097 246.953C521.461 247.224 521.905 247.359 522.427 247.359C522.679 247.359 522.922 247.322 523.155 247.247C523.398 247.163 523.613 247.042 523.799 246.883C523.986 246.724 524.135 246.528 524.247 246.295C524.359 246.062 524.415 245.786 524.415 245.469C524.415 245.124 524.341 244.834 524.191 244.601C524.042 244.368 523.846 244.181 523.603 244.041C523.37 243.892 523.104 243.789 522.805 243.733C522.507 243.668 522.213 243.635 521.923 243.635H521.503V242.515ZM533.162 244.867H534.59V246.029H533.162V248.255H531.846V246.029H527.282V244.797L531.496 238.343H533.162V244.867ZM531.846 239.897H531.818L528.682 244.867H531.846V239.897ZM542.034 239.547H537.946L537.862 242.151C538.048 242.086 538.254 242.039 538.478 242.011C538.711 241.983 538.93 241.969 539.136 241.969C539.612 241.969 540.05 242.044 540.452 242.193C540.862 242.333 541.212 242.538 541.502 242.809C541.8 243.08 542.034 243.411 542.202 243.803C542.37 244.186 542.454 244.615 542.454 245.091C542.454 245.614 542.365 246.085 542.188 246.505C542.01 246.925 541.768 247.284 541.46 247.583C541.152 247.872 540.788 248.096 540.368 248.255C539.948 248.423 539.49 248.507 538.996 248.507C538.221 248.507 537.568 248.33 537.036 247.975C536.504 247.611 536.102 247.126 535.832 246.519L537.064 246.029C537.222 246.43 537.47 246.752 537.806 246.995C538.151 247.238 538.548 247.359 538.996 247.359C539.285 247.359 539.556 247.308 539.808 247.205C540.06 247.102 540.279 246.958 540.466 246.771C540.652 246.584 540.797 246.36 540.9 246.099C541.012 245.838 541.068 245.548 541.068 245.231C541.068 244.858 541.002 244.536 540.872 244.265C540.75 243.985 540.582 243.756 540.368 243.579C540.153 243.402 539.906 243.271 539.626 243.187C539.346 243.103 539.052 243.061 538.744 243.061C538.37 243.061 537.988 243.112 537.596 243.215C537.204 243.318 536.854 243.448 536.546 243.607L536.686 238.343H542.034V239.547ZM546.734 242.333L546.748 242.361C546.888 242.277 547.075 242.212 547.308 242.165C547.541 242.118 547.765 242.095 547.98 242.095C548.409 242.095 548.811 242.174 549.184 242.333C549.567 242.482 549.898 242.697 550.178 242.977C550.458 243.248 550.677 243.574 550.836 243.957C550.995 244.34 551.074 244.755 551.074 245.203C551.074 245.698 550.985 246.15 550.808 246.561C550.64 246.962 550.402 247.308 550.094 247.597C549.786 247.886 549.422 248.11 549.002 248.269C548.591 248.428 548.143 248.507 547.658 248.507C547.163 248.507 546.706 248.423 546.286 248.255C545.866 248.096 545.502 247.872 545.194 247.583C544.895 247.294 544.657 246.948 544.48 246.547C544.312 246.146 544.228 245.712 544.228 245.245C544.228 244.704 544.317 244.214 544.494 243.775C544.671 243.336 544.905 242.888 545.194 242.431L547.784 238.343H549.394L546.734 242.333ZM545.6 245.259C545.6 245.548 545.647 245.824 545.74 246.085C545.843 246.337 545.983 246.556 546.16 246.743C546.347 246.93 546.566 247.079 546.818 247.191C547.07 247.303 547.35 247.359 547.658 247.359C547.966 247.359 548.241 247.308 548.484 247.205C548.736 247.102 548.951 246.958 549.128 246.771C549.315 246.575 549.455 246.351 549.548 246.099C549.651 245.838 549.702 245.553 549.702 245.245C549.702 244.946 549.651 244.671 549.548 244.419C549.455 244.167 549.319 243.948 549.142 243.761C548.974 243.574 548.764 243.43 548.512 243.327C548.26 243.224 547.98 243.173 547.672 243.173C547.364 243.173 547.079 243.224 546.818 243.327C546.566 243.43 546.347 243.574 546.16 243.761C545.983 243.948 545.843 244.167 545.74 244.419C545.647 244.671 545.6 244.951 545.6 245.259ZM559.036 239.575L555.06 248.255H553.506L557.636 239.547H552.722V238.343H559.036V239.575Z" fill="black"/>
<rect width="109" height="115" transform="translate(84 277.255)" fill="white"/>
<rect x="88" y="281.255" width="101" height="76" fill="#F8DCE3"/>
<path d="M92.704 369.343H94.09V373.487H99.102V369.343H100.502V379.255H99.102V374.719H94.09V379.255H92.704V369.343ZM104.289 378.023H109.469V379.255H102.903V369.343H109.259V370.561H104.289V373.529H108.965V374.719H104.289V378.023ZM114.783 373.039L117.135 369.343H118.759L115.595 374.033L119.193 379.255H117.443L114.727 375.083L112.067 379.255H110.359L113.901 374.005L110.709 369.343H112.403L114.783 373.039ZM122.497 373.445C122.497 373.697 122.408 373.916 122.231 374.103C122.054 374.28 121.83 374.369 121.559 374.369C121.298 374.369 121.074 374.28 120.887 374.103C120.71 373.926 120.621 373.711 120.621 373.459C120.621 373.216 120.71 373.002 120.887 372.815C121.064 372.628 121.288 372.535 121.559 372.535C121.83 372.535 122.054 372.628 122.231 372.815C122.408 372.992 122.497 373.202 122.497 373.445ZM122.497 378.415C122.497 378.658 122.408 378.872 122.231 379.059C122.054 379.246 121.83 379.339 121.559 379.339C121.298 379.339 121.074 379.25 120.887 379.073C120.71 378.886 120.621 378.672 120.621 378.429C120.621 378.177 120.71 377.962 120.887 377.785C121.064 377.598 121.288 377.505 121.559 377.505C121.83 377.505 122.054 377.594 122.231 377.771C122.408 377.948 122.497 378.163 122.497 378.415ZM129.074 376.301H127.73V375.279H129.214L129.48 373.305H128.108V372.283H129.634L130.04 369.343H131.09L130.67 372.283H132.322L132.728 369.343H133.778L133.358 372.283H134.618V373.305H133.218L132.938 375.279H134.24V376.301H132.812L132.392 379.255H131.342L131.762 376.301H130.11L129.69 379.255H128.654L129.074 376.301ZM130.25 375.279H131.902L132.168 373.305H130.53L130.25 375.279ZM142.503 379.255H136.035V377.953L139.983 374.033C140.282 373.725 140.539 373.403 140.753 373.067C140.968 372.731 141.075 372.353 141.075 371.933C141.075 371.672 141.029 371.438 140.935 371.233C140.842 371.018 140.716 370.836 140.557 370.687C140.399 370.538 140.212 370.426 139.997 370.351C139.783 370.267 139.554 370.225 139.311 370.225C138.807 370.225 138.392 370.388 138.065 370.715C137.739 371.032 137.533 371.443 137.449 371.947L136.119 371.723C136.175 371.35 136.292 371.004 136.469 370.687C136.656 370.36 136.889 370.08 137.169 369.847C137.449 369.604 137.771 369.418 138.135 369.287C138.509 369.156 138.905 369.091 139.325 369.091C139.736 369.091 140.128 369.152 140.501 369.273C140.884 369.394 141.22 369.572 141.509 369.805C141.799 370.038 142.027 370.332 142.195 370.687C142.373 371.042 142.461 371.448 142.461 371.905C142.461 372.222 142.419 372.516 142.335 372.787C142.251 373.058 142.135 373.314 141.985 373.557C141.845 373.8 141.677 374.033 141.481 374.257C141.285 374.472 141.08 374.686 140.865 374.901L137.645 378.037H142.503V379.255ZM146.503 373.515H146.937C147.217 373.515 147.488 373.492 147.749 373.445C148.02 373.389 148.258 373.3 148.463 373.179C148.669 373.048 148.832 372.876 148.953 372.661C149.084 372.446 149.149 372.18 149.149 371.863C149.149 371.611 149.103 371.387 149.009 371.191C148.916 370.986 148.785 370.813 148.617 370.673C148.459 370.533 148.272 370.426 148.057 370.351C147.852 370.267 147.633 370.225 147.399 370.225C146.979 370.225 146.62 370.332 146.321 370.547C146.032 370.762 145.813 371.06 145.663 371.443L144.431 371.009C144.674 370.412 145.061 369.945 145.593 369.609C146.135 369.264 146.755 369.091 147.455 369.091C147.866 369.091 148.253 369.152 148.617 369.273C148.991 369.385 149.317 369.553 149.597 369.777C149.877 370.001 150.097 370.281 150.255 370.617C150.423 370.953 150.507 371.34 150.507 371.779C150.507 372.059 150.461 372.32 150.367 372.563C150.283 372.806 150.162 373.025 150.003 373.221C149.854 373.417 149.672 373.585 149.457 373.725C149.243 373.865 149.009 373.968 148.757 374.033V374.061C149.047 374.117 149.313 374.215 149.555 374.355C149.807 374.495 150.022 374.672 150.199 374.887C150.377 375.092 150.517 375.33 150.619 375.601C150.722 375.872 150.773 376.166 150.773 376.483C150.773 376.978 150.68 377.416 150.493 377.799C150.307 378.172 150.059 378.485 149.751 378.737C149.443 378.989 149.089 379.18 148.687 379.311C148.286 379.442 147.875 379.507 147.455 379.507C146.671 379.507 145.981 379.33 145.383 378.975C144.786 378.62 144.352 378.07 144.081 377.323L145.341 376.903C145.491 377.332 145.743 377.682 146.097 377.953C146.461 378.224 146.905 378.359 147.427 378.359C147.679 378.359 147.922 378.322 148.155 378.247C148.398 378.163 148.613 378.042 148.799 377.883C148.986 377.724 149.135 377.528 149.247 377.295C149.359 377.062 149.415 376.786 149.415 376.469C149.415 376.124 149.341 375.834 149.191 375.601C149.042 375.368 148.846 375.181 148.603 375.041C148.37 374.892 148.104 374.789 147.805 374.733C147.507 374.668 147.213 374.635 146.923 374.635H146.503V373.515ZM158.162 375.867H159.59V377.029H158.162V379.255H156.846V377.029H152.282V375.797L156.496 369.343H158.162V375.867ZM156.846 370.897H156.818L153.682 375.867H156.846V370.897ZM167.034 370.547H162.946L162.862 373.151C163.048 373.086 163.254 373.039 163.478 373.011C163.711 372.983 163.93 372.969 164.136 372.969C164.612 372.969 165.05 373.044 165.452 373.193C165.862 373.333 166.212 373.538 166.502 373.809C166.8 374.08 167.034 374.411 167.202 374.803C167.37 375.186 167.454 375.615 167.454 376.091C167.454 376.614 167.365 377.085 167.188 377.505C167.01 377.925 166.768 378.284 166.46 378.583C166.152 378.872 165.788 379.096 165.368 379.255C164.948 379.423 164.49 379.507 163.996 379.507C163.221 379.507 162.568 379.33 162.036 378.975C161.504 378.611 161.102 378.126 160.832 377.519L162.064 377.029C162.222 377.43 162.47 377.752 162.806 377.995C163.151 378.238 163.548 378.359 163.996 378.359C164.285 378.359 164.556 378.308 164.808 378.205C165.06 378.102 165.279 377.958 165.466 377.771C165.652 377.584 165.797 377.36 165.9 377.099C166.012 376.838 166.068 376.548 166.068 376.231C166.068 375.858 166.002 375.536 165.872 375.265C165.75 374.985 165.582 374.756 165.368 374.579C165.153 374.402 164.906 374.271 164.626 374.187C164.346 374.103 164.052 374.061 163.744 374.061C163.37 374.061 162.988 374.112 162.596 374.215C162.204 374.318 161.854 374.448 161.546 374.607L161.686 369.343H167.034V370.547ZM171.734 373.333L171.748 373.361C171.888 373.277 172.075 373.212 172.308 373.165C172.541 373.118 172.765 373.095 172.98 373.095C173.409 373.095 173.811 373.174 174.184 373.333C174.567 373.482 174.898 373.697 175.178 373.977C175.458 374.248 175.677 374.574 175.836 374.957C175.995 375.34 176.074 375.755 176.074 376.203C176.074 376.698 175.985 377.15 175.808 377.561C175.64 377.962 175.402 378.308 175.094 378.597C174.786 378.886 174.422 379.11 174.002 379.269C173.591 379.428 173.143 379.507 172.658 379.507C172.163 379.507 171.706 379.423 171.286 379.255C170.866 379.096 170.502 378.872 170.194 378.583C169.895 378.294 169.657 377.948 169.48 377.547C169.312 377.146 169.228 376.712 169.228 376.245C169.228 375.704 169.317 375.214 169.494 374.775C169.671 374.336 169.905 373.888 170.194 373.431L172.784 369.343H174.394L171.734 373.333ZM170.6 376.259C170.6 376.548 170.647 376.824 170.74 377.085C170.843 377.337 170.983 377.556 171.16 377.743C171.347 377.93 171.566 378.079 171.818 378.191C172.07 378.303 172.35 378.359 172.658 378.359C172.966 378.359 173.241 378.308 173.484 378.205C173.736 378.102 173.951 377.958 174.128 377.771C174.315 377.575 174.455 377.351 174.548 377.099C174.651 376.838 174.702 376.553 174.702 376.245C174.702 375.946 174.651 375.671 174.548 375.419C174.455 375.167 174.319 374.948 174.142 374.761C173.974 374.574 173.764 374.43 173.512 374.327C173.26 374.224 172.98 374.173 172.672 374.173C172.364 374.173 172.079 374.224 171.818 374.327C171.566 374.43 171.347 374.574 171.16 374.761C170.983 374.948 170.843 375.167 170.74 375.419C170.647 375.671 170.6 375.951 170.6 376.259ZM184.036 370.575L180.06 379.255H178.506L182.636 370.547H177.722V369.343H184.036V370.575Z" fill="black"/>
<rect width="109" height="115" transform="translate(209 277.255)" fill="white"/>
<rect x="213" y="281.255" width="101" height="76" fill="#F8EBDC"/>
<path d="M217.704 369.343H219.09V373.487H224.102V369.343H225.502V379.255H224.102V374.719H219.09V379.255H217.704V369.343ZM229.289 378.023H234.469V379.255H227.903V369.343H234.259V370.561H229.289V373.529H233.965V374.719H229.289V378.023ZM239.783 373.039L242.135 369.343H243.759L240.595 374.033L244.193 379.255H242.443L239.727 375.083L237.067 379.255H235.359L238.901 374.005L235.709 369.343H237.403L239.783 373.039ZM247.497 373.445C247.497 373.697 247.408 373.916 247.231 374.103C247.054 374.28 246.83 374.369 246.559 374.369C246.298 374.369 246.074 374.28 245.887 374.103C245.71 373.926 245.621 373.711 245.621 373.459C245.621 373.216 245.71 373.002 245.887 372.815C246.064 372.628 246.288 372.535 246.559 372.535C246.83 372.535 247.054 372.628 247.231 372.815C247.408 372.992 247.497 373.202 247.497 373.445ZM247.497 378.415C247.497 378.658 247.408 378.872 247.231 379.059C247.054 379.246 246.83 379.339 246.559 379.339C246.298 379.339 246.074 379.25 245.887 379.073C245.71 378.886 245.621 378.672 245.621 378.429C245.621 378.177 245.71 377.962 245.887 377.785C246.064 377.598 246.288 377.505 246.559 377.505C246.83 377.505 247.054 377.594 247.231 377.771C247.408 377.948 247.497 378.163 247.497 378.415ZM254.074 376.301H252.73V375.279H254.214L254.48 373.305H253.108V372.283H254.634L255.04 369.343H256.09L255.67 372.283H257.322L257.728 369.343H258.778L258.358 372.283H259.618V373.305H258.218L257.938 375.279H259.24V376.301H257.812L257.392 379.255H256.342L256.762 376.301H255.11L254.69 379.255H253.654L254.074 376.301ZM255.25 375.279H256.902L257.168 373.305H255.53L255.25 375.279ZM267.503 379.255H261.035V377.953L264.983 374.033C265.282 373.725 265.539 373.403 265.753 373.067C265.968 372.731 266.075 372.353 266.075 371.933C266.075 371.672 266.029 371.438 265.935 371.233C265.842 371.018 265.716 370.836 265.557 370.687C265.399 370.538 265.212 370.426 264.997 370.351C264.783 370.267 264.554 370.225 264.311 370.225C263.807 370.225 263.392 370.388 263.065 370.715C262.739 371.032 262.533 371.443 262.449 371.947L261.119 371.723C261.175 371.35 261.292 371.004 261.469 370.687C261.656 370.36 261.889 370.08 262.169 369.847C262.449 369.604 262.771 369.418 263.135 369.287C263.509 369.156 263.905 369.091 264.325 369.091C264.736 369.091 265.128 369.152 265.501 369.273C265.884 369.394 266.22 369.572 266.509 369.805C266.799 370.038 267.027 370.332 267.195 370.687C267.373 371.042 267.461 371.448 267.461 371.905C267.461 372.222 267.419 372.516 267.335 372.787C267.251 373.058 267.135 373.314 266.985 373.557C266.845 373.8 266.677 374.033 266.481 374.257C266.285 374.472 266.08 374.686 265.865 374.901L262.645 378.037H267.503V379.255ZM271.503 373.515H271.937C272.217 373.515 272.488 373.492 272.749 373.445C273.02 373.389 273.258 373.3 273.463 373.179C273.669 373.048 273.832 372.876 273.953 372.661C274.084 372.446 274.149 372.18 274.149 371.863C274.149 371.611 274.103 371.387 274.009 371.191C273.916 370.986 273.785 370.813 273.617 370.673C273.459 370.533 273.272 370.426 273.057 370.351C272.852 370.267 272.633 370.225 272.399 370.225C271.979 370.225 271.62 370.332 271.321 370.547C271.032 370.762 270.813 371.06 270.663 371.443L269.431 371.009C269.674 370.412 270.061 369.945 270.593 369.609C271.135 369.264 271.755 369.091 272.455 369.091C272.866 369.091 273.253 369.152 273.617 369.273C273.991 369.385 274.317 369.553 274.597 369.777C274.877 370.001 275.097 370.281 275.255 370.617C275.423 370.953 275.507 371.34 275.507 371.779C275.507 372.059 275.461 372.32 275.367 372.563C275.283 372.806 275.162 373.025 275.003 373.221C274.854 373.417 274.672 373.585 274.457 373.725C274.243 373.865 274.009 373.968 273.757 374.033V374.061C274.047 374.117 274.313 374.215 274.555 374.355C274.807 374.495 275.022 374.672 275.199 374.887C275.377 375.092 275.517 375.33 275.619 375.601C275.722 375.872 275.773 376.166 275.773 376.483C275.773 376.978 275.68 377.416 275.493 377.799C275.307 378.172 275.059 378.485 274.751 378.737C274.443 378.989 274.089 379.18 273.687 379.311C273.286 379.442 272.875 379.507 272.455 379.507C271.671 379.507 270.981 379.33 270.383 378.975C269.786 378.62 269.352 378.07 269.081 377.323L270.341 376.903C270.491 377.332 270.743 377.682 271.097 377.953C271.461 378.224 271.905 378.359 272.427 378.359C272.679 378.359 272.922 378.322 273.155 378.247C273.398 378.163 273.613 378.042 273.799 377.883C273.986 377.724 274.135 377.528 274.247 377.295C274.359 377.062 274.415 376.786 274.415 376.469C274.415 376.124 274.341 375.834 274.191 375.601C274.042 375.368 273.846 375.181 273.603 375.041C273.37 374.892 273.104 374.789 272.805 374.733C272.507 374.668 272.213 374.635 271.923 374.635H271.503V373.515ZM283.162 375.867H284.59V377.029H283.162V379.255H281.846V377.029H277.282V375.797L281.496 369.343H283.162V375.867ZM281.846 370.897H281.818L278.682 375.867H281.846V370.897ZM292.034 370.547H287.946L287.862 373.151C288.048 373.086 288.254 373.039 288.478 373.011C288.711 372.983 288.93 372.969 289.136 372.969C289.612 372.969 290.05 373.044 290.452 373.193C290.862 373.333 291.212 373.538 291.502 373.809C291.8 374.08 292.034 374.411 292.202 374.803C292.37 375.186 292.454 375.615 292.454 376.091C292.454 376.614 292.365 377.085 292.188 377.505C292.01 377.925 291.768 378.284 291.46 378.583C291.152 378.872 290.788 379.096 290.368 379.255C289.948 379.423 289.49 379.507 288.996 379.507C288.221 379.507 287.568 379.33 287.036 378.975C286.504 378.611 286.102 378.126 285.832 377.519L287.064 377.029C287.222 377.43 287.47 377.752 287.806 377.995C288.151 378.238 288.548 378.359 288.996 378.359C289.285 378.359 289.556 378.308 289.808 378.205C290.06 378.102 290.279 377.958 290.466 377.771C290.652 377.584 290.797 377.36 290.9 377.099C291.012 376.838 291.068 376.548 291.068 376.231C291.068 375.858 291.002 375.536 290.872 375.265C290.75 374.985 290.582 374.756 290.368 374.579C290.153 374.402 289.906 374.271 289.626 374.187C289.346 374.103 289.052 374.061 288.744 374.061C288.37 374.061 287.988 374.112 287.596 374.215C287.204 374.318 286.854 374.448 286.546 374.607L286.686 369.343H292.034V370.547ZM296.734 373.333L296.748 373.361C296.888 373.277 297.075 373.212 297.308 373.165C297.541 373.118 297.765 373.095 297.98 373.095C298.409 373.095 298.811 373.174 299.184 373.333C299.567 373.482 299.898 373.697 300.178 373.977C300.458 374.248 300.677 374.574 300.836 374.957C300.995 375.34 301.074 375.755 301.074 376.203C301.074 376.698 300.985 377.15 300.808 377.561C300.64 377.962 300.402 378.308 300.094 378.597C299.786 378.886 299.422 379.11 299.002 379.269C298.591 379.428 298.143 379.507 297.658 379.507C297.163 379.507 296.706 379.423 296.286 379.255C295.866 379.096 295.502 378.872 295.194 378.583C294.895 378.294 294.657 377.948 294.48 377.547C294.312 377.146 294.228 376.712 294.228 376.245C294.228 375.704 294.317 375.214 294.494 374.775C294.671 374.336 294.905 373.888 295.194 373.431L297.784 369.343H299.394L296.734 373.333ZM295.6 376.259C295.6 376.548 295.647 376.824 295.74 377.085C295.843 377.337 295.983 377.556 296.16 377.743C296.347 377.93 296.566 378.079 296.818 378.191C297.07 378.303 297.35 378.359 297.658 378.359C297.966 378.359 298.241 378.308 298.484 378.205C298.736 378.102 298.951 377.958 299.128 377.771C299.315 377.575 299.455 377.351 299.548 377.099C299.651 376.838 299.702 376.553 299.702 376.245C299.702 375.946 299.651 375.671 299.548 375.419C299.455 375.167 299.319 374.948 299.142 374.761C298.974 374.574 298.764 374.43 298.512 374.327C298.26 374.224 297.98 374.173 297.672 374.173C297.364 374.173 297.079 374.224 296.818 374.327C296.566 374.43 296.347 374.574 296.16 374.761C295.983 374.948 295.843 375.167 295.74 375.419C295.647 375.671 295.6 375.951 295.6 376.259ZM309.036 370.575L305.06 379.255H303.506L307.636 370.547H302.722V369.343H309.036V370.575Z" fill="black"/>
<rect width="109" height="115" transform="translate(334 277.255)" fill="white"/>
<rect x="338" y="281.255" width="101" height="76" fill="#EDFCF2"/>
<path d="M342.704 369.343H344.09V373.487H349.102V369.343H350.502V379.255H349.102V374.719H344.09V379.255H342.704V369.343ZM354.289 378.023H359.469V379.255H352.903V369.343H359.259V370.561H354.289V373.529H358.965V374.719H354.289V378.023ZM364.783 373.039L367.135 369.343H368.759L365.595 374.033L369.193 379.255H367.443L364.727 375.083L362.067 379.255H360.359L363.901 374.005L360.709 369.343H362.403L364.783 373.039ZM372.497 373.445C372.497 373.697 372.408 373.916 372.231 374.103C372.054 374.28 371.83 374.369 371.559 374.369C371.298 374.369 371.074 374.28 370.887 374.103C370.71 373.926 370.621 373.711 370.621 373.459C370.621 373.216 370.71 373.002 370.887 372.815C371.064 372.628 371.288 372.535 371.559 372.535C371.83 372.535 372.054 372.628 372.231 372.815C372.408 372.992 372.497 373.202 372.497 373.445ZM372.497 378.415C372.497 378.658 372.408 378.872 372.231 379.059C372.054 379.246 371.83 379.339 371.559 379.339C371.298 379.339 371.074 379.25 370.887 379.073C370.71 378.886 370.621 378.672 370.621 378.429C370.621 378.177 370.71 377.962 370.887 377.785C371.064 377.598 371.288 377.505 371.559 377.505C371.83 377.505 372.054 377.594 372.231 377.771C372.408 377.948 372.497 378.163 372.497 378.415ZM379.074 376.301H377.73V375.279H379.214L379.48 373.305H378.108V372.283H379.634L380.04 369.343H381.09L380.67 372.283H382.322L382.728 369.343H383.778L383.358 372.283H384.618V373.305H383.218L382.938 375.279H384.24V376.301H382.812L382.392 379.255H381.342L381.762 376.301H380.11L379.69 379.255H378.654L379.074 376.301ZM380.25 375.279H381.902L382.168 373.305H380.53L380.25 375.279ZM392.503 379.255H386.035V377.953L389.983 374.033C390.282 373.725 390.539 373.403 390.753 373.067C390.968 372.731 391.075 372.353 391.075 371.933C391.075 371.672 391.029 371.438 390.935 371.233C390.842 371.018 390.716 370.836 390.557 370.687C390.399 370.538 390.212 370.426 389.997 370.351C389.783 370.267 389.554 370.225 389.311 370.225C388.807 370.225 388.392 370.388 388.065 370.715C387.739 371.032 387.533 371.443 387.449 371.947L386.119 371.723C386.175 371.35 386.292 371.004 386.469 370.687C386.656 370.36 386.889 370.08 387.169 369.847C387.449 369.604 387.771 369.418 388.135 369.287C388.509 369.156 388.905 369.091 389.325 369.091C389.736 369.091 390.128 369.152 390.501 369.273C390.884 369.394 391.22 369.572 391.509 369.805C391.799 370.038 392.027 370.332 392.195 370.687C392.373 371.042 392.461 371.448 392.461 371.905C392.461 372.222 392.419 372.516 392.335 372.787C392.251 373.058 392.135 373.314 391.985 373.557C391.845 373.8 391.677 374.033 391.481 374.257C391.285 374.472 391.08 374.686 390.865 374.901L387.645 378.037H392.503V379.255ZM396.503 373.515H396.937C397.217 373.515 397.488 373.492 397.749 373.445C398.02 373.389 398.258 373.3 398.463 373.179C398.669 373.048 398.832 372.876 398.953 372.661C399.084 372.446 399.149 372.18 399.149 371.863C399.149 371.611 399.103 371.387 399.009 371.191C398.916 370.986 398.785 370.813 398.617 370.673C398.459 370.533 398.272 370.426 398.057 370.351C397.852 370.267 397.633 370.225 397.399 370.225C396.979 370.225 396.62 370.332 396.321 370.547C396.032 370.762 395.813 371.06 395.663 371.443L394.431 371.009C394.674 370.412 395.061 369.945 395.593 369.609C396.135 369.264 396.755 369.091 397.455 369.091C397.866 369.091 398.253 369.152 398.617 369.273C398.991 369.385 399.317 369.553 399.597 369.777C399.877 370.001 400.097 370.281 400.255 370.617C400.423 370.953 400.507 371.34 400.507 371.779C400.507 372.059 400.461 372.32 400.367 372.563C400.283 372.806 400.162 373.025 400.003 373.221C399.854 373.417 399.672 373.585 399.457 373.725C399.243 373.865 399.009 373.968 398.757 374.033V374.061C399.047 374.117 399.313 374.215 399.555 374.355C399.807 374.495 400.022 374.672 400.199 374.887C400.377 375.092 400.517 375.33 400.619 375.601C400.722 375.872 400.773 376.166 400.773 376.483C400.773 376.978 400.68 377.416 400.493 377.799C400.307 378.172 400.059 378.485 399.751 378.737C399.443 378.989 399.089 379.18 398.687 379.311C398.286 379.442 397.875 379.507 397.455 379.507C396.671 379.507 395.981 379.33 395.383 378.975C394.786 378.62 394.352 378.07 394.081 377.323L395.341 376.903C395.491 377.332 395.743 377.682 396.097 377.953C396.461 378.224 396.905 378.359 397.427 378.359C397.679 378.359 397.922 378.322 398.155 378.247C398.398 378.163 398.613 378.042 398.799 377.883C398.986 377.724 399.135 377.528 399.247 377.295C399.359 377.062 399.415 376.786 399.415 376.469C399.415 376.124 399.341 375.834 399.191 375.601C399.042 375.368 398.846 375.181 398.603 375.041C398.37 374.892 398.104 374.789 397.805 374.733C397.507 374.668 397.213 374.635 396.923 374.635H396.503V373.515ZM408.162 375.867H409.59V377.029H408.162V379.255H406.846V377.029H402.282V375.797L406.496 369.343H408.162V375.867ZM406.846 370.897H406.818L403.682 375.867H406.846V370.897ZM417.034 370.547H412.946L412.862 373.151C413.048 373.086 413.254 373.039 413.478 373.011C413.711 372.983 413.93 372.969 414.136 372.969C414.612 372.969 415.05 373.044 415.452 373.193C415.862 373.333 416.212 373.538 416.502 373.809C416.8 374.08 417.034 374.411 417.202 374.803C417.37 375.186 417.454 375.615 417.454 376.091C417.454 376.614 417.365 377.085 417.188 377.505C417.01 377.925 416.768 378.284 416.46 378.583C416.152 378.872 415.788 379.096 415.368 379.255C414.948 379.423 414.49 379.507 413.996 379.507C413.221 379.507 412.568 379.33 412.036 378.975C411.504 378.611 411.102 378.126 410.832 377.519L412.064 377.029C412.222 377.43 412.47 377.752 412.806 377.995C413.151 378.238 413.548 378.359 413.996 378.359C414.285 378.359 414.556 378.308 414.808 378.205C415.06 378.102 415.279 377.958 415.466 377.771C415.652 377.584 415.797 377.36 415.9 377.099C416.012 376.838 416.068 376.548 416.068 376.231C416.068 375.858 416.002 375.536 415.872 375.265C415.75 374.985 415.582 374.756 415.368 374.579C415.153 374.402 414.906 374.271 414.626 374.187C414.346 374.103 414.052 374.061 413.744 374.061C413.37 374.061 412.988 374.112 412.596 374.215C412.204 374.318 411.854 374.448 411.546 374.607L411.686 369.343H417.034V370.547ZM421.734 373.333L421.748 373.361C421.888 373.277 422.075 373.212 422.308 373.165C422.541 373.118 422.765 373.095 422.98 373.095C423.409 373.095 423.811 373.174 424.184 373.333C424.567 373.482 424.898 373.697 425.178 373.977C425.458 374.248 425.677 374.574 425.836 374.957C425.995 375.34 426.074 375.755 426.074 376.203C426.074 376.698 425.985 377.15 425.808 377.561C425.64 377.962 425.402 378.308 425.094 378.597C424.786 378.886 424.422 379.11 424.002 379.269C423.591 379.428 423.143 379.507 422.658 379.507C422.163 379.507 421.706 379.423 421.286 379.255C420.866 379.096 420.502 378.872 420.194 378.583C419.895 378.294 419.657 377.948 419.48 377.547C419.312 377.146 419.228 376.712 419.228 376.245C419.228 375.704 419.317 375.214 419.494 374.775C419.671 374.336 419.905 373.888 420.194 373.431L422.784 369.343H424.394L421.734 373.333ZM420.6 376.259C420.6 376.548 420.647 376.824 420.74 377.085C420.843 377.337 420.983 377.556 421.16 377.743C421.347 377.93 421.566 378.079 421.818 378.191C422.07 378.303 422.35 378.359 422.658 378.359C422.966 378.359 423.241 378.308 423.484 378.205C423.736 378.102 423.951 377.958 424.128 377.771C424.315 377.575 424.455 377.351 424.548 377.099C424.651 376.838 424.702 376.553 424.702 376.245C424.702 375.946 424.651 375.671 424.548 375.419C424.455 375.167 424.319 374.948 424.142 374.761C423.974 374.574 423.764 374.43 423.512 374.327C423.26 374.224 422.98 374.173 422.672 374.173C422.364 374.173 422.079 374.224 421.818 374.327C421.566 374.43 421.347 374.574 421.16 374.761C420.983 374.948 420.843 375.167 420.74 375.419C420.647 375.671 420.6 375.951 420.6 376.259ZM434.036 370.575L430.06 379.255H428.506L432.636 370.547H427.722V369.343H434.036V370.575Z" fill="black"/>
<rect width="109" height="115" transform="translate(459 277.255)" fill="white"/>
<rect x="463" y="281.255" width="101" height="76" fill="#FDFDFD"/>
<path d="M468.704 369.343H470.09V373.487H475.102V369.343H476.502V379.255H475.102V374.719H470.09V379.255H468.704V369.343ZM480.289 378.023H485.469V379.255H478.903V369.343H485.259V370.561H480.289V373.529H484.965V374.719H480.289V378.023ZM490.783 373.039L493.135 369.343H494.759L491.595 374.033L495.193 379.255H493.443L490.727 375.083L488.067 379.255H486.359L489.901 374.005L486.709 369.343H488.403L490.783 373.039ZM498.497 373.445C498.497 373.697 498.408 373.916 498.231 374.103C498.054 374.28 497.83 374.369 497.559 374.369C497.298 374.369 497.074 374.28 496.887 374.103C496.71 373.926 496.621 373.711 496.621 373.459C496.621 373.216 496.71 373.002 496.887 372.815C497.064 372.628 497.288 372.535 497.559 372.535C497.83 372.535 498.054 372.628 498.231 372.815C498.408 372.992 498.497 373.202 498.497 373.445ZM498.497 378.415C498.497 378.658 498.408 378.872 498.231 379.059C498.054 379.246 497.83 379.339 497.559 379.339C497.298 379.339 497.074 379.25 496.887 379.073C496.71 378.886 496.621 378.672 496.621 378.429C496.621 378.177 496.71 377.962 496.887 377.785C497.064 377.598 497.288 377.505 497.559 377.505C497.83 377.505 498.054 377.594 498.231 377.771C498.408 377.948 498.497 378.163 498.497 378.415ZM505.746 379.255H504.36V369.343H510.548V370.561H505.746V373.641H510.24V374.831H505.746V379.255ZM512.317 369.343H515.719C516.354 369.343 516.989 369.436 517.623 369.623C518.258 369.81 518.832 370.104 519.345 370.505C519.859 370.906 520.274 371.42 520.591 372.045C520.909 372.67 521.067 373.422 521.067 374.299C521.067 375.148 520.909 375.886 520.591 376.511C520.274 377.127 519.859 377.64 519.345 378.051C518.832 378.452 518.258 378.756 517.623 378.961C516.989 379.157 516.354 379.255 515.719 379.255H512.317V369.343ZM513.703 378.037H515.439C516.037 378.037 516.587 377.953 517.091 377.785C517.605 377.617 518.043 377.374 518.407 377.057C518.781 376.74 519.07 376.348 519.275 375.881C519.481 375.414 519.583 374.887 519.583 374.299C519.583 373.683 519.481 373.142 519.275 372.675C519.07 372.208 518.781 371.821 518.407 371.513C518.043 371.196 517.605 370.958 517.091 370.799C516.587 370.631 516.037 370.547 515.439 370.547H513.703V378.037ZM524.354 379.255H522.968V369.343H529.156V370.561H524.354V373.641H528.848V374.831H524.354V379.255ZM530.925 369.343H534.327C534.961 369.343 535.596 369.436 536.231 369.623C536.865 369.81 537.439 370.104 537.953 370.505C538.466 370.906 538.881 371.42 539.199 372.045C539.516 372.67 539.675 373.422 539.675 374.299C539.675 375.148 539.516 375.886 539.199 376.511C538.881 377.127 538.466 377.64 537.953 378.051C537.439 378.452 536.865 378.756 536.231 378.961C535.596 379.157 534.961 379.255 534.327 379.255H530.925V369.343ZM532.311 378.037H534.047C534.644 378.037 535.195 377.953 535.699 377.785C536.212 377.617 536.651 377.374 537.015 377.057C537.388 376.74 537.677 376.348 537.883 375.881C538.088 375.414 538.191 374.887 538.191 374.299C538.191 373.683 538.088 373.142 537.883 372.675C537.677 372.208 537.388 371.821 537.015 371.513C536.651 371.196 536.212 370.958 535.699 370.799C535.195 370.631 534.644 370.547 534.047 370.547H532.311V378.037ZM542.961 379.255H541.575V369.343H547.763V370.561H542.961V373.641H547.455V374.831H542.961V379.255ZM549.532 369.343H552.934C553.569 369.343 554.203 369.436 554.838 369.623C555.473 369.81 556.047 370.104 556.56 370.505C557.073 370.906 557.489 371.42 557.806 372.045C558.123 372.67 558.282 373.422 558.282 374.299C558.282 375.148 558.123 375.886 557.806 376.511C557.489 377.127 557.073 377.64 556.56 378.051C556.047 378.452 555.473 378.756 554.838 378.961C554.203 379.157 553.569 379.255 552.934 379.255H549.532V369.343ZM550.918 378.037H552.654C553.251 378.037 553.802 377.953 554.306 377.785C554.819 377.617 555.258 377.374 555.622 377.057C555.995 376.74 556.285 376.348 556.49 375.881C556.695 375.414 556.798 374.887 556.798 374.299C556.798 373.683 556.695 373.142 556.49 372.675C556.285 372.208 555.995 371.821 555.622 371.513C555.258 371.196 554.819 370.958 554.306 370.799C553.802 370.631 553.251 370.547 552.654 370.547H550.918V378.037Z" fill="black"/>
</g>
<defs>
<filter id="filter0_d_496_19093" x="0" y="0.254883" width="652" height="474" filterUnits="userSpaceOnUse" color-interpolation-filters="sRGB">
<feFlood flood-opacity="0" result="BackgroundImageFix"/>
<feColorMatrix in="SourceAlpha" type="matrix" values="0 0 0 0 0 0 0 0 0 0 0 0 0 0 0 0 0 0 127 0" result="hardAlpha"/>
<feOffset dy="4"/>
<feGaussianBlur stdDeviation="15"/>
<feComposite in2="hardAlpha" operator="out"/>
<feColorMatrix type="matrix" values="0 0 0 0 0 0 0 0 0 0 0 0 0 0 0 0 0 0 0.05 0"/>
<feBlend mode="normal" in2="BackgroundImageFix" result="effect1_dropShadow_496_19093"/>
<feBlend mode="normal" in="SourceGraphic" in2="effect1_dropShadow_496_19093" result="shape"/>
</filter>
</defs>
</svg>
