<svg width="652" height="475" viewBox="0 0 652 475" fill="none" xmlns="http://www.w3.org/2000/svg">
<g filter="url(#filter0_d_496_19135)">
<rect x="30" y="26.2549" width="592" height="414" fill="#FDFDFD" shape-rendering="crispEdges"/>
<rect x="30.5" y="26.7549" width="591" height="413" stroke="black" stroke-opacity="0.05" shape-rendering="crispEdges"/>
<rect width="506" height="300" transform="translate(73 83.2549)" fill="white"/>
<rect x="73.5" y="83.7549" width="505" height="55" rx="11.5" stroke="#190F26" stroke-opacity="0.1"/>
<path d="M102.25 102.255C101.016 102.255 100 103.271 100 104.505V118.005C100 119.239 101.016 120.255 102.25 120.255H111.75C111.949 120.255 112.14 120.176 112.28 120.035C112.283 120.033 112.286 120.03 112.288 120.027L117.78 114.535C117.921 114.395 118 114.204 118 114.005V104.505C118 103.271 116.984 102.255 115.75 102.255H102.25ZM102.25 103.755H115.75C116.173 103.755 116.5 104.082 116.5 104.505V113.255H113.25C112.016 113.255 111 114.271 111 115.505V118.755H102.25C101.827 118.755 101.5 118.428 101.5 118.005V104.505C101.5 104.082 101.827 103.755 102.25 103.755ZM104.75 106.254C104.651 106.253 104.552 106.271 104.46 106.308C104.367 106.345 104.284 106.4 104.213 106.47C104.142 106.54 104.086 106.623 104.047 106.714C104.009 106.806 103.989 106.905 103.989 107.004C103.989 107.103 104.009 107.202 104.047 107.293C104.086 107.385 104.142 107.468 104.213 107.538C104.284 107.608 104.367 107.663 104.46 107.7C104.552 107.737 104.651 107.755 104.75 107.754H113.25C113.349 107.755 113.448 107.737 113.54 107.7C113.633 107.663 113.716 107.608 113.787 107.538C113.858 107.468 113.914 107.385 113.953 107.293C113.991 107.202 114.011 107.103 114.011 107.004C114.011 106.905 113.991 106.806 113.953 106.714C113.914 106.623 113.858 106.54 113.787 106.47C113.716 106.4 113.633 106.345 113.54 106.308C113.448 106.271 113.349 106.253 113.25 106.254H104.75ZM104.75 109.754C104.651 109.753 104.552 109.771 104.46 109.808C104.367 109.845 104.284 109.9 104.213 109.97C104.142 110.04 104.086 110.123 104.047 110.214C104.009 110.306 103.989 110.405 103.989 110.504C103.989 110.603 104.009 110.702 104.047 110.793C104.086 110.885 104.142 110.968 104.213 111.038C104.284 111.108 104.367 111.163 104.46 111.2C104.552 111.237 104.651 111.255 104.75 111.254H111.25C111.349 111.255 111.448 111.237 111.54 111.2C111.633 111.163 111.716 111.108 111.787 111.038C111.858 110.968 111.914 110.885 111.953 110.793C111.991 110.702 112.011 110.603 112.011 110.504C112.011 110.405 111.991 110.306 111.953 110.214C111.914 110.123 111.858 110.04 111.787 109.97C111.716 109.9 111.633 109.845 111.54 109.808C111.448 109.771 111.349 109.753 111.25 109.754H104.75ZM113.25 114.755H115.439L112.5 117.694V115.505C112.5 115.082 112.827 114.755 113.25 114.755Z" fill="#190F26" fill-opacity="0.3"/>
<path d="M135.655 106.573V116.755H134.119V106.573H135.655ZM140.989 116.909C140.25 116.909 139.614 116.742 139.08 116.407C138.55 116.069 138.142 115.603 137.857 115.01C137.572 114.417 137.43 113.737 137.43 112.972C137.43 112.196 137.576 111.512 137.867 110.918C138.159 110.322 138.57 109.856 139.1 109.521C139.63 109.186 140.255 109.019 140.974 109.019C141.554 109.019 142.071 109.127 142.526 109.342C142.98 109.554 143.346 109.853 143.624 110.237C143.906 110.622 144.073 111.071 144.126 111.584H142.68C142.6 111.226 142.418 110.918 142.133 110.66C141.851 110.401 141.473 110.272 140.999 110.272C140.585 110.272 140.222 110.381 139.911 110.6C139.602 110.815 139.362 111.124 139.19 111.525C139.017 111.922 138.931 112.393 138.931 112.937C138.931 113.494 139.016 113.974 139.185 114.378C139.354 114.783 139.592 115.096 139.901 115.318C140.212 115.54 140.578 115.651 140.999 115.651C141.281 115.651 141.536 115.6 141.765 115.497C141.997 115.391 142.191 115.24 142.347 115.045C142.506 114.849 142.617 114.614 142.68 114.339H144.126C144.073 114.833 143.913 115.273 143.644 115.661C143.376 116.049 143.016 116.354 142.565 116.576C142.118 116.798 141.593 116.909 140.989 116.909ZM148.933 116.909C148.217 116.909 147.592 116.745 147.058 116.417C146.525 116.089 146.11 115.63 145.816 115.04C145.521 114.45 145.373 113.76 145.373 112.972C145.373 112.179 145.521 111.487 145.816 110.893C146.11 110.3 146.525 109.839 147.058 109.511C147.592 109.183 148.217 109.019 148.933 109.019C149.649 109.019 150.273 109.183 150.807 109.511C151.341 109.839 151.755 110.3 152.05 110.893C152.345 111.487 152.492 112.179 152.492 112.972C152.492 113.76 152.345 114.45 152.05 115.04C151.755 115.63 151.341 116.089 150.807 116.417C150.273 116.745 149.649 116.909 148.933 116.909ZM148.938 115.661C149.402 115.661 149.786 115.539 150.091 115.293C150.396 115.048 150.621 114.722 150.767 114.314C150.916 113.906 150.991 113.457 150.991 112.967C150.991 112.479 150.916 112.032 150.767 111.624C150.621 111.213 150.396 110.883 150.091 110.635C149.786 110.386 149.402 110.262 148.938 110.262C148.47 110.262 148.083 110.386 147.774 110.635C147.469 110.883 147.242 111.213 147.093 111.624C146.947 112.032 146.874 112.479 146.874 112.967C146.874 113.457 146.947 113.906 147.093 114.314C147.242 114.722 147.469 115.048 147.774 115.293C148.083 115.539 148.47 115.661 148.938 115.661ZM155.638 112.221V116.755H154.152V109.119H155.578V110.361H155.673C155.849 109.957 156.124 109.632 156.498 109.387C156.876 109.142 157.352 109.019 157.925 109.019C158.445 109.019 158.901 109.128 159.292 109.347C159.683 109.563 159.987 109.884 160.202 110.312C160.417 110.739 160.525 111.268 160.525 111.898V116.755H159.039V112.077C159.039 111.523 158.895 111.091 158.606 110.779C158.318 110.464 157.922 110.307 157.418 110.307C157.073 110.307 156.767 110.381 156.498 110.53C156.233 110.68 156.023 110.898 155.867 111.187C155.714 111.472 155.638 111.816 155.638 112.221ZM165.735 116.909C165.02 116.909 164.395 116.745 163.861 116.417C163.328 116.089 162.913 115.63 162.618 115.04C162.323 114.45 162.176 113.76 162.176 112.972C162.176 112.179 162.323 111.487 162.618 110.893C162.913 110.3 163.328 109.839 163.861 109.511C164.395 109.183 165.02 109.019 165.735 109.019C166.451 109.019 167.076 109.183 167.61 109.511C168.143 109.839 168.558 110.3 168.853 110.893C169.148 111.487 169.295 112.179 169.295 112.972C169.295 113.76 169.148 114.45 168.853 115.04C168.558 115.63 168.143 116.089 167.61 116.417C167.076 116.745 166.451 116.909 165.735 116.909ZM165.74 115.661C166.204 115.661 166.589 115.539 166.894 115.293C167.199 115.048 167.424 114.722 167.57 114.314C167.719 113.906 167.794 113.457 167.794 112.967C167.794 112.479 167.719 112.032 167.57 111.624C167.424 111.213 167.199 110.883 166.894 110.635C166.589 110.386 166.204 110.262 165.74 110.262C165.273 110.262 164.885 110.386 164.577 110.635C164.272 110.883 164.045 111.213 163.896 111.624C163.75 112.032 163.677 112.479 163.677 112.967C163.677 113.457 163.75 113.906 163.896 114.314C164.045 114.722 164.272 115.048 164.577 115.293C164.885 115.539 165.273 115.661 165.74 115.661ZM174.156 119.778C173.55 119.778 173.028 119.698 172.59 119.539C172.156 119.38 171.801 119.169 171.526 118.908C171.251 118.646 171.046 118.359 170.91 118.047L172.187 117.521C172.277 117.666 172.396 117.82 172.545 117.983C172.698 118.149 172.903 118.289 173.162 118.405C173.424 118.521 173.76 118.579 174.171 118.579C174.734 118.579 175.2 118.442 175.568 118.167C175.936 117.895 176.12 117.461 176.12 116.864V115.363H176.025C175.936 115.525 175.807 115.706 175.638 115.905C175.472 116.104 175.243 116.276 174.952 116.422C174.66 116.568 174.28 116.641 173.813 116.641C173.21 116.641 172.666 116.5 172.182 116.218C171.702 115.933 171.321 115.514 171.039 114.96C170.76 114.403 170.621 113.719 170.621 112.907C170.621 112.095 170.759 111.399 171.034 110.819C171.312 110.239 171.693 109.795 172.177 109.486C172.661 109.175 173.21 109.019 173.823 109.019C174.297 109.019 174.68 109.099 174.971 109.258C175.263 109.413 175.49 109.596 175.653 109.805C175.818 110.013 175.946 110.197 176.035 110.356H176.145V109.119H177.601V116.924C177.601 117.58 177.449 118.119 177.144 118.54C176.839 118.961 176.426 119.272 175.906 119.474C175.389 119.677 174.806 119.778 174.156 119.778ZM174.141 115.408C174.569 115.408 174.93 115.308 175.225 115.109C175.523 114.907 175.749 114.619 175.901 114.244C176.057 113.866 176.135 113.414 176.135 112.887C176.135 112.373 176.059 111.921 175.906 111.53C175.754 111.139 175.53 110.834 175.235 110.615C174.94 110.393 174.575 110.282 174.141 110.282C173.694 110.282 173.321 110.398 173.023 110.63C172.724 110.859 172.499 111.17 172.346 111.565C172.197 111.959 172.123 112.4 172.123 112.887C172.123 113.387 172.199 113.827 172.351 114.204C172.504 114.582 172.729 114.877 173.028 115.089C173.329 115.302 173.7 115.408 174.141 115.408ZM179.595 116.755V109.119H181.032V110.332H181.111C181.251 109.921 181.496 109.597 181.847 109.362C182.202 109.123 182.603 109.004 183.05 109.004C183.143 109.004 183.252 109.007 183.378 109.014C183.508 109.021 183.609 109.029 183.682 109.039V110.461C183.622 110.444 183.516 110.426 183.363 110.406C183.211 110.383 183.059 110.371 182.906 110.371C182.555 110.371 182.242 110.446 181.966 110.595C181.695 110.741 181.479 110.945 181.32 111.207C181.161 111.465 181.081 111.76 181.081 112.092V116.755H179.595ZM187.122 116.924C186.638 116.924 186.201 116.834 185.809 116.655C185.418 116.473 185.108 116.21 184.88 115.865C184.654 115.52 184.542 115.098 184.542 114.597C184.542 114.166 184.625 113.812 184.79 113.533C184.956 113.255 185.18 113.034 185.461 112.872C185.743 112.71 186.058 112.587 186.406 112.504C186.754 112.421 187.109 112.358 187.47 112.315C187.927 112.262 188.299 112.219 188.584 112.186C188.869 112.15 189.076 112.092 189.205 112.012C189.334 111.932 189.399 111.803 189.399 111.624V111.589C189.399 111.155 189.276 110.819 189.031 110.58C188.789 110.342 188.428 110.222 187.947 110.222C187.447 110.222 187.052 110.333 186.764 110.555C186.479 110.774 186.282 111.018 186.172 111.286L184.775 110.968C184.941 110.504 185.183 110.129 185.501 109.844C185.823 109.556 186.192 109.347 186.61 109.218C187.028 109.085 187.467 109.019 187.927 109.019C188.232 109.019 188.555 109.056 188.897 109.128C189.242 109.198 189.563 109.327 189.861 109.516C190.163 109.705 190.41 109.975 190.602 110.327C190.794 110.675 190.89 111.127 190.89 111.684V116.755H189.439V115.711H189.379C189.283 115.903 189.139 116.092 188.947 116.278C188.754 116.463 188.507 116.617 188.206 116.74C187.904 116.863 187.543 116.924 187.122 116.924ZM187.445 115.731C187.856 115.731 188.207 115.65 188.499 115.487C188.794 115.325 189.018 115.113 189.17 114.851C189.326 114.586 189.404 114.302 189.404 114.001V113.016C189.351 113.069 189.248 113.119 189.096 113.165C188.947 113.208 188.776 113.247 188.584 113.28C188.391 113.31 188.204 113.338 188.022 113.364C187.84 113.387 187.687 113.407 187.564 113.424C187.276 113.46 187.013 113.522 186.774 113.608C186.539 113.694 186.35 113.818 186.207 113.981C186.068 114.14 185.998 114.352 185.998 114.617C185.998 114.985 186.134 115.263 186.406 115.452C186.678 115.638 187.024 115.731 187.445 115.731ZM192.87 119.619V109.119H194.322V110.356H194.446C194.533 110.197 194.657 110.013 194.819 109.805C194.982 109.596 195.207 109.413 195.495 109.258C195.784 109.099 196.165 109.019 196.639 109.019C197.255 109.019 197.806 109.175 198.289 109.486C198.773 109.798 199.153 110.247 199.428 110.834C199.706 111.42 199.846 112.126 199.846 112.952C199.846 113.777 199.708 114.485 199.433 115.074C199.158 115.661 198.78 116.114 198.299 116.432C197.819 116.747 197.27 116.904 196.654 116.904C196.19 116.904 195.81 116.826 195.515 116.67C195.224 116.515 194.995 116.332 194.829 116.123C194.663 115.915 194.536 115.729 194.446 115.567H194.357V119.619H192.87ZM194.327 112.937C194.327 113.474 194.405 113.944 194.561 114.349C194.717 114.753 194.942 115.07 195.237 115.298C195.532 115.524 195.893 115.636 196.321 115.636C196.765 115.636 197.136 115.519 197.434 115.283C197.733 115.045 197.958 114.722 198.11 114.314C198.266 113.906 198.344 113.447 198.344 112.937C198.344 112.433 198.268 111.98 198.115 111.579C197.966 111.178 197.741 110.862 197.439 110.63C197.141 110.398 196.768 110.282 196.321 110.282C195.89 110.282 195.525 110.393 195.227 110.615C194.932 110.837 194.708 111.147 194.556 111.545C194.403 111.942 194.327 112.406 194.327 112.937ZM202.998 112.221V116.755H201.511V106.573H202.978V110.361H203.072C203.251 109.95 203.525 109.624 203.892 109.382C204.26 109.14 204.741 109.019 205.334 109.019C205.858 109.019 206.315 109.127 206.706 109.342C207.101 109.558 207.406 109.879 207.621 110.307C207.84 110.731 207.949 111.261 207.949 111.898V116.755H206.463V112.077C206.463 111.516 206.319 111.082 206.03 110.774C205.742 110.463 205.341 110.307 204.827 110.307C204.476 110.307 204.161 110.381 203.882 110.53C203.607 110.68 203.39 110.898 203.231 111.187C203.075 111.472 202.998 111.816 202.998 112.221ZM210.599 119.619C210.377 119.619 210.175 119.6 209.993 119.564C209.81 119.531 209.674 119.494 209.585 119.454L209.943 118.236C210.215 118.309 210.457 118.341 210.669 118.331C210.881 118.321 211.068 118.241 211.23 118.092C211.396 117.943 211.542 117.699 211.668 117.361L211.852 116.854L209.058 109.119H210.649L212.583 115.045H212.662L214.596 109.119H216.192L213.045 117.774C212.899 118.172 212.714 118.508 212.488 118.783C212.263 119.062 211.994 119.271 211.683 119.41C211.371 119.549 211.01 119.619 210.599 119.619Z" fill="#190F26"/>
<g opacity="0.3">
<path d="M239.842 111.255L232.842 118.255H229L236 111.255L229 104.255H232.842L239.842 111.255Z" fill="#1F3D83"/>
<path d="M247.526 111.255L240.526 118.255H236.684L243.684 111.255L236.684 104.255H240.526L247.526 111.255Z" fill="#1F3D83"/>
<path d="M255.21 111.255L248.209 118.255H244.368L251.368 111.255L244.368 104.255H248.209L255.21 111.255Z" fill="#1F3D83"/>
</g>
<rect width="88.4" height="106" transform="translate(73 155.255)" fill="white"/>
<rect width="80.4" height="72" transform="translate(77 159.255)" fill="#FFF2F8"/>
<path fill-rule="evenodd" clip-rule="evenodd" d="M121.956 192.166C121.63 191.84 121.103 191.84 120.777 192.166L117.2 195.743L113.623 192.166C113.297 191.84 112.769 191.84 112.444 192.166C112.119 192.491 112.119 193.019 112.444 193.344L117.2 198.1L121.956 193.344C122.281 193.019 122.281 192.491 121.956 192.166Z" fill="black"/>
<path d="M87.06 242.175H89.49C89.9433 242.175 90.3966 242.242 90.85 242.375C91.3033 242.508 91.7133 242.718 92.08 243.005C92.4466 243.292 92.7433 243.658 92.97 244.105C93.1966 244.552 93.31 245.088 93.31 245.715C93.31 246.322 93.1966 246.848 92.97 247.295C92.7433 247.735 92.4466 248.102 92.08 248.395C91.7133 248.682 91.3033 248.898 90.85 249.045C90.3966 249.185 89.9433 249.255 89.49 249.255H87.06V242.175ZM88.05 248.385H89.29C89.7166 248.385 90.11 248.325 90.47 248.205C90.8366 248.085 91.15 247.912 91.41 247.685C91.6766 247.458 91.8833 247.178 92.03 246.845C92.1766 246.512 92.25 246.135 92.25 245.715C92.25 245.275 92.1766 244.888 92.03 244.555C91.8833 244.222 91.6766 243.945 91.41 243.725C91.15 243.498 90.8366 243.328 90.47 243.215C90.11 243.095 89.7166 243.035 89.29 243.035H88.05V248.385ZM95.6574 249.255H94.6674V242.175H96.9374C97.2774 242.175 97.6007 242.212 97.9074 242.285C98.214 242.352 98.4807 242.462 98.7074 242.615C98.9407 242.768 99.124 242.972 99.2574 243.225C99.3907 243.472 99.4574 243.775 99.4574 244.135C99.4574 244.655 99.2974 245.075 98.9774 245.395C98.6574 245.715 98.244 245.918 97.7374 246.005L99.7174 249.255H98.5174L96.7174 246.105H95.6574V249.255ZM95.6574 245.275H96.7974C97.0307 245.275 97.2474 245.255 97.4474 245.215C97.6474 245.175 97.8207 245.112 97.9674 245.025C98.1207 244.932 98.2407 244.815 98.3274 244.675C98.414 244.528 98.4574 244.348 98.4574 244.135C98.4574 243.922 98.414 243.745 98.3274 243.605C98.2407 243.458 98.124 243.342 97.9774 243.255C97.8374 243.168 97.6707 243.108 97.4774 243.075C97.284 243.035 97.0807 243.015 96.8674 243.015H95.6574V245.275ZM107.95 245.705C107.95 246.252 107.853 246.755 107.66 247.215C107.473 247.668 107.213 248.062 106.88 248.395C106.547 248.722 106.15 248.978 105.69 249.165C105.23 249.345 104.73 249.435 104.19 249.435C103.65 249.435 103.15 249.345 102.69 249.165C102.237 248.978 101.843 248.722 101.51 248.395C101.177 248.062 100.917 247.668 100.73 247.215C100.543 246.755 100.45 246.252 100.45 245.705C100.45 245.152 100.543 244.648 100.73 244.195C100.917 243.735 101.177 243.345 101.51 243.025C101.843 242.698 102.237 242.445 102.69 242.265C103.15 242.085 103.65 241.995 104.19 241.995C104.73 241.995 105.23 242.085 105.69 242.265C106.15 242.445 106.547 242.698 106.88 243.025C107.213 243.345 107.473 243.735 107.66 244.195C107.853 244.648 107.95 245.152 107.95 245.705ZM106.88 245.705C106.88 245.318 106.817 244.955 106.69 244.615C106.563 244.268 106.383 243.965 106.15 243.705C105.917 243.445 105.633 243.242 105.3 243.095C104.973 242.942 104.603 242.865 104.19 242.865C103.783 242.865 103.413 242.942 103.08 243.095C102.753 243.242 102.473 243.445 102.24 243.705C102.013 243.965 101.837 244.268 101.71 244.615C101.583 244.955 101.52 245.318 101.52 245.705C101.52 246.098 101.583 246.468 101.71 246.815C101.837 247.162 102.017 247.465 102.25 247.725C102.483 247.978 102.763 248.178 103.09 248.325C103.417 248.472 103.783 248.545 104.19 248.545C104.597 248.545 104.967 248.472 105.3 248.325C105.633 248.178 105.917 247.978 106.15 247.725C106.383 247.465 106.563 247.162 106.69 246.815C106.817 246.468 106.88 246.098 106.88 245.705ZM109.296 242.175H111.456C111.836 242.175 112.183 242.215 112.496 242.295C112.81 242.368 113.076 242.485 113.296 242.645C113.516 242.805 113.686 243.008 113.806 243.255C113.926 243.502 113.986 243.798 113.986 244.145C113.986 244.498 113.92 244.802 113.786 245.055C113.66 245.308 113.48 245.515 113.246 245.675C113.02 245.835 112.746 245.955 112.426 246.035C112.113 246.108 111.773 246.145 111.406 246.145H110.286V249.255H109.296V242.175ZM110.286 245.305H111.336C111.576 245.305 111.796 245.285 111.996 245.245C112.203 245.198 112.38 245.132 112.526 245.045C112.673 244.952 112.786 244.832 112.866 244.685C112.946 244.538 112.986 244.358 112.986 244.145C112.986 243.932 112.943 243.755 112.856 243.615C112.776 243.468 112.663 243.352 112.516 243.265C112.376 243.172 112.206 243.108 112.006 243.075C111.806 243.035 111.59 243.015 111.356 243.015H110.286V245.305ZM115.244 242.175H117.674C118.127 242.175 118.58 242.242 119.034 242.375C119.487 242.508 119.897 242.718 120.264 243.005C120.63 243.292 120.927 243.658 121.154 244.105C121.38 244.552 121.494 245.088 121.494 245.715C121.494 246.322 121.38 246.848 121.154 247.295C120.927 247.735 120.63 248.102 120.264 248.395C119.897 248.682 119.487 248.898 119.034 249.045C118.58 249.185 118.127 249.255 117.674 249.255H115.244V242.175ZM116.234 248.385H117.474C117.9 248.385 118.294 248.325 118.654 248.205C119.02 248.085 119.334 247.912 119.594 247.685C119.86 247.458 120.067 247.178 120.214 246.845C120.36 246.512 120.434 246.135 120.434 245.715C120.434 245.275 120.36 244.888 120.214 244.555C120.067 244.222 119.86 243.945 119.594 243.725C119.334 243.498 119.02 243.328 118.654 243.215C118.294 243.095 117.9 243.035 117.474 243.035H116.234V248.385ZM129.991 245.705C129.991 246.252 129.894 246.755 129.701 247.215C129.514 247.668 129.254 248.062 128.921 248.395C128.588 248.722 128.191 248.978 127.731 249.165C127.271 249.345 126.771 249.435 126.231 249.435C125.691 249.435 125.191 249.345 124.731 249.165C124.278 248.978 123.884 248.722 123.551 248.395C123.218 248.062 122.958 247.668 122.771 247.215C122.584 246.755 122.491 246.252 122.491 245.705C122.491 245.152 122.584 244.648 122.771 244.195C122.958 243.735 123.218 243.345 123.551 243.025C123.884 242.698 124.278 242.445 124.731 242.265C125.191 242.085 125.691 241.995 126.231 241.995C126.771 241.995 127.271 242.085 127.731 242.265C128.191 242.445 128.588 242.698 128.921 243.025C129.254 243.345 129.514 243.735 129.701 244.195C129.894 244.648 129.991 245.152 129.991 245.705ZM128.921 245.705C128.921 245.318 128.858 244.955 128.731 244.615C128.604 244.268 128.424 243.965 128.191 243.705C127.958 243.445 127.674 243.242 127.341 243.095C127.014 242.942 126.644 242.865 126.231 242.865C125.824 242.865 125.454 242.942 125.121 243.095C124.794 243.242 124.514 243.445 124.281 243.705C124.054 243.965 123.878 244.268 123.751 244.615C123.624 244.955 123.561 245.318 123.561 245.705C123.561 246.098 123.624 246.468 123.751 246.815C123.878 247.162 124.058 247.465 124.291 247.725C124.524 247.978 124.804 248.178 125.131 248.325C125.458 248.472 125.824 248.545 126.231 248.545C126.638 248.545 127.008 248.472 127.341 248.325C127.674 248.178 127.958 247.978 128.191 247.725C128.424 247.465 128.604 247.162 128.731 246.815C128.858 246.468 128.921 246.098 128.921 245.705ZM133.207 247.815H133.227L134.887 242.175H135.977L137.627 247.815H137.647L139.207 242.175H140.257L138.177 249.255H137.147L135.427 243.565H135.407L133.687 249.255H132.657L130.577 242.175H131.647L133.207 247.815ZM146.21 247.835H146.23V242.175H147.22V249.255H145.97L142.23 243.475H142.21V249.255H141.22V242.175H142.51L146.21 247.835Z" fill="black"/>
<rect width="88.4" height="106" transform="translate(177.4 155.255)" fill="white"/>
<rect width="80.4" height="72" transform="translate(181.4 159.255)" fill="#FFF2F8"/>
<mask id="mask0_496_19135" style="mask-type:alpha" maskUnits="userSpaceOnUse" x="211" y="185" width="21" height="21">
<rect x="211.6" y="185.255" width="20" height="20" fill="#D9D9D9"/>
</mask>
<g mask="url(#mask0_496_19135)">
<path d="M217.69 202.339C217.274 202.339 216.919 202.191 216.625 201.897C216.33 201.603 216.183 201.248 216.183 200.832V190.255H215.35V189.005H219.1V188.268H224.1V189.005H227.85V190.255H227.016V200.832C227.016 201.253 226.871 201.609 226.579 201.901C226.287 202.193 225.931 202.339 225.51 202.339H217.69ZM225.767 190.255H217.433V200.832C217.433 200.907 217.457 200.968 217.505 201.016C217.553 201.065 217.615 201.089 217.69 201.089H225.51C225.574 201.089 225.633 201.062 225.686 201.008C225.74 200.955 225.767 200.896 225.767 200.832V190.255ZM219.436 199.422H220.686V191.922H219.436V199.422ZM222.513 199.422H223.763V191.922H222.513V199.422Z" fill="black"/>
</g>
<path d="M203.96 242.175H206.39C206.843 242.175 207.297 242.242 207.75 242.375C208.203 242.508 208.613 242.718 208.98 243.005C209.347 243.292 209.643 243.658 209.87 244.105C210.097 244.552 210.21 245.088 210.21 245.715C210.21 246.322 210.097 246.848 209.87 247.295C209.643 247.735 209.347 248.102 208.98 248.395C208.613 248.682 208.203 248.898 207.75 249.045C207.297 249.185 206.843 249.255 206.39 249.255H203.96V242.175ZM204.95 248.385H206.19C206.617 248.385 207.01 248.325 207.37 248.205C207.737 248.085 208.05 247.912 208.31 247.685C208.577 247.458 208.783 247.178 208.93 246.845C209.077 246.512 209.15 246.135 209.15 245.715C209.15 245.275 209.077 244.888 208.93 244.555C208.783 244.222 208.577 243.945 208.31 243.725C208.05 243.498 207.737 243.328 207.37 243.215C207.01 243.095 206.617 243.035 206.19 243.035H204.95V248.385ZM212.557 248.375H216.257V249.255H211.567V242.175H216.107V243.045H212.557V245.165H215.897V246.015H212.557V248.375ZM218.563 248.375H221.723V249.255H217.573V242.175H218.563V248.375ZM223.671 248.375H227.371V249.255H222.681V242.175H227.221V243.045H223.671V245.165H227.011V246.015H223.671V248.375ZM231.166 249.255H230.176V243.045H227.906V242.175H233.436V243.045H231.166V249.255ZM235.37 248.375H239.07V249.255H234.38V242.175H238.92V243.045H235.37V245.165H238.71V246.015H235.37V248.375Z" fill="black"/>
<rect width="88.4" height="106" transform="translate(281.8 155.255)" fill="white"/>
<rect width="80.4" height="72" transform="translate(285.8 159.255)" fill="#FFF2F8"/>
<mask id="mask1_496_19135" style="mask-type:alpha" maskUnits="userSpaceOnUse" x="316" y="185" width="20" height="21">
<rect x="316" y="185.255" width="20" height="20" fill="#D9D9D9"/>
</mask>
<g mask="url(#mask1_496_19135)">
<path d="M321.192 196.505C320.848 196.505 320.554 196.382 320.309 196.138C320.065 195.893 319.942 195.599 319.942 195.255C319.942 194.911 320.065 194.617 320.309 194.372C320.554 194.127 320.848 194.005 321.192 194.005C321.536 194.005 321.83 194.127 322.075 194.372C322.32 194.617 322.442 194.911 322.442 195.255C322.442 195.599 322.32 195.893 322.075 196.138C321.83 196.382 321.536 196.505 321.192 196.505ZM326 196.505C325.656 196.505 325.362 196.382 325.117 196.138C324.872 195.893 324.75 195.599 324.75 195.255C324.75 194.911 324.872 194.617 325.117 194.372C325.362 194.127 325.656 194.005 326 194.005C326.344 194.005 326.638 194.127 326.883 194.372C327.127 194.617 327.25 194.911 327.25 195.255C327.25 195.599 327.127 195.893 326.883 196.138C326.638 196.382 326.344 196.505 326 196.505ZM330.807 196.505C330.464 196.505 330.169 196.382 329.925 196.138C329.68 195.893 329.557 195.599 329.557 195.255C329.557 194.911 329.68 194.617 329.925 194.372C330.169 194.127 330.464 194.005 330.807 194.005C331.151 194.005 331.445 194.127 331.69 194.372C331.935 194.617 332.057 194.911 332.057 195.255C332.057 195.599 331.935 195.893 331.69 196.138C331.445 196.382 331.151 196.505 330.807 196.505Z" fill="black"/>
</g>
<path d="M315.52 247.615H315.54L317.63 242.175H319.17V249.255H318.18V243.335H318.16L315.81 249.255H315.18L312.84 243.335H312.82V249.255H311.86V242.175H313.4L315.52 247.615ZM321.883 248.375H325.583V249.255H320.893V242.175H325.433V243.045H321.883V245.165H325.223V246.015H321.883V248.375ZM331.889 247.835H331.909V242.175H332.899V249.255H331.649L327.909 243.475H327.889V249.255H326.899V242.175H328.189L331.889 247.835ZM337.324 249.435C336.857 249.435 336.45 249.358 336.104 249.205C335.757 249.045 335.47 248.835 335.244 248.575C335.017 248.315 334.847 248.018 334.734 247.685C334.627 247.345 334.574 246.995 334.574 246.635V242.175H335.564V246.575C335.564 246.815 335.594 247.055 335.654 247.295C335.714 247.528 335.81 247.738 335.944 247.925C336.084 248.112 336.264 248.262 336.484 248.375C336.71 248.488 336.99 248.545 337.324 248.545C337.65 248.545 337.927 248.488 338.154 248.375C338.38 248.262 338.56 248.112 338.694 247.925C338.834 247.738 338.934 247.528 338.994 247.295C339.054 247.055 339.084 246.815 339.084 246.575V242.175H340.074V246.635C340.074 246.995 340.017 247.345 339.904 247.685C339.797 248.018 339.63 248.315 339.404 248.575C339.177 248.835 338.89 249.045 338.544 249.205C338.197 249.358 337.79 249.435 337.324 249.435Z" fill="black"/>
<rect width="88.4" height="106" transform="translate(386.2 155.255)" fill="white"/>
<rect width="80.4" height="72" transform="translate(390.2 159.255)" fill="#FFF2F8"/>
<path d="M437.15 202.005L434.525 199.38M436.4 194.88C436.4 198.401 433.546 201.255 430.025 201.255C426.504 201.255 423.65 198.401 423.65 194.88C423.65 191.359 426.504 188.505 430.025 188.505C433.546 188.505 436.4 191.359 436.4 194.88Z" stroke="black" stroke-width="1.66667" stroke-linecap="round" stroke-linejoin="round"/>
<path d="M414.78 243.485C414.64 243.292 414.45 243.135 414.21 243.015C413.97 242.888 413.7 242.825 413.4 242.825C413.24 242.825 413.077 242.848 412.91 242.895C412.75 242.935 412.603 243.005 412.47 243.105C412.337 243.198 412.227 243.318 412.14 243.465C412.06 243.605 412.02 243.775 412.02 243.975C412.02 244.168 412.057 244.332 412.13 244.465C412.21 244.592 412.313 244.702 412.44 244.795C412.573 244.882 412.727 244.958 412.9 245.025C413.08 245.085 413.27 245.148 413.47 245.215C413.71 245.288 413.953 245.372 414.2 245.465C414.447 245.558 414.67 245.682 414.87 245.835C415.07 245.988 415.233 246.182 415.36 246.415C415.487 246.642 415.55 246.932 415.55 247.285C415.55 247.652 415.48 247.972 415.34 248.245C415.207 248.512 415.027 248.735 414.8 248.915C414.573 249.088 414.31 249.218 414.01 249.305C413.717 249.392 413.413 249.435 413.1 249.435C412.653 249.435 412.22 249.348 411.8 249.175C411.387 249.002 411.043 248.745 410.77 248.405L411.54 247.755C411.707 248.002 411.93 248.202 412.21 248.355C412.49 248.508 412.793 248.585 413.12 248.585C413.287 248.585 413.453 248.562 413.62 248.515C413.787 248.468 413.937 248.395 414.07 248.295C414.21 248.195 414.323 248.072 414.41 247.925C414.497 247.772 414.54 247.588 414.54 247.375C414.54 247.162 414.493 246.985 414.4 246.845C414.313 246.698 414.193 246.575 414.04 246.475C413.887 246.375 413.707 246.292 413.5 246.225C413.3 246.152 413.087 246.078 412.86 246.005C412.633 245.938 412.41 245.858 412.19 245.765C411.97 245.665 411.773 245.542 411.6 245.395C411.427 245.242 411.287 245.055 411.18 244.835C411.073 244.615 411.02 244.342 411.02 244.015C411.02 243.662 411.09 243.358 411.23 243.105C411.377 242.852 411.563 242.642 411.79 242.475C412.023 242.308 412.283 242.188 412.57 242.115C412.863 242.035 413.157 241.995 413.45 241.995C413.863 241.995 414.25 242.068 414.61 242.215C414.97 242.362 415.26 242.558 415.48 242.805L414.78 243.485ZM417.943 248.375H421.643V249.255H416.953V242.175H421.493V243.045H417.943V245.165H421.283V246.015H417.943V248.375ZM423.249 249.255H422.149L425.219 242.175H426.119L429.159 249.255H428.039L427.319 247.515H423.959L423.249 249.255ZM424.309 246.645H426.959L425.639 243.325L424.309 246.645ZM431.058 249.255H430.068V242.175H432.338C432.678 242.175 433.002 242.212 433.308 242.285C433.615 242.352 433.882 242.462 434.108 242.615C434.342 242.768 434.525 242.972 434.658 243.225C434.792 243.472 434.858 243.775 434.858 244.135C434.858 244.655 434.698 245.075 434.378 245.395C434.058 245.715 433.645 245.918 433.138 246.005L435.118 249.255H433.918L432.118 246.105H431.058V249.255ZM431.058 245.275H432.198C432.432 245.275 432.648 245.255 432.848 245.215C433.048 245.175 433.222 245.112 433.368 245.025C433.522 244.932 433.642 244.815 433.728 244.675C433.815 244.528 433.858 244.348 433.858 244.135C433.858 243.922 433.815 243.745 433.728 243.605C433.642 243.458 433.525 243.342 433.378 243.255C433.238 243.168 433.072 243.108 432.878 243.075C432.685 243.035 432.482 243.015 432.268 243.015H431.058V245.275ZM442.281 248.155C442.001 248.535 441.638 248.845 441.191 249.085C440.744 249.318 440.208 249.435 439.581 249.435C439.041 249.435 438.541 249.345 438.081 249.165C437.628 248.978 437.234 248.722 436.901 248.395C436.574 248.062 436.318 247.668 436.131 247.215C435.944 246.755 435.851 246.252 435.851 245.705C435.851 245.152 435.944 244.648 436.131 244.195C436.324 243.735 436.588 243.345 436.921 243.025C437.261 242.698 437.661 242.445 438.121 242.265C438.581 242.085 439.081 241.995 439.621 241.995C439.861 241.995 440.104 242.018 440.351 242.065C440.598 242.112 440.834 242.182 441.061 242.275C441.288 242.368 441.494 242.485 441.681 242.625C441.868 242.758 442.028 242.915 442.161 243.095L441.381 243.695C441.208 243.455 440.961 243.258 440.641 243.105C440.328 242.945 439.988 242.865 439.621 242.865C439.208 242.865 438.834 242.942 438.501 243.095C438.174 243.242 437.894 243.445 437.661 243.705C437.428 243.965 437.248 244.268 437.121 244.615C436.994 244.955 436.931 245.318 436.931 245.705C436.931 246.105 436.991 246.478 437.111 246.825C437.238 247.172 437.414 247.475 437.641 247.735C437.874 247.988 438.154 248.188 438.481 248.335C438.814 248.482 439.184 248.555 439.591 248.555C439.991 248.555 440.354 248.475 440.681 248.315C441.008 248.155 441.278 247.922 441.491 247.615L442.281 248.155ZM443.291 242.175H444.281V245.135H447.861V242.175H448.861V249.255H447.861V246.015H444.281V249.255H443.291V242.175Z" fill="black"/>
<rect width="88.4" height="106" transform="translate(490.6 155.255)" fill="white"/>
<rect width="80.4" height="72" transform="translate(494.6 159.255)" fill="#FFF2F8"/>
<mask id="mask2_496_19135" style="mask-type:alpha" maskUnits="userSpaceOnUse" x="524" y="185" width="21" height="21">
<rect x="524.8" y="185.255" width="20" height="20" fill="#D9D9D9"/>
</mask>
<g mask="url(#mask2_496_19135)">
<path d="M529.094 201.089H530.125L537.841 193.372L536.811 192.342L529.094 200.058V201.089ZM540.514 192.468L537.702 189.682L538.788 188.595C539.033 188.35 539.331 188.228 539.681 188.228C540.031 188.228 540.329 188.35 540.574 188.595L541.588 189.609C541.833 189.854 541.959 190.147 541.968 190.489C541.976 190.831 541.858 191.124 541.614 191.369L540.514 192.468ZM539.61 193.385L530.657 202.339H527.844V199.526L536.798 190.573L539.61 193.385Z" fill="black"/>
</g>
<path d="M525.15 248.375H528.85V249.255H524.16V242.175H528.7V243.045H525.15V245.165H528.49V246.015H525.15V248.375ZM530.166 242.175H532.596C533.049 242.175 533.503 242.242 533.956 242.375C534.409 242.508 534.819 242.718 535.186 243.005C535.553 243.292 535.849 243.658 536.076 244.105C536.303 244.552 536.416 245.088 536.416 245.715C536.416 246.322 536.303 246.848 536.076 247.295C535.849 247.735 535.553 248.102 535.186 248.395C534.819 248.682 534.409 248.898 533.956 249.045C533.503 249.185 533.049 249.255 532.596 249.255H530.166V242.175ZM531.156 248.385H532.396C532.823 248.385 533.216 248.325 533.576 248.205C533.943 248.085 534.256 247.912 534.516 247.685C534.783 247.458 534.989 247.178 535.136 246.845C535.283 246.512 535.356 246.135 535.356 245.715C535.356 245.275 535.283 244.888 535.136 244.555C534.989 244.222 534.783 243.945 534.516 243.725C534.256 243.498 533.943 243.328 533.576 243.215C533.216 243.095 532.823 243.035 532.396 243.035H531.156V248.385ZM538.763 249.255H537.773V242.175H538.763V249.255ZM542.968 249.255H541.978V243.045H539.708V242.175H545.238V243.045H542.968V249.255Z" fill="black"/>
<rect width="88.4" height="106" transform="translate(73 277.255)" fill="white"/>
<rect width="80.4" height="72" transform="translate(77 281.255)" fill="#FFF2F8"/>
<path d="M120.963 309.755C123.837 309.755 125.533 311.409 125.533 314.24H122.007V314.269C120.371 314.269 119.044 315.562 119.044 317.157C119.044 318.753 120.371 320.046 122.007 320.046H125.533V320.306C125.533 323.101 123.837 324.755 120.963 324.755H113.437C110.563 324.755 108.867 323.101 108.867 320.306V314.204C108.867 311.409 110.563 309.755 113.437 309.755H120.963ZM124.911 315.482C125.255 315.482 125.533 315.753 125.533 316.089V318.197C125.529 318.531 125.253 318.8 124.911 318.804H122.074C121.246 318.815 120.521 318.262 120.333 317.475C120.239 316.987 120.371 316.483 120.694 316.098C121.017 315.714 121.498 315.488 122.007 315.482H124.911ZM122.407 316.457H122.133C121.965 316.455 121.803 316.519 121.683 316.634C121.564 316.749 121.496 316.907 121.496 317.071C121.496 317.415 121.78 317.695 122.133 317.699H122.407C122.759 317.699 123.044 317.421 123.044 317.078C123.044 316.735 122.759 316.457 122.407 316.457ZM117.519 312.998H112.815C112.466 312.998 112.182 313.271 112.178 313.611C112.178 313.956 112.462 314.236 112.815 314.24H117.519C117.87 314.24 118.156 313.962 118.156 313.619C118.156 313.276 117.87 312.998 117.519 312.998Z" fill="black"/>
<path d="M91.06 364.175H93.22C93.6 364.175 93.9466 364.215 94.26 364.295C94.5733 364.368 94.84 364.485 95.06 364.645C95.28 364.805 95.45 365.008 95.57 365.255C95.69 365.502 95.75 365.798 95.75 366.145C95.75 366.498 95.6833 366.802 95.55 367.055C95.4233 367.308 95.2433 367.515 95.01 367.675C94.7833 367.835 94.51 367.955 94.19 368.035C93.8766 368.108 93.5366 368.145 93.17 368.145H92.05V371.255H91.06V364.175ZM92.05 367.305H93.1C93.34 367.305 93.56 367.285 93.76 367.245C93.9666 367.198 94.1433 367.132 94.29 367.045C94.4366 366.952 94.55 366.832 94.63 366.685C94.71 366.538 94.75 366.358 94.75 366.145C94.75 365.932 94.7066 365.755 94.62 365.615C94.54 365.468 94.4266 365.352 94.28 365.265C94.14 365.172 93.97 365.108 93.77 365.075C93.57 365.035 93.3533 365.015 93.12 365.015H92.05V367.305ZM97.9972 371.255H97.0072V364.175H99.2772C99.6172 364.175 99.9406 364.212 100.247 364.285C100.554 364.352 100.821 364.462 101.047 364.615C101.281 364.768 101.464 364.972 101.597 365.225C101.731 365.472 101.797 365.775 101.797 366.135C101.797 366.655 101.637 367.075 101.317 367.395C100.997 367.715 100.584 367.918 100.077 368.005L102.057 371.255H100.857L99.0572 368.105H97.9972V371.255ZM97.9972 367.275H99.1372C99.3706 367.275 99.5872 367.255 99.7872 367.215C99.9872 367.175 100.161 367.112 100.307 367.025C100.461 366.932 100.581 366.815 100.667 366.675C100.754 366.528 100.797 366.348 100.797 366.135C100.797 365.922 100.754 365.745 100.667 365.605C100.581 365.458 100.464 365.342 100.317 365.255C100.177 365.168 100.011 365.108 99.8172 365.075C99.6239 365.035 99.4206 365.015 99.2072 365.015H97.9972V367.275ZM110.29 367.705C110.29 368.252 110.193 368.755 110 369.215C109.813 369.668 109.553 370.062 109.22 370.395C108.886 370.722 108.49 370.978 108.03 371.165C107.57 371.345 107.07 371.435 106.53 371.435C105.99 371.435 105.49 371.345 105.03 371.165C104.576 370.978 104.183 370.722 103.85 370.395C103.516 370.062 103.256 369.668 103.07 369.215C102.883 368.755 102.79 368.252 102.79 367.705C102.79 367.152 102.883 366.648 103.07 366.195C103.256 365.735 103.516 365.345 103.85 365.025C104.183 364.698 104.576 364.445 105.03 364.265C105.49 364.085 105.99 363.995 106.53 363.995C107.07 363.995 107.57 364.085 108.03 364.265C108.49 364.445 108.886 364.698 109.22 365.025C109.553 365.345 109.813 365.735 110 366.195C110.193 366.648 110.29 367.152 110.29 367.705ZM109.22 367.705C109.22 367.318 109.156 366.955 109.03 366.615C108.903 366.268 108.723 365.965 108.49 365.705C108.256 365.445 107.973 365.242 107.64 365.095C107.313 364.942 106.943 364.865 106.53 364.865C106.123 364.865 105.753 364.942 105.42 365.095C105.093 365.242 104.813 365.445 104.58 365.705C104.353 365.965 104.176 366.268 104.05 366.615C103.923 366.955 103.86 367.318 103.86 367.705C103.86 368.098 103.923 368.468 104.05 368.815C104.176 369.162 104.356 369.465 104.59 369.725C104.823 369.978 105.103 370.178 105.43 370.325C105.756 370.472 106.123 370.545 106.53 370.545C106.936 370.545 107.306 370.472 107.64 370.325C107.973 370.178 108.256 369.978 108.49 369.725C108.723 369.465 108.903 369.162 109.03 368.815C109.156 368.468 109.22 368.098 109.22 367.705ZM111.636 364.175H114.066C114.519 364.175 114.973 364.242 115.426 364.375C115.879 364.508 116.289 364.718 116.656 365.005C117.023 365.292 117.319 365.658 117.546 366.105C117.773 366.552 117.886 367.088 117.886 367.715C117.886 368.322 117.773 368.848 117.546 369.295C117.319 369.735 117.023 370.102 116.656 370.395C116.289 370.682 115.879 370.898 115.426 371.045C114.973 371.185 114.519 371.255 114.066 371.255H111.636V364.175ZM112.626 370.385H113.866C114.293 370.385 114.686 370.325 115.046 370.205C115.413 370.085 115.726 369.912 115.986 369.685C116.253 369.458 116.459 369.178 116.606 368.845C116.753 368.512 116.826 368.135 116.826 367.715C116.826 367.275 116.753 366.888 116.606 366.555C116.459 366.222 116.253 365.945 115.986 365.725C115.726 365.498 115.413 365.328 115.046 365.215C114.686 365.095 114.293 365.035 113.866 365.035H112.626V370.385ZM121.944 371.435C121.477 371.435 121.07 371.358 120.724 371.205C120.377 371.045 120.09 370.835 119.864 370.575C119.637 370.315 119.467 370.018 119.354 369.685C119.247 369.345 119.194 368.995 119.194 368.635V364.175H120.184V368.575C120.184 368.815 120.214 369.055 120.274 369.295C120.334 369.528 120.43 369.738 120.564 369.925C120.704 370.112 120.884 370.262 121.104 370.375C121.33 370.488 121.61 370.545 121.944 370.545C122.27 370.545 122.547 370.488 122.774 370.375C123 370.262 123.18 370.112 123.314 369.925C123.454 369.738 123.554 369.528 123.614 369.295C123.674 369.055 123.704 368.815 123.704 368.575V364.175H124.694V368.635C124.694 368.995 124.637 369.345 124.524 369.685C124.417 370.018 124.25 370.315 124.024 370.575C123.797 370.835 123.51 371.045 123.164 371.205C122.817 371.358 122.41 371.435 121.944 371.435ZM132.433 370.155C132.153 370.535 131.789 370.845 131.343 371.085C130.896 371.318 130.359 371.435 129.733 371.435C129.193 371.435 128.693 371.345 128.233 371.165C127.779 370.978 127.386 370.722 127.053 370.395C126.726 370.062 126.469 369.668 126.283 369.215C126.096 368.755 126.003 368.252 126.003 367.705C126.003 367.152 126.096 366.648 126.283 366.195C126.476 365.735 126.739 365.345 127.073 365.025C127.413 364.698 127.813 364.445 128.273 364.265C128.733 364.085 129.233 363.995 129.773 363.995C130.013 363.995 130.256 364.018 130.503 364.065C130.749 364.112 130.986 364.182 131.213 364.275C131.439 364.368 131.646 364.485 131.833 364.625C132.019 364.758 132.179 364.915 132.313 365.095L131.533 365.695C131.359 365.455 131.113 365.258 130.793 365.105C130.479 364.945 130.139 364.865 129.773 364.865C129.359 364.865 128.986 364.942 128.653 365.095C128.326 365.242 128.046 365.445 127.813 365.705C127.579 365.965 127.399 366.268 127.273 366.615C127.146 366.955 127.083 367.318 127.083 367.705C127.083 368.105 127.143 368.478 127.263 368.825C127.389 369.172 127.566 369.475 127.793 369.735C128.026 369.988 128.306 370.188 128.633 370.335C128.966 370.482 129.336 370.555 129.743 370.555C130.143 370.555 130.506 370.475 130.833 370.315C131.159 370.155 131.429 369.922 131.643 369.615L132.433 370.155ZM135.864 371.255H134.874V365.045H132.604V364.175H138.134V365.045H135.864V371.255ZM142.598 365.485C142.458 365.292 142.268 365.135 142.028 365.015C141.788 364.888 141.518 364.825 141.218 364.825C141.058 364.825 140.894 364.848 140.728 364.895C140.568 364.935 140.421 365.005 140.288 365.105C140.154 365.198 140.044 365.318 139.958 365.465C139.878 365.605 139.838 365.775 139.838 365.975C139.838 366.168 139.874 366.332 139.948 366.465C140.028 366.592 140.131 366.702 140.258 366.795C140.391 366.882 140.544 366.958 140.718 367.025C140.898 367.085 141.088 367.148 141.288 367.215C141.528 367.288 141.771 367.372 142.018 367.465C142.264 367.558 142.488 367.682 142.688 367.835C142.888 367.988 143.051 368.182 143.178 368.415C143.304 368.642 143.368 368.932 143.368 369.285C143.368 369.652 143.298 369.972 143.158 370.245C143.024 370.512 142.844 370.735 142.618 370.915C142.391 371.088 142.128 371.218 141.828 371.305C141.534 371.392 141.231 371.435 140.918 371.435C140.471 371.435 140.038 371.348 139.618 371.175C139.204 371.002 138.861 370.745 138.588 370.405L139.358 369.755C139.524 370.002 139.748 370.202 140.028 370.355C140.308 370.508 140.611 370.585 140.938 370.585C141.104 370.585 141.271 370.562 141.438 370.515C141.604 370.468 141.754 370.395 141.888 370.295C142.028 370.195 142.141 370.072 142.228 369.925C142.314 369.772 142.358 369.588 142.358 369.375C142.358 369.162 142.311 368.985 142.218 368.845C142.131 368.698 142.011 368.575 141.858 368.475C141.704 368.375 141.524 368.292 141.318 368.225C141.118 368.152 140.904 368.078 140.678 368.005C140.451 367.938 140.228 367.858 140.008 367.765C139.788 367.665 139.591 367.542 139.418 367.395C139.244 367.242 139.104 367.055 138.998 366.835C138.891 366.615 138.838 366.342 138.838 366.015C138.838 365.662 138.908 365.358 139.048 365.105C139.194 364.852 139.381 364.642 139.608 364.475C139.841 364.308 140.101 364.188 140.388 364.115C140.681 364.035 140.974 363.995 141.268 363.995C141.681 363.995 142.068 364.068 142.428 364.215C142.788 364.362 143.078 364.558 143.298 364.805L142.598 365.485Z" fill="black"/>
<rect width="88.4" height="106" transform="translate(177.4 277.255)" fill="white"/>
<rect width="80.4" height="72" transform="translate(181.4 281.255)" fill="#FFF2F8"/>
<path d="M221.6 308.922C226.208 308.922 229.933 312.655 229.933 317.255C229.933 321.864 226.208 325.589 221.6 325.589C217 325.589 213.267 321.864 213.267 317.255C213.267 312.655 217 308.922 221.6 308.922ZM221.308 313.03C220.967 313.03 220.683 313.305 220.683 313.655V317.864C220.683 318.08 220.8 318.28 220.992 318.397L224.258 320.347C224.358 320.405 224.467 320.439 224.583 320.439C224.792 320.439 225 320.33 225.117 320.13C225.292 319.839 225.2 319.455 224.9 319.272L221.933 317.505V313.655C221.933 313.305 221.65 313.03 221.308 313.03Z" fill="black"/>
<path d="M203.95 371.255H202.96V364.175H205.23C205.57 364.175 205.893 364.212 206.2 364.285C206.507 364.352 206.773 364.462 207 364.615C207.233 364.768 207.417 364.972 207.55 365.225C207.683 365.472 207.75 365.775 207.75 366.135C207.75 366.655 207.59 367.075 207.27 367.395C206.95 367.715 206.537 367.918 206.03 368.005L208.01 371.255H206.81L205.01 368.105H203.95V371.255ZM203.95 367.275H205.09C205.323 367.275 205.54 367.255 205.74 367.215C205.94 367.175 206.113 367.112 206.26 367.025C206.413 366.932 206.533 366.815 206.62 366.675C206.707 366.528 206.75 366.348 206.75 366.135C206.75 365.922 206.707 365.745 206.62 365.605C206.533 365.458 206.417 365.342 206.27 365.255C206.13 365.168 205.963 365.108 205.77 365.075C205.577 365.035 205.373 365.015 205.16 365.015H203.95V367.275ZM210.092 370.375H213.792V371.255H209.102V364.175H213.642V365.045H210.092V367.165H213.432V368.015H210.092V370.375ZM215.108 364.175H217.268C217.648 364.175 217.995 364.215 218.308 364.295C218.622 364.368 218.888 364.485 219.108 364.645C219.328 364.805 219.498 365.008 219.618 365.255C219.738 365.502 219.798 365.798 219.798 366.145C219.798 366.498 219.732 366.802 219.598 367.055C219.472 367.308 219.292 367.515 219.058 367.675C218.832 367.835 218.558 367.955 218.238 368.035C217.925 368.108 217.585 368.145 217.218 368.145H216.098V371.255H215.108V364.175ZM216.098 367.305H217.148C217.388 367.305 217.608 367.285 217.808 367.245C218.015 367.198 218.192 367.132 218.338 367.045C218.485 366.952 218.598 366.832 218.678 366.685C218.758 366.538 218.798 366.358 218.798 366.145C218.798 365.932 218.755 365.755 218.668 365.615C218.588 365.468 218.475 365.352 218.328 365.265C218.188 365.172 218.018 365.108 217.818 365.075C217.618 365.035 217.402 365.015 217.168 365.015H216.098V367.305ZM228.196 367.705C228.196 368.252 228.099 368.755 227.906 369.215C227.719 369.668 227.459 370.062 227.126 370.395C226.792 370.722 226.396 370.978 225.936 371.165C225.476 371.345 224.976 371.435 224.436 371.435C223.896 371.435 223.396 371.345 222.936 371.165C222.482 370.978 222.089 370.722 221.756 370.395C221.422 370.062 221.162 369.668 220.976 369.215C220.789 368.755 220.696 368.252 220.696 367.705C220.696 367.152 220.789 366.648 220.976 366.195C221.162 365.735 221.422 365.345 221.756 365.025C222.089 364.698 222.482 364.445 222.936 364.265C223.396 364.085 223.896 363.995 224.436 363.995C224.976 363.995 225.476 364.085 225.936 364.265C226.396 364.445 226.792 364.698 227.126 365.025C227.459 365.345 227.719 365.735 227.906 366.195C228.099 366.648 228.196 367.152 228.196 367.705ZM227.126 367.705C227.126 367.318 227.062 366.955 226.936 366.615C226.809 366.268 226.629 365.965 226.396 365.705C226.162 365.445 225.879 365.242 225.546 365.095C225.219 364.942 224.849 364.865 224.436 364.865C224.029 364.865 223.659 364.942 223.326 365.095C222.999 365.242 222.719 365.445 222.486 365.705C222.259 365.965 222.082 366.268 221.956 366.615C221.829 366.955 221.766 367.318 221.766 367.705C221.766 368.098 221.829 368.468 221.956 368.815C222.082 369.162 222.262 369.465 222.496 369.725C222.729 369.978 223.009 370.178 223.336 370.325C223.662 370.472 224.029 370.545 224.436 370.545C224.842 370.545 225.212 370.472 225.546 370.325C225.879 370.178 226.162 369.978 226.396 369.725C226.629 369.465 226.809 369.162 226.936 368.815C227.062 368.468 227.126 368.098 227.126 367.705ZM230.532 371.255H229.542V364.175H231.812C232.152 364.175 232.475 364.212 232.782 364.285C233.089 364.352 233.355 364.462 233.582 364.615C233.815 364.768 233.999 364.972 234.132 365.225C234.265 365.472 234.332 365.775 234.332 366.135C234.332 366.655 234.172 367.075 233.852 367.395C233.532 367.715 233.119 367.918 232.612 368.005L234.592 371.255H233.392L231.592 368.105H230.532V371.255ZM230.532 367.275H231.672C231.905 367.275 232.122 367.255 232.322 367.215C232.522 367.175 232.695 367.112 232.842 367.025C232.995 366.932 233.115 366.815 233.202 366.675C233.289 366.528 233.332 366.348 233.332 366.135C233.332 365.922 233.289 365.745 233.202 365.605C233.115 365.458 232.999 365.342 232.852 365.255C232.712 365.168 232.545 365.108 232.352 365.075C232.159 365.035 231.955 365.015 231.742 365.015H230.532V367.275ZM238.047 371.255H237.057V365.045H234.787V364.175H240.317V365.045H238.047V371.255Z" fill="black"/>
<rect width="88.4" height="106" transform="translate(281.8 277.255)" fill="white"/>
<rect width="80.4" height="72" transform="translate(285.8 281.255)" fill="#FFF2F8"/>
<path d="M326 319.9C329.615 319.9 332.667 320.487 332.667 322.754C332.667 325.021 329.595 325.588 326 325.588C322.385 325.588 319.333 325.001 319.333 322.734C319.333 320.466 322.404 319.9 326 319.9ZM326 308.921C328.449 308.921 330.412 310.883 330.412 313.331C330.412 315.778 328.449 317.741 326 317.741C323.552 317.741 321.588 315.778 321.588 313.331C321.588 310.883 323.552 308.921 326 308.921Z" fill="black"/>
<path d="M304.88 365.485C304.74 365.292 304.55 365.135 304.31 365.015C304.07 364.888 303.8 364.825 303.5 364.825C303.34 364.825 303.177 364.848 303.01 364.895C302.85 364.935 302.703 365.005 302.57 365.105C302.437 365.198 302.327 365.318 302.24 365.465C302.16 365.605 302.12 365.775 302.12 365.975C302.12 366.168 302.157 366.332 302.23 366.465C302.31 366.592 302.413 366.702 302.54 366.795C302.673 366.882 302.827 366.958 303 367.025C303.18 367.085 303.37 367.148 303.57 367.215C303.81 367.288 304.053 367.372 304.3 367.465C304.547 367.558 304.77 367.682 304.97 367.835C305.17 367.988 305.333 368.182 305.46 368.415C305.587 368.642 305.65 368.932 305.65 369.285C305.65 369.652 305.58 369.972 305.44 370.245C305.307 370.512 305.127 370.735 304.9 370.915C304.673 371.088 304.41 371.218 304.11 371.305C303.817 371.392 303.513 371.435 303.2 371.435C302.753 371.435 302.32 371.348 301.9 371.175C301.487 371.002 301.143 370.745 300.87 370.405L301.64 369.755C301.807 370.002 302.03 370.202 302.31 370.355C302.59 370.508 302.893 370.585 303.22 370.585C303.387 370.585 303.553 370.562 303.72 370.515C303.887 370.468 304.037 370.395 304.17 370.295C304.31 370.195 304.423 370.072 304.51 369.925C304.597 369.772 304.64 369.588 304.64 369.375C304.64 369.162 304.593 368.985 304.5 368.845C304.413 368.698 304.293 368.575 304.14 368.475C303.987 368.375 303.807 368.292 303.6 368.225C303.4 368.152 303.187 368.078 302.96 368.005C302.733 367.938 302.51 367.858 302.29 367.765C302.07 367.665 301.873 367.542 301.7 367.395C301.527 367.242 301.387 367.055 301.28 366.835C301.173 366.615 301.12 366.342 301.12 366.015C301.12 365.662 301.19 365.358 301.33 365.105C301.477 364.852 301.663 364.642 301.89 364.475C302.123 364.308 302.383 364.188 302.67 364.115C302.963 364.035 303.257 363.995 303.55 363.995C303.963 363.995 304.35 364.068 304.71 364.215C305.07 364.362 305.36 364.558 305.58 364.805L304.88 365.485ZM309.753 371.435C309.287 371.435 308.88 371.358 308.533 371.205C308.187 371.045 307.9 370.835 307.673 370.575C307.447 370.315 307.277 370.018 307.163 369.685C307.057 369.345 307.003 368.995 307.003 368.635V364.175H307.993V368.575C307.993 368.815 308.023 369.055 308.083 369.295C308.143 369.528 308.24 369.738 308.373 369.925C308.513 370.112 308.693 370.262 308.913 370.375C309.14 370.488 309.42 370.545 309.753 370.545C310.08 370.545 310.357 370.488 310.583 370.375C310.81 370.262 310.99 370.112 311.123 369.925C311.263 369.738 311.363 369.528 311.423 369.295C311.483 369.055 311.513 368.815 311.513 368.575V364.175H312.503V368.635C312.503 368.995 312.447 369.345 312.333 369.685C312.227 370.018 312.06 370.315 311.833 370.575C311.607 370.835 311.32 371.045 310.973 371.205C310.627 371.358 310.22 371.435 309.753 371.435ZM314.173 364.175H316.333C316.713 364.175 317.059 364.215 317.373 364.295C317.686 364.368 317.953 364.485 318.173 364.645C318.393 364.805 318.563 365.008 318.683 365.255C318.803 365.502 318.863 365.798 318.863 366.145C318.863 366.498 318.796 366.802 318.663 367.055C318.536 367.308 318.356 367.515 318.123 367.675C317.896 367.835 317.623 367.955 317.303 368.035C316.989 368.108 316.649 368.145 316.283 368.145H315.163V371.255H314.173V364.175ZM315.163 367.305H316.213C316.453 367.305 316.673 367.285 316.873 367.245C317.079 367.198 317.256 367.132 317.403 367.045C317.549 366.952 317.663 366.832 317.743 366.685C317.823 366.538 317.863 366.358 317.863 366.145C317.863 365.932 317.819 365.755 317.733 365.615C317.653 365.468 317.539 365.352 317.393 365.265C317.253 365.172 317.083 365.108 316.883 365.075C316.683 365.035 316.466 365.015 316.233 365.015H315.163V367.305ZM320.12 364.175H322.28C322.66 364.175 323.006 364.215 323.32 364.295C323.633 364.368 323.9 364.485 324.12 364.645C324.34 364.805 324.51 365.008 324.63 365.255C324.75 365.502 324.81 365.798 324.81 366.145C324.81 366.498 324.743 366.802 324.61 367.055C324.483 367.308 324.303 367.515 324.07 367.675C323.843 367.835 323.57 367.955 323.25 368.035C322.936 368.108 322.596 368.145 322.23 368.145H321.11V371.255H320.12V364.175ZM321.11 367.305H322.16C322.4 367.305 322.62 367.285 322.82 367.245C323.026 367.198 323.203 367.132 323.35 367.045C323.496 366.952 323.61 366.832 323.69 366.685C323.77 366.538 323.81 366.358 323.81 366.145C323.81 365.932 323.766 365.755 323.68 365.615C323.6 365.468 323.486 365.352 323.34 365.265C323.2 365.172 323.03 365.108 322.83 365.075C322.63 365.035 322.413 365.015 322.18 365.015H321.11V367.305ZM327.057 370.375H330.217V371.255H326.067V364.175H327.057V370.375ZM332.164 371.255H331.174V364.175H332.164V371.255ZM334.879 370.375H338.579V371.255H333.889V364.175H338.429V365.045H334.879V367.165H338.219V368.015H334.879V370.375ZM340.885 371.255H339.895V364.175H342.165C342.505 364.175 342.828 364.212 343.135 364.285C343.442 364.352 343.708 364.462 343.935 364.615C344.168 364.768 344.352 364.972 344.485 365.225C344.618 365.472 344.685 365.775 344.685 366.135C344.685 366.655 344.525 367.075 344.205 367.395C343.885 367.715 343.472 367.918 342.965 368.005L344.945 371.255H343.745L341.945 368.105H340.885V371.255ZM340.885 367.275H342.025C342.258 367.275 342.475 367.255 342.675 367.215C342.875 367.175 343.048 367.112 343.195 367.025C343.348 366.932 343.468 366.815 343.555 366.675C343.642 366.528 343.685 366.348 343.685 366.135C343.685 365.922 343.642 365.745 343.555 365.605C343.468 365.458 343.352 365.342 343.205 365.255C343.065 365.168 342.898 365.108 342.705 365.075C342.512 365.035 342.308 365.015 342.095 365.015H340.885V367.275ZM349.558 365.485C349.418 365.292 349.228 365.135 348.988 365.015C348.748 364.888 348.478 364.825 348.178 364.825C348.018 364.825 347.854 364.848 347.688 364.895C347.528 364.935 347.381 365.005 347.248 365.105C347.114 365.198 347.004 365.318 346.918 365.465C346.838 365.605 346.798 365.775 346.798 365.975C346.798 366.168 346.834 366.332 346.908 366.465C346.988 366.592 347.091 366.702 347.218 366.795C347.351 366.882 347.504 366.958 347.678 367.025C347.858 367.085 348.048 367.148 348.248 367.215C348.488 367.288 348.731 367.372 348.978 367.465C349.224 367.558 349.448 367.682 349.648 367.835C349.848 367.988 350.011 368.182 350.138 368.415C350.264 368.642 350.328 368.932 350.328 369.285C350.328 369.652 350.258 369.972 350.118 370.245C349.984 370.512 349.804 370.735 349.578 370.915C349.351 371.088 349.088 371.218 348.788 371.305C348.494 371.392 348.191 371.435 347.878 371.435C347.431 371.435 346.998 371.348 346.578 371.175C346.164 371.002 345.821 370.745 345.548 370.405L346.318 369.755C346.484 370.002 346.708 370.202 346.988 370.355C347.268 370.508 347.571 370.585 347.898 370.585C348.064 370.585 348.231 370.562 348.398 370.515C348.564 370.468 348.714 370.395 348.848 370.295C348.988 370.195 349.101 370.072 349.188 369.925C349.274 369.772 349.318 369.588 349.318 369.375C349.318 369.162 349.271 368.985 349.178 368.845C349.091 368.698 348.971 368.575 348.818 368.475C348.664 368.375 348.484 368.292 348.278 368.225C348.078 368.152 347.864 368.078 347.638 368.005C347.411 367.938 347.188 367.858 346.968 367.765C346.748 367.665 346.551 367.542 346.378 367.395C346.204 367.242 346.064 367.055 345.958 366.835C345.851 366.615 345.798 366.342 345.798 366.015C345.798 365.662 345.868 365.358 346.008 365.105C346.154 364.852 346.341 364.642 346.568 364.475C346.801 364.308 347.061 364.188 347.348 364.115C347.641 364.035 347.934 363.995 348.228 363.995C348.641 363.995 349.028 364.068 349.388 364.215C349.748 364.362 350.038 364.558 350.258 364.805L349.558 365.485Z" fill="black"/>
<rect width="88.4" height="106" transform="translate(386.2 277.255)" fill="white"/>
<rect width="80.4" height="72" transform="translate(390.2 281.255)" fill="#FFF2F8"/>
<path d="M428.012 324.566V322.018C428.012 321.367 428.543 320.84 429.199 320.84H431.594C431.908 320.84 432.21 320.964 432.433 321.185C432.655 321.406 432.78 321.705 432.78 322.018V324.566C432.778 324.836 432.885 325.096 433.077 325.288C433.269 325.48 433.53 325.588 433.802 325.588H435.436C436.2 325.59 436.932 325.29 437.472 324.755C438.013 324.22 438.316 323.494 438.316 322.736V315.477C438.316 314.865 438.043 314.285 437.57 313.892L432.012 309.485C431.045 308.712 429.659 308.737 428.721 309.544L423.289 313.892C422.794 314.273 422.498 314.855 422.483 315.477V322.729C422.483 324.308 423.773 325.588 425.363 325.588H426.96C427.526 325.588 427.986 325.135 427.99 324.573L428.012 324.566Z" fill="black"/>
<path d="M415.76 364.175H416.75V367.135H420.33V364.175H421.33V371.255H420.33V368.015H416.75V371.255H415.76V364.175ZM430.185 367.705C430.185 368.252 430.088 368.755 429.895 369.215C429.708 369.668 429.448 370.062 429.115 370.395C428.782 370.722 428.385 370.978 427.925 371.165C427.465 371.345 426.965 371.435 426.425 371.435C425.885 371.435 425.385 371.345 424.925 371.165C424.472 370.978 424.078 370.722 423.745 370.395C423.412 370.062 423.152 369.668 422.965 369.215C422.778 368.755 422.685 368.252 422.685 367.705C422.685 367.152 422.778 366.648 422.965 366.195C423.152 365.735 423.412 365.345 423.745 365.025C424.078 364.698 424.472 364.445 424.925 364.265C425.385 364.085 425.885 363.995 426.425 363.995C426.965 363.995 427.465 364.085 427.925 364.265C428.385 364.445 428.782 364.698 429.115 365.025C429.448 365.345 429.708 365.735 429.895 366.195C430.088 366.648 430.185 367.152 430.185 367.705ZM429.115 367.705C429.115 367.318 429.052 366.955 428.925 366.615C428.798 366.268 428.618 365.965 428.385 365.705C428.152 365.445 427.868 365.242 427.535 365.095C427.208 364.942 426.838 364.865 426.425 364.865C426.018 364.865 425.648 364.942 425.315 365.095C424.988 365.242 424.708 365.445 424.475 365.705C424.248 365.965 424.072 366.268 423.945 366.615C423.818 366.955 423.755 367.318 423.755 367.705C423.755 368.098 423.818 368.468 423.945 368.815C424.072 369.162 424.252 369.465 424.485 369.725C424.718 369.978 424.998 370.178 425.325 370.325C425.652 370.472 426.018 370.545 426.425 370.545C426.832 370.545 427.202 370.472 427.535 370.325C427.868 370.178 428.152 369.978 428.385 369.725C428.618 369.465 428.798 369.162 428.925 368.815C429.052 368.468 429.115 368.098 429.115 367.705ZM435.191 369.615H435.211L437.301 364.175H438.841V371.255H437.851V365.335H437.831L435.481 371.255H434.851L432.511 365.335H432.491V371.255H431.531V364.175H433.071L435.191 369.615ZM441.555 370.375H445.255V371.255H440.565V364.175H445.105V365.045H441.555V367.165H444.895V368.015H441.555V370.375Z" fill="black"/>
<rect width="88.4" height="106" transform="translate(490.6 277.255)" fill="white"/>
<rect width="80.4" height="72" transform="translate(494.6 281.255)" fill="#FFF2F8"/>
<path d="M533.185 324.334C533.128 324.111 533.32 323.921 533.55 323.921H536.05C536.28 323.921 536.472 324.111 536.415 324.334C536.232 325.055 535.578 325.588 534.8 325.588C534.022 325.588 533.368 325.055 533.185 324.334Z" fill="black"/>
<path d="M535.637 310.588H533.963L533.103 310.898C531.122 311.611 529.8 313.49 529.8 315.596V316.701C529.8 317.313 529.513 317.889 529.024 318.256C527.318 319.539 528.225 322.255 530.36 322.255H539.241C541.375 322.255 542.283 319.539 540.576 318.256C540.088 317.889 539.8 317.313 539.8 316.701V315.596C539.8 313.49 538.479 311.611 536.497 310.898L535.637 310.588Z" fill="black"/>
<path d="M533.967 309.755C533.967 309.295 534.34 308.922 534.8 308.922C535.26 308.922 535.633 309.295 535.633 309.755V310.589H533.967V309.755Z" fill="#12131A" fill-opacity="0.05"/>
<path d="M505.15 369.835H505.17V364.175H506.16V371.255H504.91L501.17 365.475H501.15V371.255H500.16V364.175H501.45L505.15 369.835ZM515.025 367.705C515.025 368.252 514.928 368.755 514.735 369.215C514.548 369.668 514.288 370.062 513.955 370.395C513.621 370.722 513.225 370.978 512.765 371.165C512.305 371.345 511.805 371.435 511.265 371.435C510.725 371.435 510.225 371.345 509.765 371.165C509.311 370.978 508.918 370.722 508.585 370.395C508.251 370.062 507.991 369.668 507.805 369.215C507.618 368.755 507.525 368.252 507.525 367.705C507.525 367.152 507.618 366.648 507.805 366.195C507.991 365.735 508.251 365.345 508.585 365.025C508.918 364.698 509.311 364.445 509.765 364.265C510.225 364.085 510.725 363.995 511.265 363.995C511.805 363.995 512.305 364.085 512.765 364.265C513.225 364.445 513.621 364.698 513.955 365.025C514.288 365.345 514.548 365.735 514.735 366.195C514.928 366.648 515.025 367.152 515.025 367.705ZM513.955 367.705C513.955 367.318 513.891 366.955 513.765 366.615C513.638 366.268 513.458 365.965 513.225 365.705C512.991 365.445 512.708 365.242 512.375 365.095C512.048 364.942 511.678 364.865 511.265 364.865C510.858 364.865 510.488 364.942 510.155 365.095C509.828 365.242 509.548 365.445 509.315 365.705C509.088 365.965 508.911 366.268 508.785 366.615C508.658 366.955 508.595 367.318 508.595 367.705C508.595 368.098 508.658 368.468 508.785 368.815C508.911 369.162 509.091 369.465 509.325 369.725C509.558 369.978 509.838 370.178 510.165 370.325C510.491 370.472 510.858 370.545 511.265 370.545C511.671 370.545 512.041 370.472 512.375 370.325C512.708 370.178 512.991 369.978 513.225 369.725C513.458 369.465 513.638 369.162 513.765 368.815C513.891 368.468 513.955 368.098 513.955 367.705ZM518.548 371.255H517.558V365.045H515.288V364.175H520.818V365.045H518.548V371.255ZM522.752 371.255H521.762V364.175H522.752V371.255ZM525.466 371.255H524.476V364.175H528.896V365.045H525.466V367.245H528.676V368.095H525.466V371.255ZM531.15 371.255H530.16V364.175H531.15V371.255ZM538.945 370.155C538.665 370.535 538.302 370.845 537.855 371.085C537.408 371.318 536.872 371.435 536.245 371.435C535.705 371.435 535.205 371.345 534.745 371.165C534.292 370.978 533.898 370.722 533.565 370.395C533.238 370.062 532.982 369.668 532.795 369.215C532.608 368.755 532.515 368.252 532.515 367.705C532.515 367.152 532.608 366.648 532.795 366.195C532.988 365.735 533.252 365.345 533.585 365.025C533.925 364.698 534.325 364.445 534.785 364.265C535.245 364.085 535.745 363.995 536.285 363.995C536.525 363.995 536.768 364.018 537.015 364.065C537.262 364.112 537.498 364.182 537.725 364.275C537.952 364.368 538.158 364.485 538.345 364.625C538.532 364.758 538.692 364.915 538.825 365.095L538.045 365.695C537.872 365.455 537.625 365.258 537.305 365.105C536.992 364.945 536.652 364.865 536.285 364.865C535.872 364.865 535.498 364.942 535.165 365.095C534.838 365.242 534.558 365.445 534.325 365.705C534.092 365.965 533.912 366.268 533.785 366.615C533.658 366.955 533.595 367.318 533.595 367.705C533.595 368.105 533.655 368.478 533.775 368.825C533.902 369.172 534.078 369.475 534.305 369.735C534.538 369.988 534.818 370.188 535.145 370.335C535.478 370.482 535.848 370.555 536.255 370.555C536.655 370.555 537.018 370.475 537.345 370.315C537.672 370.155 537.942 369.922 538.155 369.615L538.945 370.155ZM540.128 371.255H539.028L542.098 364.175H542.998L546.038 371.255H544.918L544.198 369.515H540.838L540.128 371.255ZM541.188 368.645H543.838L542.518 365.325L541.188 368.645ZM548.831 371.255H547.841V365.045H545.571V364.175H551.101V365.045H548.831V371.255ZM553.035 371.255H552.045V364.175H553.035V371.255ZM561.9 367.705C561.9 368.252 561.803 368.755 561.61 369.215C561.423 369.668 561.163 370.062 560.83 370.395C560.496 370.722 560.1 370.978 559.64 371.165C559.18 371.345 558.68 371.435 558.14 371.435C557.6 371.435 557.1 371.345 556.64 371.165C556.186 370.978 555.793 370.722 555.46 370.395C555.126 370.062 554.866 369.668 554.68 369.215C554.493 368.755 554.4 368.252 554.4 367.705C554.4 367.152 554.493 366.648 554.68 366.195C554.866 365.735 555.126 365.345 555.46 365.025C555.793 364.698 556.186 364.445 556.64 364.265C557.1 364.085 557.6 363.995 558.14 363.995C558.68 363.995 559.18 364.085 559.64 364.265C560.1 364.445 560.496 364.698 560.83 365.025C561.163 365.345 561.423 365.735 561.61 366.195C561.803 366.648 561.9 367.152 561.9 367.705ZM560.83 367.705C560.83 367.318 560.766 366.955 560.64 366.615C560.513 366.268 560.333 365.965 560.1 365.705C559.866 365.445 559.583 365.242 559.25 365.095C558.923 364.942 558.553 364.865 558.14 364.865C557.733 364.865 557.363 364.942 557.03 365.095C556.703 365.242 556.423 365.445 556.19 365.705C555.963 365.965 555.786 366.268 555.66 366.615C555.533 366.955 555.47 367.318 555.47 367.705C555.47 368.098 555.533 368.468 555.66 368.815C555.786 369.162 555.966 369.465 556.2 369.725C556.433 369.978 556.713 370.178 557.04 370.325C557.366 370.472 557.733 370.545 558.14 370.545C558.546 370.545 558.916 370.472 559.25 370.325C559.583 370.178 559.866 369.978 560.1 369.725C560.333 369.465 560.513 369.162 560.64 368.815C560.766 368.468 560.83 368.098 560.83 367.705ZM568.236 369.835H568.256V364.175H569.246V371.255H567.996L564.256 365.475H564.236V371.255H563.246V364.175H564.536L568.236 369.835Z" fill="black"/>
</g>
<defs>
<filter id="filter0_d_496_19135" x="0" y="0.254883" width="652" height="474" filterUnits="userSpaceOnUse" color-interpolation-filters="sRGB">
<feFlood flood-opacity="0" result="BackgroundImageFix"/>
<feColorMatrix in="SourceAlpha" type="matrix" values="0 0 0 0 0 0 0 0 0 0 0 0 0 0 0 0 0 0 127 0" result="hardAlpha"/>
<feOffset dy="4"/>
<feGaussianBlur stdDeviation="15"/>
<feComposite in2="hardAlpha" operator="out"/>
<feColorMatrix type="matrix" values="0 0 0 0 0 0 0 0 0 0 0 0 0 0 0 0 0 0 0.05 0"/>
<feBlend mode="normal" in2="BackgroundImageFix" result="effect1_dropShadow_496_19135"/>
<feBlend mode="normal" in="SourceGraphic" in2="effect1_dropShadow_496_19135" result="shape"/>
</filter>
</defs>
</svg>
