<svg width="787" height="216" viewBox="0 0 787 216" fill="none" xmlns="http://www.w3.org/2000/svg">
<g opacity="0.03">
<mask id="path-1-outside-1_761_10144" maskUnits="userSpaceOnUse" x="-478" y="0" width="1265" height="216" fill="black">
<rect fill="white" x="-478" width="1265" height="216"/>
<path d="M-397.551 132.671H-397.33L-344.886 3H-320.545V159.667H-336.478V23.5792H-336.92L-393.568 159.667H-401.977L-458.625 23.5792H-459.068V159.667H-475V3H-450.659L-397.551 132.671Z"/>
<path d="M-244.26 143.514H-243.818L-211.732 56.1076H-195.357L-246.916 186.443C-250.013 194.409 -253.997 200.752 -258.865 205.473C-263.585 210.341 -270.445 212.775 -279.444 212.775C-284.017 212.775 -288.517 212.333 -292.942 211.447L-291.393 197.728C-287.853 198.908 -284.165 199.498 -280.329 199.498C-275.166 199.498 -271.109 197.875 -268.159 194.63C-265.208 191.532 -262.627 187.033 -260.414 181.132L-252.005 159.446L-296.261 56.1076H-279.444L-244.26 143.514Z"/>
<path d="M-99.7009 145.505H-15.8351V159.667H-115.633V3H-18.4905V17.162H-99.7009V71.1548H-23.8013V85.0955H-99.7009V145.505Z"/>
<path d="M38.7765 106.117L0.494751 56.1076H19.7463L48.0704 95.4958L76.3944 56.1076H94.5395L56.9216 105.453L98.08 159.667H78.6072L47.8491 116.518L16.2058 159.667H-1.93936L38.7765 106.117Z"/>
<path d="M136.666 212.775H121.619V56.1076H136.666V74.0314H137.33C141.608 67.2455 147.288 62.156 154.369 58.763C161.597 55.2225 168.899 53.4522 176.275 53.4522C184.389 53.4522 191.691 54.8537 198.182 57.6566C204.821 60.4595 210.427 64.295 215 69.1632C219.72 74.0314 223.335 79.7848 225.843 86.4232C228.498 93.0617 229.826 100.216 229.826 107.888C229.826 115.559 228.498 122.713 225.843 129.352C223.335 135.99 219.72 141.744 215 146.612C210.427 151.48 204.821 155.316 198.182 158.118C191.691 160.921 184.389 162.323 176.275 162.323C168.899 162.323 161.597 160.626 154.369 157.233C147.288 153.693 141.608 148.677 137.33 142.186H136.666V212.775ZM213.893 107.888C213.893 102.134 213.008 96.7497 211.238 91.734C209.468 86.5707 206.886 82.1451 203.493 78.4571C200.248 74.6215 196.191 71.5973 191.323 69.3845C186.454 67.1717 180.922 66.0653 174.727 66.0653C168.973 66.0653 163.662 67.1717 158.794 69.3845C153.926 71.4498 149.722 74.4002 146.181 78.2358C142.641 81.9238 139.838 86.3495 137.772 91.5127C135.855 96.5284 134.896 101.987 134.896 107.888C134.896 113.788 135.855 119.32 137.772 124.484C139.838 129.499 142.641 133.851 146.181 137.539C149.722 141.227 153.926 144.178 158.794 146.391C163.662 148.456 168.973 149.489 174.727 149.489C180.922 149.489 186.454 148.456 191.323 146.391C196.191 144.178 200.248 141.227 203.493 137.539C206.886 133.704 209.468 129.278 211.238 124.262C213.008 119.099 213.893 113.641 213.893 107.888Z"/>
<path d="M341.078 99.9214C340.636 90.185 337.464 82.1451 331.563 75.8017C325.81 69.3108 317.549 66.0653 306.78 66.0653C301.764 66.0653 297.117 67.0242 292.839 68.942C288.561 70.7122 284.799 73.2201 281.554 76.4655C278.308 79.5635 275.727 83.1777 273.809 87.3083C271.891 91.2914 270.785 95.4958 270.49 99.9214H341.078ZM356.347 104.79C356.347 105.822 356.347 106.929 356.347 108.109C356.347 109.289 356.273 110.543 356.126 111.871H270.268C270.416 117.034 271.448 121.902 273.366 126.475C275.284 131.048 277.939 135.031 281.332 138.424C284.725 141.817 288.708 144.547 293.282 146.612C297.855 148.53 302.797 149.489 308.108 149.489C315.926 149.489 322.638 147.718 328.244 144.178C333.998 140.49 338.349 136.285 341.3 131.565L352.585 140.416C346.389 148.235 339.53 153.84 332.006 157.233C324.63 160.626 316.664 162.323 308.108 162.323C300.436 162.323 293.282 160.995 286.643 158.34C280.152 155.537 274.547 151.701 269.826 146.833C265.105 141.965 261.343 136.212 258.54 129.573C255.885 122.935 254.557 115.706 254.557 107.888C254.557 100.069 255.885 92.8404 258.54 86.2019C261.196 79.5635 264.884 73.8102 269.604 68.942C274.325 64.0738 279.857 60.312 286.201 57.6566C292.544 54.8537 299.404 53.4522 306.78 53.4522C314.893 53.4522 322.048 54.8537 328.244 57.6566C334.44 60.312 339.603 64 343.734 68.7207C347.865 73.2938 350.962 78.6784 353.028 84.8742C355.241 91.0701 356.347 97.7086 356.347 104.79Z"/>
<path d="M388.713 78.8996C388.713 76.0967 388.639 72.4825 388.492 68.0568C388.344 63.6312 388.123 59.6481 387.828 56.1076H402.211C402.506 58.9105 402.727 62.0085 402.875 65.4015C403.022 68.7944 403.096 71.5973 403.096 73.8102H403.539C406.489 67.7618 410.915 62.8936 416.816 59.2056C422.716 55.37 429.355 53.4522 436.731 53.4522C438.649 53.4522 440.345 53.526 441.82 53.6735C443.443 53.821 445.066 54.1161 446.689 54.5586L444.697 68.7207C443.812 68.4256 442.337 68.1306 440.272 67.8355C438.206 67.5405 436.141 67.393 434.076 67.393C430.093 67.393 426.257 68.1306 422.569 69.6058C418.881 71.081 415.635 73.4414 412.833 76.6868C410.177 79.7848 407.964 83.8416 406.194 88.8573C404.571 93.7255 403.76 99.6264 403.76 106.56V159.667H388.713V78.8996Z"/>
<path d="M512.549 68.7207H483.34V129.131C483.34 132.966 483.709 136.138 484.447 138.646C485.184 141.154 486.217 143.145 487.545 144.62C489.02 145.948 490.716 146.907 492.634 147.497C494.552 147.94 496.617 148.161 498.83 148.161C500.895 148.161 503.034 147.866 505.247 147.276C507.607 146.686 509.82 145.874 511.886 144.842L512.549 157.897C509.894 158.93 507.091 159.667 504.141 160.11C501.338 160.7 498.24 160.995 494.847 160.995C492.044 160.995 489.094 160.626 485.996 159.889C482.898 159.151 480.021 157.75 477.366 155.684C474.71 153.619 472.497 150.816 470.727 147.276C469.104 143.735 468.293 139.088 468.293 133.335V68.7207H446.829V56.1076H468.293V26.8984H483.34V56.1076H512.549V68.7207Z"/>
<path d="M551.358 159.667H536.311V56.1076H551.358V159.667ZM554.456 16.2769C554.456 19.3748 553.35 21.9565 551.137 24.0218C548.924 25.9395 546.49 26.8984 543.835 26.8984C541.18 26.8984 538.745 25.9395 536.533 24.0218C534.32 21.9565 533.213 19.3748 533.213 16.2769C533.213 13.179 534.32 10.6711 536.533 8.75332C538.745 6.68802 541.18 5.65537 543.835 5.65537C546.49 5.65537 548.924 6.68802 551.137 8.75332C553.35 10.6711 554.456 13.179 554.456 16.2769Z"/>
<path d="M646.51 80.6699C644.297 76.3918 640.904 72.925 636.331 70.2696C631.905 67.4668 626.816 66.0653 621.062 66.0653C618.407 66.0653 615.751 66.3603 613.096 66.9504C610.441 67.5405 608.08 68.4994 606.015 69.8271C603.95 71.1548 602.253 72.8513 600.926 74.9166C599.745 76.9819 599.155 79.416 599.155 82.2189C599.155 87.0871 601.147 90.8489 605.13 93.5042C609.113 96.0121 615.383 98.1512 623.939 99.9214C636.183 102.429 645.182 106.117 650.935 110.985C656.836 115.706 659.786 122.123 659.786 130.237C659.786 136.138 658.606 141.154 656.246 145.284C654.033 149.267 651.083 152.586 647.395 155.242C643.707 157.75 639.502 159.52 634.782 160.553C630.209 161.733 625.562 162.323 620.841 162.323C613.022 162.323 605.425 160.7 598.049 157.455C590.673 154.209 584.625 149.12 579.904 142.186L591.853 133.335C594.508 137.908 598.418 141.744 603.581 144.842C608.744 147.94 614.424 149.489 620.62 149.489C623.865 149.489 626.963 149.193 629.913 148.603C632.864 148.013 635.446 146.981 637.658 145.505C639.871 144.03 641.641 142.186 642.969 139.973C644.297 137.613 644.961 134.736 644.961 131.343C644.961 125.885 642.305 121.828 636.995 119.173C631.831 116.37 624.308 113.788 614.424 111.428C611.326 110.69 608.007 109.805 604.466 108.773C601.073 107.593 597.901 105.97 594.951 103.904C592 101.692 589.566 98.9625 587.649 95.717C585.731 92.4716 584.772 88.4148 584.772 83.5466C584.772 78.2358 585.805 73.7364 587.87 70.0484C589.935 66.2128 592.664 63.1149 596.057 60.7545C599.598 58.2467 603.581 56.4027 608.007 55.2225C612.432 54.0423 617.005 53.4522 621.726 53.4522C628.955 53.4522 635.962 55.075 642.748 58.3204C649.534 61.5659 654.623 66.1391 658.016 72.0399L646.51 80.6699Z"/>
<path d="M768.731 99.9214C768.289 90.185 765.117 82.1451 759.216 75.8017C753.463 69.3108 745.202 66.0653 734.433 66.0653C729.417 66.0653 724.77 67.0242 720.492 68.942C716.214 70.7122 712.452 73.2201 709.207 76.4655C705.961 79.5635 703.38 83.1777 701.462 87.3083C699.544 91.2914 698.438 95.4958 698.143 99.9214H768.731ZM784 104.79C784 105.822 784 106.929 784 108.109C784 109.289 783.926 110.543 783.779 111.871H697.921C698.069 117.034 699.102 121.902 701.019 126.475C702.937 131.048 705.593 135.031 708.985 138.424C712.378 141.817 716.361 144.547 720.935 146.612C725.508 148.53 730.45 149.489 735.76 149.489C743.579 149.489 750.291 147.718 755.897 144.178C761.65 140.49 766.002 136.285 768.953 131.565L780.238 140.416C774.042 148.235 767.182 153.84 759.659 157.233C752.283 160.626 744.317 162.323 735.76 162.323C728.089 162.323 720.935 160.995 714.296 158.34C707.805 155.537 702.199 151.701 697.479 146.833C692.758 141.965 688.996 136.212 686.193 129.573C683.538 122.935 682.21 115.706 682.21 107.888C682.21 100.069 683.538 92.8404 686.193 86.2019C688.849 79.5635 692.537 73.8102 697.257 68.942C701.978 64.0738 707.51 60.312 713.854 57.6566C720.197 54.8537 727.057 53.4522 734.433 53.4522C742.546 53.4522 749.701 54.8537 755.897 57.6566C762.093 60.312 767.256 64 771.387 68.7207C775.517 73.2938 778.615 78.6784 780.681 84.8742C782.894 91.0701 784 97.7086 784 104.79Z"/>
</mask>
<path d="M-397.551 132.671H-397.33L-344.886 3H-320.545V159.667H-336.478V23.5792H-336.92L-393.568 159.667H-401.977L-458.625 23.5792H-459.068V159.667H-475V3H-450.659L-397.551 132.671Z" stroke="black" stroke-width="6" mask="url(#path-1-outside-1_761_10144)"/>
<path d="M-244.26 143.514H-243.818L-211.732 56.1076H-195.357L-246.916 186.443C-250.013 194.409 -253.997 200.752 -258.865 205.473C-263.585 210.341 -270.445 212.775 -279.444 212.775C-284.017 212.775 -288.517 212.333 -292.942 211.447L-291.393 197.728C-287.853 198.908 -284.165 199.498 -280.329 199.498C-275.166 199.498 -271.109 197.875 -268.159 194.63C-265.208 191.532 -262.627 187.033 -260.414 181.132L-252.005 159.446L-296.261 56.1076H-279.444L-244.26 143.514Z" stroke="black" stroke-width="6" mask="url(#path-1-outside-1_761_10144)"/>
<path d="M-99.7009 145.505H-15.8351V159.667H-115.633V3H-18.4905V17.162H-99.7009V71.1548H-23.8013V85.0955H-99.7009V145.505Z" stroke="black" stroke-width="6" mask="url(#path-1-outside-1_761_10144)"/>
<path d="M38.7765 106.117L0.494751 56.1076H19.7463L48.0704 95.4958L76.3944 56.1076H94.5395L56.9216 105.453L98.08 159.667H78.6072L47.8491 116.518L16.2058 159.667H-1.93936L38.7765 106.117Z" stroke="black" stroke-width="6" mask="url(#path-1-outside-1_761_10144)"/>
<path d="M136.666 212.775H121.619V56.1076H136.666V74.0314H137.33C141.608 67.2455 147.288 62.156 154.369 58.763C161.597 55.2225 168.899 53.4522 176.275 53.4522C184.389 53.4522 191.691 54.8537 198.182 57.6566C204.821 60.4595 210.427 64.295 215 69.1632C219.72 74.0314 223.335 79.7848 225.843 86.4232C228.498 93.0617 229.826 100.216 229.826 107.888C229.826 115.559 228.498 122.713 225.843 129.352C223.335 135.99 219.72 141.744 215 146.612C210.427 151.48 204.821 155.316 198.182 158.118C191.691 160.921 184.389 162.323 176.275 162.323C168.899 162.323 161.597 160.626 154.369 157.233C147.288 153.693 141.608 148.677 137.33 142.186H136.666V212.775ZM213.893 107.888C213.893 102.134 213.008 96.7497 211.238 91.734C209.468 86.5707 206.886 82.1451 203.493 78.4571C200.248 74.6215 196.191 71.5973 191.323 69.3845C186.454 67.1717 180.922 66.0653 174.727 66.0653C168.973 66.0653 163.662 67.1717 158.794 69.3845C153.926 71.4498 149.722 74.4002 146.181 78.2358C142.641 81.9238 139.838 86.3495 137.772 91.5127C135.855 96.5284 134.896 101.987 134.896 107.888C134.896 113.788 135.855 119.32 137.772 124.484C139.838 129.499 142.641 133.851 146.181 137.539C149.722 141.227 153.926 144.178 158.794 146.391C163.662 148.456 168.973 149.489 174.727 149.489C180.922 149.489 186.454 148.456 191.323 146.391C196.191 144.178 200.248 141.227 203.493 137.539C206.886 133.704 209.468 129.278 211.238 124.262C213.008 119.099 213.893 113.641 213.893 107.888Z" stroke="black" stroke-width="6" mask="url(#path-1-outside-1_761_10144)"/>
<path d="M341.078 99.9214C340.636 90.185 337.464 82.1451 331.563 75.8017C325.81 69.3108 317.549 66.0653 306.78 66.0653C301.764 66.0653 297.117 67.0242 292.839 68.942C288.561 70.7122 284.799 73.2201 281.554 76.4655C278.308 79.5635 275.727 83.1777 273.809 87.3083C271.891 91.2914 270.785 95.4958 270.49 99.9214H341.078ZM356.347 104.79C356.347 105.822 356.347 106.929 356.347 108.109C356.347 109.289 356.273 110.543 356.126 111.871H270.268C270.416 117.034 271.448 121.902 273.366 126.475C275.284 131.048 277.939 135.031 281.332 138.424C284.725 141.817 288.708 144.547 293.282 146.612C297.855 148.53 302.797 149.489 308.108 149.489C315.926 149.489 322.638 147.718 328.244 144.178C333.998 140.49 338.349 136.285 341.3 131.565L352.585 140.416C346.389 148.235 339.53 153.84 332.006 157.233C324.63 160.626 316.664 162.323 308.108 162.323C300.436 162.323 293.282 160.995 286.643 158.34C280.152 155.537 274.547 151.701 269.826 146.833C265.105 141.965 261.343 136.212 258.54 129.573C255.885 122.935 254.557 115.706 254.557 107.888C254.557 100.069 255.885 92.8404 258.54 86.2019C261.196 79.5635 264.884 73.8102 269.604 68.942C274.325 64.0738 279.857 60.312 286.201 57.6566C292.544 54.8537 299.404 53.4522 306.78 53.4522C314.893 53.4522 322.048 54.8537 328.244 57.6566C334.44 60.312 339.603 64 343.734 68.7207C347.865 73.2938 350.962 78.6784 353.028 84.8742C355.241 91.0701 356.347 97.7086 356.347 104.79Z" stroke="black" stroke-width="6" mask="url(#path-1-outside-1_761_10144)"/>
<path d="M388.713 78.8996C388.713 76.0967 388.639 72.4825 388.492 68.0568C388.344 63.6312 388.123 59.6481 387.828 56.1076H402.211C402.506 58.9105 402.727 62.0085 402.875 65.4015C403.022 68.7944 403.096 71.5973 403.096 73.8102H403.539C406.489 67.7618 410.915 62.8936 416.816 59.2056C422.716 55.37 429.355 53.4522 436.731 53.4522C438.649 53.4522 440.345 53.526 441.82 53.6735C443.443 53.821 445.066 54.1161 446.689 54.5586L444.697 68.7207C443.812 68.4256 442.337 68.1306 440.272 67.8355C438.206 67.5405 436.141 67.393 434.076 67.393C430.093 67.393 426.257 68.1306 422.569 69.6058C418.881 71.081 415.635 73.4414 412.833 76.6868C410.177 79.7848 407.964 83.8416 406.194 88.8573C404.571 93.7255 403.76 99.6264 403.76 106.56V159.667H388.713V78.8996Z" stroke="black" stroke-width="6" mask="url(#path-1-outside-1_761_10144)"/>
<path d="M512.549 68.7207H483.34V129.131C483.34 132.966 483.709 136.138 484.447 138.646C485.184 141.154 486.217 143.145 487.545 144.62C489.02 145.948 490.716 146.907 492.634 147.497C494.552 147.94 496.617 148.161 498.83 148.161C500.895 148.161 503.034 147.866 505.247 147.276C507.607 146.686 509.82 145.874 511.886 144.842L512.549 157.897C509.894 158.93 507.091 159.667 504.141 160.11C501.338 160.7 498.24 160.995 494.847 160.995C492.044 160.995 489.094 160.626 485.996 159.889C482.898 159.151 480.021 157.75 477.366 155.684C474.71 153.619 472.497 150.816 470.727 147.276C469.104 143.735 468.293 139.088 468.293 133.335V68.7207H446.829V56.1076H468.293V26.8984H483.34V56.1076H512.549V68.7207Z" stroke="black" stroke-width="6" mask="url(#path-1-outside-1_761_10144)"/>
<path d="M551.358 159.667H536.311V56.1076H551.358V159.667ZM554.456 16.2769C554.456 19.3748 553.35 21.9565 551.137 24.0218C548.924 25.9395 546.49 26.8984 543.835 26.8984C541.18 26.8984 538.745 25.9395 536.533 24.0218C534.32 21.9565 533.213 19.3748 533.213 16.2769C533.213 13.179 534.32 10.6711 536.533 8.75332C538.745 6.68802 541.18 5.65537 543.835 5.65537C546.49 5.65537 548.924 6.68802 551.137 8.75332C553.35 10.6711 554.456 13.179 554.456 16.2769Z" stroke="black" stroke-width="6" mask="url(#path-1-outside-1_761_10144)"/>
<path d="M646.51 80.6699C644.297 76.3918 640.904 72.925 636.331 70.2696C631.905 67.4668 626.816 66.0653 621.062 66.0653C618.407 66.0653 615.751 66.3603 613.096 66.9504C610.441 67.5405 608.08 68.4994 606.015 69.8271C603.95 71.1548 602.253 72.8513 600.926 74.9166C599.745 76.9819 599.155 79.416 599.155 82.2189C599.155 87.0871 601.147 90.8489 605.13 93.5042C609.113 96.0121 615.383 98.1512 623.939 99.9214C636.183 102.429 645.182 106.117 650.935 110.985C656.836 115.706 659.786 122.123 659.786 130.237C659.786 136.138 658.606 141.154 656.246 145.284C654.033 149.267 651.083 152.586 647.395 155.242C643.707 157.75 639.502 159.52 634.782 160.553C630.209 161.733 625.562 162.323 620.841 162.323C613.022 162.323 605.425 160.7 598.049 157.455C590.673 154.209 584.625 149.12 579.904 142.186L591.853 133.335C594.508 137.908 598.418 141.744 603.581 144.842C608.744 147.94 614.424 149.489 620.62 149.489C623.865 149.489 626.963 149.193 629.913 148.603C632.864 148.013 635.446 146.981 637.658 145.505C639.871 144.03 641.641 142.186 642.969 139.973C644.297 137.613 644.961 134.736 644.961 131.343C644.961 125.885 642.305 121.828 636.995 119.173C631.831 116.37 624.308 113.788 614.424 111.428C611.326 110.69 608.007 109.805 604.466 108.773C601.073 107.593 597.901 105.97 594.951 103.904C592 101.692 589.566 98.9625 587.649 95.717C585.731 92.4716 584.772 88.4148 584.772 83.5466C584.772 78.2358 585.805 73.7364 587.87 70.0484C589.935 66.2128 592.664 63.1149 596.057 60.7545C599.598 58.2467 603.581 56.4027 608.007 55.2225C612.432 54.0423 617.005 53.4522 621.726 53.4522C628.955 53.4522 635.962 55.075 642.748 58.3204C649.534 61.5659 654.623 66.1391 658.016 72.0399L646.51 80.6699Z" stroke="black" stroke-width="6" mask="url(#path-1-outside-1_761_10144)"/>
<path d="M768.731 99.9214C768.289 90.185 765.117 82.1451 759.216 75.8017C753.463 69.3108 745.202 66.0653 734.433 66.0653C729.417 66.0653 724.77 67.0242 720.492 68.942C716.214 70.7122 712.452 73.2201 709.207 76.4655C705.961 79.5635 703.38 83.1777 701.462 87.3083C699.544 91.2914 698.438 95.4958 698.143 99.9214H768.731ZM784 104.79C784 105.822 784 106.929 784 108.109C784 109.289 783.926 110.543 783.779 111.871H697.921C698.069 117.034 699.102 121.902 701.019 126.475C702.937 131.048 705.593 135.031 708.985 138.424C712.378 141.817 716.361 144.547 720.935 146.612C725.508 148.53 730.45 149.489 735.76 149.489C743.579 149.489 750.291 147.718 755.897 144.178C761.65 140.49 766.002 136.285 768.953 131.565L780.238 140.416C774.042 148.235 767.182 153.84 759.659 157.233C752.283 160.626 744.317 162.323 735.76 162.323C728.089 162.323 720.935 160.995 714.296 158.34C707.805 155.537 702.199 151.701 697.479 146.833C692.758 141.965 688.996 136.212 686.193 129.573C683.538 122.935 682.21 115.706 682.21 107.888C682.21 100.069 683.538 92.8404 686.193 86.2019C688.849 79.5635 692.537 73.8102 697.257 68.942C701.978 64.0738 707.51 60.312 713.854 57.6566C720.197 54.8537 727.057 53.4522 734.433 53.4522C742.546 53.4522 749.701 54.8537 755.897 57.6566C762.093 60.312 767.256 64 771.387 68.7207C775.517 73.2938 778.615 78.6784 780.681 84.8742C782.894 91.0701 784 97.7086 784 104.79Z" stroke="black" stroke-width="6" mask="url(#path-1-outside-1_761_10144)"/>
</g>
</svg>
