<svg width="38" height="45" viewBox="0 0 38 45" fill="none" xmlns="http://www.w3.org/2000/svg">
<path fill-rule="evenodd" clip-rule="evenodd" d="M18.514 34.9914V31.3349H18.6066C19.5323 32.7235 20.7357 33.7726 22.2168 34.4823C22.3021 34.5231 22.3874 34.5628 22.473 34.6013C21.9162 35.9064 21.1347 37.0879 20.1284 38.1457C18.9731 39.3306 17.5068 40.2934 15.7295 41.0339C13.9818 41.7745 11.923 42.1448 9.55321 42.1448H3.19922V16.3733H9.55321C11.761 16.3733 13.6988 16.6947 15.3666 17.3374V34.9914H18.514ZM15.3666 14.2187C13.7251 13.7593 12.0835 13.5296 10.4419 13.5296H0V44.9885H10.4419C12.397 44.9885 14.352 44.6627 16.3071 44.011C18.2918 43.3593 20.0692 42.3817 21.6391 41.0784C23.2387 39.7454 24.5273 38.1013 25.5049 36.1462C25.6107 35.9345 25.7109 35.7188 25.8053 35.4991C26.1344 35.5309 26.4657 35.5468 26.799 35.5468C28.4961 35.5468 30.0235 35.2537 31.3812 34.6674C32.7698 34.0812 33.9423 33.2789 34.8989 32.2606C35.8863 31.2423 36.6423 30.0389 37.1668 28.6504C37.7223 27.2618 38 25.7653 38 24.1607C38 22.5562 37.7223 21.0597 37.1668 19.6711C36.6423 18.2826 35.8863 17.0791 34.8989 16.0609C33.9423 15.0426 32.7698 14.2403 31.3812 13.6541C30.0235 13.0678 28.4961 12.7746 26.799 12.7746C25.2253 12.7746 23.6979 13.1449 22.2168 13.8855C21.1626 14.3906 20.2491 15.0755 19.4763 15.9402C19.1622 15.754 18.8415 15.5789 18.514 15.4147V0H15.3666V14.2187ZM19.2801 19.6148C19.0813 19.9679 18.9031 20.3415 18.7454 20.7357C18.3443 21.7848 18.1437 22.9265 18.1437 24.1607C18.1437 25.395 18.3443 26.5521 18.7454 27.6321C19.1774 28.6812 19.7637 29.5915 20.5043 30.3629C21.2448 31.1343 22.1242 31.7515 23.1425 32.2143C23.1775 32.2292 23.2127 32.2438 23.2479 32.2581C23.4788 31.2758 23.5942 30.2761 23.5942 29.259C23.5942 27.6298 23.298 26.045 22.7055 24.5047C22.1427 22.9643 21.2837 21.6017 20.1284 20.4168C19.8622 20.1369 19.5794 19.8695 19.2801 19.6148ZM26.6249 32.8613C26.8557 31.741 26.9712 30.5403 26.9712 29.259C26.9712 26.6523 26.4824 24.3713 25.5049 22.4163C24.5273 20.4316 23.2387 18.7875 21.6391 17.4841C21.5285 17.3902 21.4168 17.298 21.3041 17.2074C21.8562 16.7597 22.469 16.3929 23.1425 16.1072C24.1608 15.6443 25.2716 15.4129 26.475 15.4129C27.771 15.4129 28.9281 15.6443 29.9464 16.1072C30.9647 16.57 31.8132 17.2026 32.4921 18.0048C33.2018 18.7763 33.7418 19.702 34.112 20.7819C34.4823 21.8311 34.6675 22.9573 34.6675 24.1607C34.6675 25.3642 34.4823 26.5058 34.112 27.5858C33.7418 28.635 33.2018 29.5607 32.4921 30.3629C31.8132 31.1343 30.9647 31.7515 29.9464 32.2143C28.9675 32.6296 27.8604 32.8453 26.6249 32.8613Z" fill="black"/>
</svg>
