<svg width="164" height="164" viewBox="0 0 164 164" fill="none" xmlns="http://www.w3.org/2000/svg">
<g filter="url(#filter0_d_1196_11510)">
<circle cx="82.25" cy="79.25" r="51.3934" fill="#467F93" stroke="white" stroke-width="1.71311"/>
<path d="M53.8819 74.953C53.6665 74.6407 53.3757 74.4145 53.0095 74.2745C52.6541 74.1237 52.2772 74.0483 51.8787 74.0483C51.6418 74.0483 51.4102 74.0753 51.184 74.1291C50.9686 74.183 50.7694 74.2691 50.5863 74.3876C50.414 74.506 50.274 74.6622 50.1663 74.8561C50.0586 75.0391 50.0048 75.2599 50.0048 75.5184C50.0048 75.9061 50.1394 76.2023 50.4086 76.4069C50.6779 76.6115 51.0117 76.7892 51.4102 76.94C51.8087 77.0908 52.2449 77.2362 52.7187 77.3762C53.1926 77.5162 53.6288 77.71 54.0272 77.9577C54.4257 78.2054 54.7596 78.5339 55.0288 78.9432C55.2981 79.3524 55.4327 79.8963 55.4327 80.5748C55.4327 81.1887 55.3196 81.7271 55.0934 82.1902C54.8673 82.6426 54.5603 83.0195 54.1726 83.3211C53.7957 83.6226 53.3541 83.8488 52.848 83.9996C52.3418 84.1503 51.8087 84.2257 51.2487 84.2257C50.5379 84.2257 49.854 84.1073 49.197 83.8703C48.5401 83.6334 47.9747 83.2349 47.5008 82.6749L49.0355 81.1887C49.2832 81.5656 49.6063 81.8618 50.0048 82.0772C50.414 82.2818 50.8448 82.3841 51.2971 82.3841C51.5341 82.3841 51.771 82.3518 52.0079 82.2872C52.2449 82.2226 52.4603 82.1256 52.6541 81.9964C52.848 81.8671 53.0041 81.7056 53.1226 81.5117C53.2411 81.3071 53.3003 81.0756 53.3003 80.8171C53.3003 80.3971 53.1657 80.074 52.8964 79.8478C52.6272 79.6217 52.2933 79.4332 51.8948 79.2824C51.4964 79.1209 51.0602 78.9701 50.5863 78.8301C50.1125 78.6901 49.6763 78.5016 49.2778 78.2647C48.8793 78.017 48.5455 77.6939 48.2762 77.2954C48.007 76.8862 47.8723 76.3423 47.8723 75.6638C47.8723 75.0715 47.9908 74.5599 48.2277 74.1291C48.4755 73.6983 48.7932 73.3429 49.1809 73.0629C49.5793 72.7721 50.0317 72.5567 50.5379 72.4167C51.044 72.2767 51.561 72.2067 52.0887 72.2067C52.6918 72.2067 53.2734 72.2982 53.8334 72.4813C54.4042 72.6644 54.9157 72.966 55.3681 73.386L53.8819 74.953ZM56.4701 77.8285V76.1807H58.0694V73.9352H60.008V76.1807H62.1404V77.8285H60.008V81.221C60.008 81.6087 60.078 81.9156 60.218 82.1418C60.3688 82.3679 60.6595 82.481 61.0903 82.481C61.2626 82.481 61.4511 82.4649 61.6557 82.4326C61.8604 82.3895 62.0219 82.3249 62.1404 82.2387V83.8703C61.9358 83.9672 61.6827 84.0319 61.3811 84.0642C61.0903 84.1073 60.8319 84.1288 60.6057 84.1288C60.0887 84.1288 59.6633 84.0696 59.3295 83.9511C59.0064 83.8434 58.7479 83.6765 58.5541 83.4503C58.371 83.2134 58.2417 82.9226 58.1664 82.578C58.1017 82.2333 58.0694 81.8348 58.0694 81.3825V77.8285H56.4701ZM68.5 82.8687H68.4515C68.1715 83.3103 67.8161 83.6334 67.3853 83.838C66.9545 84.0319 66.4807 84.1288 65.9637 84.1288C65.6083 84.1288 65.2583 84.0803 64.9137 83.9834C64.5798 83.8865 64.2783 83.7411 64.009 83.5472C63.7505 83.3534 63.5405 83.1111 63.379 82.8203C63.2174 82.5295 63.1367 82.1902 63.1367 81.8025C63.1367 81.3825 63.2121 81.0271 63.3628 80.7363C63.5136 80.4348 63.7128 80.1871 63.9605 79.9932C64.219 79.7886 64.5152 79.627 64.8491 79.5086C65.1829 79.3901 65.5275 79.304 65.8829 79.2501C66.2491 79.1855 66.6153 79.1478 66.9815 79.137C67.3476 79.1155 67.6923 79.1047 68.0154 79.1047H68.5V78.8947C68.5 78.4101 68.3331 78.0493 67.9992 77.8123C67.6653 77.5646 67.2399 77.4408 66.723 77.4408C66.3137 77.4408 65.9314 77.5162 65.576 77.667C65.2206 77.807 64.9137 78.0008 64.6552 78.2485L63.6375 77.2308C64.0682 76.7892 64.569 76.4715 65.1398 76.2777C65.7214 76.0838 66.3191 75.9869 66.933 75.9869C67.4822 75.9869 67.9453 76.0515 68.3223 76.1807C68.6992 76.2992 69.0116 76.4554 69.2593 76.6492C69.507 76.8431 69.6954 77.0692 69.8247 77.3277C69.9647 77.5754 70.0616 77.8285 70.1154 78.087C70.1801 78.3454 70.2178 78.5985 70.2285 78.8462C70.2393 79.0832 70.2447 79.2932 70.2447 79.4763V83.9349H68.5V82.8687ZM68.3869 80.4617H67.983C67.7138 80.4617 67.4122 80.4725 67.0784 80.494C66.7445 80.5155 66.4268 80.5694 66.1253 80.6556C65.8345 80.7309 65.5868 80.8494 65.3822 81.011C65.1775 81.1617 65.0752 81.3771 65.0752 81.6571C65.0752 81.8402 65.1129 81.9964 65.1883 82.1256C65.2745 82.2441 65.3822 82.3464 65.5114 82.4326C65.6406 82.5187 65.786 82.5833 65.9476 82.6264C66.1091 82.6587 66.2707 82.6749 66.4322 82.6749C67.0999 82.6749 67.5899 82.5187 67.9023 82.2064C68.2254 81.8833 68.3869 81.4471 68.3869 80.8979V80.4617ZM73.025 77.8285H71.4257V76.1807H73.025V75.0822C73.025 74.5437 73.0627 74.0591 73.1381 73.6283C73.2135 73.1868 73.3535 72.8098 73.5581 72.4975C73.7735 72.1852 74.0697 71.9482 74.4466 71.7867C74.8236 71.6144 75.3136 71.5282 75.9167 71.5282C76.3583 71.5282 76.7675 71.5659 77.1445 71.6413L77.0152 73.2891C76.8752 73.2568 76.7406 73.2298 76.6114 73.2083C76.4821 73.1868 76.3475 73.176 76.2075 73.176C75.9383 73.176 75.7229 73.2191 75.5613 73.3052C75.3998 73.3914 75.2705 73.5098 75.1736 73.6606C75.0874 73.8006 75.0282 73.9676 74.9959 74.1614C74.9744 74.3553 74.9636 74.5599 74.9636 74.7753V76.1807H76.7567V77.8285H74.9636V83.9349H73.025V77.8285ZM78.4204 77.8285H76.8211V76.1807H78.4204V75.0822C78.4204 74.5437 78.4581 74.0591 78.5335 73.6283C78.6089 73.1868 78.7489 72.8098 78.9535 72.4975C79.1689 72.1852 79.4651 71.9482 79.842 71.7867C80.219 71.6144 80.709 71.5282 81.3121 71.5282C81.7536 71.5282 82.1629 71.5659 82.5398 71.6413L82.4106 73.2891C82.2706 73.2568 82.136 73.2298 82.0067 73.2083C81.8775 73.1868 81.7429 73.176 81.6029 73.176C81.3336 73.176 81.1182 73.2191 80.9567 73.3052C80.7951 73.3914 80.6659 73.5098 80.569 73.6606C80.4828 73.8006 80.4236 73.9676 80.3913 74.1614C80.3697 74.3553 80.359 74.5599 80.359 74.7753V76.1807H82.1521V77.8285H80.359V83.9349H78.4204V77.8285ZM88.3629 72.4975H92.2077C92.757 72.4975 93.2847 72.5513 93.7909 72.659C94.3078 72.7667 94.7602 72.9498 95.1479 73.2083C95.5356 73.456 95.8425 73.7952 96.0687 74.226C96.3056 74.646 96.4241 75.1738 96.4241 75.8092C96.4241 76.5308 96.3002 77.1123 96.0525 77.5539C95.8048 77.9954 95.471 78.3401 95.0509 78.5878C94.6309 78.8247 94.1409 78.9862 93.5809 79.0724C93.0316 79.1586 92.4554 79.2016 91.8523 79.2016H90.3984V83.9349H88.3629V72.4975ZM91.6262 77.4569C91.9169 77.4569 92.2185 77.4462 92.5308 77.4246C92.8431 77.4031 93.1285 77.3385 93.387 77.2308C93.6563 77.1231 93.8717 76.9615 94.0332 76.7461C94.2055 76.5308 94.2917 76.2292 94.2917 75.8415C94.2917 75.4861 94.2163 75.2061 94.0655 75.0014C93.9147 74.7861 93.7209 74.6245 93.4839 74.5168C93.247 74.3983 92.9831 74.323 92.6924 74.2906C92.4016 74.2583 92.1216 74.2422 91.8523 74.2422H90.3984V77.4569H91.6262ZM98.0933 76.1807H100.032V83.9349H98.0933V76.1807ZM97.8187 73.5475C97.8187 73.2352 97.9318 72.966 98.1579 72.7398C98.3949 72.5029 98.691 72.3844 99.0464 72.3844C99.4018 72.3844 99.698 72.4975 99.9349 72.7237C100.183 72.939 100.306 73.2137 100.306 73.5475C100.306 73.8814 100.183 74.1614 99.9349 74.3876C99.698 74.603 99.4018 74.7107 99.0464 74.7107C98.691 74.7107 98.3949 74.5976 98.1579 74.3714C97.9318 74.1345 97.8187 73.8599 97.8187 73.5475ZM107.556 78.507C107.33 78.2701 107.093 78.0816 106.845 77.9416C106.598 77.8016 106.345 77.7316 106.086 77.7316C105.731 77.7316 105.413 77.7962 105.133 77.9254C104.853 78.0547 104.611 78.227 104.406 78.4424C104.212 78.6578 104.061 78.9055 103.954 79.1855C103.857 79.4655 103.808 79.7563 103.808 80.0578C103.808 80.3594 103.857 80.6502 103.954 80.9302C104.061 81.2102 104.212 81.4579 104.406 81.6733C104.611 81.8887 104.853 82.061 105.133 82.1902C105.413 82.3195 105.731 82.3841 106.086 82.3841C106.388 82.3841 106.668 82.3249 106.926 82.2064C107.185 82.0772 107.405 81.8941 107.588 81.6571L108.881 83.0464C108.687 83.2403 108.461 83.4072 108.202 83.5472C107.955 83.6872 107.701 83.8003 107.443 83.8865C107.185 83.9726 106.937 84.0319 106.7 84.0642C106.463 84.1073 106.258 84.1288 106.086 84.1288C105.504 84.1288 104.955 84.0319 104.438 83.838C103.921 83.6442 103.474 83.3695 103.097 83.0141C102.72 82.6587 102.419 82.2333 102.193 81.7379C101.977 81.2317 101.87 80.6717 101.87 80.0578C101.87 79.444 101.977 78.8893 102.193 78.3939C102.419 77.8877 102.72 77.4569 103.097 77.1015C103.474 76.7461 103.921 76.4715 104.438 76.2777C104.955 76.0838 105.504 75.9869 106.086 75.9869C106.581 75.9869 107.077 76.0838 107.572 76.2777C108.078 76.4607 108.52 76.7569 108.897 77.1662L107.556 78.507ZM110.051 71.7221H111.989V79.3955L114.978 76.1807H117.466L114.138 79.7024L117.676 83.9349H115.107L112.022 79.9771H111.989V83.9349H110.051V71.7221Z" fill="white"/>
</g>
<defs>
<filter id="filter0_d_1196_11510" x="0.652378" y="0.58714" width="163.195" height="163.195" filterUnits="userSpaceOnUse" color-interpolation-filters="sRGB">
<feFlood flood-opacity="0" result="BackgroundImageFix"/>
<feColorMatrix in="SourceAlpha" type="matrix" values="0 0 0 0 0 0 0 0 0 0 0 0 0 0 0 0 0 0 127 0" result="hardAlpha"/>
<feOffset dy="2.93476"/>
<feGaussianBlur stdDeviation="14.6738"/>
<feComposite in2="hardAlpha" operator="out"/>
<feColorMatrix type="matrix" values="0 0 0 0 0 0 0 0 0 0 0 0 0 0 0 0 0 0 0.15 0"/>
<feBlend mode="normal" in2="BackgroundImageFix" result="effect1_dropShadow_1196_11510"/>
<feBlend mode="normal" in="SourceGraphic" in2="effect1_dropShadow_1196_11510" result="shape"/>
</filter>
</defs>
</svg>
