<svg width="174" height="174" viewBox="0 0 174 174" fill="none" xmlns="http://www.w3.org/2000/svg">
<g filter="url(#filter0_d_1038_11328)">
<circle cx="86.75" cy="83.5719" r="51.3934" fill="#DCA7C3" stroke="white" stroke-width="1.71311"/>
<path d="M57.8819 79.2749C57.6665 78.9626 57.3757 78.7364 57.0095 78.5964C56.6541 78.4456 56.2772 78.3702 55.8787 78.3702C55.6418 78.3702 55.4102 78.3972 55.184 78.451C54.9686 78.5048 54.7694 78.591 54.5863 78.7095C54.414 78.8279 54.274 78.9841 54.1663 79.178C54.0586 79.361 54.0048 79.5818 54.0048 79.8403C54.0048 80.228 54.1394 80.5242 54.4086 80.7288C54.6779 80.9334 55.0117 81.1111 55.4102 81.2619C55.8087 81.4127 56.2449 81.5581 56.7187 81.6981C57.1926 81.8381 57.6288 82.0319 58.0272 82.2796C58.4257 82.5273 58.7596 82.8558 59.0288 83.2651C59.2981 83.6743 59.4327 84.2182 59.4327 84.8967C59.4327 85.5106 59.3196 86.049 59.0934 86.5121C58.8673 86.9645 58.5603 87.3414 58.1726 87.643C57.7957 87.9445 57.3541 88.1707 56.848 88.3215C56.3418 88.4722 55.8087 88.5476 55.2487 88.5476C54.5379 88.5476 53.854 88.4292 53.197 88.1922C52.5401 87.9553 51.9747 87.5568 51.5008 86.9968L53.0355 85.5106C53.2832 85.8875 53.6063 86.1837 54.0048 86.3991C54.414 86.6037 54.8448 86.706 55.2971 86.706C55.5341 86.706 55.771 86.6737 56.0079 86.6091C56.2449 86.5444 56.4603 86.4475 56.6541 86.3183C56.848 86.189 57.0041 86.0275 57.1226 85.8336C57.2411 85.629 57.3003 85.3975 57.3003 85.139C57.3003 84.719 57.1657 84.3959 56.8964 84.1697C56.6272 83.9436 56.2933 83.7551 55.8948 83.6043C55.4964 83.4428 55.0602 83.292 54.5863 83.152C54.1125 83.012 53.6763 82.8235 53.2778 82.5866C52.8793 82.3389 52.5455 82.0158 52.2762 81.6173C52.007 81.2081 51.8723 80.6642 51.8723 79.9857C51.8723 79.3934 51.9908 78.8818 52.2277 78.451C52.4755 78.0202 52.7932 77.6648 53.1809 77.3848C53.5793 77.094 54.0317 76.8786 54.5379 76.7386C55.044 76.5986 55.561 76.5286 56.0887 76.5286C56.6918 76.5286 57.2734 76.6201 57.8334 76.8032C58.4042 76.9863 58.9157 77.2879 59.3681 77.7079L57.8819 79.2749ZM60.4701 82.1504V80.5026H62.0694V78.2571H64.008V80.5026H66.1404V82.1504H64.008V85.5429C64.008 85.9306 64.078 86.2375 64.218 86.4637C64.3688 86.6898 64.6595 86.8029 65.0903 86.8029C65.2626 86.8029 65.4511 86.7868 65.6557 86.7545C65.8604 86.7114 66.0219 86.6468 66.1404 86.5606V88.1922C65.9358 88.2891 65.6827 88.3538 65.3811 88.3861C65.0903 88.4292 64.8319 88.4507 64.6057 88.4507C64.0887 88.4507 63.6633 88.3915 63.3295 88.273C63.0064 88.1653 62.7479 87.9984 62.5541 87.7722C62.371 87.5353 62.2417 87.2445 62.1664 86.8999C62.1017 86.5552 62.0694 86.1567 62.0694 85.7044V82.1504H60.4701ZM72.5 87.1906H72.4515C72.1715 87.6322 71.8161 87.9553 71.3853 88.1599C70.9545 88.3538 70.4807 88.4507 69.9637 88.4507C69.6083 88.4507 69.2583 88.4022 68.9137 88.3053C68.5798 88.2084 68.2783 88.063 68.009 87.8691C67.7505 87.6753 67.5405 87.433 67.379 87.1422C67.2174 86.8514 67.1367 86.5121 67.1367 86.1244C67.1367 85.7044 67.2121 85.349 67.3628 85.0582C67.5136 84.7567 67.7128 84.509 67.9605 84.3151C68.219 84.1105 68.5152 83.9489 68.8491 83.8305C69.1829 83.712 69.5275 83.6259 69.8829 83.572C70.2491 83.5074 70.6153 83.4697 70.9815 83.4589C71.3476 83.4374 71.6923 83.4266 72.0154 83.4266H72.5V83.2166C72.5 82.732 72.3331 82.3712 71.9992 82.1342C71.6653 81.8865 71.2399 81.7627 70.723 81.7627C70.3137 81.7627 69.9314 81.8381 69.576 81.9889C69.2206 82.1289 68.9137 82.3227 68.6552 82.5704L67.6375 81.5527C68.0682 81.1111 68.569 80.7934 69.1398 80.5996C69.7214 80.4057 70.3191 80.3088 70.933 80.3088C71.4822 80.3088 71.9453 80.3734 72.3223 80.5026C72.6992 80.6211 73.0116 80.7773 73.2593 80.9711C73.507 81.165 73.6954 81.3911 73.8247 81.6496C73.9647 81.8973 74.0616 82.1504 74.1154 82.4089C74.1801 82.6673 74.2178 82.9204 74.2285 83.1681C74.2393 83.4051 74.2447 83.6151 74.2447 83.7982V88.2568H72.5V87.1906ZM72.3869 84.7836H71.983C71.7138 84.7836 71.4122 84.7944 71.0784 84.8159C70.7445 84.8374 70.4268 84.8913 70.1253 84.9775C69.8345 85.0528 69.5868 85.1713 69.3822 85.3329C69.1775 85.4836 69.0752 85.699 69.0752 85.979C69.0752 86.1621 69.1129 86.3183 69.1883 86.4475C69.2745 86.566 69.3822 86.6683 69.5114 86.7545C69.6406 86.8406 69.786 86.9052 69.9476 86.9483C70.1091 86.9806 70.2707 86.9968 70.4322 86.9968C71.0999 86.9968 71.5899 86.8406 71.9023 86.5283C72.2254 86.2052 72.3869 85.769 72.3869 85.2198V84.7836ZM77.025 82.1504H75.4257V80.5026H77.025V79.4041C77.025 78.8656 77.0627 78.381 77.1381 77.9502C77.2135 77.5087 77.3535 77.1317 77.5581 76.8194C77.7735 76.5071 78.0697 76.2701 78.4466 76.1086C78.8236 75.9363 79.3136 75.8501 79.9167 75.8501C80.3583 75.8501 80.7675 75.8878 81.1445 75.9632L81.0152 77.611C80.8752 77.5787 80.7406 77.5517 80.6114 77.5302C80.4821 77.5087 80.3475 77.4979 80.2075 77.4979C79.9383 77.4979 79.7229 77.541 79.5613 77.6271C79.3998 77.7133 79.2705 77.8317 79.1736 77.9825C79.0874 78.1225 79.0282 78.2895 78.9959 78.4833C78.9744 78.6772 78.9636 78.8818 78.9636 79.0972V80.5026H80.7567V82.1504H78.9636V88.2568H77.025V82.1504ZM82.4204 82.1504H80.8211V80.5026H82.4204V79.4041C82.4204 78.8656 82.4581 78.381 82.5335 77.9502C82.6089 77.5087 82.7489 77.1317 82.9535 76.8194C83.1689 76.5071 83.4651 76.2701 83.842 76.1086C84.219 75.9363 84.709 75.8501 85.3121 75.8501C85.7536 75.8501 86.1629 75.8878 86.5398 75.9632L86.4106 77.611C86.2706 77.5787 86.136 77.5517 86.0067 77.5302C85.8775 77.5087 85.7429 77.4979 85.6029 77.4979C85.3336 77.4979 85.1182 77.541 84.9567 77.6271C84.7951 77.7133 84.6659 77.8317 84.569 77.9825C84.4828 78.1225 84.4236 78.2895 84.3913 78.4833C84.3697 78.6772 84.359 78.8818 84.359 79.0972V80.5026H86.1521V82.1504H84.359V88.2568H82.4204V82.1504ZM92.3629 76.8194H96.2077C96.757 76.8194 97.2847 76.8732 97.7909 76.9809C98.3078 77.0886 98.7602 77.2717 99.1479 77.5302C99.5356 77.7779 99.8425 78.1171 100.069 78.5479C100.306 78.9679 100.424 79.4957 100.424 80.1311C100.424 80.8527 100.3 81.4342 100.053 81.8758C99.8048 82.3173 99.471 82.662 99.0509 82.9097C98.6309 83.1466 98.1409 83.3081 97.5809 83.3943C97.0316 83.4805 96.4554 83.5235 95.8523 83.5235H94.3984V88.2568H92.3629V76.8194ZM95.6262 81.7788C95.9169 81.7788 96.2185 81.7681 96.5308 81.7465C96.8431 81.725 97.1285 81.6604 97.387 81.5527C97.6563 81.445 97.8717 81.2834 98.0332 81.068C98.2055 80.8526 98.2917 80.5511 98.2917 80.1634C98.2917 79.808 98.2163 79.528 98.0655 79.3233C97.9147 79.108 97.7209 78.9464 97.4839 78.8387C97.247 78.7202 96.9831 78.6449 96.6924 78.6125C96.4016 78.5802 96.1216 78.5641 95.8523 78.5641H94.3984V81.7788H95.6262ZM102.093 80.5026H104.032V88.2568H102.093V80.5026ZM101.819 77.8694C101.819 77.5571 101.932 77.2879 102.158 77.0617C102.395 76.8248 102.691 76.7063 103.046 76.7063C103.402 76.7063 103.698 76.8194 103.935 77.0456C104.183 77.2609 104.306 77.5356 104.306 77.8694C104.306 78.2033 104.183 78.4833 103.935 78.7095C103.698 78.9249 103.402 79.0326 103.046 79.0326C102.691 79.0326 102.395 78.9195 102.158 78.6933C101.932 78.4564 101.819 78.1818 101.819 77.8694ZM111.556 82.8289C111.33 82.592 111.093 82.4035 110.845 82.2635C110.598 82.1235 110.345 82.0535 110.086 82.0535C109.731 82.0535 109.413 82.1181 109.133 82.2473C108.853 82.3766 108.611 82.5489 108.406 82.7643C108.212 82.9797 108.061 83.2274 107.954 83.5074C107.857 83.7874 107.808 84.0782 107.808 84.3797C107.808 84.6813 107.857 84.9721 107.954 85.2521C108.061 85.5321 108.212 85.7798 108.406 85.9952C108.611 86.2106 108.853 86.3829 109.133 86.5121C109.413 86.6414 109.731 86.706 110.086 86.706C110.388 86.706 110.668 86.6468 110.926 86.5283C111.185 86.3991 111.405 86.216 111.588 85.979L112.881 87.3683C112.687 87.5622 112.461 87.7291 112.202 87.8691C111.955 88.0091 111.701 88.1222 111.443 88.2084C111.185 88.2945 110.937 88.3538 110.7 88.3861C110.463 88.4292 110.258 88.4507 110.086 88.4507C109.504 88.4507 108.955 88.3538 108.438 88.1599C107.921 87.9661 107.474 87.6914 107.097 87.336C106.72 86.9806 106.419 86.5552 106.193 86.0598C105.977 85.5536 105.87 84.9936 105.87 84.3797C105.87 83.7659 105.977 83.2112 106.193 82.7158C106.419 82.2096 106.72 81.7788 107.097 81.4234C107.474 81.068 107.921 80.7934 108.438 80.5996C108.955 80.4057 109.504 80.3088 110.086 80.3088C110.581 80.3088 111.077 80.4057 111.572 80.5996C112.078 80.7826 112.52 81.0788 112.897 81.4881L111.556 82.8289ZM114.051 76.044H115.989V83.7174L118.978 80.5026H121.466L118.138 84.0243L121.676 88.2568H119.107L116.022 84.299H115.989V88.2568H114.051V76.044Z" fill="white"/>
</g>
<defs>
<filter id="filter0_d_1038_11328" x="0.237705" y="0.485834" width="173.025" height="173.025" filterUnits="userSpaceOnUse" color-interpolation-filters="sRGB">
<feFlood flood-opacity="0" result="BackgroundImageFix"/>
<feColorMatrix in="SourceAlpha" type="matrix" values="0 0 0 0 0 0 0 0 0 0 0 0 0 0 0 0 0 0 127 0" result="hardAlpha"/>
<feOffset dy="3.42623"/>
<feGaussianBlur stdDeviation="17.1311"/>
<feComposite in2="hardAlpha" operator="out"/>
<feColorMatrix type="matrix" values="0 0 0 0 0 0 0 0 0 0 0 0 0 0 0 0 0 0 0.15 0"/>
<feBlend mode="normal" in2="BackgroundImageFix" result="effect1_dropShadow_1038_11328"/>
<feBlend mode="normal" in="SourceGraphic" in2="effect1_dropShadow_1038_11328" result="shape"/>
</filter>
</defs>
</svg>
