<svg width="1406" height="327" viewBox="0 0 1406 327" fill="none" xmlns="http://www.w3.org/2000/svg">
<g opacity="0.05">
<mask id="path-1-outside-1_7_677" maskUnits="userSpaceOnUse" x="-511" y="0" width="1917" height="327" fill="black">
<rect fill="white" x="-511" width="1917" height="327"/>
<path d="M-389.566 200.618H-389.23L-309.711 4H-272.803V241.552H-296.961V35.2039H-297.632L-383.527 241.552H-396.276L-482.171 35.2039H-482.842V241.552H-507V4H-470.092L-389.566 200.618Z"/>
<path d="M-157.133 217.059H-156.462L-107.811 84.5262H-82.982L-161.159 282.151C-165.857 294.23 -171.896 303.848 -179.278 311.006C-186.436 318.388 -196.837 322.078 -210.482 322.078C-217.416 322.078 -224.238 321.407 -230.949 320.065L-228.6 299.263C-223.232 301.052 -217.64 301.947 -211.824 301.947C-203.995 301.947 -197.844 299.486 -193.37 294.565C-188.896 289.868 -184.982 283.046 -181.627 274.098L-168.877 241.217L-235.982 84.5262H-210.482L-157.133 217.059Z"/>
<path d="M62.0595 220.079H189.224V241.552H37.9017V4H185.197V25.4736H62.0595V107.342H177.145V128.48H62.0595V220.079Z"/>
<path d="M272.03 160.355L213.984 84.5262H243.175L286.123 144.25L329.07 84.5262H356.583L299.544 159.348L361.951 241.552H332.425L285.787 176.125L237.807 241.552H210.294L272.03 160.355Z"/>
<path d="M420.459 322.078H397.643V84.5262H420.459V111.704H421.465C427.952 101.414 436.564 93.6972 447.301 88.5525C458.261 83.1841 469.334 80.4999 480.518 80.4999C492.82 80.4999 503.893 82.6249 513.735 86.8748C523.801 91.1248 532.301 96.9406 539.235 104.322C546.393 111.704 551.873 120.427 555.676 130.493C559.702 140.559 561.715 151.408 561.715 163.039C561.715 174.671 559.702 185.519 555.676 195.585C551.873 205.651 546.393 214.375 539.235 221.756C532.301 229.138 523.801 234.954 513.735 239.204C503.893 243.454 492.82 245.579 480.518 245.579C469.334 245.579 458.261 243.006 447.301 237.861C436.564 232.493 427.952 224.888 421.465 215.046H420.459V322.078ZM537.557 163.039C537.557 154.316 536.215 146.151 533.531 138.546C530.847 130.717 526.932 124.006 521.787 118.414C516.866 112.598 510.715 108.013 503.333 104.658C495.952 101.302 487.564 99.6248 478.169 99.6248C469.445 99.6248 461.393 101.302 454.011 104.658C446.63 107.789 440.255 112.263 434.886 118.079C429.518 123.671 425.268 130.381 422.136 138.21C419.228 145.816 417.774 154.092 417.774 163.039C417.774 171.987 419.228 180.375 422.136 188.204C425.268 195.809 429.518 202.408 434.886 208C440.255 213.592 446.63 218.065 454.011 221.421C461.393 224.552 469.445 226.118 478.169 226.118C487.564 226.118 495.952 224.552 503.333 221.421C510.715 218.065 516.866 213.592 521.787 208C526.932 202.184 530.847 195.473 533.531 187.868C536.215 180.039 537.557 171.763 537.557 163.039Z"/>
<path d="M730.406 150.96C729.735 136.197 724.926 124.006 715.978 114.388C707.255 104.546 694.728 99.6248 678.399 99.6248C670.794 99.6248 663.748 101.079 657.261 103.987C650.774 106.671 645.07 110.473 640.149 115.395C635.228 120.092 631.314 125.572 628.406 131.835C625.498 137.875 623.821 144.25 623.373 150.96H730.406ZM753.557 158.342C753.557 159.908 753.557 161.585 753.557 163.375C753.557 165.164 753.445 167.066 753.222 169.079H623.038C623.261 176.908 624.827 184.289 627.735 191.223C630.643 198.158 634.669 204.197 639.814 209.342C644.959 214.486 650.998 218.625 657.932 221.756C664.866 224.664 672.36 226.118 680.412 226.118C692.268 226.118 702.445 223.434 710.945 218.065C719.669 212.473 726.268 206.098 730.741 198.94L747.853 212.361C738.458 224.217 728.057 232.717 716.649 237.861C705.465 243.006 693.386 245.579 680.412 245.579C668.781 245.579 657.932 243.565 647.866 239.539C638.024 235.289 629.524 229.473 622.367 222.092C615.209 214.71 609.505 205.986 605.255 195.921C601.228 185.855 599.215 174.894 599.215 163.039C599.215 151.184 601.228 140.223 605.255 130.158C609.281 120.092 614.873 111.368 622.031 103.987C629.189 96.6051 637.577 90.9012 647.195 86.8748C656.814 82.6249 667.215 80.4999 678.399 80.4999C690.702 80.4999 701.551 82.6249 710.945 86.8748C720.34 90.9012 728.169 96.4933 734.432 103.651C740.695 110.585 745.393 118.75 748.524 128.145C751.879 137.539 753.557 147.605 753.557 158.342Z"/>
<path d="M802.633 119.085C802.633 114.835 802.521 109.355 802.297 102.645C802.074 95.934 801.738 89.8946 801.291 84.5262H823.1C823.547 88.7762 823.883 93.4735 824.107 98.6183C824.33 103.763 824.442 108.013 824.442 111.368H825.113C829.587 102.197 836.297 94.8156 845.245 89.2235C854.192 83.4078 864.258 80.4999 875.442 80.4999C878.35 80.4999 880.922 80.6117 883.159 80.8354C885.62 81.0591 888.08 81.5064 890.541 82.1775L887.521 103.651C886.179 103.204 883.942 102.756 880.81 102.309C877.679 101.862 874.547 101.638 871.416 101.638C865.376 101.638 859.561 102.756 853.969 104.993C848.376 107.23 843.455 110.809 839.205 115.73C835.179 120.427 831.824 126.579 829.14 134.184C826.679 141.566 825.449 150.513 825.449 161.026V241.552H802.633V119.085Z"/>
<path d="M990.404 103.651H946.115V195.25C946.115 201.065 946.674 205.875 947.792 209.677C948.911 213.48 950.477 216.5 952.49 218.736C954.727 220.75 957.299 222.204 960.207 223.098C963.115 223.769 966.246 224.105 969.602 224.105C972.733 224.105 975.977 223.658 979.332 222.763C982.911 221.868 986.266 220.638 989.398 219.072L990.404 238.868C986.378 240.434 982.128 241.552 977.654 242.223C973.404 243.118 968.707 243.565 963.562 243.565C959.312 243.565 954.838 243.006 950.141 241.888C945.444 240.769 941.082 238.644 937.056 235.513C933.029 232.381 929.674 228.131 926.99 222.763C924.529 217.394 923.299 210.348 923.299 201.625V103.651H890.753V84.5262H923.299V40.2368H946.115V84.5262H990.404V103.651Z"/>
<path d="M1049.25 241.552H1026.43V84.5262H1049.25V241.552ZM1053.95 24.1315C1053.95 28.8289 1052.27 32.7434 1048.91 35.8749C1045.56 38.7828 1041.87 40.2368 1037.84 40.2368C1033.82 40.2368 1030.12 38.7828 1026.77 35.8749C1023.41 32.7434 1021.74 28.8289 1021.74 24.1315C1021.74 19.4342 1023.41 15.6315 1026.77 12.7237C1030.12 9.59208 1033.82 8.0263 1037.84 8.0263C1041.87 8.0263 1045.56 9.59208 1048.91 12.7237C1052.27 15.6315 1053.95 19.4342 1053.95 24.1315Z"/>
<path d="M1193.53 121.77C1190.17 115.283 1185.03 110.026 1178.09 106C1171.38 101.75 1163.66 99.6248 1154.94 99.6248C1150.91 99.6248 1146.89 100.072 1142.86 100.967C1138.83 101.862 1135.26 103.316 1132.12 105.329C1128.99 107.342 1126.42 109.914 1124.41 113.046C1122.62 116.177 1121.72 119.868 1121.72 124.118C1121.72 131.5 1124.74 137.204 1130.78 141.23C1136.82 145.033 1146.33 148.276 1159.3 150.96C1177.87 154.763 1191.51 160.355 1200.24 167.737C1209.18 174.894 1213.66 184.625 1213.66 196.927C1213.66 205.875 1211.87 213.48 1208.29 219.743C1204.93 225.783 1200.46 230.815 1194.87 234.842C1189.28 238.644 1182.9 241.329 1175.74 242.894C1168.81 244.684 1161.76 245.579 1154.6 245.579C1142.75 245.579 1131.23 243.118 1120.05 238.197C1108.86 233.276 1099.69 225.559 1092.53 215.046L1110.65 201.625C1114.68 208.559 1120.6 214.375 1128.43 219.072C1136.26 223.769 1144.87 226.118 1154.27 226.118C1159.19 226.118 1163.89 225.671 1168.36 224.776C1172.83 223.881 1176.75 222.315 1180.1 220.079C1183.46 217.842 1186.14 215.046 1188.16 211.69C1190.17 208.111 1191.18 203.75 1191.18 198.605C1191.18 190.329 1187.15 184.177 1179.1 180.151C1171.27 175.901 1159.86 171.987 1144.87 168.408C1140.18 167.289 1135.14 165.947 1129.78 164.381C1124.63 162.592 1119.82 160.131 1115.35 157C1110.87 153.644 1107.18 149.506 1104.28 144.585C1101.37 139.664 1099.91 133.513 1099.91 126.131C1099.91 118.079 1101.48 111.256 1104.61 105.664C1107.74 99.8485 1111.88 95.1512 1117.03 91.5722C1122.39 87.7696 1128.43 84.9735 1135.14 83.1841C1141.85 81.3946 1148.79 80.4999 1155.95 80.4999C1166.91 80.4999 1177.53 82.9604 1187.82 87.8814C1198.11 92.8025 1205.83 99.7367 1210.97 108.684L1193.53 121.77Z"/>
<path d="M1378.85 150.96C1378.18 136.197 1373.37 124.006 1364.42 114.388C1355.7 104.546 1343.17 99.6248 1326.84 99.6248C1319.24 99.6248 1312.19 101.079 1305.7 103.987C1299.22 106.671 1293.51 110.473 1288.59 115.395C1283.67 120.092 1279.76 125.572 1276.85 131.835C1273.94 137.875 1272.26 144.25 1271.82 150.96H1378.85ZM1402 158.342C1402 159.908 1402 161.585 1402 163.375C1402 165.164 1401.89 167.066 1401.66 169.079H1271.48C1271.7 176.908 1273.27 184.289 1276.18 191.223C1279.09 198.158 1283.11 204.197 1288.26 209.342C1293.4 214.486 1299.44 218.625 1306.38 221.756C1313.31 224.664 1320.8 226.118 1328.86 226.118C1340.71 226.118 1350.89 223.434 1359.39 218.065C1368.11 212.473 1374.71 206.098 1379.18 198.94L1396.3 212.361C1386.9 224.217 1376.5 232.717 1365.09 237.861C1353.91 243.006 1341.83 245.579 1328.86 245.579C1317.22 245.579 1306.38 243.565 1296.31 239.539C1286.47 235.289 1277.97 229.473 1270.81 222.092C1263.65 214.71 1257.95 205.986 1253.7 195.921C1249.67 185.855 1247.66 174.894 1247.66 163.039C1247.66 151.184 1249.67 140.223 1253.7 130.158C1257.72 120.092 1263.32 111.368 1270.47 103.987C1277.63 96.6051 1286.02 90.9012 1295.64 86.8748C1305.26 82.6249 1315.66 80.4999 1326.84 80.4999C1339.14 80.4999 1349.99 82.6249 1359.39 86.8748C1368.78 90.9012 1376.61 96.4933 1382.87 103.651C1389.14 110.585 1393.84 118.75 1396.97 128.145C1400.32 137.539 1402 147.605 1402 158.342Z"/>
</mask>
<path d="M-389.566 200.618H-389.23L-309.711 4H-272.803V241.552H-296.961V35.2039H-297.632L-383.527 241.552H-396.276L-482.171 35.2039H-482.842V241.552H-507V4H-470.092L-389.566 200.618Z" stroke="white" stroke-width="8" mask="url(#path-1-outside-1_7_677)"/>
<path d="M-157.133 217.059H-156.462L-107.811 84.5262H-82.982L-161.159 282.151C-165.857 294.23 -171.896 303.848 -179.278 311.006C-186.436 318.388 -196.837 322.078 -210.482 322.078C-217.416 322.078 -224.238 321.407 -230.949 320.065L-228.6 299.263C-223.232 301.052 -217.64 301.947 -211.824 301.947C-203.995 301.947 -197.844 299.486 -193.37 294.565C-188.896 289.868 -184.982 283.046 -181.627 274.098L-168.877 241.217L-235.982 84.5262H-210.482L-157.133 217.059Z" stroke="white" stroke-width="8" mask="url(#path-1-outside-1_7_677)"/>
<path d="M62.0595 220.079H189.224V241.552H37.9017V4H185.197V25.4736H62.0595V107.342H177.145V128.48H62.0595V220.079Z" stroke="white" stroke-width="8" mask="url(#path-1-outside-1_7_677)"/>
<path d="M272.03 160.355L213.984 84.5262H243.175L286.123 144.25L329.07 84.5262H356.583L299.544 159.348L361.951 241.552H332.425L285.787 176.125L237.807 241.552H210.294L272.03 160.355Z" stroke="white" stroke-width="8" mask="url(#path-1-outside-1_7_677)"/>
<path d="M420.459 322.078H397.643V84.5262H420.459V111.704H421.465C427.952 101.414 436.564 93.6972 447.301 88.5525C458.261 83.1841 469.334 80.4999 480.518 80.4999C492.82 80.4999 503.893 82.6249 513.735 86.8748C523.801 91.1248 532.301 96.9406 539.235 104.322C546.393 111.704 551.873 120.427 555.676 130.493C559.702 140.559 561.715 151.408 561.715 163.039C561.715 174.671 559.702 185.519 555.676 195.585C551.873 205.651 546.393 214.375 539.235 221.756C532.301 229.138 523.801 234.954 513.735 239.204C503.893 243.454 492.82 245.579 480.518 245.579C469.334 245.579 458.261 243.006 447.301 237.861C436.564 232.493 427.952 224.888 421.465 215.046H420.459V322.078ZM537.557 163.039C537.557 154.316 536.215 146.151 533.531 138.546C530.847 130.717 526.932 124.006 521.787 118.414C516.866 112.598 510.715 108.013 503.333 104.658C495.952 101.302 487.564 99.6248 478.169 99.6248C469.445 99.6248 461.393 101.302 454.011 104.658C446.63 107.789 440.255 112.263 434.886 118.079C429.518 123.671 425.268 130.381 422.136 138.21C419.228 145.816 417.774 154.092 417.774 163.039C417.774 171.987 419.228 180.375 422.136 188.204C425.268 195.809 429.518 202.408 434.886 208C440.255 213.592 446.63 218.065 454.011 221.421C461.393 224.552 469.445 226.118 478.169 226.118C487.564 226.118 495.952 224.552 503.333 221.421C510.715 218.065 516.866 213.592 521.787 208C526.932 202.184 530.847 195.473 533.531 187.868C536.215 180.039 537.557 171.763 537.557 163.039Z" stroke="white" stroke-width="8" mask="url(#path-1-outside-1_7_677)"/>
<path d="M730.406 150.96C729.735 136.197 724.926 124.006 715.978 114.388C707.255 104.546 694.728 99.6248 678.399 99.6248C670.794 99.6248 663.748 101.079 657.261 103.987C650.774 106.671 645.07 110.473 640.149 115.395C635.228 120.092 631.314 125.572 628.406 131.835C625.498 137.875 623.821 144.25 623.373 150.96H730.406ZM753.557 158.342C753.557 159.908 753.557 161.585 753.557 163.375C753.557 165.164 753.445 167.066 753.222 169.079H623.038C623.261 176.908 624.827 184.289 627.735 191.223C630.643 198.158 634.669 204.197 639.814 209.342C644.959 214.486 650.998 218.625 657.932 221.756C664.866 224.664 672.36 226.118 680.412 226.118C692.268 226.118 702.445 223.434 710.945 218.065C719.669 212.473 726.268 206.098 730.741 198.94L747.853 212.361C738.458 224.217 728.057 232.717 716.649 237.861C705.465 243.006 693.386 245.579 680.412 245.579C668.781 245.579 657.932 243.565 647.866 239.539C638.024 235.289 629.524 229.473 622.367 222.092C615.209 214.71 609.505 205.986 605.255 195.921C601.228 185.855 599.215 174.894 599.215 163.039C599.215 151.184 601.228 140.223 605.255 130.158C609.281 120.092 614.873 111.368 622.031 103.987C629.189 96.6051 637.577 90.9012 647.195 86.8748C656.814 82.6249 667.215 80.4999 678.399 80.4999C690.702 80.4999 701.551 82.6249 710.945 86.8748C720.34 90.9012 728.169 96.4933 734.432 103.651C740.695 110.585 745.393 118.75 748.524 128.145C751.879 137.539 753.557 147.605 753.557 158.342Z" stroke="white" stroke-width="8" mask="url(#path-1-outside-1_7_677)"/>
<path d="M802.633 119.085C802.633 114.835 802.521 109.355 802.297 102.645C802.074 95.934 801.738 89.8946 801.291 84.5262H823.1C823.547 88.7762 823.883 93.4735 824.107 98.6183C824.33 103.763 824.442 108.013 824.442 111.368H825.113C829.587 102.197 836.297 94.8156 845.245 89.2235C854.192 83.4078 864.258 80.4999 875.442 80.4999C878.35 80.4999 880.922 80.6117 883.159 80.8354C885.62 81.0591 888.08 81.5064 890.541 82.1775L887.521 103.651C886.179 103.204 883.942 102.756 880.81 102.309C877.679 101.862 874.547 101.638 871.416 101.638C865.376 101.638 859.561 102.756 853.969 104.993C848.376 107.23 843.455 110.809 839.205 115.73C835.179 120.427 831.824 126.579 829.14 134.184C826.679 141.566 825.449 150.513 825.449 161.026V241.552H802.633V119.085Z" stroke="white" stroke-width="8" mask="url(#path-1-outside-1_7_677)"/>
<path d="M990.404 103.651H946.115V195.25C946.115 201.065 946.674 205.875 947.792 209.677C948.911 213.48 950.477 216.5 952.49 218.736C954.727 220.75 957.299 222.204 960.207 223.098C963.115 223.769 966.246 224.105 969.602 224.105C972.733 224.105 975.977 223.658 979.332 222.763C982.911 221.868 986.266 220.638 989.398 219.072L990.404 238.868C986.378 240.434 982.128 241.552 977.654 242.223C973.404 243.118 968.707 243.565 963.562 243.565C959.312 243.565 954.838 243.006 950.141 241.888C945.444 240.769 941.082 238.644 937.056 235.513C933.029 232.381 929.674 228.131 926.99 222.763C924.529 217.394 923.299 210.348 923.299 201.625V103.651H890.753V84.5262H923.299V40.2368H946.115V84.5262H990.404V103.651Z" stroke="white" stroke-width="8" mask="url(#path-1-outside-1_7_677)"/>
<path d="M1049.25 241.552H1026.43V84.5262H1049.25V241.552ZM1053.95 24.1315C1053.95 28.8289 1052.27 32.7434 1048.91 35.8749C1045.56 38.7828 1041.87 40.2368 1037.84 40.2368C1033.82 40.2368 1030.12 38.7828 1026.77 35.8749C1023.41 32.7434 1021.74 28.8289 1021.74 24.1315C1021.74 19.4342 1023.41 15.6315 1026.77 12.7237C1030.12 9.59208 1033.82 8.0263 1037.84 8.0263C1041.87 8.0263 1045.56 9.59208 1048.91 12.7237C1052.27 15.6315 1053.95 19.4342 1053.95 24.1315Z" stroke="white" stroke-width="8" mask="url(#path-1-outside-1_7_677)"/>
<path d="M1193.53 121.77C1190.17 115.283 1185.03 110.026 1178.09 106C1171.38 101.75 1163.66 99.6248 1154.94 99.6248C1150.91 99.6248 1146.89 100.072 1142.86 100.967C1138.83 101.862 1135.26 103.316 1132.12 105.329C1128.99 107.342 1126.42 109.914 1124.41 113.046C1122.62 116.177 1121.72 119.868 1121.72 124.118C1121.72 131.5 1124.74 137.204 1130.78 141.23C1136.82 145.033 1146.33 148.276 1159.3 150.96C1177.87 154.763 1191.51 160.355 1200.24 167.737C1209.18 174.894 1213.66 184.625 1213.66 196.927C1213.66 205.875 1211.87 213.48 1208.29 219.743C1204.93 225.783 1200.46 230.815 1194.87 234.842C1189.28 238.644 1182.9 241.329 1175.74 242.894C1168.81 244.684 1161.76 245.579 1154.6 245.579C1142.75 245.579 1131.23 243.118 1120.05 238.197C1108.86 233.276 1099.69 225.559 1092.53 215.046L1110.65 201.625C1114.68 208.559 1120.6 214.375 1128.43 219.072C1136.26 223.769 1144.87 226.118 1154.27 226.118C1159.19 226.118 1163.89 225.671 1168.36 224.776C1172.83 223.881 1176.75 222.315 1180.1 220.079C1183.46 217.842 1186.14 215.046 1188.16 211.69C1190.17 208.111 1191.18 203.75 1191.18 198.605C1191.18 190.329 1187.15 184.177 1179.1 180.151C1171.27 175.901 1159.86 171.987 1144.87 168.408C1140.18 167.289 1135.14 165.947 1129.78 164.381C1124.63 162.592 1119.82 160.131 1115.35 157C1110.87 153.644 1107.18 149.506 1104.28 144.585C1101.37 139.664 1099.91 133.513 1099.91 126.131C1099.91 118.079 1101.48 111.256 1104.61 105.664C1107.74 99.8485 1111.88 95.1512 1117.03 91.5722C1122.39 87.7696 1128.43 84.9735 1135.14 83.1841C1141.85 81.3946 1148.79 80.4999 1155.95 80.4999C1166.91 80.4999 1177.53 82.9604 1187.82 87.8814C1198.11 92.8025 1205.83 99.7367 1210.97 108.684L1193.53 121.77Z" stroke="white" stroke-width="8" mask="url(#path-1-outside-1_7_677)"/>
<path d="M1378.85 150.96C1378.18 136.197 1373.37 124.006 1364.42 114.388C1355.7 104.546 1343.17 99.6248 1326.84 99.6248C1319.24 99.6248 1312.19 101.079 1305.7 103.987C1299.22 106.671 1293.51 110.473 1288.59 115.395C1283.67 120.092 1279.76 125.572 1276.85 131.835C1273.94 137.875 1272.26 144.25 1271.82 150.96H1378.85ZM1402 158.342C1402 159.908 1402 161.585 1402 163.375C1402 165.164 1401.89 167.066 1401.66 169.079H1271.48C1271.7 176.908 1273.27 184.289 1276.18 191.223C1279.09 198.158 1283.11 204.197 1288.26 209.342C1293.4 214.486 1299.44 218.625 1306.38 221.756C1313.31 224.664 1320.8 226.118 1328.86 226.118C1340.71 226.118 1350.89 223.434 1359.39 218.065C1368.11 212.473 1374.71 206.098 1379.18 198.94L1396.3 212.361C1386.9 224.217 1376.5 232.717 1365.09 237.861C1353.91 243.006 1341.83 245.579 1328.86 245.579C1317.22 245.579 1306.38 243.565 1296.31 239.539C1286.47 235.289 1277.97 229.473 1270.81 222.092C1263.65 214.71 1257.95 205.986 1253.7 195.921C1249.67 185.855 1247.66 174.894 1247.66 163.039C1247.66 151.184 1249.67 140.223 1253.7 130.158C1257.72 120.092 1263.32 111.368 1270.47 103.987C1277.63 96.6051 1286.02 90.9012 1295.64 86.8748C1305.26 82.6249 1315.66 80.4999 1326.84 80.4999C1339.14 80.4999 1349.99 82.6249 1359.39 86.8748C1368.78 90.9012 1376.61 96.4933 1382.87 103.651C1389.14 110.585 1393.84 118.75 1396.97 128.145C1400.32 137.539 1402 147.605 1402 158.342Z" stroke="white" stroke-width="8" mask="url(#path-1-outside-1_7_677)"/>
</g>
</svg>
