<svg width="922" height="200" viewBox="0 0 922 200" fill="none" xmlns="http://www.w3.org/2000/svg">
<g opacity="0.1">
<mask id="path-1-outside-1_10_739" maskUnits="userSpaceOnUse" x="-1037" y="0" width="1959" height="276" fill="black">
<rect fill="white" x="-1037" width="1959" height="276"/>
<path d="M-1035 2H-967.38C-954.72 2 -942.059 4.11011 -929.398 8.33033C-916.546 12.5506 -905.036 18.9768 -894.869 27.6091C-884.51 36.0496 -876.166 46.6961 -869.835 59.5486C-863.505 72.2093 -860.34 86.9801 -860.34 103.861C-860.34 120.934 -863.505 135.8 -869.835 148.461C-876.166 161.122 -884.51 171.768 -894.869 180.401C-905.036 188.841 -916.546 195.171 -929.398 199.392C-942.059 203.612 -954.72 205.722 -967.38 205.722H-1035V2ZM-1014.28 187.307H-973.135C-957.789 187.307 -944.457 184.909 -933.139 180.113C-921.629 175.317 -912.134 169.083 -904.652 161.41C-897.171 153.545 -891.608 144.625 -887.963 134.65C-884.127 124.674 -882.208 114.412 -882.208 103.861C-882.208 93.3104 -884.127 83.0476 -887.963 73.0725C-891.608 63.0974 -897.171 54.2733 -904.652 46.6002C-912.134 38.7352 -921.629 32.4048 -933.139 27.6091C-944.457 22.8134 -957.789 20.4155 -973.135 20.4155H-1014.28V187.307Z"/>
<path d="M-715.652 128.031C-716.228 115.371 -720.352 104.916 -728.025 96.6674C-735.507 88.227 -746.249 84.0068 -760.253 84.0068C-766.775 84.0068 -772.817 85.2536 -778.38 87.7474C-783.943 90.0493 -788.835 93.3104 -793.055 97.5307C-797.276 101.559 -800.633 106.259 -803.126 111.63C-805.62 116.809 -807.059 122.277 -807.442 128.031H-715.652ZM-695.798 134.362C-695.798 135.705 -695.798 137.143 -695.798 138.678C-695.798 140.213 -695.894 141.843 -696.086 143.57H-807.73C-807.538 150.284 -806.196 156.614 -803.702 162.561C-801.208 168.507 -797.755 173.687 -793.343 178.099C-788.931 182.511 -783.752 186.06 -777.805 188.745C-771.858 191.239 -765.432 192.486 -758.526 192.486C-748.359 192.486 -739.631 190.184 -732.342 185.58C-724.86 180.784 -719.201 175.317 -715.365 169.179L-700.69 180.688C-708.747 190.855 -717.667 198.145 -727.45 202.557C-737.041 206.969 -747.4 209.175 -758.526 209.175C-768.501 209.175 -777.805 207.449 -786.437 203.996C-794.878 200.351 -802.167 195.363 -808.306 189.033C-814.444 182.703 -819.336 175.221 -822.981 166.589C-826.434 157.957 -828.16 148.557 -828.16 138.39C-828.16 128.223 -826.434 118.824 -822.981 110.191C-819.528 101.559 -814.732 94.0778 -808.593 87.7474C-802.455 81.4171 -795.261 76.5254 -787.013 73.0725C-778.764 69.4278 -769.844 67.6054 -760.253 67.6054C-749.702 67.6054 -740.398 69.4278 -732.342 73.0725C-724.285 76.5254 -717.571 81.3212 -712.2 87.4597C-706.828 93.4064 -702.8 100.408 -700.114 108.465C-697.237 116.522 -695.798 125.154 -695.798 134.362Z"/>
<path d="M-582.063 102.998C-584.941 97.4348 -589.353 92.9268 -595.299 89.4739C-601.054 85.8291 -607.672 84.0068 -615.154 84.0068C-618.607 84.0068 -622.06 84.3904 -625.512 85.1577C-628.965 85.925 -632.035 87.1719 -634.72 88.8984C-637.406 90.6248 -639.612 92.8309 -641.338 95.5165C-642.873 98.2021 -643.64 101.367 -643.64 105.012C-643.64 111.342 -641.051 116.234 -635.871 119.687C-630.692 122.948 -622.539 125.729 -611.413 128.031C-595.491 131.293 -583.79 136.088 -576.308 142.419C-568.635 148.557 -564.799 156.902 -564.799 167.452C-564.799 175.125 -566.333 181.648 -569.403 187.019C-572.28 192.198 -576.117 196.514 -580.912 199.967C-585.708 203.228 -591.175 205.53 -597.314 206.873C-603.26 208.408 -609.303 209.175 -615.441 209.175C-625.608 209.175 -635.488 207.065 -645.079 202.845C-654.67 198.624 -662.535 192.006 -668.674 182.99L-653.136 171.481C-649.683 177.427 -644.599 182.415 -637.885 186.443C-631.171 190.472 -623.786 192.486 -615.729 192.486C-611.509 192.486 -607.481 192.102 -603.644 191.335C-599.807 190.568 -596.45 189.225 -593.573 187.307C-590.696 185.388 -588.394 182.99 -586.667 180.113C-584.941 177.044 -584.077 173.303 -584.077 168.891C-584.077 161.793 -587.53 156.518 -594.436 153.065C-601.15 149.42 -610.934 146.063 -623.786 142.994C-627.814 142.035 -632.131 140.884 -636.734 139.541C-641.147 138.007 -645.271 135.896 -649.107 133.211C-652.944 130.333 -656.109 126.785 -658.603 122.564C-661.097 118.344 -662.344 113.069 -662.344 106.738C-662.344 99.8326 -661.001 93.9818 -658.315 89.1861C-655.63 84.1986 -652.081 80.1702 -647.669 77.1009C-643.065 73.8398 -637.885 71.442 -632.131 69.9073C-626.376 68.3727 -620.429 67.6054 -614.29 67.6054C-604.891 67.6054 -595.779 69.7155 -586.955 73.9357C-578.131 78.156 -571.513 84.1027 -567.101 91.7758L-582.063 102.998Z"/>
<path d="M-506.003 205.722H-525.569V71.0583H-506.003V205.722ZM-501.974 19.2646C-501.974 23.293 -503.413 26.65 -506.29 29.3356C-509.168 31.8294 -512.333 33.0762 -515.786 33.0762C-519.239 33.0762 -522.404 31.8294 -525.281 29.3356C-528.159 26.65 -529.597 23.293 -529.597 19.2646C-529.597 15.2362 -528.159 11.9751 -525.281 9.48131C-522.404 6.79571 -519.239 5.45291 -515.786 5.45291C-512.333 5.45291 -509.168 6.79571 -506.29 9.48131C-503.413 11.9751 -501.974 15.2362 -501.974 19.2646Z"/>
<path d="M-446.727 232.77C-441.356 239.676 -434.067 245.526 -424.859 250.322C-415.459 255.118 -405.58 257.516 -395.221 257.516C-385.63 257.516 -377.477 256.077 -370.763 253.2C-364.049 250.514 -358.678 246.773 -354.65 241.978C-350.429 237.182 -347.36 231.523 -345.442 225.001C-343.524 218.67 -342.564 211.861 -342.564 204.571V179.25H-343.14C-348.319 187.69 -355.705 194.212 -365.296 198.816C-374.696 203.42 -384.287 205.722 -394.07 205.722C-404.621 205.722 -414.212 203.996 -422.845 200.543C-431.285 197.09 -438.575 192.39 -444.713 186.443C-450.66 180.305 -455.36 173.015 -458.813 164.575C-462.074 156.134 -463.704 147.022 -463.704 137.239C-463.704 127.648 -462.074 118.632 -458.813 110.191C-455.36 101.751 -450.66 94.3655 -444.713 88.0352C-438.575 81.7048 -431.285 76.7173 -422.845 73.0725C-414.212 69.4278 -404.621 67.6054 -394.07 67.6054C-384.287 67.6054 -374.696 69.9073 -365.296 74.5112C-355.896 79.1151 -348.511 85.7332 -343.14 94.3655H-342.564V71.0583H-322.998V204.571C-322.998 211.861 -324.053 219.63 -326.163 227.878C-328.081 236.127 -331.822 243.704 -337.385 250.61C-342.756 257.516 -350.142 263.271 -359.541 267.875C-368.941 272.478 -381.122 274.78 -396.085 274.78C-408.554 274.78 -420.447 272.383 -431.765 267.587C-443.083 262.791 -452.77 256.173 -460.827 247.733L-446.727 232.77ZM-442.987 136.664C-442.987 143.761 -441.836 150.475 -439.534 156.806C-437.232 163.136 -433.971 168.699 -429.751 173.495C-425.339 178.291 -419.967 182.127 -413.637 185.005C-407.307 187.69 -400.113 189.033 -392.056 189.033C-384.575 189.033 -377.669 187.786 -371.339 185.292C-365.008 182.799 -359.541 179.25 -354.937 174.646C-350.334 170.042 -346.785 164.575 -344.291 158.244C-341.605 151.722 -340.263 144.529 -340.263 136.664C-340.263 129.566 -341.605 122.852 -344.291 116.522C-346.785 110.191 -350.334 104.628 -354.937 99.8326C-359.541 95.0369 -365.008 91.2003 -371.339 88.3229C-377.669 85.4455 -384.575 84.0068 -392.056 84.0068C-400.113 84.0068 -407.307 85.4455 -413.637 88.3229C-419.967 91.2003 -425.339 95.0369 -429.751 99.8326C-433.971 104.628 -437.232 110.191 -439.534 116.522C-441.836 122.852 -442.987 129.566 -442.987 136.664Z"/>
<path d="M-254.562 71.0583C-254.179 74.7031 -253.891 78.7315 -253.699 83.1435C-253.507 87.5556 -253.411 91.2003 -253.411 94.0778H-252.836C-248.999 86.2128 -242.765 79.8824 -234.133 75.0867C-225.5 70.0992 -216.388 67.6054 -206.797 67.6054C-189.724 67.6054 -176.968 72.6889 -168.527 82.8558C-159.895 93.0227 -155.579 106.451 -155.579 123.14V205.722H-175.145V131.197C-175.145 124.099 -175.721 117.673 -176.872 111.918C-178.023 106.163 -180.037 101.271 -182.914 97.2429C-185.6 93.0227 -189.341 89.7616 -194.136 87.4597C-198.74 85.1577 -204.591 84.0068 -211.689 84.0068C-216.868 84.0068 -221.951 85.0618 -226.939 87.1719C-231.735 89.282 -236.051 92.5431 -239.887 96.9552C-243.724 101.175 -246.793 106.643 -249.095 113.357C-251.397 119.879 -252.548 127.648 -252.548 136.664V205.722H-272.115V100.696C-272.115 97.0511 -272.211 92.3513 -272.402 86.5964C-272.594 80.8416 -272.882 75.6622 -273.266 71.0583H-254.562Z"/>
<path d="M-31.8335 2H25.7151C36.0739 2 45.4735 3.15097 53.9139 5.45291C62.3544 7.56302 69.548 10.92 75.4946 15.5239C81.6332 19.936 86.333 25.5949 89.5941 32.5007C92.8552 39.2148 94.4857 47.1756 94.4857 56.3834C94.4857 65.5912 92.7593 73.648 89.3063 80.5538C86.0452 87.2678 81.3455 92.9268 75.2069 97.5307C69.2603 101.943 61.9707 105.3 53.3384 107.602C44.8979 109.904 35.4983 111.055 25.1396 111.055H-11.116V205.722H-31.8335V2ZM-11.116 93.5023H23.9886C40.2941 93.5023 52.667 90.3371 61.1074 84.0068C69.548 77.6764 73.7682 68.4686 73.7682 56.3834C73.7682 43.7227 69.3562 34.5149 60.5321 28.7601C51.8998 22.8134 39.7186 19.8401 23.9886 19.8401H-11.116V93.5023Z"/>
<path d="M120.16 100.696C120.16 97.0511 120.064 92.3513 119.872 86.5964C119.68 80.8416 119.393 75.6622 119.009 71.0583H137.712C138.096 74.7031 138.384 78.7315 138.576 83.1435C138.767 87.5556 138.863 91.2003 138.863 94.0778H139.439C143.275 86.2128 149.03 79.8824 156.703 75.0867C164.376 70.0992 173.009 67.6054 182.6 67.6054C185.094 67.6054 187.3 67.7013 189.218 67.8931C191.328 68.085 193.439 68.4686 195.549 69.0441L192.959 87.4597C191.808 87.076 189.89 86.6924 187.204 86.3087C184.519 85.925 181.833 85.7332 179.147 85.7332C173.968 85.7332 168.98 86.6924 164.185 88.6106C159.389 90.5289 155.169 93.5982 151.524 97.8184C148.071 101.847 145.194 107.122 142.892 113.644C140.782 119.975 139.727 127.648 139.727 136.664V205.722H120.16V100.696Z"/>
<path d="M352.591 138.39C352.591 148.557 350.769 157.957 347.124 166.589C343.671 175.221 338.779 182.703 332.449 189.033C326.119 195.363 318.542 200.351 309.718 203.996C300.893 207.449 291.206 209.175 280.655 209.175C270.297 209.175 260.705 207.449 251.881 203.996C243.057 200.351 235.48 195.363 229.149 189.033C222.819 182.703 217.832 175.221 214.187 166.589C210.734 157.957 209.007 148.557 209.007 138.39C209.007 128.223 210.734 118.824 214.187 110.191C217.832 101.559 222.819 94.0778 229.149 87.7474C235.48 81.4171 243.057 76.5254 251.881 73.0725C260.705 69.4278 270.297 67.6054 280.655 67.6054C291.206 67.6054 300.893 69.4278 309.718 73.0725C318.542 76.5254 326.119 81.4171 332.449 87.7474C338.779 94.0778 343.671 101.559 347.124 110.191C350.769 118.824 352.591 128.223 352.591 138.39ZM331.874 138.39C331.874 130.909 330.627 123.907 328.133 117.385C325.831 110.671 322.474 104.916 318.062 100.12C313.65 95.1328 308.279 91.2003 301.948 88.3229C295.618 85.4455 288.52 84.0068 280.655 84.0068C272.79 84.0068 265.693 85.4455 259.362 88.3229C253.224 91.2003 247.949 95.1328 243.536 100.12C239.125 104.916 235.672 110.671 233.178 117.385C230.876 123.907 229.725 130.909 229.725 138.39C229.725 145.871 230.876 152.969 233.178 159.683C235.672 166.205 239.125 171.96 243.536 176.948C247.949 181.743 253.224 185.58 259.362 188.457C265.693 191.143 272.79 192.486 280.655 192.486C288.52 192.486 295.618 191.143 301.948 188.457C308.279 185.58 313.65 181.743 318.062 176.948C322.474 171.96 325.831 166.205 328.133 159.683C330.627 152.969 331.874 145.871 331.874 138.39Z"/>
<path d="M491.665 101.847C488.404 96.6674 483.609 92.4472 477.278 89.1861C471.14 85.7332 464.426 84.0068 457.136 84.0068C449.271 84.0068 442.174 85.4455 435.843 88.3229C429.513 91.0085 424.046 94.8451 419.442 99.8326C415.03 104.628 411.577 110.383 409.083 117.097C406.781 123.619 405.63 130.717 405.63 138.39C405.63 146.063 406.781 153.161 409.083 159.683C411.577 166.205 415.03 171.96 419.442 176.948C423.854 181.743 429.225 185.58 435.556 188.457C441.886 191.143 448.984 192.486 456.849 192.486C465.481 192.486 472.77 190.855 478.717 187.594C484.664 184.333 489.555 180.113 493.392 174.934L508.067 185.868C502.312 192.965 495.214 198.624 486.774 202.845C478.525 207.065 468.55 209.175 456.849 209.175C445.914 209.175 436.035 207.449 427.211 203.996C418.387 200.351 410.81 195.363 404.479 189.033C398.341 182.703 393.545 175.221 390.092 166.589C386.639 157.957 384.913 148.557 384.913 138.39C384.913 128.223 386.639 118.824 390.092 110.191C393.545 101.559 398.341 94.0778 404.479 87.7474C410.81 81.4171 418.387 76.5254 427.211 73.0725C436.035 69.4278 445.914 67.6054 456.849 67.6054C465.865 67.6054 474.976 69.6196 484.184 73.648C493.584 77.4846 501.161 83.2394 506.916 90.9126L491.665 101.847Z"/>
<path d="M641.292 128.031C640.716 115.371 636.592 104.916 628.919 96.6674C621.438 88.227 610.695 84.0068 596.692 84.0068C590.169 84.0068 584.127 85.2536 578.564 87.7474C573.001 90.0493 568.109 93.3104 563.889 97.5307C559.669 101.559 556.312 106.259 553.818 111.63C551.324 116.809 549.885 122.277 549.502 128.031H641.292ZM661.146 134.362C661.146 135.705 661.146 137.143 661.146 138.678C661.146 140.213 661.05 141.843 660.858 143.57H549.214C549.406 150.284 550.749 156.614 553.242 162.561C555.736 168.507 559.189 173.687 563.601 178.099C568.013 182.511 573.193 186.06 579.139 188.745C585.086 191.239 591.512 192.486 598.418 192.486C608.585 192.486 617.313 190.184 624.603 185.58C632.084 180.784 637.743 175.317 641.58 169.179L656.254 180.688C648.198 190.855 639.278 198.145 629.494 202.557C619.903 206.969 609.544 209.175 598.418 209.175C588.443 209.175 579.139 207.449 570.507 203.996C562.067 200.351 554.777 195.363 548.639 189.033C542.5 182.703 537.608 175.221 533.964 166.589C530.511 157.957 528.784 148.557 528.784 138.39C528.784 128.223 530.511 118.824 533.964 110.191C537.417 101.559 542.212 94.0778 548.351 87.7474C554.489 81.4171 561.683 76.5254 569.932 73.0725C578.18 69.4278 587.1 67.6054 596.692 67.6054C607.242 67.6054 616.546 69.4278 624.603 73.0725C632.659 76.5254 639.374 81.3212 644.745 87.4597C650.116 93.4064 654.144 100.408 656.83 108.465C659.707 116.522 661.146 125.154 661.146 134.362Z"/>
<path d="M774.881 102.998C772.004 97.4348 767.591 92.9268 761.645 89.4739C755.89 85.8291 749.272 84.0068 741.791 84.0068C738.338 84.0068 734.885 84.3904 731.432 85.1577C727.979 85.925 724.91 87.1719 722.224 88.8984C719.538 90.6248 717.332 92.8309 715.606 95.5165C714.071 98.2021 713.304 101.367 713.304 105.012C713.304 111.342 715.894 116.234 721.073 119.687C726.252 122.948 734.405 125.729 745.531 128.031C761.453 131.293 773.155 136.088 780.636 142.419C788.309 148.557 792.146 156.902 792.146 167.452C792.146 175.125 790.611 181.648 787.542 187.019C784.664 192.198 780.828 196.514 776.032 199.967C771.236 203.228 765.769 205.53 759.631 206.873C753.684 208.408 747.641 209.175 741.503 209.175C731.336 209.175 721.457 207.065 711.865 202.845C702.274 198.624 694.409 192.006 688.27 182.99L703.808 171.481C707.261 177.427 712.345 182.415 719.059 186.443C725.773 190.472 733.158 192.486 741.215 192.486C745.435 192.486 749.464 192.102 753.3 191.335C757.137 190.568 760.494 189.225 763.371 187.307C766.249 185.388 768.551 182.99 770.277 180.113C772.004 177.044 772.867 173.303 772.867 168.891C772.867 161.793 769.414 156.518 762.508 153.065C755.794 149.42 746.011 146.063 733.158 142.994C729.13 142.035 724.814 140.884 720.21 139.541C715.798 138.007 711.673 135.896 707.837 133.211C704 130.333 700.835 126.785 698.341 122.564C695.848 118.344 694.601 113.069 694.601 106.738C694.601 99.8326 695.943 93.9818 698.629 89.1861C701.315 84.1986 704.864 80.1702 709.276 77.1009C713.88 73.8398 719.059 71.442 724.814 69.9073C730.569 68.3727 736.515 67.6054 742.654 67.6054C752.053 67.6054 761.165 69.7155 769.989 73.9357C778.813 78.156 785.432 84.1027 789.844 91.7758L774.881 102.998Z"/>
<path d="M902.736 102.998C899.858 97.4348 895.446 92.9268 889.499 89.4739C883.745 85.8291 877.126 84.0068 869.645 84.0068C866.192 84.0068 862.739 84.3904 859.286 85.1577C855.833 85.925 852.764 87.1719 850.079 88.8984C847.393 90.6248 845.187 92.8309 843.46 95.5165C841.926 98.2021 841.158 101.367 841.158 105.012C841.158 111.342 843.748 116.234 848.928 119.687C854.107 122.948 862.26 125.729 873.386 128.031C889.308 131.293 901.009 136.088 908.49 142.419C916.164 148.557 920 156.902 920 167.452C920 175.125 918.465 181.648 915.396 187.019C912.519 192.198 908.682 196.514 903.887 199.967C899.091 203.228 893.624 205.53 887.485 206.873C881.538 208.408 875.496 209.175 869.357 209.175C859.19 209.175 849.311 207.065 839.72 202.845C830.128 198.624 822.263 192.006 816.125 182.99L831.663 171.481C835.116 177.427 840.199 182.415 846.913 186.443C853.627 190.472 861.013 192.486 869.07 192.486C873.29 192.486 877.318 192.102 881.155 191.335C884.991 190.568 888.348 189.225 891.226 187.307C894.103 185.388 896.405 182.99 898.132 180.113C899.858 177.044 900.721 173.303 900.721 168.891C900.721 161.793 897.268 156.518 890.363 153.065C883.649 149.42 873.865 146.063 861.013 142.994C856.984 142.035 852.668 140.884 848.064 139.541C843.652 138.007 839.528 135.896 835.691 133.211C831.855 130.333 828.69 126.785 826.196 122.564C823.702 118.344 822.455 113.069 822.455 106.738C822.455 99.8326 823.798 93.9818 826.484 89.1861C829.169 84.1986 832.718 80.1702 837.13 77.1009C841.734 73.8398 846.913 71.442 852.668 69.9073C858.423 68.3727 864.37 67.6054 870.508 67.6054C879.908 67.6054 889.02 69.7155 897.844 73.9357C906.668 78.156 913.286 84.1027 917.698 91.7758L902.736 102.998Z"/>
</mask>
<path d="M-1035 2H-967.38C-954.72 2 -942.059 4.11011 -929.398 8.33033C-916.546 12.5506 -905.036 18.9768 -894.869 27.6091C-884.51 36.0496 -876.166 46.6961 -869.835 59.5486C-863.505 72.2093 -860.34 86.9801 -860.34 103.861C-860.34 120.934 -863.505 135.8 -869.835 148.461C-876.166 161.122 -884.51 171.768 -894.869 180.401C-905.036 188.841 -916.546 195.171 -929.398 199.392C-942.059 203.612 -954.72 205.722 -967.38 205.722H-1035V2ZM-1014.28 187.307H-973.135C-957.789 187.307 -944.457 184.909 -933.139 180.113C-921.629 175.317 -912.134 169.083 -904.652 161.41C-897.171 153.545 -891.608 144.625 -887.963 134.65C-884.127 124.674 -882.208 114.412 -882.208 103.861C-882.208 93.3104 -884.127 83.0476 -887.963 73.0725C-891.608 63.0974 -897.171 54.2733 -904.652 46.6002C-912.134 38.7352 -921.629 32.4048 -933.139 27.6091C-944.457 22.8134 -957.789 20.4155 -973.135 20.4155H-1014.28V187.307Z" stroke="white" stroke-width="2.34056" mask="url(#path-1-outside-1_10_739)"/>
<path d="M-715.652 128.031C-716.228 115.371 -720.352 104.916 -728.025 96.6674C-735.507 88.227 -746.249 84.0068 -760.253 84.0068C-766.775 84.0068 -772.817 85.2536 -778.38 87.7474C-783.943 90.0493 -788.835 93.3104 -793.055 97.5307C-797.276 101.559 -800.633 106.259 -803.126 111.63C-805.62 116.809 -807.059 122.277 -807.442 128.031H-715.652ZM-695.798 134.362C-695.798 135.705 -695.798 137.143 -695.798 138.678C-695.798 140.213 -695.894 141.843 -696.086 143.57H-807.73C-807.538 150.284 -806.196 156.614 -803.702 162.561C-801.208 168.507 -797.755 173.687 -793.343 178.099C-788.931 182.511 -783.752 186.06 -777.805 188.745C-771.858 191.239 -765.432 192.486 -758.526 192.486C-748.359 192.486 -739.631 190.184 -732.342 185.58C-724.86 180.784 -719.201 175.317 -715.365 169.179L-700.69 180.688C-708.747 190.855 -717.667 198.145 -727.45 202.557C-737.041 206.969 -747.4 209.175 -758.526 209.175C-768.501 209.175 -777.805 207.449 -786.437 203.996C-794.878 200.351 -802.167 195.363 -808.306 189.033C-814.444 182.703 -819.336 175.221 -822.981 166.589C-826.434 157.957 -828.16 148.557 -828.16 138.39C-828.16 128.223 -826.434 118.824 -822.981 110.191C-819.528 101.559 -814.732 94.0778 -808.593 87.7474C-802.455 81.4171 -795.261 76.5254 -787.013 73.0725C-778.764 69.4278 -769.844 67.6054 -760.253 67.6054C-749.702 67.6054 -740.398 69.4278 -732.342 73.0725C-724.285 76.5254 -717.571 81.3212 -712.2 87.4597C-706.828 93.4064 -702.8 100.408 -700.114 108.465C-697.237 116.522 -695.798 125.154 -695.798 134.362Z" stroke="white" stroke-width="2.34056" mask="url(#path-1-outside-1_10_739)"/>
<path d="M-582.063 102.998C-584.941 97.4348 -589.353 92.9268 -595.299 89.4739C-601.054 85.8291 -607.672 84.0068 -615.154 84.0068C-618.607 84.0068 -622.06 84.3904 -625.512 85.1577C-628.965 85.925 -632.035 87.1719 -634.72 88.8984C-637.406 90.6248 -639.612 92.8309 -641.338 95.5165C-642.873 98.2021 -643.64 101.367 -643.64 105.012C-643.64 111.342 -641.051 116.234 -635.871 119.687C-630.692 122.948 -622.539 125.729 -611.413 128.031C-595.491 131.293 -583.79 136.088 -576.308 142.419C-568.635 148.557 -564.799 156.902 -564.799 167.452C-564.799 175.125 -566.333 181.648 -569.403 187.019C-572.28 192.198 -576.117 196.514 -580.912 199.967C-585.708 203.228 -591.175 205.53 -597.314 206.873C-603.26 208.408 -609.303 209.175 -615.441 209.175C-625.608 209.175 -635.488 207.065 -645.079 202.845C-654.67 198.624 -662.535 192.006 -668.674 182.99L-653.136 171.481C-649.683 177.427 -644.599 182.415 -637.885 186.443C-631.171 190.472 -623.786 192.486 -615.729 192.486C-611.509 192.486 -607.481 192.102 -603.644 191.335C-599.807 190.568 -596.45 189.225 -593.573 187.307C-590.696 185.388 -588.394 182.99 -586.667 180.113C-584.941 177.044 -584.077 173.303 -584.077 168.891C-584.077 161.793 -587.53 156.518 -594.436 153.065C-601.15 149.42 -610.934 146.063 -623.786 142.994C-627.814 142.035 -632.131 140.884 -636.734 139.541C-641.147 138.007 -645.271 135.896 -649.107 133.211C-652.944 130.333 -656.109 126.785 -658.603 122.564C-661.097 118.344 -662.344 113.069 -662.344 106.738C-662.344 99.8326 -661.001 93.9818 -658.315 89.1861C-655.63 84.1986 -652.081 80.1702 -647.669 77.1009C-643.065 73.8398 -637.885 71.442 -632.131 69.9073C-626.376 68.3727 -620.429 67.6054 -614.29 67.6054C-604.891 67.6054 -595.779 69.7155 -586.955 73.9357C-578.131 78.156 -571.513 84.1027 -567.101 91.7758L-582.063 102.998Z" stroke="white" stroke-width="2.34056" mask="url(#path-1-outside-1_10_739)"/>
<path d="M-506.003 205.722H-525.569V71.0583H-506.003V205.722ZM-501.974 19.2646C-501.974 23.293 -503.413 26.65 -506.29 29.3356C-509.168 31.8294 -512.333 33.0762 -515.786 33.0762C-519.239 33.0762 -522.404 31.8294 -525.281 29.3356C-528.159 26.65 -529.597 23.293 -529.597 19.2646C-529.597 15.2362 -528.159 11.9751 -525.281 9.48131C-522.404 6.79571 -519.239 5.45291 -515.786 5.45291C-512.333 5.45291 -509.168 6.79571 -506.29 9.48131C-503.413 11.9751 -501.974 15.2362 -501.974 19.2646Z" stroke="white" stroke-width="2.34056" mask="url(#path-1-outside-1_10_739)"/>
<path d="M-446.727 232.77C-441.356 239.676 -434.067 245.526 -424.859 250.322C-415.459 255.118 -405.58 257.516 -395.221 257.516C-385.63 257.516 -377.477 256.077 -370.763 253.2C-364.049 250.514 -358.678 246.773 -354.65 241.978C-350.429 237.182 -347.36 231.523 -345.442 225.001C-343.524 218.67 -342.564 211.861 -342.564 204.571V179.25H-343.14C-348.319 187.69 -355.705 194.212 -365.296 198.816C-374.696 203.42 -384.287 205.722 -394.07 205.722C-404.621 205.722 -414.212 203.996 -422.845 200.543C-431.285 197.09 -438.575 192.39 -444.713 186.443C-450.66 180.305 -455.36 173.015 -458.813 164.575C-462.074 156.134 -463.704 147.022 -463.704 137.239C-463.704 127.648 -462.074 118.632 -458.813 110.191C-455.36 101.751 -450.66 94.3655 -444.713 88.0352C-438.575 81.7048 -431.285 76.7173 -422.845 73.0725C-414.212 69.4278 -404.621 67.6054 -394.07 67.6054C-384.287 67.6054 -374.696 69.9073 -365.296 74.5112C-355.896 79.1151 -348.511 85.7332 -343.14 94.3655H-342.564V71.0583H-322.998V204.571C-322.998 211.861 -324.053 219.63 -326.163 227.878C-328.081 236.127 -331.822 243.704 -337.385 250.61C-342.756 257.516 -350.142 263.271 -359.541 267.875C-368.941 272.478 -381.122 274.78 -396.085 274.78C-408.554 274.78 -420.447 272.383 -431.765 267.587C-443.083 262.791 -452.77 256.173 -460.827 247.733L-446.727 232.77ZM-442.987 136.664C-442.987 143.761 -441.836 150.475 -439.534 156.806C-437.232 163.136 -433.971 168.699 -429.751 173.495C-425.339 178.291 -419.967 182.127 -413.637 185.005C-407.307 187.69 -400.113 189.033 -392.056 189.033C-384.575 189.033 -377.669 187.786 -371.339 185.292C-365.008 182.799 -359.541 179.25 -354.937 174.646C-350.334 170.042 -346.785 164.575 -344.291 158.244C-341.605 151.722 -340.263 144.529 -340.263 136.664C-340.263 129.566 -341.605 122.852 -344.291 116.522C-346.785 110.191 -350.334 104.628 -354.937 99.8326C-359.541 95.0369 -365.008 91.2003 -371.339 88.3229C-377.669 85.4455 -384.575 84.0068 -392.056 84.0068C-400.113 84.0068 -407.307 85.4455 -413.637 88.3229C-419.967 91.2003 -425.339 95.0369 -429.751 99.8326C-433.971 104.628 -437.232 110.191 -439.534 116.522C-441.836 122.852 -442.987 129.566 -442.987 136.664Z" stroke="white" stroke-width="2.34056" mask="url(#path-1-outside-1_10_739)"/>
<path d="M-254.562 71.0583C-254.179 74.7031 -253.891 78.7315 -253.699 83.1435C-253.507 87.5556 -253.411 91.2003 -253.411 94.0778H-252.836C-248.999 86.2128 -242.765 79.8824 -234.133 75.0867C-225.5 70.0992 -216.388 67.6054 -206.797 67.6054C-189.724 67.6054 -176.968 72.6889 -168.527 82.8558C-159.895 93.0227 -155.579 106.451 -155.579 123.14V205.722H-175.145V131.197C-175.145 124.099 -175.721 117.673 -176.872 111.918C-178.023 106.163 -180.037 101.271 -182.914 97.2429C-185.6 93.0227 -189.341 89.7616 -194.136 87.4597C-198.74 85.1577 -204.591 84.0068 -211.689 84.0068C-216.868 84.0068 -221.951 85.0618 -226.939 87.1719C-231.735 89.282 -236.051 92.5431 -239.887 96.9552C-243.724 101.175 -246.793 106.643 -249.095 113.357C-251.397 119.879 -252.548 127.648 -252.548 136.664V205.722H-272.115V100.696C-272.115 97.0511 -272.211 92.3513 -272.402 86.5964C-272.594 80.8416 -272.882 75.6622 -273.266 71.0583H-254.562Z" stroke="white" stroke-width="2.34056" mask="url(#path-1-outside-1_10_739)"/>
<path d="M-31.8335 2H25.7151C36.0739 2 45.4735 3.15097 53.9139 5.45291C62.3544 7.56302 69.548 10.92 75.4946 15.5239C81.6332 19.936 86.333 25.5949 89.5941 32.5007C92.8552 39.2148 94.4857 47.1756 94.4857 56.3834C94.4857 65.5912 92.7593 73.648 89.3063 80.5538C86.0452 87.2678 81.3455 92.9268 75.2069 97.5307C69.2603 101.943 61.9707 105.3 53.3384 107.602C44.8979 109.904 35.4983 111.055 25.1396 111.055H-11.116V205.722H-31.8335V2ZM-11.116 93.5023H23.9886C40.2941 93.5023 52.667 90.3371 61.1074 84.0068C69.548 77.6764 73.7682 68.4686 73.7682 56.3834C73.7682 43.7227 69.3562 34.5149 60.5321 28.7601C51.8998 22.8134 39.7186 19.8401 23.9886 19.8401H-11.116V93.5023Z" stroke="white" stroke-width="2.34056" mask="url(#path-1-outside-1_10_739)"/>
<path d="M120.16 100.696C120.16 97.0511 120.064 92.3513 119.872 86.5964C119.68 80.8416 119.393 75.6622 119.009 71.0583H137.712C138.096 74.7031 138.384 78.7315 138.576 83.1435C138.767 87.5556 138.863 91.2003 138.863 94.0778H139.439C143.275 86.2128 149.03 79.8824 156.703 75.0867C164.376 70.0992 173.009 67.6054 182.6 67.6054C185.094 67.6054 187.3 67.7013 189.218 67.8931C191.328 68.085 193.439 68.4686 195.549 69.0441L192.959 87.4597C191.808 87.076 189.89 86.6924 187.204 86.3087C184.519 85.925 181.833 85.7332 179.147 85.7332C173.968 85.7332 168.98 86.6924 164.185 88.6106C159.389 90.5289 155.169 93.5982 151.524 97.8184C148.071 101.847 145.194 107.122 142.892 113.644C140.782 119.975 139.727 127.648 139.727 136.664V205.722H120.16V100.696Z" stroke="white" stroke-width="2.34056" mask="url(#path-1-outside-1_10_739)"/>
<path d="M352.591 138.39C352.591 148.557 350.769 157.957 347.124 166.589C343.671 175.221 338.779 182.703 332.449 189.033C326.119 195.363 318.542 200.351 309.718 203.996C300.893 207.449 291.206 209.175 280.655 209.175C270.297 209.175 260.705 207.449 251.881 203.996C243.057 200.351 235.48 195.363 229.149 189.033C222.819 182.703 217.832 175.221 214.187 166.589C210.734 157.957 209.007 148.557 209.007 138.39C209.007 128.223 210.734 118.824 214.187 110.191C217.832 101.559 222.819 94.0778 229.149 87.7474C235.48 81.4171 243.057 76.5254 251.881 73.0725C260.705 69.4278 270.297 67.6054 280.655 67.6054C291.206 67.6054 300.893 69.4278 309.718 73.0725C318.542 76.5254 326.119 81.4171 332.449 87.7474C338.779 94.0778 343.671 101.559 347.124 110.191C350.769 118.824 352.591 128.223 352.591 138.39ZM331.874 138.39C331.874 130.909 330.627 123.907 328.133 117.385C325.831 110.671 322.474 104.916 318.062 100.12C313.65 95.1328 308.279 91.2003 301.948 88.3229C295.618 85.4455 288.52 84.0068 280.655 84.0068C272.79 84.0068 265.693 85.4455 259.362 88.3229C253.224 91.2003 247.949 95.1328 243.536 100.12C239.125 104.916 235.672 110.671 233.178 117.385C230.876 123.907 229.725 130.909 229.725 138.39C229.725 145.871 230.876 152.969 233.178 159.683C235.672 166.205 239.125 171.96 243.536 176.948C247.949 181.743 253.224 185.58 259.362 188.457C265.693 191.143 272.79 192.486 280.655 192.486C288.52 192.486 295.618 191.143 301.948 188.457C308.279 185.58 313.65 181.743 318.062 176.948C322.474 171.96 325.831 166.205 328.133 159.683C330.627 152.969 331.874 145.871 331.874 138.39Z" stroke="white" stroke-width="2.34056" mask="url(#path-1-outside-1_10_739)"/>
<path d="M491.665 101.847C488.404 96.6674 483.609 92.4472 477.278 89.1861C471.14 85.7332 464.426 84.0068 457.136 84.0068C449.271 84.0068 442.174 85.4455 435.843 88.3229C429.513 91.0085 424.046 94.8451 419.442 99.8326C415.03 104.628 411.577 110.383 409.083 117.097C406.781 123.619 405.63 130.717 405.63 138.39C405.63 146.063 406.781 153.161 409.083 159.683C411.577 166.205 415.03 171.96 419.442 176.948C423.854 181.743 429.225 185.58 435.556 188.457C441.886 191.143 448.984 192.486 456.849 192.486C465.481 192.486 472.77 190.855 478.717 187.594C484.664 184.333 489.555 180.113 493.392 174.934L508.067 185.868C502.312 192.965 495.214 198.624 486.774 202.845C478.525 207.065 468.55 209.175 456.849 209.175C445.914 209.175 436.035 207.449 427.211 203.996C418.387 200.351 410.81 195.363 404.479 189.033C398.341 182.703 393.545 175.221 390.092 166.589C386.639 157.957 384.913 148.557 384.913 138.39C384.913 128.223 386.639 118.824 390.092 110.191C393.545 101.559 398.341 94.0778 404.479 87.7474C410.81 81.4171 418.387 76.5254 427.211 73.0725C436.035 69.4278 445.914 67.6054 456.849 67.6054C465.865 67.6054 474.976 69.6196 484.184 73.648C493.584 77.4846 501.161 83.2394 506.916 90.9126L491.665 101.847Z" stroke="white" stroke-width="2.34056" mask="url(#path-1-outside-1_10_739)"/>
<path d="M641.292 128.031C640.716 115.371 636.592 104.916 628.919 96.6674C621.438 88.227 610.695 84.0068 596.692 84.0068C590.169 84.0068 584.127 85.2536 578.564 87.7474C573.001 90.0493 568.109 93.3104 563.889 97.5307C559.669 101.559 556.312 106.259 553.818 111.63C551.324 116.809 549.885 122.277 549.502 128.031H641.292ZM661.146 134.362C661.146 135.705 661.146 137.143 661.146 138.678C661.146 140.213 661.05 141.843 660.858 143.57H549.214C549.406 150.284 550.749 156.614 553.242 162.561C555.736 168.507 559.189 173.687 563.601 178.099C568.013 182.511 573.193 186.06 579.139 188.745C585.086 191.239 591.512 192.486 598.418 192.486C608.585 192.486 617.313 190.184 624.603 185.58C632.084 180.784 637.743 175.317 641.58 169.179L656.254 180.688C648.198 190.855 639.278 198.145 629.494 202.557C619.903 206.969 609.544 209.175 598.418 209.175C588.443 209.175 579.139 207.449 570.507 203.996C562.067 200.351 554.777 195.363 548.639 189.033C542.5 182.703 537.608 175.221 533.964 166.589C530.511 157.957 528.784 148.557 528.784 138.39C528.784 128.223 530.511 118.824 533.964 110.191C537.417 101.559 542.212 94.0778 548.351 87.7474C554.489 81.4171 561.683 76.5254 569.932 73.0725C578.18 69.4278 587.1 67.6054 596.692 67.6054C607.242 67.6054 616.546 69.4278 624.603 73.0725C632.659 76.5254 639.374 81.3212 644.745 87.4597C650.116 93.4064 654.144 100.408 656.83 108.465C659.707 116.522 661.146 125.154 661.146 134.362Z" stroke="white" stroke-width="2.34056" mask="url(#path-1-outside-1_10_739)"/>
<path d="M774.881 102.998C772.004 97.4348 767.591 92.9268 761.645 89.4739C755.89 85.8291 749.272 84.0068 741.791 84.0068C738.338 84.0068 734.885 84.3904 731.432 85.1577C727.979 85.925 724.91 87.1719 722.224 88.8984C719.538 90.6248 717.332 92.8309 715.606 95.5165C714.071 98.2021 713.304 101.367 713.304 105.012C713.304 111.342 715.894 116.234 721.073 119.687C726.252 122.948 734.405 125.729 745.531 128.031C761.453 131.293 773.155 136.088 780.636 142.419C788.309 148.557 792.146 156.902 792.146 167.452C792.146 175.125 790.611 181.648 787.542 187.019C784.664 192.198 780.828 196.514 776.032 199.967C771.236 203.228 765.769 205.53 759.631 206.873C753.684 208.408 747.641 209.175 741.503 209.175C731.336 209.175 721.457 207.065 711.865 202.845C702.274 198.624 694.409 192.006 688.27 182.99L703.808 171.481C707.261 177.427 712.345 182.415 719.059 186.443C725.773 190.472 733.158 192.486 741.215 192.486C745.435 192.486 749.464 192.102 753.3 191.335C757.137 190.568 760.494 189.225 763.371 187.307C766.249 185.388 768.551 182.99 770.277 180.113C772.004 177.044 772.867 173.303 772.867 168.891C772.867 161.793 769.414 156.518 762.508 153.065C755.794 149.42 746.011 146.063 733.158 142.994C729.13 142.035 724.814 140.884 720.21 139.541C715.798 138.007 711.673 135.896 707.837 133.211C704 130.333 700.835 126.785 698.341 122.564C695.848 118.344 694.601 113.069 694.601 106.738C694.601 99.8326 695.943 93.9818 698.629 89.1861C701.315 84.1986 704.864 80.1702 709.276 77.1009C713.88 73.8398 719.059 71.442 724.814 69.9073C730.569 68.3727 736.515 67.6054 742.654 67.6054C752.053 67.6054 761.165 69.7155 769.989 73.9357C778.813 78.156 785.432 84.1027 789.844 91.7758L774.881 102.998Z" stroke="white" stroke-width="2.34056" mask="url(#path-1-outside-1_10_739)"/>
<path d="M902.736 102.998C899.858 97.4348 895.446 92.9268 889.499 89.4739C883.745 85.8291 877.126 84.0068 869.645 84.0068C866.192 84.0068 862.739 84.3904 859.286 85.1577C855.833 85.925 852.764 87.1719 850.079 88.8984C847.393 90.6248 845.187 92.8309 843.46 95.5165C841.926 98.2021 841.158 101.367 841.158 105.012C841.158 111.342 843.748 116.234 848.928 119.687C854.107 122.948 862.26 125.729 873.386 128.031C889.308 131.293 901.009 136.088 908.49 142.419C916.164 148.557 920 156.902 920 167.452C920 175.125 918.465 181.648 915.396 187.019C912.519 192.198 908.682 196.514 903.887 199.967C899.091 203.228 893.624 205.53 887.485 206.873C881.538 208.408 875.496 209.175 869.357 209.175C859.19 209.175 849.311 207.065 839.72 202.845C830.128 198.624 822.263 192.006 816.125 182.99L831.663 171.481C835.116 177.427 840.199 182.415 846.913 186.443C853.627 190.472 861.013 192.486 869.07 192.486C873.29 192.486 877.318 192.102 881.155 191.335C884.991 190.568 888.348 189.225 891.226 187.307C894.103 185.388 896.405 182.99 898.132 180.113C899.858 177.044 900.721 173.303 900.721 168.891C900.721 161.793 897.268 156.518 890.363 153.065C883.649 149.42 873.865 146.063 861.013 142.994C856.984 142.035 852.668 140.884 848.064 139.541C843.652 138.007 839.528 135.896 835.691 133.211C831.855 130.333 828.69 126.785 826.196 122.564C823.702 118.344 822.455 113.069 822.455 106.738C822.455 99.8326 823.798 93.9818 826.484 89.1861C829.169 84.1986 832.718 80.1702 837.13 77.1009C841.734 73.8398 846.913 71.442 852.668 69.9073C858.423 68.3727 864.37 67.6054 870.508 67.6054C879.908 67.6054 889.02 69.7155 897.844 73.9357C906.668 78.156 913.286 84.1027 917.698 91.7758L902.736 102.998Z" stroke="white" stroke-width="2.34056" mask="url(#path-1-outside-1_10_739)"/>
</g>
</svg>
