<svg width="709" height="162" viewBox="0 0 709 162" fill="none" xmlns="http://www.w3.org/2000/svg">
<g opacity="0.05">
<mask id="path-1-outside-1_54_1207" maskUnits="userSpaceOnUse" x="-434.54" y="0.0300293" width="1144" height="162" fill="black">
<rect fill="white" x="-434.54" y="0.0300293" width="1144" height="162"/>
<path d="M-369.199 157H-383.958V24.9885H-432.54V11.8694H-320.617V24.9885H-369.199V157ZM-246.082 101.654C-246.492 92.6341 -249.43 85.1863 -254.897 79.31C-260.226 73.2971 -267.879 70.2906 -277.855 70.2906C-282.502 70.2906 -286.806 71.1789 -290.769 72.9554C-294.732 74.5953 -298.217 76.9185 -301.224 79.925C-304.23 82.7948 -306.622 86.1429 -308.398 89.9693C-310.175 93.6591 -311.2 97.5538 -311.473 101.654H-246.082ZM-231.938 106.163C-231.938 107.12 -231.938 108.145 -231.938 109.238C-231.938 110.331 -232.007 111.493 -232.143 112.723H-311.678C-311.541 117.506 -310.585 122.016 -308.808 126.252C-307.032 130.488 -304.572 134.178 -301.429 137.321C-298.286 140.464 -294.596 142.993 -290.359 144.906C-286.123 146.682 -281.545 147.571 -276.625 147.571C-269.382 147.571 -263.164 145.931 -257.971 142.651C-252.642 139.234 -248.61 135.34 -245.877 130.967L-235.423 139.166C-241.163 146.409 -247.517 151.602 -254.487 154.745C-261.32 157.888 -268.699 159.46 -276.625 159.46C-283.731 159.46 -290.359 158.23 -296.509 155.77C-302.522 153.174 -307.715 149.62 -312.088 145.111C-316.461 140.601 -319.946 135.271 -322.542 129.122C-325.002 122.972 -326.232 116.276 -326.232 109.033C-326.232 101.79 -325.002 95.094 -322.542 88.9444C-320.082 82.7948 -316.666 77.4651 -312.293 72.9554C-307.92 68.4457 -302.795 64.9609 -296.919 62.5011C-291.043 59.9046 -284.688 58.6063 -277.855 58.6063C-270.339 58.6063 -263.711 59.9046 -257.971 62.5011C-252.232 64.9609 -247.449 68.3774 -243.622 72.7504C-239.796 76.9868 -236.926 81.9748 -235.013 87.7145C-232.963 93.4541 -231.938 99.6037 -231.938 106.163ZM-150.914 83.8197C-152.964 79.8566 -156.107 76.6452 -160.343 74.1853C-164.443 71.5888 -169.158 70.2906 -174.487 70.2906C-176.947 70.2906 -179.407 70.5639 -181.867 71.1105C-184.327 71.6572 -186.513 72.5454 -188.427 73.7754C-190.34 75.0053 -191.911 76.5768 -193.141 78.4901C-194.235 80.4033 -194.781 82.6581 -194.781 85.2546C-194.781 89.7643 -192.936 93.2491 -189.247 95.7089C-185.557 98.0321 -179.749 100.014 -171.823 101.654C-160.48 103.977 -152.144 107.393 -146.814 111.903C-141.348 116.276 -138.615 122.221 -138.615 129.737C-138.615 135.203 -139.708 139.849 -141.895 143.676C-143.944 147.366 -146.678 150.44 -150.094 152.9C-153.51 155.223 -157.405 156.863 -161.778 157.82C-166.015 158.913 -170.319 159.46 -174.692 159.46C-181.935 159.46 -188.973 157.957 -195.806 154.95C-202.639 151.944 -208.242 147.229 -212.615 140.806L-201.546 132.607C-199.086 136.843 -195.464 140.396 -190.681 143.266C-185.898 146.136 -180.637 147.571 -174.897 147.571C-171.891 147.571 -169.021 147.297 -166.288 146.751C-163.555 146.204 -161.163 145.247 -159.113 143.881C-157.064 142.514 -155.424 140.806 -154.194 138.756C-152.964 136.57 -152.349 133.905 -152.349 130.762C-152.349 125.705 -154.809 121.947 -159.728 119.487C-164.511 116.891 -171.481 114.499 -180.637 112.313C-183.507 111.63 -186.582 110.81 -189.861 109.853C-193.005 108.76 -195.943 107.257 -198.676 105.343C-201.409 103.293 -203.664 100.765 -205.44 97.7588C-207.217 94.7523 -208.105 90.9942 -208.105 86.4845C-208.105 81.5648 -207.149 77.3968 -205.235 73.9803C-203.322 70.4272 -200.794 67.5574 -197.651 65.3709C-194.371 63.0477 -190.681 61.3395 -186.582 60.2462C-182.482 59.153 -178.246 58.6063 -173.872 58.6063C-167.176 58.6063 -160.685 60.1096 -154.399 63.1161C-148.113 66.1225 -143.398 70.3589 -140.255 75.8252L-150.914 83.8197ZM-67.6205 72.7504H-94.6788V128.712C-94.6788 132.265 -94.3372 135.203 -93.6539 137.526C-92.9706 139.849 -92.014 141.694 -90.7841 143.061C-89.4175 144.291 -87.8459 145.179 -86.0693 145.726C-84.2928 146.136 -82.3796 146.341 -80.3297 146.341C-78.4165 146.341 -76.435 146.067 -74.3851 145.521C-72.1986 144.974 -70.1487 144.222 -68.2355 143.266L-67.6205 155.36C-70.0804 156.317 -72.6769 157 -75.41 157.41C-78.0065 157.957 -80.8763 158.23 -84.0195 158.23C-86.616 158.23 -89.3492 157.888 -92.219 157.205C-95.0888 156.522 -97.7536 155.223 -100.213 153.31C-102.673 151.397 -104.723 148.8 -106.363 145.521C-107.866 142.241 -108.618 137.936 -108.618 132.607V72.7504H-128.502V61.0662H-108.618V34.0079H-94.6788V61.0662H-67.6205V72.7504ZM-31.6694 157H-45.6085V61.0662H-31.6694V157ZM-28.7996 24.1686C-28.7996 27.0384 -29.8246 29.4299 -31.8744 31.3431C-33.9243 33.1197 -36.1791 34.0079 -38.639 34.0079C-41.0988 34.0079 -43.3537 33.1197 -45.4035 31.3431C-47.4534 29.4299 -48.4783 27.0384 -48.4783 24.1686C-48.4783 21.2988 -47.4534 18.9756 -45.4035 17.199C-43.3537 15.2858 -41.0988 14.3292 -38.639 14.3292C-36.1791 14.3292 -33.9243 15.2858 -31.8744 17.199C-29.8246 18.9756 -28.7996 21.2988 -28.7996 24.1686ZM19.1672 77.4651C21.9004 71.8622 26.0685 67.3524 31.6714 63.936C37.4111 60.3829 43.7657 58.6063 50.7352 58.6063C53.3317 58.6063 55.9965 58.8797 58.7297 59.4263C61.5995 59.9729 64.3326 61.0662 66.9291 62.7061C69.6623 64.2093 72.1221 66.2592 74.3087 68.8557C76.6318 71.4522 78.6134 74.8003 80.2533 78.9C83.5331 72.3405 87.9744 67.3524 93.5774 63.936C99.317 60.3829 106.082 58.6063 113.871 58.6063C126.034 58.6063 135.121 62.2278 141.134 69.4706C147.284 76.7135 150.359 86.2795 150.359 98.1688V157H136.42V103.908C136.42 93.7957 134.506 85.6646 130.68 79.515C126.99 73.3654 120.636 70.2906 111.616 70.2906C106.56 70.2906 102.255 71.3155 98.7021 73.3654C95.2856 75.4153 92.4841 78.1484 90.2976 81.5648C88.2477 84.8446 86.7445 88.6027 85.7879 92.8391C84.8313 97.0755 84.353 101.449 84.353 105.958V157H70.4139V101.039C70.4139 96.3922 70.0723 92.1558 69.389 88.3294C68.7057 84.503 67.4758 81.2915 65.6992 78.695C64.0593 75.9619 61.7361 73.912 58.7297 72.5454C55.7232 71.0422 51.8968 70.2906 47.2504 70.2906C43.9706 70.2906 40.6225 71.0422 37.2061 72.5454C33.9263 74.0487 30.9198 76.3719 28.1867 79.515C25.5902 82.5215 23.472 86.4162 21.8321 91.1992C20.1922 95.8456 19.3722 101.38 19.3722 107.803V157H5.43314V82.1798C5.43314 79.5833 5.36481 76.2352 5.22815 72.1355C5.09149 68.0357 4.88651 64.346 4.61319 61.0662H17.9373C18.2106 63.6627 18.4156 66.5325 18.5523 69.6756C18.6889 72.8188 18.7573 75.4153 18.7573 77.4651H19.1672ZM281.717 109.033C281.717 116.276 280.419 122.972 277.822 129.122C275.362 135.271 271.877 140.601 267.368 145.111C262.858 149.62 257.46 153.174 251.174 155.77C244.888 158.23 237.986 159.46 230.47 159.46C223.091 159.46 216.258 158.23 209.971 155.77C203.685 153.174 198.287 149.62 193.777 145.111C189.268 140.601 185.715 135.271 183.118 129.122C180.658 122.972 179.428 116.276 179.428 109.033C179.428 101.79 180.658 95.094 183.118 88.9444C185.715 82.7948 189.268 77.4651 193.777 72.9554C198.287 68.4457 203.685 64.9609 209.971 62.5011C216.258 59.9046 223.091 58.6063 230.47 58.6063C237.986 58.6063 244.888 59.9046 251.174 62.5011C257.46 64.9609 262.858 68.4457 267.368 72.9554C271.877 77.4651 275.362 82.7948 277.822 88.9444C280.419 95.094 281.717 101.79 281.717 109.033ZM266.958 109.033C266.958 103.703 266.069 98.7154 264.293 94.069C262.653 89.286 260.261 85.1863 257.118 81.7698C253.975 78.2167 250.149 75.4153 245.639 73.3654C241.129 71.3155 236.073 70.2906 230.47 70.2906C224.867 70.2906 219.811 71.3155 215.301 73.3654C210.928 75.4153 207.17 78.2167 204.027 81.7698C200.884 85.1863 198.424 89.286 196.647 94.069C195.007 98.7154 194.187 103.703 194.187 109.033C194.187 114.363 195.007 119.419 196.647 124.202C198.424 128.848 200.884 132.948 204.027 136.501C207.17 139.918 210.928 142.651 215.301 144.701C219.811 146.614 224.867 147.571 230.47 147.571C236.073 147.571 241.129 146.614 245.639 144.701C250.149 142.651 253.975 139.918 257.118 136.501C260.261 132.948 262.653 128.848 264.293 124.202C266.069 119.419 266.958 114.363 266.958 109.033ZM324.216 61.0662C324.49 63.6627 324.695 66.5325 324.831 69.6756C324.968 72.8188 325.036 75.4153 325.036 77.4651H325.446C328.179 71.8622 332.621 67.3524 338.77 63.936C344.92 60.3829 351.411 58.6063 358.244 58.6063C370.407 58.6063 379.494 62.2278 385.507 69.4706C391.657 76.7135 394.732 86.2795 394.732 98.1688V157H380.793V103.908C380.793 98.8521 380.383 94.274 379.563 90.1743C378.743 86.0746 377.308 82.5898 375.258 79.72C373.345 76.7135 370.68 74.3903 367.263 72.7504C363.984 71.1105 359.816 70.2906 354.759 70.2906C351.069 70.2906 347.448 71.0422 343.895 72.5454C340.479 74.0487 337.404 76.3719 334.671 79.515C331.937 82.5215 329.751 86.4162 328.111 91.1992C326.471 95.8456 325.651 101.38 325.651 107.803V157H311.712V82.1798C311.712 79.5833 311.644 76.2352 311.507 72.1355C311.37 68.0357 311.165 64.346 310.892 61.0662H324.216ZM444.965 157H431.026V61.0662H444.965V157ZM447.834 24.1686C447.834 27.0384 446.809 29.4299 444.76 31.3431C442.71 33.1197 440.455 34.0079 437.995 34.0079C435.535 34.0079 433.28 33.1197 431.23 31.3431C429.181 29.4299 428.156 27.0384 428.156 24.1686C428.156 21.2988 429.181 18.9756 431.23 17.199C433.28 15.2858 435.535 14.3292 437.995 14.3292C440.455 14.3292 442.71 15.2858 444.76 17.199C446.809 18.9756 447.834 21.2988 447.834 24.1686ZM542.538 95.094C542.538 86.7579 540.352 80.5399 535.979 76.4402C531.606 72.3405 525.251 70.2906 516.915 70.2906C511.175 70.2906 505.846 71.3155 500.926 73.3654C496.006 75.4153 491.838 78.1484 488.422 81.5648L480.632 72.3405C484.595 68.3774 489.788 65.0976 496.211 62.5011C502.771 59.9046 510.15 58.6063 518.35 58.6063C523.543 58.6063 528.394 59.358 532.904 60.8612C537.414 62.2278 541.377 64.346 544.793 67.2158C548.21 70.0856 550.874 73.707 552.788 78.0801C554.701 82.4531 555.657 87.5778 555.657 93.4541V135.476C555.657 139.166 555.794 142.993 556.067 146.956C556.341 150.919 556.751 154.267 557.297 157H544.793C544.383 154.677 544.041 152.149 543.768 149.415C543.495 146.682 543.358 144.017 543.358 141.421H542.948C538.575 147.844 533.587 152.49 527.984 155.36C522.518 158.093 515.89 159.46 508.1 159.46C504.411 159.46 500.584 158.913 496.621 157.82C492.795 156.863 489.242 155.223 485.962 152.9C482.819 150.577 480.154 147.571 477.967 143.881C475.918 140.191 474.893 135.681 474.893 130.352C474.893 122.972 476.737 117.164 480.427 112.928C484.254 108.555 489.31 105.343 495.596 103.293C501.883 101.107 509.057 99.7403 517.12 99.1937C525.319 98.5104 533.792 98.1688 542.538 98.1688V95.094ZM538.438 109.033C532.699 109.033 526.891 109.306 521.015 109.853C515.275 110.263 510.014 111.22 505.231 112.723C500.584 114.089 496.758 116.139 493.751 118.872C490.745 121.606 489.242 125.227 489.242 129.737C489.242 133.153 489.857 136.023 491.087 138.346C492.453 140.669 494.23 142.583 496.416 144.086C498.603 145.452 500.994 146.477 503.591 147.161C506.324 147.707 509.057 147.981 511.79 147.981C516.71 147.981 521.083 147.161 524.909 145.521C528.736 143.744 531.947 141.421 534.544 138.551C537.14 135.545 539.122 132.128 540.488 128.302C541.855 124.475 542.538 120.444 542.538 116.208V109.033H538.438ZM605.916 157H591.977V2.03003H605.916V157ZM694.256 83.8197C692.206 79.8566 689.062 76.6452 684.826 74.1853C680.726 71.5888 676.012 70.2906 670.682 70.2906C668.222 70.2906 665.762 70.5639 663.303 71.1105C660.843 71.6572 658.656 72.5454 656.743 73.7754C654.83 75.0053 653.258 76.5768 652.028 78.4901C650.935 80.4033 650.388 82.6581 650.388 85.2546C650.388 89.7643 652.233 93.2491 655.923 95.7089C659.613 98.0321 665.421 100.014 673.347 101.654C684.69 103.977 693.026 107.393 698.355 111.903C703.822 116.276 706.555 122.221 706.555 129.737C706.555 135.203 705.462 139.849 703.275 143.676C701.225 147.366 698.492 150.44 695.076 152.9C691.659 155.223 687.764 156.863 683.391 157.82C679.155 158.913 674.85 159.46 670.477 159.46C663.234 159.46 656.196 157.957 649.364 154.95C642.531 151.944 636.928 147.229 632.555 140.806L643.624 132.607C646.084 136.843 649.705 140.396 654.488 143.266C659.271 146.136 664.533 147.571 670.272 147.571C673.279 147.571 676.148 147.297 678.882 146.751C681.615 146.204 684.006 145.247 686.056 143.881C688.106 142.514 689.746 140.806 690.976 138.756C692.206 136.57 692.821 133.905 692.821 130.762C692.821 125.705 690.361 121.947 685.441 119.487C680.658 116.891 673.689 114.499 664.533 112.313C661.663 111.63 658.588 110.81 655.308 109.853C652.165 108.76 649.227 107.257 646.494 105.343C643.761 103.293 641.506 100.765 639.729 97.7588C637.953 94.7523 637.064 90.9942 637.064 86.4845C637.064 81.5648 638.021 77.3968 639.934 73.9803C641.847 70.4272 644.375 67.5574 647.519 65.3709C650.798 63.0477 654.488 61.3395 658.588 60.2462C662.688 59.153 666.924 58.6063 671.297 58.6063C677.993 58.6063 684.485 60.1096 690.771 63.1161C697.057 66.1225 701.772 70.3589 704.915 75.8252L694.256 83.8197Z"/>
</mask>
<path d="M-369.199 157H-383.958V24.9885H-432.54V11.8694H-320.617V24.9885H-369.199V157ZM-246.082 101.654C-246.492 92.6341 -249.43 85.1863 -254.897 79.31C-260.226 73.2971 -267.879 70.2906 -277.855 70.2906C-282.502 70.2906 -286.806 71.1789 -290.769 72.9554C-294.732 74.5953 -298.217 76.9185 -301.224 79.925C-304.23 82.7948 -306.622 86.1429 -308.398 89.9693C-310.175 93.6591 -311.2 97.5538 -311.473 101.654H-246.082ZM-231.938 106.163C-231.938 107.12 -231.938 108.145 -231.938 109.238C-231.938 110.331 -232.007 111.493 -232.143 112.723H-311.678C-311.541 117.506 -310.585 122.016 -308.808 126.252C-307.032 130.488 -304.572 134.178 -301.429 137.321C-298.286 140.464 -294.596 142.993 -290.359 144.906C-286.123 146.682 -281.545 147.571 -276.625 147.571C-269.382 147.571 -263.164 145.931 -257.971 142.651C-252.642 139.234 -248.61 135.34 -245.877 130.967L-235.423 139.166C-241.163 146.409 -247.517 151.602 -254.487 154.745C-261.32 157.888 -268.699 159.46 -276.625 159.46C-283.731 159.46 -290.359 158.23 -296.509 155.77C-302.522 153.174 -307.715 149.62 -312.088 145.111C-316.461 140.601 -319.946 135.271 -322.542 129.122C-325.002 122.972 -326.232 116.276 -326.232 109.033C-326.232 101.79 -325.002 95.094 -322.542 88.9444C-320.082 82.7948 -316.666 77.4651 -312.293 72.9554C-307.92 68.4457 -302.795 64.9609 -296.919 62.5011C-291.043 59.9046 -284.688 58.6063 -277.855 58.6063C-270.339 58.6063 -263.711 59.9046 -257.971 62.5011C-252.232 64.9609 -247.449 68.3774 -243.622 72.7504C-239.796 76.9868 -236.926 81.9748 -235.013 87.7145C-232.963 93.4541 -231.938 99.6037 -231.938 106.163ZM-150.914 83.8197C-152.964 79.8566 -156.107 76.6452 -160.343 74.1853C-164.443 71.5888 -169.158 70.2906 -174.487 70.2906C-176.947 70.2906 -179.407 70.5639 -181.867 71.1105C-184.327 71.6572 -186.513 72.5454 -188.427 73.7754C-190.34 75.0053 -191.911 76.5768 -193.141 78.4901C-194.235 80.4033 -194.781 82.6581 -194.781 85.2546C-194.781 89.7643 -192.936 93.2491 -189.247 95.7089C-185.557 98.0321 -179.749 100.014 -171.823 101.654C-160.48 103.977 -152.144 107.393 -146.814 111.903C-141.348 116.276 -138.615 122.221 -138.615 129.737C-138.615 135.203 -139.708 139.849 -141.895 143.676C-143.944 147.366 -146.678 150.44 -150.094 152.9C-153.51 155.223 -157.405 156.863 -161.778 157.82C-166.015 158.913 -170.319 159.46 -174.692 159.46C-181.935 159.46 -188.973 157.957 -195.806 154.95C-202.639 151.944 -208.242 147.229 -212.615 140.806L-201.546 132.607C-199.086 136.843 -195.464 140.396 -190.681 143.266C-185.898 146.136 -180.637 147.571 -174.897 147.571C-171.891 147.571 -169.021 147.297 -166.288 146.751C-163.555 146.204 -161.163 145.247 -159.113 143.881C-157.064 142.514 -155.424 140.806 -154.194 138.756C-152.964 136.57 -152.349 133.905 -152.349 130.762C-152.349 125.705 -154.809 121.947 -159.728 119.487C-164.511 116.891 -171.481 114.499 -180.637 112.313C-183.507 111.63 -186.582 110.81 -189.861 109.853C-193.005 108.76 -195.943 107.257 -198.676 105.343C-201.409 103.293 -203.664 100.765 -205.44 97.7588C-207.217 94.7523 -208.105 90.9942 -208.105 86.4845C-208.105 81.5648 -207.149 77.3968 -205.235 73.9803C-203.322 70.4272 -200.794 67.5574 -197.651 65.3709C-194.371 63.0477 -190.681 61.3395 -186.582 60.2462C-182.482 59.153 -178.246 58.6063 -173.872 58.6063C-167.176 58.6063 -160.685 60.1096 -154.399 63.1161C-148.113 66.1225 -143.398 70.3589 -140.255 75.8252L-150.914 83.8197ZM-67.6205 72.7504H-94.6788V128.712C-94.6788 132.265 -94.3372 135.203 -93.6539 137.526C-92.9706 139.849 -92.014 141.694 -90.7841 143.061C-89.4175 144.291 -87.8459 145.179 -86.0693 145.726C-84.2928 146.136 -82.3796 146.341 -80.3297 146.341C-78.4165 146.341 -76.435 146.067 -74.3851 145.521C-72.1986 144.974 -70.1487 144.222 -68.2355 143.266L-67.6205 155.36C-70.0804 156.317 -72.6769 157 -75.41 157.41C-78.0065 157.957 -80.8763 158.23 -84.0195 158.23C-86.616 158.23 -89.3492 157.888 -92.219 157.205C-95.0888 156.522 -97.7536 155.223 -100.213 153.31C-102.673 151.397 -104.723 148.8 -106.363 145.521C-107.866 142.241 -108.618 137.936 -108.618 132.607V72.7504H-128.502V61.0662H-108.618V34.0079H-94.6788V61.0662H-67.6205V72.7504ZM-31.6694 157H-45.6085V61.0662H-31.6694V157ZM-28.7996 24.1686C-28.7996 27.0384 -29.8246 29.4299 -31.8744 31.3431C-33.9243 33.1197 -36.1791 34.0079 -38.639 34.0079C-41.0988 34.0079 -43.3537 33.1197 -45.4035 31.3431C-47.4534 29.4299 -48.4783 27.0384 -48.4783 24.1686C-48.4783 21.2988 -47.4534 18.9756 -45.4035 17.199C-43.3537 15.2858 -41.0988 14.3292 -38.639 14.3292C-36.1791 14.3292 -33.9243 15.2858 -31.8744 17.199C-29.8246 18.9756 -28.7996 21.2988 -28.7996 24.1686ZM19.1672 77.4651C21.9004 71.8622 26.0685 67.3524 31.6714 63.936C37.4111 60.3829 43.7657 58.6063 50.7352 58.6063C53.3317 58.6063 55.9965 58.8797 58.7297 59.4263C61.5995 59.9729 64.3326 61.0662 66.9291 62.7061C69.6623 64.2093 72.1221 66.2592 74.3087 68.8557C76.6318 71.4522 78.6134 74.8003 80.2533 78.9C83.5331 72.3405 87.9744 67.3524 93.5774 63.936C99.317 60.3829 106.082 58.6063 113.871 58.6063C126.034 58.6063 135.121 62.2278 141.134 69.4706C147.284 76.7135 150.359 86.2795 150.359 98.1688V157H136.42V103.908C136.42 93.7957 134.506 85.6646 130.68 79.515C126.99 73.3654 120.636 70.2906 111.616 70.2906C106.56 70.2906 102.255 71.3155 98.7021 73.3654C95.2856 75.4153 92.4841 78.1484 90.2976 81.5648C88.2477 84.8446 86.7445 88.6027 85.7879 92.8391C84.8313 97.0755 84.353 101.449 84.353 105.958V157H70.4139V101.039C70.4139 96.3922 70.0723 92.1558 69.389 88.3294C68.7057 84.503 67.4758 81.2915 65.6992 78.695C64.0593 75.9619 61.7361 73.912 58.7297 72.5454C55.7232 71.0422 51.8968 70.2906 47.2504 70.2906C43.9706 70.2906 40.6225 71.0422 37.2061 72.5454C33.9263 74.0487 30.9198 76.3719 28.1867 79.515C25.5902 82.5215 23.472 86.4162 21.8321 91.1992C20.1922 95.8456 19.3722 101.38 19.3722 107.803V157H5.43314V82.1798C5.43314 79.5833 5.36481 76.2352 5.22815 72.1355C5.09149 68.0357 4.88651 64.346 4.61319 61.0662H17.9373C18.2106 63.6627 18.4156 66.5325 18.5523 69.6756C18.6889 72.8188 18.7573 75.4153 18.7573 77.4651H19.1672ZM281.717 109.033C281.717 116.276 280.419 122.972 277.822 129.122C275.362 135.271 271.877 140.601 267.368 145.111C262.858 149.62 257.46 153.174 251.174 155.77C244.888 158.23 237.986 159.46 230.47 159.46C223.091 159.46 216.258 158.23 209.971 155.77C203.685 153.174 198.287 149.62 193.777 145.111C189.268 140.601 185.715 135.271 183.118 129.122C180.658 122.972 179.428 116.276 179.428 109.033C179.428 101.79 180.658 95.094 183.118 88.9444C185.715 82.7948 189.268 77.4651 193.777 72.9554C198.287 68.4457 203.685 64.9609 209.971 62.5011C216.258 59.9046 223.091 58.6063 230.47 58.6063C237.986 58.6063 244.888 59.9046 251.174 62.5011C257.46 64.9609 262.858 68.4457 267.368 72.9554C271.877 77.4651 275.362 82.7948 277.822 88.9444C280.419 95.094 281.717 101.79 281.717 109.033ZM266.958 109.033C266.958 103.703 266.069 98.7154 264.293 94.069C262.653 89.286 260.261 85.1863 257.118 81.7698C253.975 78.2167 250.149 75.4153 245.639 73.3654C241.129 71.3155 236.073 70.2906 230.47 70.2906C224.867 70.2906 219.811 71.3155 215.301 73.3654C210.928 75.4153 207.17 78.2167 204.027 81.7698C200.884 85.1863 198.424 89.286 196.647 94.069C195.007 98.7154 194.187 103.703 194.187 109.033C194.187 114.363 195.007 119.419 196.647 124.202C198.424 128.848 200.884 132.948 204.027 136.501C207.17 139.918 210.928 142.651 215.301 144.701C219.811 146.614 224.867 147.571 230.47 147.571C236.073 147.571 241.129 146.614 245.639 144.701C250.149 142.651 253.975 139.918 257.118 136.501C260.261 132.948 262.653 128.848 264.293 124.202C266.069 119.419 266.958 114.363 266.958 109.033ZM324.216 61.0662C324.49 63.6627 324.695 66.5325 324.831 69.6756C324.968 72.8188 325.036 75.4153 325.036 77.4651H325.446C328.179 71.8622 332.621 67.3524 338.77 63.936C344.92 60.3829 351.411 58.6063 358.244 58.6063C370.407 58.6063 379.494 62.2278 385.507 69.4706C391.657 76.7135 394.732 86.2795 394.732 98.1688V157H380.793V103.908C380.793 98.8521 380.383 94.274 379.563 90.1743C378.743 86.0746 377.308 82.5898 375.258 79.72C373.345 76.7135 370.68 74.3903 367.263 72.7504C363.984 71.1105 359.816 70.2906 354.759 70.2906C351.069 70.2906 347.448 71.0422 343.895 72.5454C340.479 74.0487 337.404 76.3719 334.671 79.515C331.937 82.5215 329.751 86.4162 328.111 91.1992C326.471 95.8456 325.651 101.38 325.651 107.803V157H311.712V82.1798C311.712 79.5833 311.644 76.2352 311.507 72.1355C311.37 68.0357 311.165 64.346 310.892 61.0662H324.216ZM444.965 157H431.026V61.0662H444.965V157ZM447.834 24.1686C447.834 27.0384 446.809 29.4299 444.76 31.3431C442.71 33.1197 440.455 34.0079 437.995 34.0079C435.535 34.0079 433.28 33.1197 431.23 31.3431C429.181 29.4299 428.156 27.0384 428.156 24.1686C428.156 21.2988 429.181 18.9756 431.23 17.199C433.28 15.2858 435.535 14.3292 437.995 14.3292C440.455 14.3292 442.71 15.2858 444.76 17.199C446.809 18.9756 447.834 21.2988 447.834 24.1686ZM542.538 95.094C542.538 86.7579 540.352 80.5399 535.979 76.4402C531.606 72.3405 525.251 70.2906 516.915 70.2906C511.175 70.2906 505.846 71.3155 500.926 73.3654C496.006 75.4153 491.838 78.1484 488.422 81.5648L480.632 72.3405C484.595 68.3774 489.788 65.0976 496.211 62.5011C502.771 59.9046 510.15 58.6063 518.35 58.6063C523.543 58.6063 528.394 59.358 532.904 60.8612C537.414 62.2278 541.377 64.346 544.793 67.2158C548.21 70.0856 550.874 73.707 552.788 78.0801C554.701 82.4531 555.657 87.5778 555.657 93.4541V135.476C555.657 139.166 555.794 142.993 556.067 146.956C556.341 150.919 556.751 154.267 557.297 157H544.793C544.383 154.677 544.041 152.149 543.768 149.415C543.495 146.682 543.358 144.017 543.358 141.421H542.948C538.575 147.844 533.587 152.49 527.984 155.36C522.518 158.093 515.89 159.46 508.1 159.46C504.411 159.46 500.584 158.913 496.621 157.82C492.795 156.863 489.242 155.223 485.962 152.9C482.819 150.577 480.154 147.571 477.967 143.881C475.918 140.191 474.893 135.681 474.893 130.352C474.893 122.972 476.737 117.164 480.427 112.928C484.254 108.555 489.31 105.343 495.596 103.293C501.883 101.107 509.057 99.7403 517.12 99.1937C525.319 98.5104 533.792 98.1688 542.538 98.1688V95.094ZM538.438 109.033C532.699 109.033 526.891 109.306 521.015 109.853C515.275 110.263 510.014 111.22 505.231 112.723C500.584 114.089 496.758 116.139 493.751 118.872C490.745 121.606 489.242 125.227 489.242 129.737C489.242 133.153 489.857 136.023 491.087 138.346C492.453 140.669 494.23 142.583 496.416 144.086C498.603 145.452 500.994 146.477 503.591 147.161C506.324 147.707 509.057 147.981 511.79 147.981C516.71 147.981 521.083 147.161 524.909 145.521C528.736 143.744 531.947 141.421 534.544 138.551C537.14 135.545 539.122 132.128 540.488 128.302C541.855 124.475 542.538 120.444 542.538 116.208V109.033H538.438ZM605.916 157H591.977V2.03003H605.916V157ZM694.256 83.8197C692.206 79.8566 689.062 76.6452 684.826 74.1853C680.726 71.5888 676.012 70.2906 670.682 70.2906C668.222 70.2906 665.762 70.5639 663.303 71.1105C660.843 71.6572 658.656 72.5454 656.743 73.7754C654.83 75.0053 653.258 76.5768 652.028 78.4901C650.935 80.4033 650.388 82.6581 650.388 85.2546C650.388 89.7643 652.233 93.2491 655.923 95.7089C659.613 98.0321 665.421 100.014 673.347 101.654C684.69 103.977 693.026 107.393 698.355 111.903C703.822 116.276 706.555 122.221 706.555 129.737C706.555 135.203 705.462 139.849 703.275 143.676C701.225 147.366 698.492 150.44 695.076 152.9C691.659 155.223 687.764 156.863 683.391 157.82C679.155 158.913 674.85 159.46 670.477 159.46C663.234 159.46 656.196 157.957 649.364 154.95C642.531 151.944 636.928 147.229 632.555 140.806L643.624 132.607C646.084 136.843 649.705 140.396 654.488 143.266C659.271 146.136 664.533 147.571 670.272 147.571C673.279 147.571 676.148 147.297 678.882 146.751C681.615 146.204 684.006 145.247 686.056 143.881C688.106 142.514 689.746 140.806 690.976 138.756C692.206 136.57 692.821 133.905 692.821 130.762C692.821 125.705 690.361 121.947 685.441 119.487C680.658 116.891 673.689 114.499 664.533 112.313C661.663 111.63 658.588 110.81 655.308 109.853C652.165 108.76 649.227 107.257 646.494 105.343C643.761 103.293 641.506 100.765 639.729 97.7588C637.953 94.7523 637.064 90.9942 637.064 86.4845C637.064 81.5648 638.021 77.3968 639.934 73.9803C641.847 70.4272 644.375 67.5574 647.519 65.3709C650.798 63.0477 654.488 61.3395 658.588 60.2462C662.688 59.153 666.924 58.6063 671.297 58.6063C677.993 58.6063 684.485 60.1096 690.771 63.1161C697.057 66.1225 701.772 70.3589 704.915 75.8252L694.256 83.8197Z" stroke="white" stroke-width="3.88864" mask="url(#path-1-outside-1_54_1207)"/>
</g>
</svg>
